ISO-10303-21;
HEADER;
/* Generated by software containing ST-Developer
 * from STEP Tools, Inc. (www.steptools.com) 
 */
/* OPTION: using custom renumber hook */

FILE_DESCRIPTION(
/* description */ ('STEP AP242 Edition 2',
'CAx-IF Rec.Pracs.---Representation and Presentation of Product Manufa
cturing Information (PMI)---4.0---2014-10-13',
'CAx-IF Rec.Pracs.---3D Tessellated Geometry---0.4---2014-09-14','2;1',
'CAx-IF Rec.Pracs.---User Defined Attributes---1.5---2016-08-15'),
/* implementation_level */ '2;1');

FILE_NAME(
/* name */ 'chasis up - chasis up',
/* time_stamp */ '2026-09-16T14:30:38Z',
/* author */ (''),
/* organization */ (''),
/* preprocessor_version */ 'ST-DEVELOPER v20',
/* originating_system */ 'ONSHAPE BY PTC INC, 1.220',
/* authorisation */ '  ');

FILE_SCHEMA (('AP242_MANAGED_MODEL_BASED_3D_ENGINEERING_MIM_LF { 1 0 10303 442 3 1 4 }'));
ENDSEC;

DATA;
#10=SHAPE_REPRESENTATION_RELATIONSHIP('','',#1277,#11);
#11=ADVANCED_BREP_SHAPE_REPRESENTATION('',(#1275),#2081);
#12=CONICAL_SURFACE('',#1317,0.0012,0.785398163397448);
#13=CONICAL_SURFACE('',#1318,0.0012,0.785398163397451);
#14=CONICAL_SURFACE('',#1353,0.0012,0.785398163397448);
#15=CONICAL_SURFACE('',#1354,0.0012,0.785398163397451);
#16=CONICAL_SURFACE('',#1369,0.0018,0.785398163397457);
#17=CONICAL_SURFACE('',#1371,0.0018,0.785398163397451);
#18=CONICAL_SURFACE('',#1373,0.0012,0.785398163397457);
#19=CONICAL_SURFACE('',#1375,0.0012,0.785398163397451);
#20=CYLINDRICAL_SURFACE('',#1309,0.0012);
#21=CYLINDRICAL_SURFACE('',#1313,0.0012);
#22=CYLINDRICAL_SURFACE('',#1315,0.0012);
#23=CYLINDRICAL_SURFACE('',#1331,0.0037);
#24=CYLINDRICAL_SURFACE('',#1335,0.0025);
#25=CYLINDRICAL_SURFACE('',#1337,0.0012);
#26=CYLINDRICAL_SURFACE('',#1346,0.0012);
#27=CYLINDRICAL_SURFACE('',#1349,0.0012);
#28=CYLINDRICAL_SURFACE('',#1351,0.0012);
#29=CYLINDRICAL_SURFACE('',#1361,0.0037);
#30=CYLINDRICAL_SURFACE('',#1365,0.0025);
#31=CYLINDRICAL_SURFACE('',#1367,0.0012);
#32=CIRCLE('',#1284,0.0012);
#33=CIRCLE('',#1285,0.0037);
#34=CIRCLE('',#1286,0.0012);
#35=CIRCLE('',#1287,0.0012);
#36=CIRCLE('',#1288,0.0037);
#37=CIRCLE('',#1289,0.0012);
#38=CIRCLE('',#1290,0.0012);
#39=CIRCLE('',#1291,0.0012);
#40=CIRCLE('',#1292,0.0012);
#41=CIRCLE('',#1293,0.0012);
#42=CIRCLE('',#1295,0.0018);
#43=CIRCLE('',#1296,0.0018);
#44=CIRCLE('',#1297,0.0018);
#45=CIRCLE('',#1298,0.0025);
#46=CIRCLE('',#1299,0.0025);
#47=CIRCLE('',#1300,0.0018);
#48=CIRCLE('',#1301,0.0018);
#49=CIRCLE('',#1302,0.0018);
#50=CIRCLE('',#1303,0.0018);
#51=CIRCLE('',#1304,0.0018);
#52=CIRCLE('',#1310,0.0012);
#53=CIRCLE('',#1314,0.0012);
#54=CIRCLE('',#1316,0.0012);
#55=CIRCLE('',#1325,0.0037);
#56=CIRCLE('',#1326,0.0037);
#57=CIRCLE('',#1338,0.0012);
#58=CIRCLE('',#1347,0.0012);
#59=CIRCLE('',#1350,0.0012);
#60=CIRCLE('',#1352,0.0012);
#61=CIRCLE('',#1368,0.0012);
#62=ELLIPSE('',#1282,0.00413672575837462,0.0037);
#63=ELLIPSE('',#1321,0.00279508497187473,0.0025);
#64=ELLIPSE('',#1328,0.00413672575837462,0.0037);
#65=ELLIPSE('',#1341,0.00413672575837462,0.0037);
#66=ELLIPSE('',#1356,0.00279508497187473,0.0025);
#67=ELLIPSE('',#1359,0.00413672575837462,0.0037);
#68=ORIENTED_EDGE('',*,*,#412,.F.);
#69=ORIENTED_EDGE('',*,*,#413,.F.);
#70=ORIENTED_EDGE('',*,*,#414,.T.);
#71=ORIENTED_EDGE('',*,*,#415,.F.);
#72=ORIENTED_EDGE('',*,*,#416,.F.);
#73=ORIENTED_EDGE('',*,*,#417,.T.);
#74=ORIENTED_EDGE('',*,*,#418,.T.);
#75=ORIENTED_EDGE('',*,*,#419,.F.);
#76=ORIENTED_EDGE('',*,*,#420,.T.);
#77=ORIENTED_EDGE('',*,*,#421,.T.);
#78=ORIENTED_EDGE('',*,*,#422,.F.);
#79=ORIENTED_EDGE('',*,*,#423,.T.);
#80=ORIENTED_EDGE('',*,*,#424,.T.);
#81=ORIENTED_EDGE('',*,*,#425,.F.);
#82=ORIENTED_EDGE('',*,*,#426,.T.);
#83=ORIENTED_EDGE('',*,*,#422,.T.);
#84=ORIENTED_EDGE('',*,*,#427,.F.);
#85=ORIENTED_EDGE('',*,*,#428,.F.);
#86=ORIENTED_EDGE('',*,*,#429,.F.);
#87=ORIENTED_EDGE('',*,*,#430,.T.);
#88=ORIENTED_EDGE('',*,*,#431,.T.);
#89=ORIENTED_EDGE('',*,*,#432,.F.);
#90=ORIENTED_EDGE('',*,*,#433,.T.);
#91=ORIENTED_EDGE('',*,*,#434,.F.);
#92=ORIENTED_EDGE('',*,*,#435,.F.);
#93=ORIENTED_EDGE('',*,*,#436,.T.);
#94=ORIENTED_EDGE('',*,*,#437,.F.);
#95=ORIENTED_EDGE('',*,*,#438,.F.);
#96=ORIENTED_EDGE('',*,*,#439,.F.);
#97=ORIENTED_EDGE('',*,*,#440,.T.);
#98=ORIENTED_EDGE('',*,*,#441,.T.);
#99=ORIENTED_EDGE('',*,*,#442,.T.);
#100=ORIENTED_EDGE('',*,*,#443,.T.);
#101=ORIENTED_EDGE('',*,*,#415,.T.);
#102=ORIENTED_EDGE('',*,*,#444,.F.);
#103=ORIENTED_EDGE('',*,*,#445,.T.);
#104=ORIENTED_EDGE('',*,*,#446,.T.);
#105=ORIENTED_EDGE('',*,*,#447,.T.);
#106=ORIENTED_EDGE('',*,*,#448,.F.);
#107=ORIENTED_EDGE('',*,*,#449,.F.);
#108=ORIENTED_EDGE('',*,*,#450,.T.);
#109=ORIENTED_EDGE('',*,*,#451,.F.);
#110=ORIENTED_EDGE('',*,*,#452,.F.);
#111=ORIENTED_EDGE('',*,*,#453,.T.);
#112=ORIENTED_EDGE('',*,*,#454,.T.);
#113=ORIENTED_EDGE('',*,*,#455,.F.);
#114=ORIENTED_EDGE('',*,*,#456,.F.);
#115=ORIENTED_EDGE('',*,*,#457,.F.);
#116=ORIENTED_EDGE('',*,*,#427,.T.);
#117=ORIENTED_EDGE('',*,*,#421,.F.);
#118=ORIENTED_EDGE('',*,*,#458,.F.);
#119=ORIENTED_EDGE('',*,*,#459,.F.);
#120=ORIENTED_EDGE('',*,*,#460,.F.);
#121=ORIENTED_EDGE('',*,*,#461,.F.);
#122=ORIENTED_EDGE('',*,*,#462,.T.);
#123=ORIENTED_EDGE('',*,*,#432,.T.);
#124=ORIENTED_EDGE('',*,*,#463,.T.);
#125=ORIENTED_EDGE('',*,*,#464,.T.);
#126=ORIENTED_EDGE('',*,*,#465,.F.);
#127=ORIENTED_EDGE('',*,*,#466,.F.);
#128=ORIENTED_EDGE('',*,*,#467,.F.);
#129=ORIENTED_EDGE('',*,*,#468,.T.);
#130=ORIENTED_EDGE('',*,*,#469,.T.);
#131=ORIENTED_EDGE('',*,*,#470,.T.);
#132=ORIENTED_EDGE('',*,*,#471,.T.);
#133=ORIENTED_EDGE('',*,*,#472,.F.);
#134=ORIENTED_EDGE('',*,*,#473,.F.);
#135=ORIENTED_EDGE('',*,*,#474,.F.);
#136=ORIENTED_EDGE('',*,*,#475,.T.);
#137=ORIENTED_EDGE('',*,*,#476,.T.);
#138=ORIENTED_EDGE('',*,*,#477,.T.);
#139=ORIENTED_EDGE('',*,*,#478,.F.);
#140=ORIENTED_EDGE('',*,*,#479,.F.);
#141=ORIENTED_EDGE('',*,*,#480,.T.);
#142=ORIENTED_EDGE('',*,*,#481,.T.);
#143=ORIENTED_EDGE('',*,*,#482,.T.);
#144=ORIENTED_EDGE('',*,*,#483,.F.);
#145=ORIENTED_EDGE('',*,*,#484,.F.);
#146=ORIENTED_EDGE('',*,*,#424,.F.);
#147=ORIENTED_EDGE('',*,*,#485,.T.);
#148=ORIENTED_EDGE('',*,*,#486,.T.);
#149=ORIENTED_EDGE('',*,*,#487,.T.);
#150=ORIENTED_EDGE('',*,*,#488,.T.);
#151=ORIENTED_EDGE('',*,*,#489,.T.);
#152=ORIENTED_EDGE('',*,*,#490,.T.);
#153=ORIENTED_EDGE('',*,*,#491,.T.);
#154=ORIENTED_EDGE('',*,*,#492,.T.);
#155=ORIENTED_EDGE('',*,*,#493,.T.);
#156=ORIENTED_EDGE('',*,*,#494,.T.);
#157=ORIENTED_EDGE('',*,*,#495,.F.);
#158=ORIENTED_EDGE('',*,*,#496,.F.);
#159=ORIENTED_EDGE('',*,*,#457,.T.);
#160=ORIENTED_EDGE('',*,*,#497,.F.);
#161=ORIENTED_EDGE('',*,*,#485,.F.);
#162=ORIENTED_EDGE('',*,*,#428,.T.);
#163=ORIENTED_EDGE('',*,*,#456,.T.);
#164=ORIENTED_EDGE('',*,*,#498,.F.);
#165=ORIENTED_EDGE('',*,*,#486,.F.);
#166=ORIENTED_EDGE('',*,*,#497,.T.);
#167=ORIENTED_EDGE('',*,*,#499,.F.);
#168=ORIENTED_EDGE('',*,*,#500,.T.);
#169=ORIENTED_EDGE('',*,*,#487,.F.);
#170=ORIENTED_EDGE('',*,*,#498,.T.);
#171=ORIENTED_EDGE('',*,*,#455,.T.);
#172=ORIENTED_EDGE('',*,*,#501,.F.);
#173=ORIENTED_EDGE('',*,*,#502,.T.);
#174=ORIENTED_EDGE('',*,*,#499,.T.);
#175=ORIENTED_EDGE('',*,*,#454,.F.);
#176=ORIENTED_EDGE('',*,*,#503,.F.);
#177=ORIENTED_EDGE('',*,*,#504,.T.);
#178=ORIENTED_EDGE('',*,*,#501,.T.);
#179=ORIENTED_EDGE('',*,*,#453,.F.);
#180=ORIENTED_EDGE('',*,*,#505,.F.);
#181=ORIENTED_EDGE('',*,*,#506,.T.);
#182=ORIENTED_EDGE('',*,*,#503,.T.);
#183=ORIENTED_EDGE('',*,*,#452,.T.);
#184=ORIENTED_EDGE('',*,*,#507,.F.);
#185=ORIENTED_EDGE('',*,*,#508,.T.);
#186=ORIENTED_EDGE('',*,*,#491,.F.);
#187=ORIENTED_EDGE('',*,*,#509,.T.);
#188=ORIENTED_EDGE('',*,*,#505,.T.);
#189=ORIENTED_EDGE('',*,*,#451,.T.);
#190=ORIENTED_EDGE('',*,*,#510,.T.);
#191=ORIENTED_EDGE('',*,*,#463,.F.);
#192=ORIENTED_EDGE('',*,*,#511,.T.);
#193=ORIENTED_EDGE('',*,*,#464,.F.);
#194=ORIENTED_EDGE('',*,*,#493,.F.);
#195=ORIENTED_EDGE('',*,*,#511,.F.);
#196=ORIENTED_EDGE('',*,*,#494,.F.);
#197=ORIENTED_EDGE('',*,*,#510,.F.);
#198=ORIENTED_EDGE('',*,*,#512,.F.);
#199=ORIENTED_EDGE('',*,*,#513,.T.);
#200=ORIENTED_EDGE('',*,*,#514,.T.);
#201=ORIENTED_EDGE('',*,*,#412,.T.);
#202=ORIENTED_EDGE('',*,*,#515,.F.);
#203=ORIENTED_EDGE('',*,*,#516,.F.);
#204=ORIENTED_EDGE('',*,*,#426,.F.);
#205=ORIENTED_EDGE('',*,*,#517,.T.);
#206=ORIENTED_EDGE('',*,*,#518,.T.);
#207=ORIENTED_EDGE('',*,*,#519,.F.);
#208=ORIENTED_EDGE('',*,*,#481,.F.);
#209=ORIENTED_EDGE('',*,*,#520,.F.);
#210=ORIENTED_EDGE('',*,*,#521,.T.);
#211=ORIENTED_EDGE('',*,*,#515,.T.);
#212=ORIENTED_EDGE('',*,*,#423,.F.);
#213=ORIENTED_EDGE('',*,*,#480,.F.);
#214=ORIENTED_EDGE('',*,*,#522,.F.);
#215=ORIENTED_EDGE('',*,*,#513,.F.);
#216=ORIENTED_EDGE('',*,*,#523,.F.);
#217=ORIENTED_EDGE('',*,*,#520,.T.);
#218=ORIENTED_EDGE('',*,*,#524,.F.);
#219=ORIENTED_EDGE('',*,*,#525,.T.);
#220=ORIENTED_EDGE('',*,*,#459,.T.);
#221=ORIENTED_EDGE('',*,*,#526,.F.);
#222=ORIENTED_EDGE('',*,*,#527,.F.);
#223=ORIENTED_EDGE('',*,*,#528,.T.);
#224=ORIENTED_EDGE('',*,*,#529,.T.);
#225=ORIENTED_EDGE('',*,*,#435,.T.);
#226=ORIENTED_EDGE('',*,*,#530,.F.);
#227=ORIENTED_EDGE('',*,*,#531,.T.);
#228=ORIENTED_EDGE('',*,*,#418,.F.);
#229=ORIENTED_EDGE('',*,*,#532,.F.);
#230=ORIENTED_EDGE('',*,*,#533,.T.);
#231=ORIENTED_EDGE('',*,*,#534,.F.);
#232=ORIENTED_EDGE('',*,*,#535,.F.);
#233=ORIENTED_EDGE('',*,*,#536,.F.);
#234=ORIENTED_EDGE('',*,*,#524,.T.);
#235=ORIENTED_EDGE('',*,*,#537,.T.);
#236=ORIENTED_EDGE('',*,*,#419,.T.);
#237=ORIENTED_EDGE('',*,*,#531,.F.);
#238=ORIENTED_EDGE('',*,*,#538,.F.);
#239=ORIENTED_EDGE('',*,*,#527,.T.);
#240=ORIENTED_EDGE('',*,*,#539,.T.);
#241=ORIENTED_EDGE('',*,*,#437,.T.);
#242=ORIENTED_EDGE('',*,*,#431,.F.);
#243=ORIENTED_EDGE('',*,*,#540,.F.);
#244=ORIENTED_EDGE('',*,*,#526,.T.);
#245=ORIENTED_EDGE('',*,*,#458,.T.);
#246=ORIENTED_EDGE('',*,*,#420,.F.);
#247=ORIENTED_EDGE('',*,*,#537,.F.);
#248=ORIENTED_EDGE('',*,*,#535,.T.);
#249=ORIENTED_EDGE('',*,*,#530,.T.);
#250=ORIENTED_EDGE('',*,*,#434,.T.);
#251=ORIENTED_EDGE('',*,*,#541,.T.);
#252=ORIENTED_EDGE('',*,*,#461,.T.);
#253=ORIENTED_EDGE('',*,*,#542,.F.);
#254=ORIENTED_EDGE('',*,*,#433,.F.);
#255=ORIENTED_EDGE('',*,*,#462,.F.);
#256=ORIENTED_EDGE('',*,*,#541,.F.);
#257=ORIENTED_EDGE('',*,*,#525,.F.);
#258=ORIENTED_EDGE('',*,*,#536,.T.);
#259=ORIENTED_EDGE('',*,*,#542,.T.);
#260=ORIENTED_EDGE('',*,*,#460,.T.);
#261=ORIENTED_EDGE('',*,*,#519,.T.);
#262=ORIENTED_EDGE('',*,*,#543,.F.);
#263=ORIENTED_EDGE('',*,*,#482,.F.);
#264=ORIENTED_EDGE('',*,*,#544,.F.);
#265=ORIENTED_EDGE('',*,*,#483,.T.);
#266=ORIENTED_EDGE('',*,*,#543,.T.);
#267=ORIENTED_EDGE('',*,*,#518,.F.);
#268=ORIENTED_EDGE('',*,*,#425,.T.);
#269=ORIENTED_EDGE('',*,*,#484,.T.);
#270=ORIENTED_EDGE('',*,*,#544,.T.);
#271=ORIENTED_EDGE('',*,*,#517,.F.);
#272=ORIENTED_EDGE('',*,*,#545,.T.);
#273=ORIENTED_EDGE('',*,*,#436,.F.);
#274=ORIENTED_EDGE('',*,*,#475,.F.);
#275=ORIENTED_EDGE('',*,*,#546,.T.);
#276=ORIENTED_EDGE('',*,*,#444,.T.);
#277=ORIENTED_EDGE('',*,*,#414,.F.);
#278=ORIENTED_EDGE('',*,*,#547,.F.);
#279=ORIENTED_EDGE('',*,*,#548,.T.);
#280=ORIENTED_EDGE('',*,*,#438,.T.);
#281=ORIENTED_EDGE('',*,*,#539,.F.);
#282=ORIENTED_EDGE('',*,*,#534,.T.);
#283=ORIENTED_EDGE('',*,*,#549,.T.);
#284=ORIENTED_EDGE('',*,*,#550,.F.);
#285=ORIENTED_EDGE('',*,*,#445,.F.);
#286=ORIENTED_EDGE('',*,*,#546,.F.);
#287=ORIENTED_EDGE('',*,*,#474,.T.);
#288=ORIENTED_EDGE('',*,*,#551,.T.);
#289=ORIENTED_EDGE('',*,*,#446,.F.);
#290=ORIENTED_EDGE('',*,*,#551,.F.);
#291=ORIENTED_EDGE('',*,*,#473,.T.);
#292=ORIENTED_EDGE('',*,*,#552,.T.);
#293=ORIENTED_EDGE('',*,*,#472,.T.);
#294=ORIENTED_EDGE('',*,*,#553,.T.);
#295=ORIENTED_EDGE('',*,*,#554,.T.);
#296=ORIENTED_EDGE('',*,*,#447,.F.);
#297=ORIENTED_EDGE('',*,*,#552,.F.);
#298=ORIENTED_EDGE('',*,*,#554,.F.);
#299=ORIENTED_EDGE('',*,*,#555,.T.);
#300=ORIENTED_EDGE('',*,*,#556,.T.);
#301=ORIENTED_EDGE('',*,*,#448,.T.);
#302=ORIENTED_EDGE('',*,*,#556,.F.);
#303=ORIENTED_EDGE('',*,*,#557,.T.);
#304=ORIENTED_EDGE('',*,*,#558,.T.);
#305=ORIENTED_EDGE('',*,*,#449,.T.);
#306=ORIENTED_EDGE('',*,*,#558,.F.);
#307=ORIENTED_EDGE('',*,*,#559,.T.);
#308=ORIENTED_EDGE('',*,*,#507,.T.);
#309=ORIENTED_EDGE('',*,*,#450,.F.);
#310=ORIENTED_EDGE('',*,*,#560,.F.);
#311=ORIENTED_EDGE('',*,*,#466,.T.);
#312=ORIENTED_EDGE('',*,*,#561,.F.);
#313=ORIENTED_EDGE('',*,*,#467,.T.);
#314=ORIENTED_EDGE('',*,*,#495,.T.);
#315=ORIENTED_EDGE('',*,*,#561,.T.);
#316=ORIENTED_EDGE('',*,*,#496,.T.);
#317=ORIENTED_EDGE('',*,*,#560,.T.);
#318=ORIENTED_EDGE('',*,*,#547,.T.);
#319=ORIENTED_EDGE('',*,*,#413,.T.);
#320=ORIENTED_EDGE('',*,*,#514,.F.);
#321=ORIENTED_EDGE('',*,*,#522,.T.);
#322=ORIENTED_EDGE('',*,*,#479,.T.);
#323=ORIENTED_EDGE('',*,*,#562,.T.);
#324=ORIENTED_EDGE('',*,*,#563,.F.);
#325=ORIENTED_EDGE('',*,*,#564,.F.);
#326=ORIENTED_EDGE('',*,*,#565,.T.);
#327=ORIENTED_EDGE('',*,*,#566,.T.);
#328=ORIENTED_EDGE('',*,*,#442,.F.);
#329=ORIENTED_EDGE('',*,*,#567,.F.);
#330=ORIENTED_EDGE('',*,*,#568,.T.);
#331=ORIENTED_EDGE('',*,*,#532,.T.);
#332=ORIENTED_EDGE('',*,*,#417,.F.);
#333=ORIENTED_EDGE('',*,*,#569,.F.);
#334=ORIENTED_EDGE('',*,*,#565,.F.);
#335=ORIENTED_EDGE('',*,*,#570,.T.);
#336=ORIENTED_EDGE('',*,*,#566,.F.);
#337=ORIENTED_EDGE('',*,*,#569,.T.);
#338=ORIENTED_EDGE('',*,*,#416,.T.);
#339=ORIENTED_EDGE('',*,*,#443,.F.);
#340=ORIENTED_EDGE('',*,*,#568,.F.);
#341=ORIENTED_EDGE('',*,*,#571,.T.);
#342=ORIENTED_EDGE('',*,*,#440,.F.);
#343=ORIENTED_EDGE('',*,*,#572,.F.);
#344=ORIENTED_EDGE('',*,*,#549,.F.);
#345=ORIENTED_EDGE('',*,*,#533,.F.);
#346=ORIENTED_EDGE('',*,*,#567,.T.);
#347=ORIENTED_EDGE('',*,*,#441,.F.);
#348=ORIENTED_EDGE('',*,*,#571,.F.);
#349=ORIENTED_EDGE('',*,*,#570,.F.);
#350=ORIENTED_EDGE('',*,*,#550,.T.);
#351=ORIENTED_EDGE('',*,*,#572,.T.);
#352=ORIENTED_EDGE('',*,*,#439,.T.);
#353=ORIENTED_EDGE('',*,*,#562,.F.);
#354=ORIENTED_EDGE('',*,*,#478,.T.);
#355=ORIENTED_EDGE('',*,*,#573,.T.);
#356=ORIENTED_EDGE('',*,*,#574,.T.);
#357=ORIENTED_EDGE('',*,*,#563,.T.);
#358=ORIENTED_EDGE('',*,*,#573,.F.);
#359=ORIENTED_EDGE('',*,*,#477,.F.);
#360=ORIENTED_EDGE('',*,*,#548,.F.);
#361=ORIENTED_EDGE('',*,*,#564,.T.);
#362=ORIENTED_EDGE('',*,*,#574,.F.);
#363=ORIENTED_EDGE('',*,*,#476,.F.);
#364=ORIENTED_EDGE('',*,*,#575,.T.);
#365=ORIENTED_EDGE('',*,*,#465,.T.);
#366=ORIENTED_EDGE('',*,*,#575,.F.);
#367=ORIENTED_EDGE('',*,*,#468,.F.);
#368=ORIENTED_EDGE('',*,*,#508,.F.);
#369=ORIENTED_EDGE('',*,*,#559,.F.);
#370=ORIENTED_EDGE('',*,*,#576,.F.);
#371=ORIENTED_EDGE('',*,*,#492,.F.);
#372=ORIENTED_EDGE('',*,*,#576,.T.);
#373=ORIENTED_EDGE('',*,*,#557,.F.);
#374=ORIENTED_EDGE('',*,*,#577,.F.);
#375=ORIENTED_EDGE('',*,*,#470,.F.);
#376=ORIENTED_EDGE('',*,*,#577,.T.);
#377=ORIENTED_EDGE('',*,*,#555,.F.);
#378=ORIENTED_EDGE('',*,*,#553,.F.);
#379=ORIENTED_EDGE('',*,*,#471,.F.);
#380=ORIENTED_EDGE('',*,*,#469,.F.);
#381=ORIENTED_EDGE('',*,*,#545,.F.);
#382=ORIENTED_EDGE('',*,*,#509,.F.);
#383=ORIENTED_EDGE('',*,*,#490,.F.);
#384=ORIENTED_EDGE('',*,*,#578,.F.);
#385=ORIENTED_EDGE('',*,*,#506,.F.);
#386=ORIENTED_EDGE('',*,*,#578,.T.);
#387=ORIENTED_EDGE('',*,*,#489,.F.);
#388=ORIENTED_EDGE('',*,*,#579,.F.);
#389=ORIENTED_EDGE('',*,*,#504,.F.);
#390=ORIENTED_EDGE('',*,*,#579,.T.);
#391=ORIENTED_EDGE('',*,*,#488,.F.);
#392=ORIENTED_EDGE('',*,*,#500,.F.);
#393=ORIENTED_EDGE('',*,*,#502,.F.);
#394=ORIENTED_EDGE('',*,*,#538,.T.);
#395=ORIENTED_EDGE('',*,*,#580,.T.);
#396=ORIENTED_EDGE('',*,*,#512,.T.);
#397=ORIENTED_EDGE('',*,*,#581,.F.);
#398=ORIENTED_EDGE('',*,*,#528,.F.);
#399=ORIENTED_EDGE('',*,*,#429,.T.);
#400=ORIENTED_EDGE('',*,*,#529,.F.);
#401=ORIENTED_EDGE('',*,*,#581,.T.);
#402=ORIENTED_EDGE('',*,*,#516,.T.);
#403=ORIENTED_EDGE('',*,*,#582,.F.);
#404=ORIENTED_EDGE('',*,*,#582,.T.);
#405=ORIENTED_EDGE('',*,*,#521,.F.);
#406=ORIENTED_EDGE('',*,*,#583,.F.);
#407=ORIENTED_EDGE('',*,*,#430,.F.);
#408=ORIENTED_EDGE('',*,*,#540,.T.);
#409=ORIENTED_EDGE('',*,*,#583,.T.);
#410=ORIENTED_EDGE('',*,*,#523,.T.);
#411=ORIENTED_EDGE('',*,*,#580,.F.);
#412=EDGE_CURVE('',#584,#585,#702,.T.);
#413=EDGE_CURVE('',#586,#584,#703,.F.);
#414=EDGE_CURVE('',#586,#587,#704,.T.);
#415=EDGE_CURVE('',#588,#587,#705,.T.);
#416=EDGE_CURVE('',#589,#588,#706,.T.);
#417=EDGE_CURVE('',#589,#590,#707,.T.);
#418=EDGE_CURVE('',#590,#591,#708,.T.);
#419=EDGE_CURVE('',#592,#591,#709,.T.);
#420=EDGE_CURVE('',#592,#593,#710,.T.);
#421=EDGE_CURVE('',#593,#594,#711,.T.);
#422=EDGE_CURVE('',#595,#594,#712,.T.);
#423=EDGE_CURVE('',#595,#585,#713,.F.);
#424=EDGE_CURVE('',#596,#597,#714,.T.);
#425=EDGE_CURVE('',#598,#597,#715,.T.);
#426=EDGE_CURVE('',#598,#595,#716,.F.);
#427=EDGE_CURVE('',#599,#594,#717,.T.);
#428=EDGE_CURVE('',#596,#599,#718,.T.);
#429=EDGE_CURVE('',#600,#601,#719,.F.);
#430=EDGE_CURVE('',#600,#602,#720,.F.);
#431=EDGE_CURVE('',#602,#603,#721,.F.);
#432=EDGE_CURVE('',#604,#603,#722,.F.);
#433=EDGE_CURVE('',#604,#605,#723,.F.);
#434=EDGE_CURVE('',#606,#605,#62,.F.);
#435=EDGE_CURVE('',#601,#606,#724,.F.);
#436=EDGE_CURVE('',#607,#607,#32,.T.);
#437=EDGE_CURVE('',#608,#603,#725,.T.);
#438=EDGE_CURVE('',#609,#608,#726,.F.);
#439=EDGE_CURVE('',#610,#609,#727,.T.);
#440=EDGE_CURVE('',#610,#611,#33,.T.);
#441=EDGE_CURVE('',#611,#612,#728,.T.);
#442=EDGE_CURVE('',#612,#613,#729,.T.);
#443=EDGE_CURVE('',#613,#588,#730,.T.);
#444=EDGE_CURVE('',#614,#587,#731,.T.);
#445=EDGE_CURVE('',#614,#615,#732,.T.);
#446=EDGE_CURVE('',#615,#616,#733,.T.);
#447=EDGE_CURVE('',#616,#617,#734,.T.);
#448=EDGE_CURVE('',#618,#617,#735,.T.);
#449=EDGE_CURVE('',#619,#618,#34,.T.);
#450=EDGE_CURVE('',#619,#620,#736,.T.);
#451=EDGE_CURVE('',#621,#620,#737,.T.);
#452=EDGE_CURVE('',#622,#621,#738,.T.);
#453=EDGE_CURVE('',#622,#623,#35,.T.);
#454=EDGE_CURVE('',#623,#624,#739,.T.);
#455=EDGE_CURVE('',#625,#624,#740,.T.);
#456=EDGE_CURVE('',#626,#625,#741,.T.);
#457=EDGE_CURVE('',#599,#626,#742,.T.);
#458=EDGE_CURVE('',#627,#593,#743,.T.);
#459=EDGE_CURVE('',#628,#627,#744,.T.);
#460=EDGE_CURVE('',#629,#628,#745,.T.);
#461=EDGE_CURVE('',#630,#629,#36,.T.);
#462=EDGE_CURVE('',#630,#604,#746,.T.);
#463=EDGE_CURVE('',#631,#631,#37,.T.);
#464=EDGE_CURVE('',#632,#632,#38,.T.);
#465=EDGE_CURVE('',#633,#633,#39,.T.);
#466=EDGE_CURVE('',#634,#634,#40,.T.);
#467=EDGE_CURVE('',#635,#635,#41,.T.);
#468=EDGE_CURVE('',#636,#636,#42,.F.);
#469=EDGE_CURVE('',#637,#637,#43,.F.);
#470=EDGE_CURVE('',#638,#639,#44,.F.);
#471=EDGE_CURVE('',#639,#640,#747,.T.);
#472=EDGE_CURVE('',#641,#640,#748,.T.);
#473=EDGE_CURVE('',#642,#641,#749,.T.);
#474=EDGE_CURVE('',#643,#642,#750,.T.);
#475=EDGE_CURVE('',#643,#644,#751,.T.);
#476=EDGE_CURVE('',#644,#645,#752,.T.);
#477=EDGE_CURVE('',#645,#646,#45,.F.);
#478=EDGE_CURVE('',#647,#646,#753,.T.);
#479=EDGE_CURVE('',#648,#647,#754,.T.);
#480=EDGE_CURVE('',#648,#649,#755,.T.);
#481=EDGE_CURVE('',#649,#650,#756,.T.);
#482=EDGE_CURVE('',#650,#651,#757,.T.);
#483=EDGE_CURVE('',#652,#651,#46,.F.);
#484=EDGE_CURVE('',#597,#652,#758,.T.);
#485=EDGE_CURVE('',#596,#653,#759,.T.);
#486=EDGE_CURVE('',#653,#654,#760,.T.);
#487=EDGE_CURVE('',#654,#655,#761,.T.);
#488=EDGE_CURVE('',#655,#656,#762,.T.);
#489=EDGE_CURVE('',#656,#657,#47,.F.);
#490=EDGE_CURVE('',#657,#658,#763,.T.);
#491=EDGE_CURVE('',#658,#659,#764,.T.);
#492=EDGE_CURVE('',#659,#638,#765,.T.);
#493=EDGE_CURVE('',#660,#660,#48,.F.);
#494=EDGE_CURVE('',#661,#661,#49,.F.);
#495=EDGE_CURVE('',#662,#662,#50,.F.);
#496=EDGE_CURVE('',#663,#663,#51,.F.);
#497=EDGE_CURVE('',#653,#626,#766,.T.);
#498=EDGE_CURVE('',#654,#625,#767,.T.);
#499=EDGE_CURVE('',#664,#624,#768,.T.);
#500=EDGE_CURVE('',#664,#655,#769,.F.);
#501=EDGE_CURVE('',#665,#623,#770,.T.);
#502=EDGE_CURVE('',#665,#664,#771,.T.);
#503=EDGE_CURVE('',#666,#622,#772,.T.);
#504=EDGE_CURVE('',#666,#665,#52,.T.);
#505=EDGE_CURVE('',#667,#621,#773,.T.);
#506=EDGE_CURVE('',#667,#666,#774,.T.);
#507=EDGE_CURVE('',#668,#620,#775,.T.);
#508=EDGE_CURVE('',#668,#659,#776,.T.);
#509=EDGE_CURVE('',#658,#667,#777,.T.);
#510=EDGE_CURVE('',#669,#669,#53,.T.);
#511=EDGE_CURVE('',#670,#670,#54,.T.);
#512=EDGE_CURVE('',#671,#672,#778,.T.);
#513=EDGE_CURVE('',#671,#673,#779,.T.);
#514=EDGE_CURVE('',#673,#584,#780,.T.);
#515=EDGE_CURVE('',#674,#585,#781,.T.);
#516=EDGE_CURVE('',#672,#674,#782,.T.);
#517=EDGE_CURVE('',#598,#675,#783,.F.);
#518=EDGE_CURVE('',#675,#676,#63,.F.);
#519=EDGE_CURVE('',#650,#676,#784,.F.);
#520=EDGE_CURVE('',#677,#649,#785,.T.);
#521=EDGE_CURVE('',#677,#674,#786,.T.);
#522=EDGE_CURVE('',#673,#648,#787,.T.);
#523=EDGE_CURVE('',#677,#671,#788,.T.);
#524=EDGE_CURVE('',#678,#679,#789,.F.);
#525=EDGE_CURVE('',#678,#628,#790,.T.);
#526=EDGE_CURVE('',#679,#627,#791,.T.);
#527=EDGE_CURVE('',#680,#681,#792,.T.);
#528=EDGE_CURVE('',#680,#682,#793,.T.);
#529=EDGE_CURVE('',#682,#601,#794,.T.);
#530=EDGE_CURVE('',#683,#606,#55,.F.);
#531=EDGE_CURVE('',#683,#591,#795,.F.);
#532=EDGE_CURVE('',#684,#590,#796,.F.);
#533=EDGE_CURVE('',#684,#685,#56,.F.);
#534=EDGE_CURVE('',#681,#685,#797,.F.);
#535=EDGE_CURVE('',#686,#683,#64,.F.);
#536=EDGE_CURVE('',#678,#686,#798,.F.);
#537=EDGE_CURVE('',#679,#592,#799,.T.);
#538=EDGE_CURVE('',#680,#687,#800,.T.);
#539=EDGE_CURVE('',#681,#608,#801,.F.);
#540=EDGE_CURVE('',#687,#602,#802,.T.);
#541=EDGE_CURVE('',#605,#630,#803,.T.);
#542=EDGE_CURVE('',#686,#629,#804,.T.);
#543=EDGE_CURVE('',#651,#676,#805,.T.);
#544=EDGE_CURVE('',#652,#675,#806,.T.);
#545=EDGE_CURVE('',#688,#688,#57,.T.);
#546=EDGE_CURVE('',#643,#614,#807,.T.);
#547=EDGE_CURVE('',#689,#586,#808,.F.);
#548=EDGE_CURVE('',#689,#644,#809,.T.);
#549=EDGE_CURVE('',#685,#690,#65,.F.);
#550=EDGE_CURVE('',#609,#690,#810,.F.);
#551=EDGE_CURVE('',#642,#615,#811,.T.);
#552=EDGE_CURVE('',#641,#616,#812,.T.);
#553=EDGE_CURVE('',#640,#691,#813,.F.);
#554=EDGE_CURVE('',#691,#617,#814,.T.);
#555=EDGE_CURVE('',#691,#692,#815,.T.);
#556=EDGE_CURVE('',#692,#618,#816,.T.);
#557=EDGE_CURVE('',#692,#693,#58,.T.);
#558=EDGE_CURVE('',#693,#619,#817,.T.);
#559=EDGE_CURVE('',#693,#668,#818,.T.);
#560=EDGE_CURVE('',#694,#694,#59,.T.);
#561=EDGE_CURVE('',#695,#695,#60,.T.);
#562=EDGE_CURVE('',#647,#696,#819,.F.);
#563=EDGE_CURVE('',#697,#696,#66,.F.);
#564=EDGE_CURVE('',#689,#697,#820,.F.);
#565=EDGE_CURVE('',#698,#699,#821,.F.);
#566=EDGE_CURVE('',#699,#613,#822,.T.);
#567=EDGE_CURVE('',#698,#612,#823,.T.);
#568=EDGE_CURVE('',#700,#684,#67,.F.);
#569=EDGE_CURVE('',#699,#589,#824,.T.);
#570=EDGE_CURVE('',#698,#700,#825,.F.);
#571=EDGE_CURVE('',#700,#611,#826,.T.);
#572=EDGE_CURVE('',#690,#610,#827,.T.);
#573=EDGE_CURVE('',#646,#696,#828,.T.);
#574=EDGE_CURVE('',#645,#697,#829,.T.);
#575=EDGE_CURVE('',#701,#701,#61,.T.);
#576=EDGE_CURVE('',#638,#693,#830,.T.);
#577=EDGE_CURVE('',#639,#692,#831,.T.);
#578=EDGE_CURVE('',#666,#657,#832,.T.);
#579=EDGE_CURVE('',#665,#656,#833,.T.);
#580=EDGE_CURVE('',#687,#671,#834,.T.);
#581=EDGE_CURVE('',#682,#672,#835,.T.);
#582=EDGE_CURVE('',#600,#674,#836,.T.);
#583=EDGE_CURVE('',#602,#677,#837,.T.);
#584=VERTEX_POINT('',#1726);
#585=VERTEX_POINT('',#1727);
#586=VERTEX_POINT('',#1729);
#587=VERTEX_POINT('',#1731);
#588=VERTEX_POINT('',#1733);
#589=VERTEX_POINT('',#1735);
#590=VERTEX_POINT('',#1737);
#591=VERTEX_POINT('',#1739);
#592=VERTEX_POINT('',#1741);
#593=VERTEX_POINT('',#1743);
#594=VERTEX_POINT('',#1745);
#595=VERTEX_POINT('',#1747);
#596=VERTEX_POINT('',#1751);
#597=VERTEX_POINT('',#1752);
#598=VERTEX_POINT('',#1754);
#599=VERTEX_POINT('',#1757);
#600=VERTEX_POINT('',#1761);
#601=VERTEX_POINT('',#1762);
#602=VERTEX_POINT('',#1764);
#603=VERTEX_POINT('',#1766);
#604=VERTEX_POINT('',#1768);
#605=VERTEX_POINT('',#1770);
#606=VERTEX_POINT('',#1772);
#607=VERTEX_POINT('',#1776);
#608=VERTEX_POINT('',#1778);
#609=VERTEX_POINT('',#1780);
#610=VERTEX_POINT('',#1782);
#611=VERTEX_POINT('',#1784);
#612=VERTEX_POINT('',#1786);
#613=VERTEX_POINT('',#1788);
#614=VERTEX_POINT('',#1791);
#615=VERTEX_POINT('',#1793);
#616=VERTEX_POINT('',#1795);
#617=VERTEX_POINT('',#1797);
#618=VERTEX_POINT('',#1799);
#619=VERTEX_POINT('',#1801);
#620=VERTEX_POINT('',#1803);
#621=VERTEX_POINT('',#1805);
#622=VERTEX_POINT('',#1807);
#623=VERTEX_POINT('',#1809);
#624=VERTEX_POINT('',#1811);
#625=VERTEX_POINT('',#1813);
#626=VERTEX_POINT('',#1815);
#627=VERTEX_POINT('',#1818);
#628=VERTEX_POINT('',#1820);
#629=VERTEX_POINT('',#1822);
#630=VERTEX_POINT('',#1824);
#631=VERTEX_POINT('',#1827);
#632=VERTEX_POINT('',#1829);
#633=VERTEX_POINT('',#1831);
#634=VERTEX_POINT('',#1833);
#635=VERTEX_POINT('',#1835);
#636=VERTEX_POINT('',#1838);
#637=VERTEX_POINT('',#1840);
#638=VERTEX_POINT('',#1842);
#639=VERTEX_POINT('',#1843);
#640=VERTEX_POINT('',#1845);
#641=VERTEX_POINT('',#1847);
#642=VERTEX_POINT('',#1849);
#643=VERTEX_POINT('',#1851);
#644=VERTEX_POINT('',#1853);
#645=VERTEX_POINT('',#1855);
#646=VERTEX_POINT('',#1857);
#647=VERTEX_POINT('',#1859);
#648=VERTEX_POINT('',#1861);
#649=VERTEX_POINT('',#1863);
#650=VERTEX_POINT('',#1865);
#651=VERTEX_POINT('',#1867);
#652=VERTEX_POINT('',#1869);
#653=VERTEX_POINT('',#1872);
#654=VERTEX_POINT('',#1874);
#655=VERTEX_POINT('',#1876);
#656=VERTEX_POINT('',#1878);
#657=VERTEX_POINT('',#1880);
#658=VERTEX_POINT('',#1882);
#659=VERTEX_POINT('',#1884);
#660=VERTEX_POINT('',#1887);
#661=VERTEX_POINT('',#1889);
#662=VERTEX_POINT('',#1891);
#663=VERTEX_POINT('',#1893);
#664=VERTEX_POINT('',#1900);
#665=VERTEX_POINT('',#1904);
#666=VERTEX_POINT('',#1908);
#667=VERTEX_POINT('',#1912);
#668=VERTEX_POINT('',#1916);
#669=VERTEX_POINT('',#1921);
#670=VERTEX_POINT('',#1924);
#671=VERTEX_POINT('',#1929);
#672=VERTEX_POINT('',#1930);
#673=VERTEX_POINT('',#1932);
#674=VERTEX_POINT('',#1935);
#675=VERTEX_POINT('',#1939);
#676=VERTEX_POINT('',#1941);
#677=VERTEX_POINT('',#1944);
#678=VERTEX_POINT('',#1951);
#679=VERTEX_POINT('',#1952);
#680=VERTEX_POINT('',#1957);
#681=VERTEX_POINT('',#1958);
#682=VERTEX_POINT('',#1960);
#683=VERTEX_POINT('',#1963);
#684=VERTEX_POINT('',#1966);
#685=VERTEX_POINT('',#1968);
#686=VERTEX_POINT('',#1972);
#687=VERTEX_POINT('',#1977);
#688=VERTEX_POINT('',#1993);
#689=VERTEX_POINT('',#1997);
#690=VERTEX_POINT('',#2001);
#691=VERTEX_POINT('',#2009);
#692=VERTEX_POINT('',#2013);
#693=VERTEX_POINT('',#2017);
#694=VERTEX_POINT('',#2023);
#695=VERTEX_POINT('',#2026);
#696=VERTEX_POINT('',#2031);
#697=VERTEX_POINT('',#2033);
#698=VERTEX_POINT('',#2037);
#699=VERTEX_POINT('',#2038);
#700=VERTEX_POINT('',#2043);
#701=VERTEX_POINT('',#2059);
#702=LINE('',#1725,#838);
#703=LINE('',#1728,#839);
#704=LINE('',#1730,#840);
#705=LINE('',#1732,#841);
#706=LINE('',#1734,#842);
#707=LINE('',#1736,#843);
#708=LINE('',#1738,#844);
#709=LINE('',#1740,#845);
#710=LINE('',#1742,#846);
#711=LINE('',#1744,#847);
#712=LINE('',#1746,#848);
#713=LINE('',#1748,#849);
#714=LINE('',#1750,#850);
#715=LINE('',#1753,#851);
#716=LINE('',#1755,#852);
#717=LINE('',#1756,#853);
#718=LINE('',#1758,#854);
#719=LINE('',#1760,#855);
#720=LINE('',#1763,#856);
#721=LINE('',#1765,#857);
#722=LINE('',#1767,#858);
#723=LINE('',#1769,#859);
#724=LINE('',#1773,#860);
#725=LINE('',#1777,#861);
#726=LINE('',#1779,#862);
#727=LINE('',#1781,#863);
#728=LINE('',#1785,#864);
#729=LINE('',#1787,#865);
#730=LINE('',#1789,#866);
#731=LINE('',#1790,#867);
#732=LINE('',#1792,#868);
#733=LINE('',#1794,#869);
#734=LINE('',#1796,#870);
#735=LINE('',#1798,#871);
#736=LINE('',#1802,#872);
#737=LINE('',#1804,#873);
#738=LINE('',#1806,#874);
#739=LINE('',#1810,#875);
#740=LINE('',#1812,#876);
#741=LINE('',#1814,#877);
#742=LINE('',#1816,#878);
#743=LINE('',#1817,#879);
#744=LINE('',#1819,#880);
#745=LINE('',#1821,#881);
#746=LINE('',#1825,#882);
#747=LINE('',#1844,#883);
#748=LINE('',#1846,#884);
#749=LINE('',#1848,#885);
#750=LINE('',#1850,#886);
#751=LINE('',#1852,#887);
#752=LINE('',#1854,#888);
#753=LINE('',#1858,#889);
#754=LINE('',#1860,#890);
#755=LINE('',#1862,#891);
#756=LINE('',#1864,#892);
#757=LINE('',#1866,#893);
#758=LINE('',#1870,#894);
#759=LINE('',#1871,#895);
#760=LINE('',#1873,#896);
#761=LINE('',#1875,#897);
#762=LINE('',#1877,#898);
#763=LINE('',#1881,#899);
#764=LINE('',#1883,#900);
#765=LINE('',#1885,#901);
#766=LINE('',#1895,#902);
#767=LINE('',#1897,#903);
#768=LINE('',#1899,#904);
#769=LINE('',#1901,#905);
#770=LINE('',#1903,#906);
#771=LINE('',#1905,#907);
#772=LINE('',#1907,#908);
#773=LINE('',#1911,#909);
#774=LINE('',#1913,#910);
#775=LINE('',#1915,#911);
#776=LINE('',#1917,#912);
#777=LINE('',#1918,#913);
#778=LINE('',#1928,#914);
#779=LINE('',#1931,#915);
#780=LINE('',#1933,#916);
#781=LINE('',#1934,#917);
#782=LINE('',#1936,#918);
#783=LINE('',#1938,#919);
#784=LINE('',#1942,#920);
#785=LINE('',#1943,#921);
#786=LINE('',#1945,#922);
#787=LINE('',#1947,#923);
#788=LINE('',#1948,#924);
#789=LINE('',#1950,#925);
#790=LINE('',#1953,#926);
#791=LINE('',#1954,#927);
#792=LINE('',#1956,#928);
#793=LINE('',#1959,#929);
#794=LINE('',#1961,#930);
#795=LINE('',#1964,#931);
#796=LINE('',#1965,#932);
#797=LINE('',#1969,#933);
#798=LINE('',#1973,#934);
#799=LINE('',#1974,#935);
#800=LINE('',#1976,#936);
#801=LINE('',#1978,#937);
#802=LINE('',#1979,#938);
#803=LINE('',#1982,#939);
#804=LINE('',#1983,#940);
#805=LINE('',#1987,#941);
#806=LINE('',#1989,#942);
#807=LINE('',#1995,#943);
#808=LINE('',#1996,#944);
#809=LINE('',#1998,#945);
#810=LINE('',#2002,#946);
#811=LINE('',#2004,#947);
#812=LINE('',#2006,#948);
#813=LINE('',#2008,#949);
#814=LINE('',#2010,#950);
#815=LINE('',#2012,#951);
#816=LINE('',#2014,#952);
#817=LINE('',#2018,#953);
#818=LINE('',#2020,#954);
#819=LINE('',#2030,#955);
#820=LINE('',#2034,#956);
#821=LINE('',#2036,#957);
#822=LINE('',#2039,#958);
#823=LINE('',#2040,#959);
#824=LINE('',#2044,#960);
#825=LINE('',#2045,#961);
#826=LINE('',#2048,#962);
#827=LINE('',#2049,#963);
#828=LINE('',#2053,#964);
#829=LINE('',#2055,#965);
#830=LINE('',#2062,#966);
#831=LINE('',#2064,#967);
#832=LINE('',#2068,#968);
#833=LINE('',#2070,#969);
#834=LINE('',#2073,#970);
#835=LINE('',#2074,#971);
#836=LINE('',#2076,#972);
#837=LINE('',#2078,#973);
#838=VECTOR('',#1385,1.);
#839=VECTOR('',#1386,1.);
#840=VECTOR('',#1387,1.);
#841=VECTOR('',#1388,1.);
#842=VECTOR('',#1389,1.);
#843=VECTOR('',#1390,1.);
#844=VECTOR('',#1391,1.);
#845=VECTOR('',#1392,1.);
#846=VECTOR('',#1393,1.);
#847=VECTOR('',#1394,1.);
#848=VECTOR('',#1395,1.);
#849=VECTOR('',#1396,1.);
#850=VECTOR('',#1399,1.);
#851=VECTOR('',#1400,1.);
#852=VECTOR('',#1401,1.);
#853=VECTOR('',#1402,1.);
#854=VECTOR('',#1403,1.);
#855=VECTOR('',#1406,1.);
#856=VECTOR('',#1407,1.);
#857=VECTOR('',#1408,1.);
#858=VECTOR('',#1409,1.);
#859=VECTOR('',#1410,1.);
#860=VECTOR('',#1413,1.);
#861=VECTOR('',#1418,1.);
#862=VECTOR('',#1419,1.);
#863=VECTOR('',#1420,1.);
#864=VECTOR('',#1423,1.);
#865=VECTOR('',#1424,1.);
#866=VECTOR('',#1425,1.);
#867=VECTOR('',#1426,1.);
#868=VECTOR('',#1427,1.);
#869=VECTOR('',#1428,1.);
#870=VECTOR('',#1429,1.);
#871=VECTOR('',#1430,1.);
#872=VECTOR('',#1433,1.);
#873=VECTOR('',#1434,1.);
#874=VECTOR('',#1435,1.);
#875=VECTOR('',#1438,1.);
#876=VECTOR('',#1439,1.);
#877=VECTOR('',#1440,1.);
#878=VECTOR('',#1441,1.);
#879=VECTOR('',#1442,1.);
#880=VECTOR('',#1443,1.);
#881=VECTOR('',#1444,1.);
#882=VECTOR('',#1447,1.);
#883=VECTOR('',#1466,1.);
#884=VECTOR('',#1467,1.);
#885=VECTOR('',#1468,1.);
#886=VECTOR('',#1469,1.);
#887=VECTOR('',#1470,1.);
#888=VECTOR('',#1471,1.);
#889=VECTOR('',#1474,1.);
#890=VECTOR('',#1475,1.);
#891=VECTOR('',#1476,1.);
#892=VECTOR('',#1477,1.);
#893=VECTOR('',#1478,1.);
#894=VECTOR('',#1481,1.);
#895=VECTOR('',#1482,1.);
#896=VECTOR('',#1483,1.);
#897=VECTOR('',#1484,1.);
#898=VECTOR('',#1485,1.);
#899=VECTOR('',#1488,1.);
#900=VECTOR('',#1489,1.);
#901=VECTOR('',#1490,1.);
#902=VECTOR('',#1501,1.);
#903=VECTOR('',#1504,1.);
#904=VECTOR('',#1507,1.);
#905=VECTOR('',#1508,1.);
#906=VECTOR('',#1511,1.);
#907=VECTOR('',#1512,1.);
#908=VECTOR('',#1515,1.);
#909=VECTOR('',#1520,1.);
#910=VECTOR('',#1521,1.);
#911=VECTOR('',#1524,1.);
#912=VECTOR('',#1525,1.);
#913=VECTOR('',#1526,1.);
#914=VECTOR('',#1541,1.);
#915=VECTOR('',#1542,1.);
#916=VECTOR('',#1543,1.);
#917=VECTOR('',#1544,1.);
#918=VECTOR('',#1545,1.);
#919=VECTOR('',#1548,1.);
#920=VECTOR('',#1551,1.);
#921=VECTOR('',#1552,1.);
#922=VECTOR('',#1553,1.);
#923=VECTOR('',#1556,1.);
#924=VECTOR('',#1557,1.);
#925=VECTOR('',#1560,1.);
#926=VECTOR('',#1561,1.);
#927=VECTOR('',#1562,1.);
#928=VECTOR('',#1565,1.);
#929=VECTOR('',#1566,1.);
#930=VECTOR('',#1567,1.);
#931=VECTOR('',#1570,1.);
#932=VECTOR('',#1571,1.);
#933=VECTOR('',#1574,1.);
#934=VECTOR('',#1579,1.);
#935=VECTOR('',#1580,1.);
#936=VECTOR('',#1583,1.);
#937=VECTOR('',#1584,1.);
#938=VECTOR('',#1585,1.);
#939=VECTOR('',#1590,1.);
#940=VECTOR('',#1591,1.);
#941=VECTOR('',#1598,1.);
#942=VECTOR('',#1601,1.);
#943=VECTOR('',#1610,1.);
#944=VECTOR('',#1611,1.);
#945=VECTOR('',#1612,1.);
#946=VECTOR('',#1617,1.);
#947=VECTOR('',#1620,1.);
#948=VECTOR('',#1623,1.);
#949=VECTOR('',#1626,1.);
#950=VECTOR('',#1627,1.);
#951=VECTOR('',#1630,1.);
#952=VECTOR('',#1631,1.);
#953=VECTOR('',#1636,1.);
#954=VECTOR('',#1639,1.);
#955=VECTOR('',#1654,1.);
#956=VECTOR('',#1657,1.);
#957=VECTOR('',#1660,1.);
#958=VECTOR('',#1661,1.);
#959=VECTOR('',#1662,1.);
#960=VECTOR('',#1667,1.);
#961=VECTOR('',#1668,1.);
#962=VECTOR('',#1673,1.);
#963=VECTOR('',#1674,1.);
#964=VECTOR('',#1681,1.);
#965=VECTOR('',#1684,1.);
#966=VECTOR('',#1695,1.);
#967=VECTOR('',#1698,1.);
#968=VECTOR('',#1705,1.);
#969=VECTOR('',#1708,1.);
#970=VECTOR('',#1713,1.);
#971=VECTOR('',#1714,1.);
#972=VECTOR('',#1717,1.);
#973=VECTOR('',#1720,1.);
#974=EDGE_LOOP('',(#68,#69,#70,#71,#72,#73,#74,#75,#76,#77,#78,#79));
#975=EDGE_LOOP('',(#80,#81,#82,#83,#84,#85));
#976=EDGE_LOOP('',(#86,#87,#88,#89,#90,#91,#92));
#977=EDGE_LOOP('',(#93));
#978=EDGE_LOOP('',(#94,#95,#96,#97,#98,#99,#100,#101,#102,#103,#104,#105,
#106,#107,#108,#109,#110,#111,#112,#113,#114,#115,#116,#117,#118,#119,#120,
#121,#122,#123));
#979=EDGE_LOOP('',(#124));
#980=EDGE_LOOP('',(#125));
#981=EDGE_LOOP('',(#126));
#982=EDGE_LOOP('',(#127));
#983=EDGE_LOOP('',(#128));
#984=EDGE_LOOP('',(#129));
#985=EDGE_LOOP('',(#130));
#986=EDGE_LOOP('',(#131,#132,#133,#134,#135,#136,#137,#138,#139,#140,#141,
#142,#143,#144,#145,#146,#147,#148,#149,#150,#151,#152,#153,#154));
#987=EDGE_LOOP('',(#155));
#988=EDGE_LOOP('',(#156));
#989=EDGE_LOOP('',(#157));
#990=EDGE_LOOP('',(#158));
#991=EDGE_LOOP('',(#159,#160,#161,#162));
#992=EDGE_LOOP('',(#163,#164,#165,#166));
#993=EDGE_LOOP('',(#167,#168,#169,#170,#171));
#994=EDGE_LOOP('',(#172,#173,#174,#175));
#995=EDGE_LOOP('',(#176,#177,#178,#179));
#996=EDGE_LOOP('',(#180,#181,#182,#183));
#997=EDGE_LOOP('',(#184,#185,#186,#187,#188,#189));
#998=EDGE_LOOP('',(#190));
#999=EDGE_LOOP('',(#191));
#1000=EDGE_LOOP('',(#192));
#1001=EDGE_LOOP('',(#193));
#1002=EDGE_LOOP('',(#194));
#1003=EDGE_LOOP('',(#195));
#1004=EDGE_LOOP('',(#196));
#1005=EDGE_LOOP('',(#197));
#1006=EDGE_LOOP('',(#198,#199,#200,#201,#202,#203));
#1007=EDGE_LOOP('',(#204,#205,#206,#207,#208,#209,#210,#211,#212));
#1008=EDGE_LOOP('',(#213,#214,#215,#216,#217));
#1009=EDGE_LOOP('',(#218,#219,#220,#221));
#1010=EDGE_LOOP('',(#222,#223,#224,#225,#226,#227,#228,#229,#230,#231));
#1011=EDGE_LOOP('',(#232,#233,#234,#235,#236,#237));
#1012=EDGE_LOOP('',(#238,#239,#240,#241,#242,#243));
#1013=EDGE_LOOP('',(#244,#245,#246,#247));
#1014=EDGE_LOOP('',(#248,#249,#250,#251,#252,#253));
#1015=EDGE_LOOP('',(#254,#255,#256));
#1016=EDGE_LOOP('',(#257,#258,#259,#260));
#1017=EDGE_LOOP('',(#261,#262,#263));
#1018=EDGE_LOOP('',(#264,#265,#266,#267));
#1019=EDGE_LOOP('',(#268,#269,#270,#271));
#1020=EDGE_LOOP('',(#272));
#1021=EDGE_LOOP('',(#273));
#1022=EDGE_LOOP('',(#274,#275,#276,#277,#278,#279));
#1023=EDGE_LOOP('',(#280,#281,#282,#283,#284));
#1024=EDGE_LOOP('',(#285,#286,#287,#288));
#1025=EDGE_LOOP('',(#289,#290,#291,#292));
#1026=EDGE_LOOP('',(#293,#294,#295,#296,#297));
#1027=EDGE_LOOP('',(#298,#299,#300,#301));
#1028=EDGE_LOOP('',(#302,#303,#304,#305));
#1029=EDGE_LOOP('',(#306,#307,#308,#309));
#1030=EDGE_LOOP('',(#310));
#1031=EDGE_LOOP('',(#311));
#1032=EDGE_LOOP('',(#312));
#1033=EDGE_LOOP('',(#313));
#1034=EDGE_LOOP('',(#314));
#1035=EDGE_LOOP('',(#315));
#1036=EDGE_LOOP('',(#316));
#1037=EDGE_LOOP('',(#317));
#1038=EDGE_LOOP('',(#318,#319,#320,#321,#322,#323,#324,#325));
#1039=EDGE_LOOP('',(#326,#327,#328,#329));
#1040=EDGE_LOOP('',(#330,#331,#332,#333,#334,#335));
#1041=EDGE_LOOP('',(#336,#337,#338,#339));
#1042=EDGE_LOOP('',(#340,#341,#342,#343,#344,#345));
#1043=EDGE_LOOP('',(#346,#347,#348,#349));
#1044=EDGE_LOOP('',(#350,#351,#352));
#1045=EDGE_LOOP('',(#353,#354,#355));
#1046=EDGE_LOOP('',(#356,#357,#358,#359));
#1047=EDGE_LOOP('',(#360,#361,#362,#363));
#1048=EDGE_LOOP('',(#364));
#1049=EDGE_LOOP('',(#365));
#1050=EDGE_LOOP('',(#366));
#1051=EDGE_LOOP('',(#367));
#1052=EDGE_LOOP('',(#368,#369,#370,#371));
#1053=EDGE_LOOP('',(#372,#373,#374,#375));
#1054=EDGE_LOOP('',(#376,#377,#378,#379));
#1055=EDGE_LOOP('',(#380));
#1056=EDGE_LOOP('',(#381));
#1057=EDGE_LOOP('',(#382,#383,#384,#385));
#1058=EDGE_LOOP('',(#386,#387,#388,#389));
#1059=EDGE_LOOP('',(#390,#391,#392,#393));
#1060=EDGE_LOOP('',(#394,#395,#396,#397,#398));
#1061=EDGE_LOOP('',(#399,#400,#401,#402,#403));
#1062=EDGE_LOOP('',(#404,#405,#406,#407));
#1063=EDGE_LOOP('',(#408,#409,#410,#411));
#1064=FACE_BOUND('',#974,.T.);
#1065=FACE_BOUND('',#975,.T.);
#1066=FACE_BOUND('',#976,.T.);
#1067=FACE_BOUND('',#977,.T.);
#1068=FACE_BOUND('',#978,.T.);
#1069=FACE_BOUND('',#979,.T.);
#1070=FACE_BOUND('',#980,.T.);
#1071=FACE_BOUND('',#981,.T.);
#1072=FACE_BOUND('',#982,.T.);
#1073=FACE_BOUND('',#983,.T.);
#1074=FACE_BOUND('',#984,.T.);
#1075=FACE_BOUND('',#985,.T.);
#1076=FACE_BOUND('',#986,.T.);
#1077=FACE_BOUND('',#987,.T.);
#1078=FACE_BOUND('',#988,.T.);
#1079=FACE_BOUND('',#989,.T.);
#1080=FACE_BOUND('',#990,.T.);
#1081=FACE_BOUND('',#991,.T.);
#1082=FACE_BOUND('',#992,.T.);
#1083=FACE_BOUND('',#993,.T.);
#1084=FACE_BOUND('',#994,.T.);
#1085=FACE_BOUND('',#995,.T.);
#1086=FACE_BOUND('',#996,.T.);
#1087=FACE_BOUND('',#997,.T.);
#1088=FACE_BOUND('',#998,.T.);
#1089=FACE_BOUND('',#999,.T.);
#1090=FACE_BOUND('',#1000,.T.);
#1091=FACE_BOUND('',#1001,.T.);
#1092=FACE_BOUND('',#1002,.T.);
#1093=FACE_BOUND('',#1003,.T.);
#1094=FACE_BOUND('',#1004,.T.);
#1095=FACE_BOUND('',#1005,.T.);
#1096=FACE_BOUND('',#1006,.T.);
#1097=FACE_BOUND('',#1007,.T.);
#1098=FACE_BOUND('',#1008,.T.);
#1099=FACE_BOUND('',#1009,.T.);
#1100=FACE_BOUND('',#1010,.T.);
#1101=FACE_BOUND('',#1011,.T.);
#1102=FACE_BOUND('',#1012,.T.);
#1103=FACE_BOUND('',#1013,.T.);
#1104=FACE_BOUND('',#1014,.T.);
#1105=FACE_BOUND('',#1015,.T.);
#1106=FACE_BOUND('',#1016,.T.);
#1107=FACE_BOUND('',#1017,.T.);
#1108=FACE_BOUND('',#1018,.T.);
#1109=FACE_BOUND('',#1019,.T.);
#1110=FACE_BOUND('',#1020,.T.);
#1111=FACE_BOUND('',#1021,.T.);
#1112=FACE_BOUND('',#1022,.T.);
#1113=FACE_BOUND('',#1023,.T.);
#1114=FACE_BOUND('',#1024,.T.);
#1115=FACE_BOUND('',#1025,.T.);
#1116=FACE_BOUND('',#1026,.T.);
#1117=FACE_BOUND('',#1027,.T.);
#1118=FACE_BOUND('',#1028,.T.);
#1119=FACE_BOUND('',#1029,.T.);
#1120=FACE_BOUND('',#1030,.T.);
#1121=FACE_BOUND('',#1031,.T.);
#1122=FACE_BOUND('',#1032,.T.);
#1123=FACE_BOUND('',#1033,.T.);
#1124=FACE_BOUND('',#1034,.T.);
#1125=FACE_BOUND('',#1035,.T.);
#1126=FACE_BOUND('',#1036,.T.);
#1127=FACE_BOUND('',#1037,.T.);
#1128=FACE_BOUND('',#1038,.T.);
#1129=FACE_BOUND('',#1039,.T.);
#1130=FACE_BOUND('',#1040,.T.);
#1131=FACE_BOUND('',#1041,.T.);
#1132=FACE_BOUND('',#1042,.T.);
#1133=FACE_BOUND('',#1043,.T.);
#1134=FACE_BOUND('',#1044,.T.);
#1135=FACE_BOUND('',#1045,.T.);
#1136=FACE_BOUND('',#1046,.T.);
#1137=FACE_BOUND('',#1047,.T.);
#1138=FACE_BOUND('',#1048,.T.);
#1139=FACE_BOUND('',#1049,.T.);
#1140=FACE_BOUND('',#1050,.T.);
#1141=FACE_BOUND('',#1051,.T.);
#1142=FACE_BOUND('',#1052,.T.);
#1143=FACE_BOUND('',#1053,.T.);
#1144=FACE_BOUND('',#1054,.T.);
#1145=FACE_BOUND('',#1055,.T.);
#1146=FACE_BOUND('',#1056,.T.);
#1147=FACE_BOUND('',#1057,.T.);
#1148=FACE_BOUND('',#1058,.T.);
#1149=FACE_BOUND('',#1059,.T.);
#1150=FACE_BOUND('',#1060,.T.);
#1151=FACE_BOUND('',#1061,.T.);
#1152=FACE_BOUND('',#1062,.T.);
#1153=FACE_BOUND('',#1063,.T.);
#1154=PLANE('',#1279);
#1155=PLANE('',#1280);
#1156=PLANE('',#1281);
#1157=PLANE('',#1283);
#1158=PLANE('',#1294);
#1159=PLANE('',#1305);
#1160=PLANE('',#1306);
#1161=PLANE('',#1307);
#1162=PLANE('',#1308);
#1163=PLANE('',#1311);
#1164=PLANE('',#1312);
#1165=PLANE('',#1319);
#1166=PLANE('',#1320);
#1167=PLANE('',#1322);
#1168=PLANE('',#1323);
#1169=PLANE('',#1324);
#1170=PLANE('',#1327);
#1171=PLANE('',#1329);
#1172=PLANE('',#1330);
#1173=PLANE('',#1332);
#1174=PLANE('',#1333);
#1175=PLANE('',#1334);
#1176=PLANE('',#1336);
#1177=PLANE('',#1339);
#1178=PLANE('',#1340);
#1179=PLANE('',#1342);
#1180=PLANE('',#1343);
#1181=PLANE('',#1344);
#1182=PLANE('',#1345);
#1183=PLANE('',#1348);
#1184=PLANE('',#1355);
#1185=PLANE('',#1357);
#1186=PLANE('',#1358);
#1187=PLANE('',#1360);
#1188=PLANE('',#1362);
#1189=PLANE('',#1363);
#1190=PLANE('',#1364);
#1191=PLANE('',#1366);
#1192=PLANE('',#1370);
#1193=PLANE('',#1372);
#1194=PLANE('',#1374);
#1195=PLANE('',#1376);
#1196=PLANE('',#1377);
#1197=PLANE('',#1378);
#1198=PLANE('',#1379);
#1199=PLANE('',#1380);
#1200=ADVANCED_FACE('',(#1064),#1154,.F.);
#1201=ADVANCED_FACE('',(#1065),#1155,.T.);
#1202=ADVANCED_FACE('',(#1066),#1156,.F.);
#1203=ADVANCED_FACE('',(#1067,#1068,#1069,#1070,#1071,#1072,#1073),#1157,
 .F.);
#1204=ADVANCED_FACE('',(#1074,#1075,#1076,#1077,#1078,#1079,#1080),#1158,
 .T.);
#1205=ADVANCED_FACE('',(#1081),#1159,.F.);
#1206=ADVANCED_FACE('',(#1082),#1160,.F.);
#1207=ADVANCED_FACE('',(#1083),#1161,.F.);
#1208=ADVANCED_FACE('',(#1084),#1162,.T.);
#1209=ADVANCED_FACE('',(#1085),#20,.F.);
#1210=ADVANCED_FACE('',(#1086),#1163,.F.);
#1211=ADVANCED_FACE('',(#1087),#1164,.F.);
#1212=ADVANCED_FACE('',(#1088,#1089),#21,.F.);
#1213=ADVANCED_FACE('',(#1090,#1091),#22,.F.);
#1214=ADVANCED_FACE('',(#1092,#1093),#12,.F.);
#1215=ADVANCED_FACE('',(#1094,#1095),#13,.F.);
#1216=ADVANCED_FACE('',(#1096),#1165,.T.);
#1217=ADVANCED_FACE('',(#1097),#1166,.T.);
#1218=ADVANCED_FACE('',(#1098),#1167,.F.);
#1219=ADVANCED_FACE('',(#1099),#1168,.F.);
#1220=ADVANCED_FACE('',(#1100),#1169,.F.);
#1221=ADVANCED_FACE('',(#1101),#1170,.F.);
#1222=ADVANCED_FACE('',(#1102),#1171,.T.);
#1223=ADVANCED_FACE('',(#1103),#1172,.T.);
#1224=ADVANCED_FACE('',(#1104),#23,.T.);
#1225=ADVANCED_FACE('',(#1105),#1173,.T.);
#1226=ADVANCED_FACE('',(#1106),#1174,.F.);
#1227=ADVANCED_FACE('',(#1107),#1175,.T.);
#1228=ADVANCED_FACE('',(#1108),#24,.F.);
#1229=ADVANCED_FACE('',(#1109),#1176,.F.);
#1230=ADVANCED_FACE('',(#1110,#1111),#25,.F.);
#1231=ADVANCED_FACE('',(#1112),#1177,.T.);
#1232=ADVANCED_FACE('',(#1113),#1178,.F.);
#1233=ADVANCED_FACE('',(#1114),#1179,.F.);
#1234=ADVANCED_FACE('',(#1115),#1180,.F.);
#1235=ADVANCED_FACE('',(#1116),#1181,.F.);
#1236=ADVANCED_FACE('',(#1117),#1182,.T.);
#1237=ADVANCED_FACE('',(#1118),#26,.F.);
#1238=ADVANCED_FACE('',(#1119),#1183,.F.);
#1239=ADVANCED_FACE('',(#1120,#1121),#27,.F.);
#1240=ADVANCED_FACE('',(#1122,#1123),#28,.F.);
#1241=ADVANCED_FACE('',(#1124,#1125),#14,.F.);
#1242=ADVANCED_FACE('',(#1126,#1127),#15,.F.);
#1243=ADVANCED_FACE('',(#1128),#1184,.T.);
#1244=ADVANCED_FACE('',(#1129),#1185,.F.);
#1245=ADVANCED_FACE('',(#1130),#1186,.F.);
#1246=ADVANCED_FACE('',(#1131),#1187,.T.);
#1247=ADVANCED_FACE('',(#1132),#29,.T.);
#1248=ADVANCED_FACE('',(#1133),#1188,.F.);
#1249=ADVANCED_FACE('',(#1134),#1189,.T.);
#1250=ADVANCED_FACE('',(#1135),#1190,.T.);
#1251=ADVANCED_FACE('',(#1136),#30,.F.);
#1252=ADVANCED_FACE('',(#1137),#1191,.F.);
#1253=ADVANCED_FACE('',(#1138,#1139),#31,.F.);
#1254=ADVANCED_FACE('',(#1140,#1141),#16,.F.);
#1255=ADVANCED_FACE('',(#1142),#1192,.T.);
#1256=ADVANCED_FACE('',(#1143),#17,.F.);
#1257=ADVANCED_FACE('',(#1144),#1193,.F.);
#1258=ADVANCED_FACE('',(#1145,#1146),#18,.F.);
#1259=ADVANCED_FACE('',(#1147),#1194,.T.);
#1260=ADVANCED_FACE('',(#1148),#19,.F.);
#1261=ADVANCED_FACE('',(#1149),#1195,.F.);
#1262=ADVANCED_FACE('',(#1150),#1196,.F.);
#1263=ADVANCED_FACE('',(#1151),#1197,.F.);
#1264=ADVANCED_FACE('',(#1152),#1198,.T.);
#1265=ADVANCED_FACE('',(#1153),#1199,.F.);
#1266=CLOSED_SHELL('',(#1200,#1201,#1202,#1203,#1204,#1205,#1206,#1207,
#1208,#1209,#1210,#1211,#1212,#1213,#1214,#1215,#1216,#1217,#1218,#1219,
#1220,#1221,#1222,#1223,#1224,#1225,#1226,#1227,#1228,#1229,#1230,#1231,
#1232,#1233,#1234,#1235,#1236,#1237,#1238,#1239,#1240,#1241,#1242,#1243,
#1244,#1245,#1246,#1247,#1248,#1249,#1250,#1251,#1252,#1253,#1254,#1255,
#1256,#1257,#1258,#1259,#1260,#1261,#1262,#1263,#1264,#1265));
#1267=STYLED_ITEM('',(#1268),#1275);
#1268=PRESENTATION_STYLE_ASSIGNMENT((#1269));
#1269=SURFACE_STYLE_USAGE(.BOTH.,#1270);
#1270=SURFACE_SIDE_STYLE('',(#1271));
#1271=SURFACE_STYLE_FILL_AREA(#1272);
#1272=FILL_AREA_STYLE('',(#1273));
#1273=FILL_AREA_STYLE_COLOUR('',#1274);
#1274=COLOUR_RGB('',0.513725490196078,0.737254901960784,0.407843137254902);
#1275=MANIFOLD_SOLID_BREP('chasis up',#1266);
#1276=SHAPE_DEFINITION_REPRESENTATION(#2086,#1277);
#1277=SHAPE_REPRESENTATION('chasis up',(#1278),#2081);
#1278=AXIS2_PLACEMENT_3D('',#1723,#1381,#1382);
#1279=AXIS2_PLACEMENT_3D('',#1724,#1383,#1384);
#1280=AXIS2_PLACEMENT_3D('',#1749,#1397,#1398);
#1281=AXIS2_PLACEMENT_3D('',#1759,#1404,#1405);
#1282=AXIS2_PLACEMENT_3D('',#1771,#1411,#1412);
#1283=AXIS2_PLACEMENT_3D('',#1774,#1414,#1415);
#1284=AXIS2_PLACEMENT_3D('',#1775,#1416,#1417);
#1285=AXIS2_PLACEMENT_3D('',#1783,#1421,#1422);
#1286=AXIS2_PLACEMENT_3D('',#1800,#1431,#1432);
#1287=AXIS2_PLACEMENT_3D('',#1808,#1436,#1437);
#1288=AXIS2_PLACEMENT_3D('',#1823,#1445,#1446);
#1289=AXIS2_PLACEMENT_3D('',#1826,#1448,#1449);
#1290=AXIS2_PLACEMENT_3D('',#1828,#1450,#1451);
#1291=AXIS2_PLACEMENT_3D('',#1830,#1452,#1453);
#1292=AXIS2_PLACEMENT_3D('',#1832,#1454,#1455);
#1293=AXIS2_PLACEMENT_3D('',#1834,#1456,#1457);
#1294=AXIS2_PLACEMENT_3D('',#1836,#1458,#1459);
#1295=AXIS2_PLACEMENT_3D('',#1837,#1460,#1461);
#1296=AXIS2_PLACEMENT_3D('',#1839,#1462,#1463);
#1297=AXIS2_PLACEMENT_3D('',#1841,#1464,#1465);
#1298=AXIS2_PLACEMENT_3D('',#1856,#1472,#1473);
#1299=AXIS2_PLACEMENT_3D('',#1868,#1479,#1480);
#1300=AXIS2_PLACEMENT_3D('',#1879,#1486,#1487);
#1301=AXIS2_PLACEMENT_3D('',#1886,#1491,#1492);
#1302=AXIS2_PLACEMENT_3D('',#1888,#1493,#1494);
#1303=AXIS2_PLACEMENT_3D('',#1890,#1495,#1496);
#1304=AXIS2_PLACEMENT_3D('',#1892,#1497,#1498);
#1305=AXIS2_PLACEMENT_3D('',#1894,#1499,#1500);
#1306=AXIS2_PLACEMENT_3D('',#1896,#1502,#1503);
#1307=AXIS2_PLACEMENT_3D('',#1898,#1505,#1506);
#1308=AXIS2_PLACEMENT_3D('',#1902,#1509,#1510);
#1309=AXIS2_PLACEMENT_3D('',#1906,#1513,#1514);
#1310=AXIS2_PLACEMENT_3D('',#1909,#1516,#1517);
#1311=AXIS2_PLACEMENT_3D('',#1910,#1518,#1519);
#1312=AXIS2_PLACEMENT_3D('',#1914,#1522,#1523);
#1313=AXIS2_PLACEMENT_3D('',#1919,#1527,#1528);
#1314=AXIS2_PLACEMENT_3D('',#1920,#1529,#1530);
#1315=AXIS2_PLACEMENT_3D('',#1922,#1531,#1532);
#1316=AXIS2_PLACEMENT_3D('',#1923,#1533,#1534);
#1317=AXIS2_PLACEMENT_3D('',#1925,#1535,#1536);
#1318=AXIS2_PLACEMENT_3D('',#1926,#1537,#1538);
#1319=AXIS2_PLACEMENT_3D('',#1927,#1539,#1540);
#1320=AXIS2_PLACEMENT_3D('',#1937,#1546,#1547);
#1321=AXIS2_PLACEMENT_3D('',#1940,#1549,#1550);
#1322=AXIS2_PLACEMENT_3D('',#1946,#1554,#1555);
#1323=AXIS2_PLACEMENT_3D('',#1949,#1558,#1559);
#1324=AXIS2_PLACEMENT_3D('',#1955,#1563,#1564);
#1325=AXIS2_PLACEMENT_3D('',#1962,#1568,#1569);
#1326=AXIS2_PLACEMENT_3D('',#1967,#1572,#1573);
#1327=AXIS2_PLACEMENT_3D('',#1970,#1575,#1576);
#1328=AXIS2_PLACEMENT_3D('',#1971,#1577,#1578);
#1329=AXIS2_PLACEMENT_3D('',#1975,#1581,#1582);
#1330=AXIS2_PLACEMENT_3D('',#1980,#1586,#1587);
#1331=AXIS2_PLACEMENT_3D('',#1981,#1588,#1589);
#1332=AXIS2_PLACEMENT_3D('',#1984,#1592,#1593);
#1333=AXIS2_PLACEMENT_3D('',#1985,#1594,#1595);
#1334=AXIS2_PLACEMENT_3D('',#1986,#1596,#1597);
#1335=AXIS2_PLACEMENT_3D('',#1988,#1599,#1600);
#1336=AXIS2_PLACEMENT_3D('',#1990,#1602,#1603);
#1337=AXIS2_PLACEMENT_3D('',#1991,#1604,#1605);
#1338=AXIS2_PLACEMENT_3D('',#1992,#1606,#1607);
#1339=AXIS2_PLACEMENT_3D('',#1994,#1608,#1609);
#1340=AXIS2_PLACEMENT_3D('',#1999,#1613,#1614);
#1341=AXIS2_PLACEMENT_3D('',#2000,#1615,#1616);
#1342=AXIS2_PLACEMENT_3D('',#2003,#1618,#1619);
#1343=AXIS2_PLACEMENT_3D('',#2005,#1621,#1622);
#1344=AXIS2_PLACEMENT_3D('',#2007,#1624,#1625);
#1345=AXIS2_PLACEMENT_3D('',#2011,#1628,#1629);
#1346=AXIS2_PLACEMENT_3D('',#2015,#1632,#1633);
#1347=AXIS2_PLACEMENT_3D('',#2016,#1634,#1635);
#1348=AXIS2_PLACEMENT_3D('',#2019,#1637,#1638);
#1349=AXIS2_PLACEMENT_3D('',#2021,#1640,#1641);
#1350=AXIS2_PLACEMENT_3D('',#2022,#1642,#1643);
#1351=AXIS2_PLACEMENT_3D('',#2024,#1644,#1645);
#1352=AXIS2_PLACEMENT_3D('',#2025,#1646,#1647);
#1353=AXIS2_PLACEMENT_3D('',#2027,#1648,#1649);
#1354=AXIS2_PLACEMENT_3D('',#2028,#1650,#1651);
#1355=AXIS2_PLACEMENT_3D('',#2029,#1652,#1653);
#1356=AXIS2_PLACEMENT_3D('',#2032,#1655,#1656);
#1357=AXIS2_PLACEMENT_3D('',#2035,#1658,#1659);
#1358=AXIS2_PLACEMENT_3D('',#2041,#1663,#1664);
#1359=AXIS2_PLACEMENT_3D('',#2042,#1665,#1666);
#1360=AXIS2_PLACEMENT_3D('',#2046,#1669,#1670);
#1361=AXIS2_PLACEMENT_3D('',#2047,#1671,#1672);
#1362=AXIS2_PLACEMENT_3D('',#2050,#1675,#1676);
#1363=AXIS2_PLACEMENT_3D('',#2051,#1677,#1678);
#1364=AXIS2_PLACEMENT_3D('',#2052,#1679,#1680);
#1365=AXIS2_PLACEMENT_3D('',#2054,#1682,#1683);
#1366=AXIS2_PLACEMENT_3D('',#2056,#1685,#1686);
#1367=AXIS2_PLACEMENT_3D('',#2057,#1687,#1688);
#1368=AXIS2_PLACEMENT_3D('',#2058,#1689,#1690);
#1369=AXIS2_PLACEMENT_3D('',#2060,#1691,#1692);
#1370=AXIS2_PLACEMENT_3D('',#2061,#1693,#1694);
#1371=AXIS2_PLACEMENT_3D('',#2063,#1696,#1697);
#1372=AXIS2_PLACEMENT_3D('',#2065,#1699,#1700);
#1373=AXIS2_PLACEMENT_3D('',#2066,#1701,#1702);
#1374=AXIS2_PLACEMENT_3D('',#2067,#1703,#1704);
#1375=AXIS2_PLACEMENT_3D('',#2069,#1706,#1707);
#1376=AXIS2_PLACEMENT_3D('',#2071,#1709,#1710);
#1377=AXIS2_PLACEMENT_3D('',#2072,#1711,#1712);
#1378=AXIS2_PLACEMENT_3D('',#2075,#1715,#1716);
#1379=AXIS2_PLACEMENT_3D('',#2077,#1718,#1719);
#1380=AXIS2_PLACEMENT_3D('',#2079,#1721,#1722);
#1381=DIRECTION('',(0.,0.,1.));
#1382=DIRECTION('',(1.,0.,0.));
#1383=DIRECTION('',(0.,1.,0.));
#1384=DIRECTION('',(0.,0.,1.));
#1385=DIRECTION('',(1.,0.,0.));
#1386=DIRECTION('',(-0.894427190999916,0.,-0.447213595499958));
#1387=DIRECTION('',(0.,0.,-1.));
#1388=DIRECTION('',(-1.,0.,0.));
#1389=DIRECTION('',(0.,0.,-1.));
#1390=DIRECTION('',(0.894427190999916,0.,0.447213595499958));
#1391=DIRECTION('',(1.,0.,0.));
#1392=DIRECTION('',(-0.894427190999916,0.,0.447213595499958));
#1393=DIRECTION('',(0.,0.,-1.));
#1394=DIRECTION('',(1.,0.,0.));
#1395=DIRECTION('',(0.,0.,-1.));
#1396=DIRECTION('',(0.894427190999916,0.,-0.447213595499958));
#1397=DIRECTION('',(0.874065842627384,-0.485807474985804,0.));
#1398=DIRECTION('',(0.485807474985804,0.874065842627384,0.));
#1399=DIRECTION('',(-0.485807474985804,-0.874065842627384,0.));
#1400=DIRECTION('',(0.,0.,-1.));
#1401=DIRECTION('',(0.472080168300967,0.84936764323299,-0.236040084150483));
#1402=DIRECTION('',(-0.485807474985804,-0.874065842627384,0.));
#1403=DIRECTION('',(0.,0.,-1.));
#1404=DIRECTION('',(0.447213595499958,1.34554696652969E-16,0.894427190999916));
#1405=DIRECTION('',(-3.00873448407902E-16,1.,0.));
#1406=DIRECTION('',(0.894427190999916,3.87895961444886E-16,-0.447213595499958));
#1407=DIRECTION('',(3.00873448407902E-16,-1.,0.));
#1408=DIRECTION('',(-0.666666666666667,-0.666666666666667,0.333333333333334));
#1409=DIRECTION('',(3.00873448407902E-16,-1.,0.));
#1410=DIRECTION('',(0.894427190999916,0.,-0.447213595499958));
#1411=DIRECTION('',(0.447213595499958,1.34554696652969E-16,0.894427190999916));
#1412=DIRECTION('',(0.894427190999916,2.69109393305938E-16,-0.447213595499958));
#1413=DIRECTION('',(-3.00873448407902E-16,1.,0.));
#1414=DIRECTION('',(0.,0.,1.));
#1415=DIRECTION('',(1.,0.,0.));
#1416=DIRECTION('',(0.,0.,1.));
#1417=DIRECTION('',(1.,0.,0.));
#1418=DIRECTION('',(1.,1.17688159835604E-16,0.));
#1419=DIRECTION('',(-3.00873448407902E-16,-1.,0.));
#1420=DIRECTION('',(-1.,0.,0.));
#1421=DIRECTION('',(0.,0.,-1.));
#1422=DIRECTION('',(-1.,0.,0.));
#1423=DIRECTION('',(-1.,0.,0.));
#1424=DIRECTION('',(0.485807474985804,-0.874065842627384,0.));
#1425=DIRECTION('',(0.,-1.,0.));
#1426=DIRECTION('',(0.485807474985804,-0.874065842627384,0.));
#1427=DIRECTION('',(-1.,0.,0.));
#1428=DIRECTION('',(0.,1.,0.));
#1429=DIRECTION('',(1.,-1.98254111540206E-15,0.));
#1430=DIRECTION('',(0.,1.,0.));
#1431=DIRECTION('',(0.,0.,-1.));
#1432=DIRECTION('',(-1.,0.,0.));
#1433=DIRECTION('',(0.,1.,0.));
#1434=DIRECTION('',(-1.,-1.28975723120952E-16,0.));
#1435=DIRECTION('',(0.,1.,0.));
#1436=DIRECTION('',(0.,0.,1.));
#1437=DIRECTION('',(1.,0.,0.));
#1438=DIRECTION('',(0.,1.,0.));
#1439=DIRECTION('',(-1.,-1.98254111540206E-15,0.));
#1440=DIRECTION('',(0.,1.,0.));
#1441=DIRECTION('',(1.,0.,0.));
#1442=DIRECTION('',(0.,-1.,0.));
#1443=DIRECTION('',(-0.485807474985804,-0.874065842627384,0.));
#1444=DIRECTION('',(1.,0.,0.));
#1445=DIRECTION('',(0.,0.,1.));
#1446=DIRECTION('',(1.,0.,0.));
#1447=DIRECTION('',(1.,0.,0.));
#1448=DIRECTION('',(0.,0.,1.));
#1449=DIRECTION('',(1.,0.,0.));
#1450=DIRECTION('',(0.,0.,1.));
#1451=DIRECTION('',(1.,0.,0.));
#1452=DIRECTION('',(0.,0.,-1.));
#1453=DIRECTION('',(-1.,0.,0.));
#1454=DIRECTION('',(0.,0.,-1.));
#1455=DIRECTION('',(-1.,0.,0.));
#1456=DIRECTION('',(0.,0.,-1.));
#1457=DIRECTION('',(-1.,0.,0.));
#1458=DIRECTION('',(0.,0.,1.));
#1459=DIRECTION('',(1.,0.,0.));
#1460=DIRECTION('',(0.,0.,1.));
#1461=DIRECTION('',(1.,0.,0.));
#1462=DIRECTION('',(0.,0.,1.));
#1463=DIRECTION('',(1.,0.,0.));
#1464=DIRECTION('',(0.,0.,1.));
#1465=DIRECTION('',(1.,0.,0.));
#1466=DIRECTION('',(0.,1.,0.));
#1467=DIRECTION('',(1.,-1.98254111540206E-15,0.));
#1468=DIRECTION('',(0.,1.,0.));
#1469=DIRECTION('',(-1.,0.,0.));
#1470=DIRECTION('',(0.485807474985804,-0.874065842627384,0.));
#1471=DIRECTION('',(1.,0.,0.));
#1472=DIRECTION('',(0.,0.,-1.));
#1473=DIRECTION('',(-1.,0.,0.));
#1474=DIRECTION('',(1.,0.,0.));
#1475=DIRECTION('',(-3.00873448407902E-16,-1.,0.));
#1476=DIRECTION('',(1.,1.17688159835604E-16,0.));
#1477=DIRECTION('',(3.00873448407902E-16,-1.,0.));
#1478=DIRECTION('',(-1.,0.,0.));
#1479=DIRECTION('',(0.,0.,1.));
#1480=DIRECTION('',(1.,0.,0.));
#1481=DIRECTION('',(-1.,0.,0.));
#1482=DIRECTION('',(1.,0.,0.));
#1483=DIRECTION('',(0.,1.,0.));
#1484=DIRECTION('',(-1.,-1.98254111540206E-15,0.));
#1485=DIRECTION('',(0.,-1.,0.));
#1486=DIRECTION('',(0.,0.,1.));
#1487=DIRECTION('',(1.,0.,0.));
#1488=DIRECTION('',(0.,1.,0.));
#1489=DIRECTION('',(-1.,-1.28975723120952E-16,0.));
#1490=DIRECTION('',(0.,-1.,0.));
#1491=DIRECTION('',(0.,0.,1.));
#1492=DIRECTION('',(1.,0.,0.));
#1493=DIRECTION('',(0.,0.,1.));
#1494=DIRECTION('',(1.,0.,0.));
#1495=DIRECTION('',(0.,0.,-1.));
#1496=DIRECTION('',(-1.,0.,0.));
#1497=DIRECTION('',(0.,0.,-1.));
#1498=DIRECTION('',(-1.,0.,0.));
#1499=DIRECTION('',(0.,1.,0.));
#1500=DIRECTION('',(0.,0.,1.));
#1501=DIRECTION('',(0.,0.,-1.));
#1502=DIRECTION('',(-1.,0.,0.));
#1503=DIRECTION('',(0.,0.,1.));
#1504=DIRECTION('',(0.,0.,-1.));
#1505=DIRECTION('',(1.98254111540206E-15,-1.,0.));
#1506=DIRECTION('',(1.,1.98254111540206E-15,0.));
#1507=DIRECTION('',(0.,0.,-1.));
#1508=DIRECTION('',(-0.70710678118655,-1.40186826668194E-15,-0.707106781186546));
#1509=DIRECTION('',(-1.,0.,0.));
#1510=DIRECTION('',(0.,0.,1.));
#1511=DIRECTION('',(0.,0.,-1.));
#1512=DIRECTION('',(0.,1.,0.));
#1513=DIRECTION('',(0.,0.,-1.));
#1514=DIRECTION('',(-1.,0.,0.));
#1515=DIRECTION('',(0.,0.,-1.));
#1516=DIRECTION('',(0.,0.,1.));
#1517=DIRECTION('',(1.,0.,0.));
#1518=DIRECTION('',(-1.,0.,0.));
#1519=DIRECTION('',(0.,0.,1.));
#1520=DIRECTION('',(0.,0.,-1.));
#1521=DIRECTION('',(0.,-1.,0.));
#1522=DIRECTION('',(1.28975723120952E-16,-1.,0.));
#1523=DIRECTION('',(1.,1.28975723120952E-16,0.));
#1524=DIRECTION('',(0.,0.,-1.));
#1525=DIRECTION('',(0.70710678118655,9.11996084272642E-17,0.707106781186546));
#1526=DIRECTION('',(0.70710678118655,9.11996084272642E-17,-0.707106781186546));
#1527=DIRECTION('',(0.,0.,-1.));
#1528=DIRECTION('',(-1.,0.,0.));
#1529=DIRECTION('',(0.,0.,1.));
#1530=DIRECTION('',(1.,0.,0.));
#1531=DIRECTION('',(0.,0.,-1.));
#1532=DIRECTION('',(-1.,0.,0.));
#1533=DIRECTION('',(0.,0.,1.));
#1534=DIRECTION('',(1.,0.,0.));
#1535=DIRECTION('',(0.,0.,1.));
#1536=DIRECTION('',(1.,0.,0.));
#1537=DIRECTION('',(0.,0.,1.));
#1538=DIRECTION('',(1.,0.,0.));
#1539=DIRECTION('',(0.,0.,1.));
#1540=DIRECTION('',(1.,0.,0.));
#1541=DIRECTION('',(0.,-1.,0.));
#1542=DIRECTION('',(-1.,-1.17688159835604E-16,0.));
#1543=DIRECTION('',(-3.00873448407902E-16,-1.,0.));
#1544=DIRECTION('',(3.00873448407902E-16,-1.,0.));
#1545=DIRECTION('',(1.,4.33680868994202E-16,0.));
#1546=DIRECTION('',(0.447213595499958,1.34554696652969E-16,0.894427190999916));
#1547=DIRECTION('',(-3.00873448407902E-16,1.,0.));
#1548=DIRECTION('',(0.894427190999916,0.,-0.447213595499958));
#1549=DIRECTION('',(0.447213595499958,1.34554696652969E-16,0.894427190999916));
#1550=DIRECTION('',(-0.894427190999916,-2.69109393305938E-16,0.447213595499958));
#1551=DIRECTION('',(0.894427190999916,0.,-0.447213595499958));
#1552=DIRECTION('',(0.666666666666667,0.666666666666667,-0.333333333333334));
#1553=DIRECTION('',(3.00873448407902E-16,-1.,0.));
#1554=DIRECTION('',(5.26317451078543E-17,-0.447213595499958,-0.894427190999916));
#1555=DIRECTION('',(-1.,-1.17688159835604E-16,0.));
#1556=DIRECTION('',(-0.666666666666667,0.666666666666667,-0.333333333333334));
#1557=DIRECTION('',(-1.,-1.17688159835604E-16,0.));
#1558=DIRECTION('',(0.874065842627384,-0.485807474985804,0.));
#1559=DIRECTION('',(0.485807474985804,0.874065842627384,0.));
#1560=DIRECTION('',(0.472080168300967,0.84936764323299,-0.236040084150483));
#1561=DIRECTION('',(0.,0.,-1.));
#1562=DIRECTION('',(0.,0.,-1.));
#1563=DIRECTION('',(0.,0.,1.));
#1564=DIRECTION('',(1.,0.,0.));
#1565=DIRECTION('',(-1.,-1.17688159835604E-16,0.));
#1566=DIRECTION('',(0.,-1.,0.));
#1567=DIRECTION('',(1.,4.33680868994202E-16,0.));
#1568=DIRECTION('',(0.,0.,1.));
#1569=DIRECTION('',(1.,0.,0.));
#1570=DIRECTION('',(-3.00873448407902E-16,1.,0.));
#1571=DIRECTION('',(3.00873448407902E-16,1.,0.));
#1572=DIRECTION('',(0.,0.,-1.));
#1573=DIRECTION('',(-1.,0.,0.));
#1574=DIRECTION('',(3.00873448407902E-16,1.,0.));
#1575=DIRECTION('',(0.447213595499958,1.34554696652969E-16,0.894427190999916));
#1576=DIRECTION('',(-3.00873448407902E-16,1.,0.));
#1577=DIRECTION('',(0.447213595499958,1.34554696652969E-16,0.894427190999916));
#1578=DIRECTION('',(0.894427190999916,2.69109393305938E-16,-0.447213595499958));
#1579=DIRECTION('',(0.894427190999916,0.,-0.447213595499958));
#1580=DIRECTION('',(0.,-1.,0.));
#1581=DIRECTION('',(5.26317451078543E-17,-0.447213595499958,-0.894427190999916));
#1582=DIRECTION('',(-1.,-1.17688159835604E-16,0.));
#1583=DIRECTION('',(0.,0.894427190999916,-0.447213595499958));
#1584=DIRECTION('',(0.666666666666667,-0.666666666666667,0.333333333333334));
#1585=DIRECTION('',(1.,1.17688159835604E-16,7.54105911021588E-33));
#1586=DIRECTION('',(-1.,0.,0.));
#1587=DIRECTION('',(0.,0.,1.));
#1588=DIRECTION('',(0.,0.,-1.));
#1589=DIRECTION('',(-1.,0.,0.));
#1590=DIRECTION('',(0.,0.,-1.));
#1591=DIRECTION('',(0.,0.,-1.));
#1592=DIRECTION('',(0.,1.,0.));
#1593=DIRECTION('',(0.,0.,1.));
#1594=DIRECTION('',(0.,1.,0.));
#1595=DIRECTION('',(0.,0.,1.));
#1596=DIRECTION('',(0.,-1.,0.));
#1597=DIRECTION('',(0.,0.,-1.));
#1598=DIRECTION('',(0.,0.,1.));
#1599=DIRECTION('',(0.,0.,1.));
#1600=DIRECTION('',(1.,0.,0.));
#1601=DIRECTION('',(0.,0.,1.));
#1602=DIRECTION('',(0.,-1.,0.));
#1603=DIRECTION('',(0.,0.,-1.));
#1604=DIRECTION('',(0.,0.,1.));
#1605=DIRECTION('',(1.,0.,0.));
#1606=DIRECTION('',(0.,0.,1.));
#1607=DIRECTION('',(1.,0.,0.));
#1608=DIRECTION('',(-0.874065842627384,-0.485807474985804,0.));
#1609=DIRECTION('',(-0.485807474985804,0.874065842627384,0.));
#1610=DIRECTION('',(0.,0.,-1.));
#1611=DIRECTION('',(-0.472080168300967,0.84936764323299,-0.236040084150483));
#1612=DIRECTION('',(0.,0.,-1.));
#1613=DIRECTION('',(-0.447213595499958,1.34554696652969E-16,0.894427190999916));
#1614=DIRECTION('',(3.00873448407902E-16,1.,0.));
#1615=DIRECTION('',(0.447213595499958,-1.34554696652969E-16,-0.894427190999916));
#1616=DIRECTION('',(-0.894427190999916,2.69109393305938E-16,-0.447213595499958));
#1617=DIRECTION('',(-0.894427190999916,0.,-0.447213595499958));
#1618=DIRECTION('',(0.,1.,0.));
#1619=DIRECTION('',(0.,0.,1.));
#1620=DIRECTION('',(0.,0.,-1.));
#1621=DIRECTION('',(1.,0.,0.));
#1622=DIRECTION('',(0.,0.,1.));
#1623=DIRECTION('',(0.,0.,-1.));
#1624=DIRECTION('',(-1.98254111540206E-15,-1.,0.));
#1625=DIRECTION('',(-1.,1.98254111540206E-15,0.));
#1626=DIRECTION('',(-0.70710678118655,1.40186826668194E-15,0.707106781186546));
#1627=DIRECTION('',(0.,0.,-1.));
#1628=DIRECTION('',(1.,0.,0.));
#1629=DIRECTION('',(0.,0.,1.));
#1630=DIRECTION('',(0.,-1.,0.));
#1631=DIRECTION('',(0.,0.,-1.));
#1632=DIRECTION('',(0.,0.,-1.));
#1633=DIRECTION('',(1.,0.,0.));
#1634=DIRECTION('',(0.,0.,1.));
#1635=DIRECTION('',(1.,0.,0.));
#1636=DIRECTION('',(0.,0.,-1.));
#1637=DIRECTION('',(1.,0.,0.));
#1638=DIRECTION('',(0.,0.,1.));
#1639=DIRECTION('',(0.,1.,0.));
#1640=DIRECTION('',(0.,0.,-1.));
#1641=DIRECTION('',(1.,0.,0.));
#1642=DIRECTION('',(0.,0.,-1.));
#1643=DIRECTION('',(-1.,0.,0.));
#1644=DIRECTION('',(0.,0.,-1.));
#1645=DIRECTION('',(1.,0.,0.));
#1646=DIRECTION('',(0.,0.,-1.));
#1647=DIRECTION('',(-1.,0.,0.));
#1648=DIRECTION('',(0.,0.,1.));
#1649=DIRECTION('',(-1.,0.,0.));
#1650=DIRECTION('',(0.,0.,1.));
#1651=DIRECTION('',(-1.,0.,0.));
#1652=DIRECTION('',(-0.447213595499958,1.34554696652969E-16,0.894427190999916));
#1653=DIRECTION('',(3.00873448407902E-16,1.,0.));
#1654=DIRECTION('',(-0.894427190999916,0.,-0.447213595499958));
#1655=DIRECTION('',(0.447213595499958,-1.34554696652969E-16,-0.894427190999916));
#1656=DIRECTION('',(0.894427190999916,-2.69109393305938E-16,0.447213595499958));
#1657=DIRECTION('',(-0.894427190999916,0.,-0.447213595499958));
#1658=DIRECTION('',(-0.874065842627384,-0.485807474985804,0.));
#1659=DIRECTION('',(-0.485807474985804,0.874065842627384,0.));
#1660=DIRECTION('',(-0.472080168300967,0.84936764323299,-0.236040084150483));
#1661=DIRECTION('',(0.,0.,-1.));
#1662=DIRECTION('',(0.,0.,-1.));
#1663=DIRECTION('',(-0.447213595499958,1.34554696652969E-16,0.894427190999916));
#1664=DIRECTION('',(3.00873448407902E-16,1.,0.));
#1665=DIRECTION('',(0.447213595499958,-1.34554696652969E-16,-0.894427190999916));
#1666=DIRECTION('',(-0.894427190999916,2.69109393305938E-16,-0.447213595499958));
#1667=DIRECTION('',(0.,-1.,0.));
#1668=DIRECTION('',(-0.894427190999916,0.,-0.447213595499958));
#1669=DIRECTION('',(1.,0.,0.));
#1670=DIRECTION('',(0.,0.,1.));
#1671=DIRECTION('',(0.,0.,-1.));
#1672=DIRECTION('',(1.,0.,0.));
#1673=DIRECTION('',(0.,0.,-1.));
#1674=DIRECTION('',(0.,0.,-1.));
#1675=DIRECTION('',(0.,1.,0.));
#1676=DIRECTION('',(0.,0.,1.));
#1677=DIRECTION('',(0.,1.,0.));
#1678=DIRECTION('',(0.,0.,1.));
#1679=DIRECTION('',(0.,-1.,0.));
#1680=DIRECTION('',(0.,0.,-1.));
#1681=DIRECTION('',(0.,0.,1.));
#1682=DIRECTION('',(0.,0.,1.));
#1683=DIRECTION('',(-1.,0.,0.));
#1684=DIRECTION('',(0.,0.,1.));
#1685=DIRECTION('',(0.,-1.,0.));
#1686=DIRECTION('',(0.,0.,-1.));
#1687=DIRECTION('',(0.,0.,1.));
#1688=DIRECTION('',(-1.,0.,0.));
#1689=DIRECTION('',(0.,0.,1.));
#1690=DIRECTION('',(1.,0.,0.));
#1691=DIRECTION('',(0.,0.,1.));
#1692=DIRECTION('',(1.,0.,0.));
#1693=DIRECTION('',(-0.707106781186546,0.,0.707106781186549));
#1694=DIRECTION('',(0.,-1.,0.));
#1695=DIRECTION('',(-0.707106781186549,0.,-0.707106781186546));
#1696=DIRECTION('',(0.,0.,1.));
#1697=DIRECTION('',(1.,0.,0.));
#1698=DIRECTION('',(0.707106781186549,0.,-0.707106781186546));
#1699=DIRECTION('',(-0.707106781186546,0.,-0.707106781186549));
#1700=DIRECTION('',(0.,1.,0.));
#1701=DIRECTION('',(0.,0.,1.));
#1702=DIRECTION('',(1.,0.,0.));
#1703=DIRECTION('',(0.707106781186546,0.,0.707106781186549));
#1704=DIRECTION('',(0.,-1.,0.));
#1705=DIRECTION('',(-0.707106781186549,0.,0.707106781186546));
#1706=DIRECTION('',(0.,0.,1.));
#1707=DIRECTION('',(1.,0.,0.));
#1708=DIRECTION('',(0.707106781186549,0.,0.707106781186546));
#1709=DIRECTION('',(0.707106781186546,0.,-0.707106781186549));
#1710=DIRECTION('',(0.,1.,0.));
#1711=DIRECTION('',(-1.,0.,0.));
#1712=DIRECTION('',(0.,0.,1.));
#1713=DIRECTION('',(0.,0.,1.));
#1714=DIRECTION('',(0.,0.,1.));
#1715=DIRECTION('',(4.33680868994202E-16,-1.,0.));
#1716=DIRECTION('',(1.,4.33680868994202E-16,0.));
#1717=DIRECTION('',(0.,0.,1.));
#1718=DIRECTION('',(-1.,-3.00873448407902E-16,0.));
#1719=DIRECTION('',(3.00873448407902E-16,-1.,0.));
#1720=DIRECTION('',(0.,0.,1.));
#1721=DIRECTION('',(-1.17688159835604E-16,1.,0.));
#1722=DIRECTION('',(-1.,-1.17688159835604E-16,0.));
#1723=CARTESIAN_POINT('',(0.,0.,0.));
#1724=CARTESIAN_POINT('',(-0.01035,-0.034825,0.0016));
#1725=CARTESIAN_POINT('',(-0.01035,-0.034825,0.0066));
#1726=CARTESIAN_POINT('',(-0.01474,-0.034825,0.0066));
#1727=CARTESIAN_POINT('',(0.01474,-0.034825,0.0066));
#1728=CARTESIAN_POINT('',(0.003332,-0.034825,0.015636));
#1729=CARTESIAN_POINT('',(-0.0207,-0.034825,0.00362));
#1730=CARTESIAN_POINT('',(-0.0207,-0.034825,0.0016));
#1731=CARTESIAN_POINT('',(-0.0207,-0.034825,0.));
#1732=CARTESIAN_POINT('',(0.01035,-0.034825,0.));
#1733=CARTESIAN_POINT('',(-0.01969992969649,-0.034825,0.));
#1734=CARTESIAN_POINT('',(-0.01969992969649,-0.034825,0.0011096886854401));
#1735=CARTESIAN_POINT('',(-0.01969992969649,-0.034825,0.0022193773708802));
#1736=CARTESIAN_POINT('',(-0.0170193070673701,-0.034825,0.00355968868544009));
#1737=CARTESIAN_POINT('',(-0.0143386844382504,-0.034825,0.0049));
#1738=CARTESIAN_POINT('',(2.60208521396521E-18,-0.034825,0.0049));
#1739=CARTESIAN_POINT('',(0.0143386844382504,-0.034825,0.0049));
#1740=CARTESIAN_POINT('',(0.0170193070673701,-0.034825,0.00355968868544009));
#1741=CARTESIAN_POINT('',(0.01969992969649,-0.034825,0.0022193773708802));
#1742=CARTESIAN_POINT('',(0.01969992969649,-0.034825,0.0011096886854401));
#1743=CARTESIAN_POINT('',(0.01969992969649,-0.034825,0.));
#1744=CARTESIAN_POINT('',(-0.01035,-0.034825,0.));
#1745=CARTESIAN_POINT('',(0.0207,-0.034825,0.));
#1746=CARTESIAN_POINT('',(0.0207,-0.034825,0.0016));
#1747=CARTESIAN_POINT('',(0.0207,-0.034825,0.00362));
#1748=CARTESIAN_POINT('',(-0.003332,-0.034825,0.015636));
#1749=CARTESIAN_POINT('',(0.0301,-0.0179125,0.0016));
#1750=CARTESIAN_POINT('',(0.0301,-0.0179125,0.0016));
#1751=CARTESIAN_POINT('',(0.0395,-0.000999999999999987,0.0016));
#1752=CARTESIAN_POINT('',(0.0231038433111604,-0.0305,0.0016));
#1753=CARTESIAN_POINT('',(0.0231038433111604,-0.0305,0.0016));
#1754=CARTESIAN_POINT('',(0.0231038433111604,-0.0305,0.0024180783444198));
#1755=CARTESIAN_POINT('',(0.0424163198937667,0.00424704895780107,-0.00723815994688338));
#1756=CARTESIAN_POINT('',(0.0301,-0.0179125,0.));
#1757=CARTESIAN_POINT('',(0.0395,-0.000999999999999987,0.));
#1758=CARTESIAN_POINT('',(0.0395,-0.000999999999999987,0.0016));
#1759=CARTESIAN_POINT('',(0.02397973688765,0.016527714663744,7.94737753001429E-5));
#1760=CARTESIAN_POINT('',(0.02397973688765,-0.0067,7.94737753001417E-5));
#1761=CARTESIAN_POINT('',(0.01474,-0.0067,0.00469934221912519));
#1762=CARTESIAN_POINT('',(0.0143386844382504,-0.0067,0.0049));
#1763=CARTESIAN_POINT('',(0.01474,0.016527714663744,0.00469934221912518));
#1764=CARTESIAN_POINT('',(0.01474,0.0113,0.00469934221912519));
#1765=CARTESIAN_POINT('',(0.00776652049313892,0.00432652049313892,0.00818608197255571));
#1766=CARTESIAN_POINT('',(0.0241386844382503,0.0206986844382503,-8.67361737988404E-19));
#1767=CARTESIAN_POINT('',(0.0241386844382503,0.016527714663744,0.));
#1768=CARTESIAN_POINT('',(0.0241386844382503,-0.0243,0.));
#1769=CARTESIAN_POINT('',(0.0197146737753001,-0.0243,0.00221200533147511));
#1770=CARTESIAN_POINT('',(0.018,-0.0243,0.00306934221912518));
#1771=CARTESIAN_POINT('',(0.018,-0.028,0.00306934221912518));
#1772=CARTESIAN_POINT('',(0.0143386844382503,-0.027466363084776,0.0049));
#1773=CARTESIAN_POINT('',(0.0143386844382503,0.0023375,0.0049));
#1774=CARTESIAN_POINT('',(0.,0.016527714663744,0.));
#1775=CARTESIAN_POINT('',(0.018,-0.028,0.));
#1776=CARTESIAN_POINT('',(0.0192,-0.028,0.));
#1777=CARTESIAN_POINT('',(-4.90873757491581E-19,0.0206986844382503,0.));
#1778=CARTESIAN_POINT('',(-0.0241386844382503,0.0206986844382503,-8.67361737988404E-19));
#1779=CARTESIAN_POINT('',(-0.0241386844382503,0.016527714663744,0.));
#1780=CARTESIAN_POINT('',(-0.0241386844382503,-0.0243,0.));
#1781=CARTESIAN_POINT('',(-0.0210693422191252,-0.0243,0.));
#1782=CARTESIAN_POINT('',(-0.018,-0.0243,0.));
#1783=CARTESIAN_POINT('',(-0.018,-0.028,0.));
#1784=CARTESIAN_POINT('',(-0.018,-0.0317,0.));
#1785=CARTESIAN_POINT('',(-0.0192459737174246,-0.0317,0.));
#1786=CARTESIAN_POINT('',(-0.0204919474348491,-0.0317,0.));
#1787=CARTESIAN_POINT('',(-0.0286140880675335,-0.0170866272925242,0.));
#1788=CARTESIAN_POINT('',(-0.01969992969649,-0.033125,0.));
#1789=CARTESIAN_POINT('',(-0.01969992969649,-0.033123,0.));
#1790=CARTESIAN_POINT('',(-0.0301,-0.0179125,0.));
#1791=CARTESIAN_POINT('',(-0.0395,-0.000999999999999987,0.));
#1792=CARTESIAN_POINT('',(-0.0496,-0.001,0.));
#1793=CARTESIAN_POINT('',(-0.0597,-0.001,0.));
#1794=CARTESIAN_POINT('',(-0.0597,0.01925,0.));
#1795=CARTESIAN_POINT('',(-0.0597,0.0395,0.));
#1796=CARTESIAN_POINT('',(-0.05795,0.0395,0.));
#1797=CARTESIAN_POINT('',(-0.0562,0.0395,0.));
#1798=CARTESIAN_POINT('',(-0.0562,0.03875,0.));
#1799=CARTESIAN_POINT('',(-0.0562,0.038,0.));
#1800=CARTESIAN_POINT('',(-0.055,0.038,0.));
#1801=CARTESIAN_POINT('',(-0.0538,0.038,0.));
#1802=CARTESIAN_POINT('',(-0.0538,0.03875,0.));
#1803=CARTESIAN_POINT('',(-0.0538,0.0395,0.));
#1804=CARTESIAN_POINT('',(0.0269,0.0395,0.));
#1805=CARTESIAN_POINT('',(0.0538,0.0395,0.));
#1806=CARTESIAN_POINT('',(0.0538,0.03875,0.));
#1807=CARTESIAN_POINT('',(0.0538,0.038,0.));
#1808=CARTESIAN_POINT('',(0.055,0.038,0.));
#1809=CARTESIAN_POINT('',(0.0562,0.038,0.));
#1810=CARTESIAN_POINT('',(0.0562,0.03875,0.));
#1811=CARTESIAN_POINT('',(0.0562,0.0395,0.));
#1812=CARTESIAN_POINT('',(0.05795,0.0395,0.));
#1813=CARTESIAN_POINT('',(0.0597,0.0395,0.));
#1814=CARTESIAN_POINT('',(0.0597,0.01925,0.));
#1815=CARTESIAN_POINT('',(0.0597,-0.001,0.));
#1816=CARTESIAN_POINT('',(0.0496,-0.001,0.));
#1817=CARTESIAN_POINT('',(0.01969992969649,-0.033123,0.));
#1818=CARTESIAN_POINT('',(0.01969992969649,-0.033125,0.));
#1819=CARTESIAN_POINT('',(0.0286140880675335,-0.0170866272925242,0.));
#1820=CARTESIAN_POINT('',(0.0204919474348491,-0.0317,0.));
#1821=CARTESIAN_POINT('',(0.0192459737174246,-0.0317,0.));
#1822=CARTESIAN_POINT('',(0.018,-0.0317,0.));
#1823=CARTESIAN_POINT('',(0.018,-0.028,0.));
#1824=CARTESIAN_POINT('',(0.018,-0.0243,0.));
#1825=CARTESIAN_POINT('',(0.0210693422191252,-0.0243,0.));
#1826=CARTESIAN_POINT('',(0.05,0.004,0.));
#1827=CARTESIAN_POINT('',(0.0512,0.004,0.));
#1828=CARTESIAN_POINT('',(0.016,0.025,0.));
#1829=CARTESIAN_POINT('',(0.0172,0.025,0.));
#1830=CARTESIAN_POINT('',(-0.018,-0.028,0.));
#1831=CARTESIAN_POINT('',(-0.0192,-0.028,0.));
#1832=CARTESIAN_POINT('',(-0.05,0.004,0.));
#1833=CARTESIAN_POINT('',(-0.0512,0.004,0.));
#1834=CARTESIAN_POINT('',(-0.016,0.025,0.));
#1835=CARTESIAN_POINT('',(-0.0172,0.025,0.));
#1836=CARTESIAN_POINT('',(0.,0.016527714663744,0.0016));
#1837=CARTESIAN_POINT('',(-0.018,-0.028,0.0016));
#1838=CARTESIAN_POINT('',(-0.0162,-0.028,0.0016));
#1839=CARTESIAN_POINT('',(0.018,-0.028,0.0016));
#1840=CARTESIAN_POINT('',(0.0198,-0.028,0.0016));
#1841=CARTESIAN_POINT('',(-0.055,0.038,0.0016));
#1842=CARTESIAN_POINT('',(-0.0532,0.038,0.0016));
#1843=CARTESIAN_POINT('',(-0.0568,0.038,0.0016));
#1844=CARTESIAN_POINT('',(-0.0568,0.016527714663744,0.0016));
#1845=CARTESIAN_POINT('',(-0.0568,0.0395,0.0016));
#1846=CARTESIAN_POINT('',(-0.05795,0.0395,0.0016));
#1847=CARTESIAN_POINT('',(-0.0597,0.0395,0.0016));
#1848=CARTESIAN_POINT('',(-0.0597,0.01925,0.0016));
#1849=CARTESIAN_POINT('',(-0.0597,-0.001,0.0016));
#1850=CARTESIAN_POINT('',(-0.0496,-0.001,0.0016));
#1851=CARTESIAN_POINT('',(-0.0395,-0.000999999999999987,0.0016));
#1852=CARTESIAN_POINT('',(-0.0301,-0.0179125,0.0016));
#1853=CARTESIAN_POINT('',(-0.0231038433111604,-0.0305,0.0016));
#1854=CARTESIAN_POINT('',(-0.028,-0.0305,0.0016));
#1855=CARTESIAN_POINT('',(-0.018,-0.0305,0.0016));
#1856=CARTESIAN_POINT('',(-0.018,-0.028,0.0016));
#1857=CARTESIAN_POINT('',(-0.018,-0.0255,0.0016));
#1858=CARTESIAN_POINT('',(-0.028,-0.0255,0.0016));
#1859=CARTESIAN_POINT('',(-0.02474,-0.0255,0.0016));
#1860=CARTESIAN_POINT('',(-0.02474,-0.034825,0.0016));
#1861=CARTESIAN_POINT('',(-0.02474,0.0213,0.0016));
#1862=CARTESIAN_POINT('',(-5.61641479434409E-19,0.0213,0.0016));
#1863=CARTESIAN_POINT('',(0.02474,0.0213,0.0016));
#1864=CARTESIAN_POINT('',(0.02474,-0.034825,0.0016));
#1865=CARTESIAN_POINT('',(0.02474,-0.0255,0.0016));
#1866=CARTESIAN_POINT('',(0.028,-0.0255,0.0016));
#1867=CARTESIAN_POINT('',(0.018,-0.0255,0.0016));
#1868=CARTESIAN_POINT('',(0.018,-0.028,0.0016));
#1869=CARTESIAN_POINT('',(0.018,-0.0305,0.0016));
#1870=CARTESIAN_POINT('',(0.028,-0.0305,0.0016));
#1871=CARTESIAN_POINT('',(0.0496,-0.001,0.0016));
#1872=CARTESIAN_POINT('',(0.0597,-0.001,0.0016));
#1873=CARTESIAN_POINT('',(0.0597,0.01925,0.0016));
#1874=CARTESIAN_POINT('',(0.0597,0.0395,0.0016));
#1875=CARTESIAN_POINT('',(0.05795,0.0395,0.0016));
#1876=CARTESIAN_POINT('',(0.0568,0.0395,0.0016));
#1877=CARTESIAN_POINT('',(0.0568,0.016527714663744,0.0016));
#1878=CARTESIAN_POINT('',(0.0568,0.038,0.0016));
#1879=CARTESIAN_POINT('',(0.055,0.038,0.0016));
#1880=CARTESIAN_POINT('',(0.0532,0.038,0.0016));
#1881=CARTESIAN_POINT('',(0.0532,0.0395,0.0016));
#1882=CARTESIAN_POINT('',(0.0532,0.0395,0.0016));
#1883=CARTESIAN_POINT('',(0.0269,0.0395,0.0016));
#1884=CARTESIAN_POINT('',(-0.0532,0.0395,0.0016));
#1885=CARTESIAN_POINT('',(-0.0532,0.038,0.0016));
#1886=CARTESIAN_POINT('',(0.016,0.025,0.0016));
#1887=CARTESIAN_POINT('',(0.0178,0.025,0.0016));
#1888=CARTESIAN_POINT('',(0.05,0.004,0.0016));
#1889=CARTESIAN_POINT('',(0.0518,0.004,0.0016));
#1890=CARTESIAN_POINT('',(-0.016,0.025,0.0016));
#1891=CARTESIAN_POINT('',(-0.0178,0.025,0.0016));
#1892=CARTESIAN_POINT('',(-0.05,0.004,0.0016));
#1893=CARTESIAN_POINT('',(-0.0518,0.004,0.0016));
#1894=CARTESIAN_POINT('',(0.0496,-0.001,0.0016));
#1895=CARTESIAN_POINT('',(0.0597,-0.001,0.0016));
#1896=CARTESIAN_POINT('',(0.0597,0.01925,0.0016));
#1897=CARTESIAN_POINT('',(0.0597,0.0395,0.0016));
#1898=CARTESIAN_POINT('',(0.05795,0.0395,0.0016));
#1899=CARTESIAN_POINT('',(0.0562,0.0395,0.0016));
#1900=CARTESIAN_POINT('',(0.0562,0.0395,0.001));
#1901=CARTESIAN_POINT('',(0.0562,0.0395,0.001));
#1902=CARTESIAN_POINT('',(0.0562,0.03875,0.0016));
#1903=CARTESIAN_POINT('',(0.0562,0.038,0.0016));
#1904=CARTESIAN_POINT('',(0.0562,0.038,0.001));
#1905=CARTESIAN_POINT('',(0.0562,0.03875,0.001));
#1906=CARTESIAN_POINT('',(0.055,0.038,0.0016));
#1907=CARTESIAN_POINT('',(0.0538,0.038,0.0016));
#1908=CARTESIAN_POINT('',(0.0538,0.038,0.001));
#1909=CARTESIAN_POINT('',(0.055,0.038,0.001));
#1910=CARTESIAN_POINT('',(0.0538,0.03875,0.0016));
#1911=CARTESIAN_POINT('',(0.0538,0.0395,0.0016));
#1912=CARTESIAN_POINT('',(0.0538,0.0395,0.001));
#1913=CARTESIAN_POINT('',(0.0538,0.038,0.001));
#1914=CARTESIAN_POINT('',(0.0269,0.0395,0.0016));
#1915=CARTESIAN_POINT('',(-0.0538,0.0395,0.0016));
#1916=CARTESIAN_POINT('',(-0.0538,0.0395,0.001));
#1917=CARTESIAN_POINT('',(-0.0538,0.0395,0.001));
#1918=CARTESIAN_POINT('',(0.0532,0.0395,0.0016));
#1919=CARTESIAN_POINT('',(0.05,0.004,0.0016));
#1920=CARTESIAN_POINT('',(0.05,0.004,0.001));
#1921=CARTESIAN_POINT('',(0.0512,0.004,0.001));
#1922=CARTESIAN_POINT('',(0.016,0.025,0.0016));
#1923=CARTESIAN_POINT('',(0.016,0.025,0.001));
#1924=CARTESIAN_POINT('',(0.0172,0.025,0.001));
#1925=CARTESIAN_POINT('',(0.016,0.025,0.001));
#1926=CARTESIAN_POINT('',(0.05,0.004,0.001));
#1927=CARTESIAN_POINT('',(0.,0.0023375,0.0066));
#1928=CARTESIAN_POINT('',(0.01074,0.0023,0.0066));
#1929=CARTESIAN_POINT('',(0.01074,0.0113,0.0066));
#1930=CARTESIAN_POINT('',(0.01074,-0.0067,0.0066));
#1931=CARTESIAN_POINT('',(-1.7347234759768E-17,0.0113,0.0066));
#1932=CARTESIAN_POINT('',(-0.01474,0.0113,0.0066));
#1933=CARTESIAN_POINT('',(-0.01474,-0.0117625,0.0066));
#1934=CARTESIAN_POINT('',(0.01474,-0.0117625,0.0066));
#1935=CARTESIAN_POINT('',(0.01474,-0.0067,0.0066));
#1936=CARTESIAN_POINT('',(0.01274,-0.0067,0.0066));
#1937=CARTESIAN_POINT('',(0.02474,0.016527714663744,0.0016));
#1938=CARTESIAN_POINT('',(0.02474,-0.0305,0.0016));
#1939=CARTESIAN_POINT('',(0.018,-0.0305,0.00497));
#1940=CARTESIAN_POINT('',(0.018,-0.028,0.00497));
#1941=CARTESIAN_POINT('',(0.018,-0.0255,0.00497));
#1942=CARTESIAN_POINT('',(0.02474,-0.0255,0.0016));
#1943=CARTESIAN_POINT('',(0.0226189842949973,0.0191789842949973,0.00266050785250134));
#1944=CARTESIAN_POINT('',(0.01474,0.0113,0.0066));
#1945=CARTESIAN_POINT('',(0.01474,-0.0117625,0.0066));
#1946=CARTESIAN_POINT('',(-1.7347234759768E-17,0.0113,0.0066));
#1947=CARTESIAN_POINT('',(-0.0226189842949973,0.0191789842949973,0.00266050785250134));
#1948=CARTESIAN_POINT('',(-1.7347234759768E-17,0.0113,0.0066));
#1949=CARTESIAN_POINT('',(0.0286140880675335,-0.0170866272925242,0.0016));
#1950=CARTESIAN_POINT('',(0.0408014054302573,0.00484082003695107,-0.00833136049600347));
#1951=CARTESIAN_POINT('',(0.0204919474348491,-0.0317,0.0018233685017006));
#1952=CARTESIAN_POINT('',(0.01969992969649,-0.033125,0.0022193773708802));
#1953=CARTESIAN_POINT('',(0.0204919474348491,-0.0317,0.00492134221912518));
#1954=CARTESIAN_POINT('',(0.01969992969649,-0.033125,0.0016));
#1955=CARTESIAN_POINT('',(0.,0.0023375,0.0049));
#1956=CARTESIAN_POINT('',(-1.73000046697923E-17,0.0108986844382503,0.0049));
#1957=CARTESIAN_POINT('',(0.01074,0.0108986844382503,0.0049));
#1958=CARTESIAN_POINT('',(-0.0143386844382503,0.0108986844382503,0.0049));
#1959=CARTESIAN_POINT('',(0.01074,0.0023375,0.0049));
#1960=CARTESIAN_POINT('',(0.01074,-0.0067,0.0049));
#1961=CARTESIAN_POINT('',(3.91939085353511E-18,-0.0067,0.0049));
#1962=CARTESIAN_POINT('',(0.018,-0.028,0.0049));
#1963=CARTESIAN_POINT('',(0.0143386844382503,-0.0285336369152241,0.0049));
#1964=CARTESIAN_POINT('',(0.0143386844382503,0.0023375,0.0049));
#1965=CARTESIAN_POINT('',(-0.0143386844382503,0.0023375,0.0049));
#1966=CARTESIAN_POINT('',(-0.0143386844382503,-0.0285336369152241,0.0049));
#1967=CARTESIAN_POINT('',(-0.018,-0.028,0.0049));
#1968=CARTESIAN_POINT('',(-0.0143386844382503,-0.027466363084776,0.0049));
#1969=CARTESIAN_POINT('',(-0.0143386844382503,0.0023375,0.0049));
#1970=CARTESIAN_POINT('',(0.02397973688765,0.016527714663744,7.94737753001429E-5));
#1971=CARTESIAN_POINT('',(0.018,-0.028,0.00306934221912518));
#1972=CARTESIAN_POINT('',(0.018,-0.0317,0.00306934221912518));
#1973=CARTESIAN_POINT('',(0.0182559789739397,-0.0317,0.00294135273215534));
#1974=CARTESIAN_POINT('',(0.01969992969649,-0.033123,0.0022193773708802));
#1975=CARTESIAN_POINT('',(-1.72577607930847E-17,0.0105397368876501,0.00507947377530014));
#1976=CARTESIAN_POINT('',(0.01074,0.0105397368876501,0.00507947377530014));
#1977=CARTESIAN_POINT('',(0.01074,0.0113,0.00469934221912518));
#1978=CARTESIAN_POINT('',(-0.00776652049313892,0.00432652049313892,0.00818608197255571));
#1979=CARTESIAN_POINT('',(-1.7347234759768E-17,0.0113,0.00469934221912518));
#1980=CARTESIAN_POINT('',(0.01969992969649,-0.033123,0.0011096886854401));
#1981=CARTESIAN_POINT('',(0.018,-0.028,0.00492134221912518));
#1982=CARTESIAN_POINT('',(0.018,-0.0243,0.00492134221912518));
#1983=CARTESIAN_POINT('',(0.018,-0.0317,0.00492134221912518));
#1984=CARTESIAN_POINT('',(0.0210693422191252,-0.0243,0.00492134221912518));
#1985=CARTESIAN_POINT('',(0.0192459737174246,-0.0317,0.00492134221912518));
#1986=CARTESIAN_POINT('',(0.028,-0.0255,-0.251617621135332));
#1987=CARTESIAN_POINT('',(0.018,-0.0255,-0.251617621135332));
#1988=CARTESIAN_POINT('',(0.018,-0.028,-0.251617621135332));
#1989=CARTESIAN_POINT('',(0.018,-0.0305,-0.251617621135332));
#1990=CARTESIAN_POINT('',(0.028,-0.0305,-0.251617621135332));
#1991=CARTESIAN_POINT('',(0.018,-0.028,-0.139208173372384));
#1992=CARTESIAN_POINT('',(0.018,-0.028,0.001));
#1993=CARTESIAN_POINT('',(0.0192,-0.028,0.001));
#1994=CARTESIAN_POINT('',(-0.0301,-0.0179125,0.0016));
#1995=CARTESIAN_POINT('',(-0.0395,-0.000999999999999987,0.0016));
#1996=CARTESIAN_POINT('',(-0.0424163198937667,0.00424704895780107,-0.00723815994688338));
#1997=CARTESIAN_POINT('',(-0.0231038433111604,-0.0305,0.0024180783444198));
#1998=CARTESIAN_POINT('',(-0.0231038433111604,-0.0305,0.0016));
#1999=CARTESIAN_POINT('',(-0.02397973688765,0.016527714663744,7.94737753001429E-5));
#2000=CARTESIAN_POINT('',(-0.018,-0.028,0.00306934221912518));
#2001=CARTESIAN_POINT('',(-0.018,-0.0243,0.00306934221912518));
#2002=CARTESIAN_POINT('',(-0.0197146737753001,-0.0243,0.00221200533147511));
#2003=CARTESIAN_POINT('',(-0.0496,-0.001,0.0016));
#2004=CARTESIAN_POINT('',(-0.0597,-0.001,0.0016));
#2005=CARTESIAN_POINT('',(-0.0597,0.01925,0.0016));
#2006=CARTESIAN_POINT('',(-0.0597,0.0395,0.0016));
#2007=CARTESIAN_POINT('',(-0.05795,0.0395,0.0016));
#2008=CARTESIAN_POINT('',(-0.0568,0.0395,0.00159999999999998));
#2009=CARTESIAN_POINT('',(-0.0562,0.0395,0.001));
#2010=CARTESIAN_POINT('',(-0.0562,0.0395,0.0016));
#2011=CARTESIAN_POINT('',(-0.0562,0.03875,0.0016));
#2012=CARTESIAN_POINT('',(-0.0562,0.03875,0.001));
#2013=CARTESIAN_POINT('',(-0.0562,0.038,0.001));
#2014=CARTESIAN_POINT('',(-0.0562,0.038,0.0016));
#2015=CARTESIAN_POINT('',(-0.055,0.038,0.0016));
#2016=CARTESIAN_POINT('',(-0.055,0.038,0.001));
#2017=CARTESIAN_POINT('',(-0.0538,0.038,0.001));
#2018=CARTESIAN_POINT('',(-0.0538,0.038,0.0016));
#2019=CARTESIAN_POINT('',(-0.0538,0.03875,0.0016));
#2020=CARTESIAN_POINT('',(-0.0538,0.0395,0.001));
#2021=CARTESIAN_POINT('',(-0.05,0.004,0.0016));
#2022=CARTESIAN_POINT('',(-0.05,0.004,0.001));
#2023=CARTESIAN_POINT('',(-0.0512,0.004,0.001));
#2024=CARTESIAN_POINT('',(-0.016,0.025,0.0016));
#2025=CARTESIAN_POINT('',(-0.016,0.025,0.001));
#2026=CARTESIAN_POINT('',(-0.0172,0.025,0.001));
#2027=CARTESIAN_POINT('',(-0.016,0.025,0.001));
#2028=CARTESIAN_POINT('',(-0.05,0.004,0.001));
#2029=CARTESIAN_POINT('',(-0.02474,0.016527714663744,0.0016));
#2030=CARTESIAN_POINT('',(-0.02474,-0.0255,0.0016));
#2031=CARTESIAN_POINT('',(-0.018,-0.0255,0.00497));
#2032=CARTESIAN_POINT('',(-0.018,-0.028,0.00497));
#2033=CARTESIAN_POINT('',(-0.018,-0.0305,0.00497));
#2034=CARTESIAN_POINT('',(-0.02474,-0.0305,0.0016));
#2035=CARTESIAN_POINT('',(-0.0286140880675335,-0.0170866272925242,0.0016));
#2036=CARTESIAN_POINT('',(-0.0408014054302573,0.00484082003695107,-0.00833136049600347));
#2037=CARTESIAN_POINT('',(-0.0204919474348491,-0.0317,0.0018233685017006));
#2038=CARTESIAN_POINT('',(-0.01969992969649,-0.033125,0.0022193773708802));
#2039=CARTESIAN_POINT('',(-0.01969992969649,-0.033125,0.0016));
#2040=CARTESIAN_POINT('',(-0.0204919474348491,-0.0317,0.00492134221912518));
#2041=CARTESIAN_POINT('',(-0.02397973688765,0.016527714663744,7.94737753001429E-5));
#2042=CARTESIAN_POINT('',(-0.018,-0.028,0.00306934221912518));
#2043=CARTESIAN_POINT('',(-0.018,-0.0317,0.00306934221912518));
#2044=CARTESIAN_POINT('',(-0.01969992969649,-0.033123,0.0022193773708802));
#2045=CARTESIAN_POINT('',(-0.0182559789739397,-0.0317,0.00294135273215534));
#2046=CARTESIAN_POINT('',(-0.01969992969649,-0.033123,0.0011096886854401));
#2047=CARTESIAN_POINT('',(-0.018,-0.028,0.00492134221912518));
#2048=CARTESIAN_POINT('',(-0.018,-0.0317,0.00492134221912518));
#2049=CARTESIAN_POINT('',(-0.018,-0.0243,0.00492134221912518));
#2050=CARTESIAN_POINT('',(-0.0192459737174246,-0.0317,0.00492134221912518));
#2051=CARTESIAN_POINT('',(-0.0210693422191252,-0.0243,0.00492134221912518));
#2052=CARTESIAN_POINT('',(-0.028,-0.0255,-0.251617621135332));
#2053=CARTESIAN_POINT('',(-0.018,-0.0255,-0.251617621135332));
#2054=CARTESIAN_POINT('',(-0.018,-0.028,-0.251617621135332));
#2055=CARTESIAN_POINT('',(-0.018,-0.0305,-0.251617621135332));
#2056=CARTESIAN_POINT('',(-0.028,-0.0305,-0.251617621135332));
#2057=CARTESIAN_POINT('',(-0.018,-0.028,-0.139208173372384));
#2058=CARTESIAN_POINT('',(-0.018,-0.028,0.001));
#2059=CARTESIAN_POINT('',(-0.0168,-0.028,0.001));
#2060=CARTESIAN_POINT('',(-0.018,-0.028,0.0016));
#2061=CARTESIAN_POINT('',(-0.0538,0.03875,0.001));
#2062=CARTESIAN_POINT('',(-0.0532,0.038,0.0016));
#2063=CARTESIAN_POINT('',(-0.055,0.038,0.0016));
#2064=CARTESIAN_POINT('',(-0.0568,0.038,0.0016));
#2065=CARTESIAN_POINT('',(-0.0568,0.016527714663744,0.0016));
#2066=CARTESIAN_POINT('',(0.018,-0.028,0.001));
#2067=CARTESIAN_POINT('',(0.0532,0.016527714663744,0.0016));
#2068=CARTESIAN_POINT('',(0.0538,0.038,0.001));
#2069=CARTESIAN_POINT('',(0.055,0.038,0.001));
#2070=CARTESIAN_POINT('',(0.0562,0.038,0.001));
#2071=CARTESIAN_POINT('',(0.0562,0.03875,0.001));
#2072=CARTESIAN_POINT('',(0.01074,0.0023,-0.134208173372384));
#2073=CARTESIAN_POINT('',(0.01074,0.0113,-0.134208173372384));
#2074=CARTESIAN_POINT('',(0.01074,-0.0067,-0.134208173372384));
#2075=CARTESIAN_POINT('',(0.01274,-0.0067,-0.134208173372384));
#2076=CARTESIAN_POINT('',(0.01474,-0.0067,-0.134208173372384));
#2077=CARTESIAN_POINT('',(0.01474,-0.0117625,-0.134208173372384));
#2078=CARTESIAN_POINT('',(0.01474,0.0113,-0.134208173372384));
#2079=CARTESIAN_POINT('',(-1.7347234759768E-17,0.0113,-0.134208173372384));
#2080=MECHANICAL_DESIGN_GEOMETRIC_PRESENTATION_REPRESENTATION('',(#1267),
#2081);
#2081=(
GEOMETRIC_REPRESENTATION_CONTEXT(3)
GLOBAL_UNCERTAINTY_ASSIGNED_CONTEXT((#2082))
GLOBAL_UNIT_ASSIGNED_CONTEXT((#2085,#2084,#2083))
REPRESENTATION_CONTEXT('chasis up','TOP_LEVEL_ASSEMBLY_PART')
);
#2082=UNCERTAINTY_MEASURE_WITH_UNIT(LENGTH_MEASURE(1.E-8),#2085,
'DISTANCE_ACCURACY_VALUE','Maximum Tolerance applied to model');
#2083=(
NAMED_UNIT(*)
SI_UNIT($,.STERADIAN.)
SOLID_ANGLE_UNIT()
);
#2084=(
NAMED_UNIT(*)
PLANE_ANGLE_UNIT()
SI_UNIT($,.RADIAN.)
);
#2085=(
LENGTH_UNIT()
NAMED_UNIT(*)
SI_UNIT($,.METRE.)
);
#2086=PRODUCT_DEFINITION_SHAPE('','',#2087);
#2087=PRODUCT_DEFINITION('','',#2089,#2088);
#2088=PRODUCT_DEFINITION_CONTEXT('',#2095,'design');
#2089=PRODUCT_DEFINITION_FORMATION_WITH_SPECIFIED_SOURCE('','',#2091,
 .NOT_KNOWN.);
#2090=PRODUCT_RELATED_PRODUCT_CATEGORY('','',(#2091));
#2091=PRODUCT('chasis up','chasis up','chasis up',(#2093));
#2092=PRODUCT_CATEGORY('','');
#2093=PRODUCT_CONTEXT('',#2095,'mechanical');
#2094=APPLICATION_PROTOCOL_DEFINITION('international standard',
'ap242_managed_model_based_3d_engineering',2020,#2095);
#2095=APPLICATION_CONTEXT('managed model based 3d engineering');
ENDSEC;
END-ISO-10303-21;
