ISO-10303-21;
HEADER;
/* Generated by software containing ST-Developer
 * from STEP Tools, Inc. (www.steptools.com) 
 */
/* OPTION: using custom renumber hook */

FILE_DESCRIPTION(
/* description */ ('STEP AP242 Edition 2',
'CAx-IF Rec.Pracs.---Representation and Presentation of Product Manufa
cturing Information (PMI)---4.0---2014-10-13',
'CAx-IF Rec.Pracs.---3D Tessellated Geometry---0.4---2014-09-14','2;1',
'CAx-IF Rec.Pracs.---User Defined Attributes---1.5---2016-08-15'),
/* implementation_level */ '2;1');

FILE_NAME(
/* name */ 'cuchilla_d20_h2_c0.4-0.2 - cuchilla',
/* time_stamp */ '2026-09-16T14:31:08Z',
/* author */ (''),
/* organization */ (''),
/* preprocessor_version */ 'ST-DEVELOPER v20',
/* originating_system */ 'ONSHAPE BY PTC INC, 1.220',
/* authorisation */ '  ');

FILE_SCHEMA (('AP242_MANAGED_MODEL_BASED_3D_ENGINEERING_MIM_LF { 1 0 10303 442 3 1 4 }'));
ENDSEC;

DATA;
#10=SHAPE_REPRESENTATION_RELATIONSHIP('','',#472,#11);
#11=ADVANCED_BREP_SHAPE_REPRESENTATION('',(#470),#738);
#12=ORIENTED_EDGE('',*,*,#138,.F.);
#13=ORIENTED_EDGE('',*,*,#139,.T.);
#14=ORIENTED_EDGE('',*,*,#140,.F.);
#15=ORIENTED_EDGE('',*,*,#141,.T.);
#16=ORIENTED_EDGE('',*,*,#142,.T.);
#17=ORIENTED_EDGE('',*,*,#143,.F.);
#18=ORIENTED_EDGE('',*,*,#144,.F.);
#19=ORIENTED_EDGE('',*,*,#145,.F.);
#20=ORIENTED_EDGE('',*,*,#146,.T.);
#21=ORIENTED_EDGE('',*,*,#147,.T.);
#22=ORIENTED_EDGE('',*,*,#148,.T.);
#23=ORIENTED_EDGE('',*,*,#149,.T.);
#24=ORIENTED_EDGE('',*,*,#150,.F.);
#25=ORIENTED_EDGE('',*,*,#151,.T.);
#26=ORIENTED_EDGE('',*,*,#152,.T.);
#27=ORIENTED_EDGE('',*,*,#153,.T.);
#28=ORIENTED_EDGE('',*,*,#139,.F.);
#29=ORIENTED_EDGE('',*,*,#154,.F.);
#30=ORIENTED_EDGE('',*,*,#155,.T.);
#31=ORIENTED_EDGE('',*,*,#156,.T.);
#32=ORIENTED_EDGE('',*,*,#147,.F.);
#33=ORIENTED_EDGE('',*,*,#157,.F.);
#34=ORIENTED_EDGE('',*,*,#158,.T.);
#35=ORIENTED_EDGE('',*,*,#159,.T.);
#36=ORIENTED_EDGE('',*,*,#148,.F.);
#37=ORIENTED_EDGE('',*,*,#160,.F.);
#38=ORIENTED_EDGE('',*,*,#161,.T.);
#39=ORIENTED_EDGE('',*,*,#162,.T.);
#40=ORIENTED_EDGE('',*,*,#143,.T.);
#41=ORIENTED_EDGE('',*,*,#163,.T.);
#42=ORIENTED_EDGE('',*,*,#164,.F.);
#43=ORIENTED_EDGE('',*,*,#165,.F.);
#44=ORIENTED_EDGE('',*,*,#166,.T.);
#45=ORIENTED_EDGE('',*,*,#167,.F.);
#46=ORIENTED_EDGE('',*,*,#168,.T.);
#47=ORIENTED_EDGE('',*,*,#169,.F.);
#48=ORIENTED_EDGE('',*,*,#150,.T.);
#49=ORIENTED_EDGE('',*,*,#170,.F.);
#50=ORIENTED_EDGE('',*,*,#171,.T.);
#51=ORIENTED_EDGE('',*,*,#172,.F.);
#52=ORIENTED_EDGE('',*,*,#145,.T.);
#53=ORIENTED_EDGE('',*,*,#173,.T.);
#54=ORIENTED_EDGE('',*,*,#174,.F.);
#55=ORIENTED_EDGE('',*,*,#175,.T.);
#56=ORIENTED_EDGE('',*,*,#176,.T.);
#57=ORIENTED_EDGE('',*,*,#177,.T.);
#58=ORIENTED_EDGE('',*,*,#178,.F.);
#59=ORIENTED_EDGE('',*,*,#179,.T.);
#60=ORIENTED_EDGE('',*,*,#180,.T.);
#61=ORIENTED_EDGE('',*,*,#174,.T.);
#62=ORIENTED_EDGE('',*,*,#181,.T.);
#63=ORIENTED_EDGE('',*,*,#166,.F.);
#64=ORIENTED_EDGE('',*,*,#182,.T.);
#65=ORIENTED_EDGE('',*,*,#183,.F.);
#66=ORIENTED_EDGE('',*,*,#184,.F.);
#67=ORIENTED_EDGE('',*,*,#164,.T.);
#68=ORIENTED_EDGE('',*,*,#185,.F.);
#69=ORIENTED_EDGE('',*,*,#186,.T.);
#70=ORIENTED_EDGE('',*,*,#152,.F.);
#71=ORIENTED_EDGE('',*,*,#187,.T.);
#72=ORIENTED_EDGE('',*,*,#161,.F.);
#73=ORIENTED_EDGE('',*,*,#188,.T.);
#74=ORIENTED_EDGE('',*,*,#155,.F.);
#75=ORIENTED_EDGE('',*,*,#189,.F.);
#76=ORIENTED_EDGE('',*,*,#171,.F.);
#77=ORIENTED_EDGE('',*,*,#190,.F.);
#78=ORIENTED_EDGE('',*,*,#158,.F.);
#79=ORIENTED_EDGE('',*,*,#191,.F.);
#80=ORIENTED_EDGE('',*,*,#168,.F.);
#81=ORIENTED_EDGE('',*,*,#192,.F.);
#82=ORIENTED_EDGE('',*,*,#176,.F.);
#83=ORIENTED_EDGE('',*,*,#193,.F.);
#84=ORIENTED_EDGE('',*,*,#194,.F.);
#85=ORIENTED_EDGE('',*,*,#195,.T.);
#86=ORIENTED_EDGE('',*,*,#183,.T.);
#87=ORIENTED_EDGE('',*,*,#196,.F.);
#88=ORIENTED_EDGE('',*,*,#197,.T.);
#89=ORIENTED_EDGE('',*,*,#178,.T.);
#90=ORIENTED_EDGE('',*,*,#165,.T.);
#91=ORIENTED_EDGE('',*,*,#184,.T.);
#92=ORIENTED_EDGE('',*,*,#195,.F.);
#93=ORIENTED_EDGE('',*,*,#142,.F.);
#94=ORIENTED_EDGE('',*,*,#198,.F.);
#95=ORIENTED_EDGE('',*,*,#196,.T.);
#96=ORIENTED_EDGE('',*,*,#182,.F.);
#97=ORIENTED_EDGE('',*,*,#163,.F.);
#98=ORIENTED_EDGE('',*,*,#169,.T.);
#99=ORIENTED_EDGE('',*,*,#191,.T.);
#100=ORIENTED_EDGE('',*,*,#160,.T.);
#101=ORIENTED_EDGE('',*,*,#151,.F.);
#102=ORIENTED_EDGE('',*,*,#167,.T.);
#103=ORIENTED_EDGE('',*,*,#181,.F.);
#104=ORIENTED_EDGE('',*,*,#177,.F.);
#105=ORIENTED_EDGE('',*,*,#192,.T.);
#106=ORIENTED_EDGE('',*,*,#172,.T.);
#107=ORIENTED_EDGE('',*,*,#189,.T.);
#108=ORIENTED_EDGE('',*,*,#157,.T.);
#109=ORIENTED_EDGE('',*,*,#146,.F.);
#110=ORIENTED_EDGE('',*,*,#170,.T.);
#111=ORIENTED_EDGE('',*,*,#149,.F.);
#112=ORIENTED_EDGE('',*,*,#159,.F.);
#113=ORIENTED_EDGE('',*,*,#190,.T.);
#114=ORIENTED_EDGE('',*,*,#187,.F.);
#115=ORIENTED_EDGE('',*,*,#154,.T.);
#116=ORIENTED_EDGE('',*,*,#138,.T.);
#117=ORIENTED_EDGE('',*,*,#162,.F.);
#118=ORIENTED_EDGE('',*,*,#144,.T.);
#119=ORIENTED_EDGE('',*,*,#156,.F.);
#120=ORIENTED_EDGE('',*,*,#188,.F.);
#121=ORIENTED_EDGE('',*,*,#173,.F.);
#122=ORIENTED_EDGE('',*,*,#175,.F.);
#123=ORIENTED_EDGE('',*,*,#180,.F.);
#124=ORIENTED_EDGE('',*,*,#199,.T.);
#125=ORIENTED_EDGE('',*,*,#193,.T.);
#126=ORIENTED_EDGE('',*,*,#199,.F.);
#127=ORIENTED_EDGE('',*,*,#179,.F.);
#128=ORIENTED_EDGE('',*,*,#197,.F.);
#129=ORIENTED_EDGE('',*,*,#194,.T.);
#130=ORIENTED_EDGE('',*,*,#153,.F.);
#131=ORIENTED_EDGE('',*,*,#186,.F.);
#132=ORIENTED_EDGE('',*,*,#200,.T.);
#133=ORIENTED_EDGE('',*,*,#140,.T.);
#134=ORIENTED_EDGE('',*,*,#200,.F.);
#135=ORIENTED_EDGE('',*,*,#185,.T.);
#136=ORIENTED_EDGE('',*,*,#198,.T.);
#137=ORIENTED_EDGE('',*,*,#141,.F.);
#138=EDGE_CURVE('',#201,#202,#243,.T.);
#139=EDGE_CURVE('',#201,#203,#244,.T.);
#140=EDGE_CURVE('',#204,#203,#245,.T.);
#141=EDGE_CURVE('',#204,#205,#246,.T.);
#142=EDGE_CURVE('',#205,#206,#247,.T.);
#143=EDGE_CURVE('',#202,#206,#248,.T.);
#144=EDGE_CURVE('',#207,#208,#249,.T.);
#145=EDGE_CURVE('',#209,#207,#250,.T.);
#146=EDGE_CURVE('',#209,#210,#251,.T.);
#147=EDGE_CURVE('',#210,#208,#252,.T.);
#148=EDGE_CURVE('',#211,#212,#253,.T.);
#149=EDGE_CURVE('',#212,#213,#254,.T.);
#150=EDGE_CURVE('',#214,#213,#255,.T.);
#151=EDGE_CURVE('',#214,#211,#256,.T.);
#152=EDGE_CURVE('',#215,#216,#257,.T.);
#153=EDGE_CURVE('',#216,#203,#258,.T.);
#154=EDGE_CURVE('',#215,#201,#259,.T.);
#155=EDGE_CURVE('',#217,#218,#260,.T.);
#156=EDGE_CURVE('',#218,#208,#261,.T.);
#157=EDGE_CURVE('',#217,#210,#262,.T.);
#158=EDGE_CURVE('',#219,#220,#263,.T.);
#159=EDGE_CURVE('',#220,#212,#264,.T.);
#160=EDGE_CURVE('',#219,#211,#265,.T.);
#161=EDGE_CURVE('',#221,#222,#266,.T.);
#162=EDGE_CURVE('',#222,#202,#267,.T.);
#163=EDGE_CURVE('',#206,#223,#268,.T.);
#164=EDGE_CURVE('',#224,#223,#269,.T.);
#165=EDGE_CURVE('',#225,#224,#270,.T.);
#166=EDGE_CURVE('',#225,#226,#271,.T.);
#167=EDGE_CURVE('',#227,#226,#272,.T.);
#168=EDGE_CURVE('',#227,#228,#273,.T.);
#169=EDGE_CURVE('',#214,#228,#274,.T.);
#170=EDGE_CURVE('',#229,#213,#275,.T.);
#171=EDGE_CURVE('',#229,#230,#276,.T.);
#172=EDGE_CURVE('',#209,#230,#277,.T.);
#173=EDGE_CURVE('',#207,#221,#278,.T.);
#174=EDGE_CURVE('',#231,#232,#279,.T.);
#175=EDGE_CURVE('',#231,#233,#280,.T.);
#176=EDGE_CURVE('',#233,#234,#281,.T.);
#177=EDGE_CURVE('',#234,#232,#282,.T.);
#178=EDGE_CURVE('',#235,#225,#283,.T.);
#179=EDGE_CURVE('',#235,#236,#284,.T.);
#180=EDGE_CURVE('',#236,#231,#285,.T.);
#181=EDGE_CURVE('',#232,#226,#286,.T.);
#182=EDGE_CURVE('',#223,#237,#287,.T.);
#183=EDGE_CURVE('',#238,#237,#288,.T.);
#184=EDGE_CURVE('',#224,#238,#289,.T.);
#185=EDGE_CURVE('',#239,#240,#290,.T.);
#186=EDGE_CURVE('',#239,#216,#291,.T.);
#187=EDGE_CURVE('',#215,#222,#292,.T.);
#188=EDGE_CURVE('',#221,#218,#293,.T.);
#189=EDGE_CURVE('',#230,#217,#294,.T.);
#190=EDGE_CURVE('',#220,#229,#295,.T.);
#191=EDGE_CURVE('',#228,#219,#296,.T.);
#192=EDGE_CURVE('',#234,#227,#297,.T.);
#193=EDGE_CURVE('',#241,#233,#298,.T.);
#194=EDGE_CURVE('',#242,#241,#299,.T.);
#195=EDGE_CURVE('',#242,#238,#300,.T.);
#196=EDGE_CURVE('',#240,#237,#301,.T.);
#197=EDGE_CURVE('',#242,#235,#302,.T.);
#198=EDGE_CURVE('',#240,#205,#303,.T.);
#199=EDGE_CURVE('',#236,#241,#304,.T.);
#200=EDGE_CURVE('',#239,#204,#305,.T.);
#201=VERTEX_POINT('',#611);
#202=VERTEX_POINT('',#612);
#203=VERTEX_POINT('',#614);
#204=VERTEX_POINT('',#616);
#205=VERTEX_POINT('',#618);
#206=VERTEX_POINT('',#620);
#207=VERTEX_POINT('',#624);
#208=VERTEX_POINT('',#625);
#209=VERTEX_POINT('',#627);
#210=VERTEX_POINT('',#629);
#211=VERTEX_POINT('',#633);
#212=VERTEX_POINT('',#634);
#213=VERTEX_POINT('',#636);
#214=VERTEX_POINT('',#638);
#215=VERTEX_POINT('',#642);
#216=VERTEX_POINT('',#643);
#217=VERTEX_POINT('',#648);
#218=VERTEX_POINT('',#649);
#219=VERTEX_POINT('',#654);
#220=VERTEX_POINT('',#655);
#221=VERTEX_POINT('',#660);
#222=VERTEX_POINT('',#661);
#223=VERTEX_POINT('',#664);
#224=VERTEX_POINT('',#666);
#225=VERTEX_POINT('',#668);
#226=VERTEX_POINT('',#670);
#227=VERTEX_POINT('',#672);
#228=VERTEX_POINT('',#674);
#229=VERTEX_POINT('',#677);
#230=VERTEX_POINT('',#679);
#231=VERTEX_POINT('',#684);
#232=VERTEX_POINT('',#685);
#233=VERTEX_POINT('',#687);
#234=VERTEX_POINT('',#689);
#235=VERTEX_POINT('',#693);
#236=VERTEX_POINT('',#695);
#237=VERTEX_POINT('',#700);
#238=VERTEX_POINT('',#702);
#239=VERTEX_POINT('',#706);
#240=VERTEX_POINT('',#707);
#241=VERTEX_POINT('',#716);
#242=VERTEX_POINT('',#718);
#243=LINE('',#610,#306);
#244=LINE('',#613,#307);
#245=LINE('',#615,#308);
#246=LINE('',#617,#309);
#247=LINE('',#619,#310);
#248=LINE('',#621,#311);
#249=LINE('',#623,#312);
#250=LINE('',#626,#313);
#251=LINE('',#628,#314);
#252=LINE('',#630,#315);
#253=LINE('',#632,#316);
#254=LINE('',#635,#317);
#255=LINE('',#637,#318);
#256=LINE('',#639,#319);
#257=LINE('',#641,#320);
#258=LINE('',#644,#321);
#259=LINE('',#645,#322);
#260=LINE('',#647,#323);
#261=LINE('',#650,#324);
#262=LINE('',#651,#325);
#263=LINE('',#653,#326);
#264=LINE('',#656,#327);
#265=LINE('',#657,#328);
#266=LINE('',#659,#329);
#267=LINE('',#662,#330);
#268=LINE('',#663,#331);
#269=LINE('',#665,#332);
#270=LINE('',#667,#333);
#271=LINE('',#669,#334);
#272=LINE('',#671,#335);
#273=LINE('',#673,#336);
#274=LINE('',#675,#337);
#275=LINE('',#676,#338);
#276=LINE('',#678,#339);
#277=LINE('',#680,#340);
#278=LINE('',#681,#341);
#279=LINE('',#683,#342);
#280=LINE('',#686,#343);
#281=LINE('',#688,#344);
#282=LINE('',#690,#345);
#283=LINE('',#692,#346);
#284=LINE('',#694,#347);
#285=LINE('',#696,#348);
#286=LINE('',#697,#349);
#287=LINE('',#699,#350);
#288=LINE('',#701,#351);
#289=LINE('',#703,#352);
#290=LINE('',#705,#353);
#291=LINE('',#708,#354);
#292=LINE('',#709,#355);
#293=LINE('',#710,#356);
#294=LINE('',#711,#357);
#295=LINE('',#712,#358);
#296=LINE('',#713,#359);
#297=LINE('',#714,#360);
#298=LINE('',#715,#361);
#299=LINE('',#717,#362);
#300=LINE('',#719,#363);
#301=LINE('',#720,#364);
#302=LINE('',#722,#365);
#303=LINE('',#724,#366);
#304=LINE('',#732,#367);
#305=LINE('',#735,#368);
#306=VECTOR('',#501,1.);
#307=VECTOR('',#502,1.);
#308=VECTOR('',#503,1.);
#309=VECTOR('',#504,1.);
#310=VECTOR('',#505,1.);
#311=VECTOR('',#506,1.);
#312=VECTOR('',#509,1.);
#313=VECTOR('',#510,1.);
#314=VECTOR('',#511,1.);
#315=VECTOR('',#512,1.);
#316=VECTOR('',#515,1.);
#317=VECTOR('',#516,1.);
#318=VECTOR('',#517,1.);
#319=VECTOR('',#518,1.);
#320=VECTOR('',#521,1.);
#321=VECTOR('',#522,1.);
#322=VECTOR('',#523,1.);
#323=VECTOR('',#526,1.);
#324=VECTOR('',#527,1.);
#325=VECTOR('',#528,1.);
#326=VECTOR('',#531,1.);
#327=VECTOR('',#532,1.);
#328=VECTOR('',#533,1.);
#329=VECTOR('',#536,1.);
#330=VECTOR('',#537,1.);
#331=VECTOR('',#538,1.);
#332=VECTOR('',#539,1.);
#333=VECTOR('',#540,1.);
#334=VECTOR('',#541,1.);
#335=VECTOR('',#542,1.);
#336=VECTOR('',#543,1.);
#337=VECTOR('',#544,1.);
#338=VECTOR('',#545,1.);
#339=VECTOR('',#546,1.);
#340=VECTOR('',#547,1.);
#341=VECTOR('',#548,1.);
#342=VECTOR('',#551,1.);
#343=VECTOR('',#552,1.);
#344=VECTOR('',#553,1.);
#345=VECTOR('',#554,1.);
#346=VECTOR('',#557,1.);
#347=VECTOR('',#558,1.);
#348=VECTOR('',#559,1.);
#349=VECTOR('',#560,1.);
#350=VECTOR('',#563,1.);
#351=VECTOR('',#564,1.);
#352=VECTOR('',#565,1.);
#353=VECTOR('',#568,1.);
#354=VECTOR('',#569,1.);
#355=VECTOR('',#570,1.);
#356=VECTOR('',#571,1.);
#357=VECTOR('',#572,1.);
#358=VECTOR('',#573,1.);
#359=VECTOR('',#574,1.);
#360=VECTOR('',#575,1.);
#361=VECTOR('',#576,1.);
#362=VECTOR('',#577,1.);
#363=VECTOR('',#578,1.);
#364=VECTOR('',#579,1.);
#365=VECTOR('',#582,1.);
#366=VECTOR('',#585,1.);
#367=VECTOR('',#600,1.);
#368=VECTOR('',#605,1.);
#369=EDGE_LOOP('',(#12,#13,#14,#15,#16,#17));
#370=EDGE_LOOP('',(#18,#19,#20,#21));
#371=EDGE_LOOP('',(#22,#23,#24,#25));
#372=EDGE_LOOP('',(#26,#27,#28,#29));
#373=EDGE_LOOP('',(#30,#31,#32,#33));
#374=EDGE_LOOP('',(#34,#35,#36,#37));
#375=EDGE_LOOP('',(#38,#39,#40,#41,#42,#43,#44,#45,#46,#47,#48,#49,#50,
#51,#52,#53));
#376=EDGE_LOOP('',(#54,#55,#56,#57));
#377=EDGE_LOOP('',(#58,#59,#60,#61,#62,#63));
#378=EDGE_LOOP('',(#64,#65,#66,#67));
#379=EDGE_LOOP('',(#68,#69,#70,#71,#72,#73,#74,#75,#76,#77,#78,#79,#80,
#81,#82,#83,#84,#85,#86,#87));
#380=EDGE_LOOP('',(#88,#89,#90,#91,#92));
#381=EDGE_LOOP('',(#93,#94,#95,#96,#97));
#382=EDGE_LOOP('',(#98,#99,#100,#101));
#383=EDGE_LOOP('',(#102,#103,#104,#105));
#384=EDGE_LOOP('',(#106,#107,#108,#109));
#385=EDGE_LOOP('',(#110,#111,#112,#113));
#386=EDGE_LOOP('',(#114,#115,#116,#117));
#387=EDGE_LOOP('',(#118,#119,#120,#121));
#388=EDGE_LOOP('',(#122,#123,#124,#125));
#389=EDGE_LOOP('',(#126,#127,#128,#129));
#390=EDGE_LOOP('',(#130,#131,#132,#133));
#391=EDGE_LOOP('',(#134,#135,#136,#137));
#392=FACE_BOUND('',#369,.T.);
#393=FACE_BOUND('',#370,.T.);
#394=FACE_BOUND('',#371,.T.);
#395=FACE_BOUND('',#372,.T.);
#396=FACE_BOUND('',#373,.T.);
#397=FACE_BOUND('',#374,.T.);
#398=FACE_BOUND('',#375,.T.);
#399=FACE_BOUND('',#376,.T.);
#400=FACE_BOUND('',#377,.T.);
#401=FACE_BOUND('',#378,.T.);
#402=FACE_BOUND('',#379,.T.);
#403=FACE_BOUND('',#380,.T.);
#404=FACE_BOUND('',#381,.T.);
#405=FACE_BOUND('',#382,.T.);
#406=FACE_BOUND('',#383,.T.);
#407=FACE_BOUND('',#384,.T.);
#408=FACE_BOUND('',#385,.T.);
#409=FACE_BOUND('',#386,.T.);
#410=FACE_BOUND('',#387,.T.);
#411=FACE_BOUND('',#388,.T.);
#412=FACE_BOUND('',#389,.T.);
#413=FACE_BOUND('',#390,.T.);
#414=FACE_BOUND('',#391,.T.);
#415=PLANE('',#474);
#416=PLANE('',#475);
#417=PLANE('',#476);
#418=PLANE('',#477);
#419=PLANE('',#478);
#420=PLANE('',#479);
#421=PLANE('',#480);
#422=PLANE('',#481);
#423=PLANE('',#482);
#424=PLANE('',#483);
#425=PLANE('',#484);
#426=PLANE('',#485);
#427=PLANE('',#486);
#428=PLANE('',#487);
#429=PLANE('',#488);
#430=PLANE('',#489);
#431=PLANE('',#490);
#432=PLANE('',#491);
#433=PLANE('',#492);
#434=PLANE('',#493);
#435=PLANE('',#494);
#436=PLANE('',#495);
#437=PLANE('',#496);
#438=ADVANCED_FACE('',(#392),#415,.F.);
#439=ADVANCED_FACE('',(#393),#416,.F.);
#440=ADVANCED_FACE('',(#394),#417,.F.);
#441=ADVANCED_FACE('',(#395),#418,.F.);
#442=ADVANCED_FACE('',(#396),#419,.F.);
#443=ADVANCED_FACE('',(#397),#420,.F.);
#444=ADVANCED_FACE('',(#398),#421,.F.);
#445=ADVANCED_FACE('',(#399),#422,.F.);
#446=ADVANCED_FACE('',(#400),#423,.F.);
#447=ADVANCED_FACE('',(#401),#424,.F.);
#448=ADVANCED_FACE('',(#402),#425,.T.);
#449=ADVANCED_FACE('',(#403),#426,.T.);
#450=ADVANCED_FACE('',(#404),#427,.F.);
#451=ADVANCED_FACE('',(#405),#428,.T.);
#452=ADVANCED_FACE('',(#406),#429,.T.);
#453=ADVANCED_FACE('',(#407),#430,.T.);
#454=ADVANCED_FACE('',(#408),#431,.T.);
#455=ADVANCED_FACE('',(#409),#432,.F.);
#456=ADVANCED_FACE('',(#410),#433,.F.);
#457=ADVANCED_FACE('',(#411),#434,.T.);
#458=ADVANCED_FACE('',(#412),#435,.T.);
#459=ADVANCED_FACE('',(#413),#436,.T.);
#460=ADVANCED_FACE('',(#414),#437,.T.);
#461=CLOSED_SHELL('',(#438,#439,#440,#441,#442,#443,#444,#445,#446,#447,
#448,#449,#450,#451,#452,#453,#454,#455,#456,#457,#458,#459,#460));
#462=STYLED_ITEM('',(#463),#470);
#463=PRESENTATION_STYLE_ASSIGNMENT((#464));
#464=SURFACE_STYLE_USAGE(.BOTH.,#465);
#465=SURFACE_SIDE_STYLE('',(#466));
#466=SURFACE_STYLE_FILL_AREA(#467);
#467=FILL_AREA_STYLE('',(#468));
#468=FILL_AREA_STYLE_COLOUR('',#469);
#469=COLOUR_RGB('',0.501960784313726,0.501960784313726,0.501960784313726);
#470=MANIFOLD_SOLID_BREP('cuchilla',#461);
#471=SHAPE_DEFINITION_REPRESENTATION(#743,#472);
#472=SHAPE_REPRESENTATION('cuchilla',(#473),#738);
#473=AXIS2_PLACEMENT_3D('',#608,#497,#498);
#474=AXIS2_PLACEMENT_3D('',#609,#499,#500);
#475=AXIS2_PLACEMENT_3D('',#622,#507,#508);
#476=AXIS2_PLACEMENT_3D('',#631,#513,#514);
#477=AXIS2_PLACEMENT_3D('',#640,#519,#520);
#478=AXIS2_PLACEMENT_3D('',#646,#524,#525);
#479=AXIS2_PLACEMENT_3D('',#652,#529,#530);
#480=AXIS2_PLACEMENT_3D('',#658,#534,#535);
#481=AXIS2_PLACEMENT_3D('',#682,#549,#550);
#482=AXIS2_PLACEMENT_3D('',#691,#555,#556);
#483=AXIS2_PLACEMENT_3D('',#698,#561,#562);
#484=AXIS2_PLACEMENT_3D('',#704,#566,#567);
#485=AXIS2_PLACEMENT_3D('',#721,#580,#581);
#486=AXIS2_PLACEMENT_3D('',#723,#583,#584);
#487=AXIS2_PLACEMENT_3D('',#725,#586,#587);
#488=AXIS2_PLACEMENT_3D('',#726,#588,#589);
#489=AXIS2_PLACEMENT_3D('',#727,#590,#591);
#490=AXIS2_PLACEMENT_3D('',#728,#592,#593);
#491=AXIS2_PLACEMENT_3D('',#729,#594,#595);
#492=AXIS2_PLACEMENT_3D('',#730,#596,#597);
#493=AXIS2_PLACEMENT_3D('',#731,#598,#599);
#494=AXIS2_PLACEMENT_3D('',#733,#601,#602);
#495=AXIS2_PLACEMENT_3D('',#734,#603,#604);
#496=AXIS2_PLACEMENT_3D('',#736,#606,#607);
#497=DIRECTION('',(0.,0.,1.));
#498=DIRECTION('',(1.,0.,0.));
#499=DIRECTION('',(1.,0.,3.85494105772624E-16));
#500=DIRECTION('',(3.85494105772624E-16,0.,-1.));
#501=DIRECTION('',(3.08394871425667E-16,0.600001429132663,-0.799998928148509));
#502=DIRECTION('',(0.,1.,0.));
#503=DIRECTION('',(1.44560289664734E-16,0.,-1.));
#504=DIRECTION('',(0.,1.,0.));
#505=DIRECTION('',(3.85494105772624E-16,0.,-1.));
#506=DIRECTION('',(0.,1.,0.));
#507=DIRECTION('',(1.,0.,3.85494105772624E-16));
#508=DIRECTION('',(3.85494105772624E-16,0.,-1.));
#509=DIRECTION('',(-3.08394871425667E-16,0.600001429132662,0.799998928148509));
#510=DIRECTION('',(0.,1.,0.));
#511=DIRECTION('',(-3.08394871425667E-16,-0.600001429132662,0.799998928148509));
#512=DIRECTION('',(0.,1.,0.));
#513=DIRECTION('',(1.,0.,3.85494105772624E-16));
#514=DIRECTION('',(3.85494105772624E-16,0.,-1.));
#515=DIRECTION('',(0.,1.,0.));
#516=DIRECTION('',(3.08394871425667E-16,-0.600001429132663,-0.799998928148509));
#517=DIRECTION('',(0.,1.,0.));
#518=DIRECTION('',(-3.08394871425667E-16,-0.600001429132662,0.799998928148509));
#519=DIRECTION('',(1.44560289664734E-16,0.,-1.));
#520=DIRECTION('',(-1.,0.,-1.44560289664734E-16));
#521=DIRECTION('',(0.,1.,0.));
#522=DIRECTION('',(-1.,0.,-1.44560289664734E-16));
#523=DIRECTION('',(-1.,0.,-3.85494105772624E-16));
#524=DIRECTION('',(1.44560289664734E-16,0.,-1.));
#525=DIRECTION('',(-1.,0.,-1.44560289664734E-16));
#526=DIRECTION('',(0.,1.,0.));
#527=DIRECTION('',(-1.,0.,-3.85494105772624E-16));
#528=DIRECTION('',(-1.,0.,-3.85494105772624E-16));
#529=DIRECTION('',(1.44560289664734E-16,0.,-1.));
#530=DIRECTION('',(-1.,0.,-1.44560289664734E-16));
#531=DIRECTION('',(0.,1.,0.));
#532=DIRECTION('',(-1.,0.,-3.85494105772624E-16));
#533=DIRECTION('',(-1.,0.,-3.85494105772624E-16));
#534=DIRECTION('',(0.0810334457587637,0.,0.996711382832795));
#535=DIRECTION('',(0.996711382832795,0.,-0.0810334457587637));
#536=DIRECTION('',(0.,1.,0.));
#537=DIRECTION('',(-0.994875720772012,-0.0606633794761019,0.0808842049408139));
#538=DIRECTION('',(0.996711382832795,0.,-0.0810334457587637));
#539=DIRECTION('',(0.,1.,0.));
#540=DIRECTION('',(0.996711382832795,0.,-0.0810334457587637));
#541=DIRECTION('',(0.,1.,0.));
#542=DIRECTION('',(-0.994875720772012,0.0606633794761019,0.0808842049408139));
#543=DIRECTION('',(0.,1.,0.));
#544=DIRECTION('',(0.994875720772012,0.0606633794761019,-0.0808842049408139));
#545=DIRECTION('',(-0.994875720772012,0.0606633794761019,0.0808842049408139));
#546=DIRECTION('',(0.,1.,0.));
#547=DIRECTION('',(0.994875720772012,0.0606633794761019,-0.0808842049408139));
#548=DIRECTION('',(0.994875720772012,-0.0606633794761019,-0.0808842049408139));
#549=DIRECTION('',(1.44560289664734E-16,0.,-1.));
#550=DIRECTION('',(-1.,0.,-1.44560289664734E-16));
#551=DIRECTION('',(0.,1.,0.));
#552=DIRECTION('',(1.,0.,1.44560289664734E-16));
#553=DIRECTION('',(0.,1.,0.));
#554=DIRECTION('',(-1.,0.,-3.85494105772624E-16));
#555=DIRECTION('',(1.,0.,3.85494105772624E-16));
#556=DIRECTION('',(3.85494105772624E-16,0.,-1.));
#557=DIRECTION('',(3.85494105772624E-16,0.,-1.));
#558=DIRECTION('',(0.,1.,0.));
#559=DIRECTION('',(1.44560289664734E-16,0.,-1.));
#560=DIRECTION('',(3.08394871425667E-16,-0.600001429132662,-0.799998928148509));
#561=DIRECTION('',(-0.417041901027163,0.,-0.90888726076871));
#562=DIRECTION('',(-0.90888726076871,0.,0.417041901027163));
#563=DIRECTION('',(-0.90888726076871,0.,0.417041901027163));
#564=DIRECTION('',(0.,1.,0.));
#565=DIRECTION('',(-0.90888726076871,0.,0.417041901027163));
#566=DIRECTION('',(-1.,0.,0.));
#567=DIRECTION('',(0.,0.,1.));
#568=DIRECTION('',(0.,1.,0.));
#569=DIRECTION('',(1.44560289664734E-16,0.,-1.));
#570=DIRECTION('',(3.08394871425667E-16,0.600001429132662,-0.799998928148509));
#571=DIRECTION('',(-3.08394871425667E-16,0.600001429132662,0.799998928148509));
#572=DIRECTION('',(-3.08394871425667E-16,-0.600001429132663,0.799998928148509));
#573=DIRECTION('',(3.08394871425667E-16,-0.600001429132663,-0.799998928148509));
#574=DIRECTION('',(-3.08394871425667E-16,-0.600001429132662,0.799998928148509));
#575=DIRECTION('',(3.08394871425667E-16,-0.600001429132663,-0.799998928148509));
#576=DIRECTION('',(1.44560289664734E-16,0.,-1.));
#577=DIRECTION('',(0.,1.,0.));
#578=DIRECTION('',(0.,0.,1.));
#579=DIRECTION('',(0.,0.,1.));
#580=DIRECTION('',(0.,-1.,0.));
#581=DIRECTION('',(1.,0.,0.));
#582=DIRECTION('',(-1.,0.,-1.44560289664734E-16));
#583=DIRECTION('',(0.,-1.,0.));
#584=DIRECTION('',(1.,0.,0.));
#585=DIRECTION('',(-1.,0.,-1.44560289664734E-16));
#586=DIRECTION('',(2.31297014385792E-16,-0.799998928148509,-0.600001429132662));
#587=DIRECTION('',(0.,0.600001429132662,-0.799998928148509));
#588=DIRECTION('',(2.31297014385792E-16,0.799998928148509,-0.600001429132663));
#589=DIRECTION('',(0.,0.600001429132663,0.799998928148509));
#590=DIRECTION('',(2.31297014385792E-16,-0.799998928148509,-0.600001429132663));
#591=DIRECTION('',(0.,0.600001429132663,-0.799998928148509));
#592=DIRECTION('',(2.31297014385792E-16,0.799998928148509,-0.600001429132663));
#593=DIRECTION('',(0.,0.600001429132663,0.799998928148509));
#594=DIRECTION('',(-2.31297014385792E-16,0.799998928148509,0.600001429132662));
#595=DIRECTION('',(0.,-0.600001429132662,0.799998928148509));
#596=DIRECTION('',(-2.31297014385792E-16,-0.799998928148509,0.600001429132662));
#597=DIRECTION('',(0.,-0.600001429132662,-0.799998928148509));
#598=DIRECTION('',(0.,1.,0.));
#599=DIRECTION('',(0.,0.,1.));
#600=DIRECTION('',(1.,0.,1.44560289664734E-16));
#601=DIRECTION('',(-1.44560289664734E-16,0.,1.));
#602=DIRECTION('',(1.,0.,1.44560289664734E-16));
#603=DIRECTION('',(0.,-1.,0.));
#604=DIRECTION('',(0.,0.,-1.));
#605=DIRECTION('',(-1.,0.,-1.44560289664734E-16));
#606=DIRECTION('',(-1.44560289664734E-16,0.,1.));
#607=DIRECTION('',(1.,0.,1.44560289664734E-16));
#608=CARTESIAN_POINT('',(0.,0.,0.));
#609=CARTESIAN_POINT('',(-0.0056,-0.06,0.00225));
#610=CARTESIAN_POINT('',(-0.0056,0.0375375090716611,0.00125000000000001));
#611=CARTESIAN_POINT('',(-0.0056,0.0351,0.0045));
#612=CARTESIAN_POINT('',(-0.0056,0.0384750125607616,1.78893358460108E-18));
#613=CARTESIAN_POINT('',(-0.0056,-0.06,0.0045));
#614=CARTESIAN_POINT('',(-0.0056,0.058,0.0045));
#615=CARTESIAN_POINT('',(-0.0056,0.058,0.0049));
#616=CARTESIAN_POINT('',(-0.0056,0.058,0.0049));
#617=CARTESIAN_POINT('',(-0.0056,-0.06,0.0049));
#618=CARTESIAN_POINT('',(-0.0056,0.06,0.0049));
#619=CARTESIAN_POINT('',(-0.0056,0.06,0.00225));
#620=CARTESIAN_POINT('',(-0.0056,0.06,2.16840434497101E-19));
#621=CARTESIAN_POINT('',(-0.0056,-0.06,2.16840434497101E-19));
#622=CARTESIAN_POINT('',(-0.0056,-0.06,0.00225));
#623=CARTESIAN_POINT('',(-0.0056,0.0224624909283389,0.00125));
#624=CARTESIAN_POINT('',(-0.0056,0.0215249874392385,5.42101086242752E-19));
#625=CARTESIAN_POINT('',(-0.0056,0.0249,0.0045));
#626=CARTESIAN_POINT('',(-0.0056,-0.06,2.16840434497101E-19));
#627=CARTESIAN_POINT('',(-0.0056,0.0109750125607615,3.03576608295941E-18));
#628=CARTESIAN_POINT('',(-0.0056,0.0100375090716611,0.00125));
#629=CARTESIAN_POINT('',(-0.0056,0.0076,0.0045));
#630=CARTESIAN_POINT('',(-0.0056,-0.06,0.0045));
#631=CARTESIAN_POINT('',(-0.0056,-0.06,0.00225));
#632=CARTESIAN_POINT('',(-0.0056,-0.06,0.0045));
#633=CARTESIAN_POINT('',(-0.0056,-0.0249,0.0045));
#634=CARTESIAN_POINT('',(-0.0056,-0.0076,0.0045));
#635=CARTESIAN_POINT('',(-0.0056,-0.0100375090716611,0.00125));
#636=CARTESIAN_POINT('',(-0.0056,-0.0109750125607615,-1.0842021724855E-18));
#637=CARTESIAN_POINT('',(-0.0056,-0.06,2.16840434497101E-19));
#638=CARTESIAN_POINT('',(-0.0056,-0.0215249874392385,-1.68051336735253E-18));
#639=CARTESIAN_POINT('',(-0.0056,-0.0224624909283389,0.00125));
#640=CARTESIAN_POINT('',(-0.0026,-0.06,0.0045));
#641=CARTESIAN_POINT('',(0.0004,-0.06,0.0045));
#642=CARTESIAN_POINT('',(0.0004,0.0351,0.0045));
#643=CARTESIAN_POINT('',(0.0004,0.058,0.0045));
#644=CARTESIAN_POINT('',(-0.0026,0.058,0.0045));
#645=CARTESIAN_POINT('',(0.000402,0.0351,0.0045));
#646=CARTESIAN_POINT('',(-0.0026,-0.06,0.0045));
#647=CARTESIAN_POINT('',(0.0004,-0.06,0.0045));
#648=CARTESIAN_POINT('',(0.0004,0.0076,0.0045));
#649=CARTESIAN_POINT('',(0.0004,0.0249,0.0045));
#650=CARTESIAN_POINT('',(0.000402,0.0249,0.0045));
#651=CARTESIAN_POINT('',(0.000402,0.0076,0.0045));
#652=CARTESIAN_POINT('',(-0.0026,-0.06,0.0045));
#653=CARTESIAN_POINT('',(0.0004,-0.06,0.0045));
#654=CARTESIAN_POINT('',(0.0004,-0.0249,0.0045));
#655=CARTESIAN_POINT('',(0.0004,-0.0076,0.0045));
#656=CARTESIAN_POINT('',(0.000402,-0.0076,0.0045));
#657=CARTESIAN_POINT('',(0.000402,-0.0249,0.0045));
#658=CARTESIAN_POINT('',(0.0067,-0.06,-0.001));
#659=CARTESIAN_POINT('',(0.0004,-0.06,-0.000487804878048781));
#660=CARTESIAN_POINT('',(0.0004,0.0211591324191017,-0.00048780487804878));
#661=CARTESIAN_POINT('',(0.0004,0.0388408675808983,-0.000487804878048778));
#662=CARTESIAN_POINT('',(0.000711519941010319,0.0388598627699468,-0.000513131702521164));
#663=CARTESIAN_POINT('',(0.0067,0.06,-0.001));
#664=CARTESIAN_POINT('',(0.019,0.06,-0.002));
#665=CARTESIAN_POINT('',(0.019,-0.06,-0.002));
#666=CARTESIAN_POINT('',(0.019,-0.06,-0.002));
#667=CARTESIAN_POINT('',(0.0067,-0.06,-0.001));
#668=CARTESIAN_POINT('',(-0.0056,-0.06,2.16840434497101E-19));
#669=CARTESIAN_POINT('',(-0.0056,-0.06,2.16840434497101E-19));
#670=CARTESIAN_POINT('',(-0.0056,-0.0384750125607616,-3.25260651745652E-19));
#671=CARTESIAN_POINT('',(0.00795382274670067,-0.0393014682430823,-0.00110193680867485));
#672=CARTESIAN_POINT('',(0.0004,-0.0388408675808983,-0.00048780487804878));
#673=CARTESIAN_POINT('',(0.0004,-0.06,-0.000487804878048781));
#674=CARTESIAN_POINT('',(0.0004,-0.0211591324191017,-0.000487804878048782));
#675=CARTESIAN_POINT('',(0.0043326713438555,-0.0209193344934855,-0.000807534255598007));
#676=CARTESIAN_POINT('',(0.00961351713967138,-0.0119026694973424,-0.0012368713121684));
#677=CARTESIAN_POINT('',(0.0004,-0.0113408675808983,-0.000487804878048781));
#678=CARTESIAN_POINT('',(0.0004,-0.06,-0.000487804878048781));
#679=CARTESIAN_POINT('',(0.0004,0.0113408675808983,-0.000487804878048777));
#680=CARTESIAN_POINT('',(0.00237121433398103,0.011461064024207,-0.000648066206014717));
#681=CARTESIAN_POINT('',(0.0115749741495458,0.0204777290203501,-0.00139633936175169));
#682=CARTESIAN_POINT('',(-0.0026,-0.06,0.0045));
#683=CARTESIAN_POINT('',(-0.0056,-0.06,0.0045));
#684=CARTESIAN_POINT('',(-0.0056,-0.058,0.0045));
#685=CARTESIAN_POINT('',(-0.0056,-0.0351,0.0045));
#686=CARTESIAN_POINT('',(-0.0026,-0.058,0.0045));
#687=CARTESIAN_POINT('',(0.0004,-0.058,0.0045));
#688=CARTESIAN_POINT('',(0.0004,-0.06,0.0045));
#689=CARTESIAN_POINT('',(0.0004,-0.0351,0.0045));
#690=CARTESIAN_POINT('',(0.000402,-0.0351,0.0045));
#691=CARTESIAN_POINT('',(-0.0056,-0.06,0.00225));
#692=CARTESIAN_POINT('',(-0.0056,-0.06,0.00225));
#693=CARTESIAN_POINT('',(-0.0056,-0.06,0.0047));
#694=CARTESIAN_POINT('',(-0.0056,-0.06,0.0047));
#695=CARTESIAN_POINT('',(-0.0056,-0.058,0.0047));
#696=CARTESIAN_POINT('',(-0.0056,-0.058,0.0047));
#697=CARTESIAN_POINT('',(-0.0056,-0.0375375090716611,0.00125));
#698=CARTESIAN_POINT('',(0.0097,-0.06,0.00226729457762705));
#699=CARTESIAN_POINT('',(0.0097,0.06,0.00226729457762705));
#700=CARTESIAN_POINT('',(0.0004,0.06,0.0065345891552541));
#701=CARTESIAN_POINT('',(0.0004,-0.06,0.0065345891552541));
#702=CARTESIAN_POINT('',(0.0004,-0.06,0.0065345891552541));
#703=CARTESIAN_POINT('',(0.0097,-0.06,0.00226729457762705));
#704=CARTESIAN_POINT('',(0.0004,-0.06,0.00551729457762705));
#705=CARTESIAN_POINT('',(0.0004,-0.06,0.0049));
#706=CARTESIAN_POINT('',(0.0004,0.058,0.0049));
#707=CARTESIAN_POINT('',(0.0004,0.06,0.0049));
#708=CARTESIAN_POINT('',(0.0004,0.058,0.0049));
#709=CARTESIAN_POINT('',(0.0004,0.0375375090716611,0.00125000000000001));
#710=CARTESIAN_POINT('',(0.0004,0.0224624909283389,0.00125));
#711=CARTESIAN_POINT('',(0.0004,0.0100375090716611,0.00125));
#712=CARTESIAN_POINT('',(0.0004,-0.0100375090716611,0.00125));
#713=CARTESIAN_POINT('',(0.0004,-0.0224624909283389,0.00125));
#714=CARTESIAN_POINT('',(0.0004,-0.0375375090716611,0.00125));
#715=CARTESIAN_POINT('',(0.0004,-0.058,0.0047));
#716=CARTESIAN_POINT('',(0.0004,-0.058,0.0047));
#717=CARTESIAN_POINT('',(0.0004,-0.06,0.0047));
#718=CARTESIAN_POINT('',(0.0004,-0.06,0.0047));
#719=CARTESIAN_POINT('',(0.0004,-0.06,0.00551729457762705));
#720=CARTESIAN_POINT('',(0.0004,0.06,0.00551729457762705));
#721=CARTESIAN_POINT('',(0.0067,-0.06,0.00226729457762705));
#722=CARTESIAN_POINT('',(-0.0026,-0.06,0.0047));
#723=CARTESIAN_POINT('',(0.0067,0.06,0.00226729457762705));
#724=CARTESIAN_POINT('',(-0.0026,0.06,0.0049));
#725=CARTESIAN_POINT('',(0.000402,-0.0224624909283389,0.00125));
#726=CARTESIAN_POINT('',(0.000402,-0.0375375090716611,0.00125));
#727=CARTESIAN_POINT('',(0.000402,0.0100375090716611,0.00125));
#728=CARTESIAN_POINT('',(0.000402,-0.0100375090716611,0.00125));
#729=CARTESIAN_POINT('',(0.000402,0.0375375090716611,0.00125000000000001));
#730=CARTESIAN_POINT('',(0.000402,0.0224624909283389,0.00125));
#731=CARTESIAN_POINT('',(-0.0026,-0.058,0.0047));
#732=CARTESIAN_POINT('',(-0.0026,-0.058,0.0047));
#733=CARTESIAN_POINT('',(0.012308235180378,0.,0.0047));
#734=CARTESIAN_POINT('',(-0.0026,0.058,0.0049));
#735=CARTESIAN_POINT('',(-0.0026,0.058,0.0049));
#736=CARTESIAN_POINT('',(0.0145437856137752,0.,0.0049));
#737=MECHANICAL_DESIGN_GEOMETRIC_PRESENTATION_REPRESENTATION('',(#462),
#738);
#738=(
GEOMETRIC_REPRESENTATION_CONTEXT(3)
GLOBAL_UNCERTAINTY_ASSIGNED_CONTEXT((#739))
GLOBAL_UNIT_ASSIGNED_CONTEXT((#742,#741,#740))
REPRESENTATION_CONTEXT('cuchilla','TOP_LEVEL_ASSEMBLY_PART')
);
#739=UNCERTAINTY_MEASURE_WITH_UNIT(LENGTH_MEASURE(1.E-8),#742,
'DISTANCE_ACCURACY_VALUE','Maximum Tolerance applied to model');
#740=(
NAMED_UNIT(*)
SI_UNIT($,.STERADIAN.)
SOLID_ANGLE_UNIT()
);
#741=(
NAMED_UNIT(*)
PLANE_ANGLE_UNIT()
SI_UNIT($,.RADIAN.)
);
#742=(
LENGTH_UNIT()
NAMED_UNIT(*)
SI_UNIT($,.METRE.)
);
#743=PRODUCT_DEFINITION_SHAPE('','',#744);
#744=PRODUCT_DEFINITION('','',#746,#745);
#745=PRODUCT_DEFINITION_CONTEXT('',#752,'design');
#746=PRODUCT_DEFINITION_FORMATION_WITH_SPECIFIED_SOURCE('','',#748,
 .NOT_KNOWN.);
#747=PRODUCT_RELATED_PRODUCT_CATEGORY('','',(#748));
#748=PRODUCT('cuchilla','cuchilla','cuchilla',(#750));
#749=PRODUCT_CATEGORY('','');
#750=PRODUCT_CONTEXT('',#752,'mechanical');
#751=APPLICATION_PROTOCOL_DEFINITION('international standard',
'ap242_managed_model_based_3d_engineering',2020,#752);
#752=APPLICATION_CONTEXT('managed model based 3d engineering');
ENDSEC;
END-ISO-10303-21;
