ISO-10303-21;
HEADER;
/* Generated by software containing ST-Developer
 * from STEP Tools, Inc. (www.steptools.com) 
 */
/* OPTION: using custom renumber hook */

FILE_DESCRIPTION(
/* description */ ('STEP AP242 Edition 2',
'CAx-IF Rec.Pracs.---Representation and Presentation of Product Manufa
cturing Information (PMI)---4.0---2014-10-13',
'CAx-IF Rec.Pracs.---3D Tessellated Geometry---0.4---2014-09-14','2;1',
'CAx-IF Rec.Pracs.---User Defined Attributes---1.5---2016-08-15'),
/* implementation_level */ '2;1');

FILE_NAME(
/* name */ 'damper_molde - top',
/* time_stamp */ '2026-09-16T14:33:12Z',
/* author */ (''),
/* organization */ (''),
/* preprocessor_version */ 'ST-DEVELOPER v20',
/* originating_system */ 'ONSHAPE BY PTC INC, 1.220',
/* authorisation */ '  ');

FILE_SCHEMA (('AP242_MANAGED_MODEL_BASED_3D_ENGINEERING_MIM_LF { 1 0 10303 442 3 1 4 }'));
ENDSEC;

DATA;
#10=SHAPE_REPRESENTATION_RELATIONSHIP('','',#225,#11);
#11=ADVANCED_BREP_SHAPE_REPRESENTATION('',(#223),#353);
#12=CIRCLE('',#237,0.001);
#13=CIRCLE('',#238,0.001);
#14=CYLINDRICAL_SURFACE('',#236,0.001);
#15=ORIENTED_EDGE('',*,*,#67,.T.);
#16=ORIENTED_EDGE('',*,*,#68,.F.);
#17=ORIENTED_EDGE('',*,*,#69,.F.);
#18=ORIENTED_EDGE('',*,*,#70,.T.);
#19=ORIENTED_EDGE('',*,*,#71,.F.);
#20=ORIENTED_EDGE('',*,*,#70,.F.);
#21=ORIENTED_EDGE('',*,*,#72,.T.);
#22=ORIENTED_EDGE('',*,*,#73,.T.);
#23=ORIENTED_EDGE('',*,*,#74,.F.);
#24=ORIENTED_EDGE('',*,*,#73,.F.);
#25=ORIENTED_EDGE('',*,*,#75,.T.);
#26=ORIENTED_EDGE('',*,*,#76,.T.);
#27=ORIENTED_EDGE('',*,*,#77,.T.);
#28=ORIENTED_EDGE('',*,*,#78,.T.);
#29=ORIENTED_EDGE('',*,*,#79,.F.);
#30=ORIENTED_EDGE('',*,*,#80,.F.);
#31=ORIENTED_EDGE('',*,*,#81,.T.);
#32=ORIENTED_EDGE('',*,*,#82,.T.);
#33=ORIENTED_EDGE('',*,*,#77,.F.);
#34=ORIENTED_EDGE('',*,*,#83,.F.);
#35=ORIENTED_EDGE('',*,*,#84,.T.);
#36=ORIENTED_EDGE('',*,*,#85,.F.);
#37=ORIENTED_EDGE('',*,*,#81,.F.);
#38=ORIENTED_EDGE('',*,*,#86,.T.);
#39=ORIENTED_EDGE('',*,*,#79,.T.);
#40=ORIENTED_EDGE('',*,*,#87,.F.);
#41=ORIENTED_EDGE('',*,*,#84,.F.);
#42=ORIENTED_EDGE('',*,*,#88,.T.);
#43=ORIENTED_EDGE('',*,*,#89,.T.);
#44=ORIENTED_EDGE('',*,*,#76,.F.);
#45=ORIENTED_EDGE('',*,*,#90,.F.);
#46=ORIENTED_EDGE('',*,*,#68,.T.);
#47=ORIENTED_EDGE('',*,*,#80,.T.);
#48=ORIENTED_EDGE('',*,*,#88,.F.);
#49=ORIENTED_EDGE('',*,*,#86,.F.);
#50=ORIENTED_EDGE('',*,*,#83,.T.);
#51=ORIENTED_EDGE('',*,*,#69,.T.);
#52=ORIENTED_EDGE('',*,*,#90,.T.);
#53=ORIENTED_EDGE('',*,*,#75,.F.);
#54=ORIENTED_EDGE('',*,*,#72,.F.);
#55=ORIENTED_EDGE('',*,*,#91,.T.);
#56=ORIENTED_EDGE('',*,*,#92,.F.);
#57=ORIENTED_EDGE('',*,*,#78,.F.);
#58=ORIENTED_EDGE('',*,*,#82,.F.);
#59=ORIENTED_EDGE('',*,*,#85,.T.);
#60=ORIENTED_EDGE('',*,*,#87,.T.);
#61=ORIENTED_EDGE('',*,*,#91,.F.);
#62=ORIENTED_EDGE('',*,*,#67,.F.);
#63=ORIENTED_EDGE('',*,*,#71,.T.);
#64=ORIENTED_EDGE('',*,*,#74,.T.);
#65=ORIENTED_EDGE('',*,*,#89,.F.);
#66=ORIENTED_EDGE('',*,*,#92,.T.);
#67=EDGE_CURVE('',#93,#94,#111,.T.);
#68=EDGE_CURVE('',#95,#94,#112,.T.);
#69=EDGE_CURVE('',#96,#95,#113,.T.);
#70=EDGE_CURVE('',#96,#93,#114,.T.);
#71=EDGE_CURVE('',#93,#97,#115,.T.);
#72=EDGE_CURVE('',#96,#98,#116,.T.);
#73=EDGE_CURVE('',#98,#97,#117,.T.);
#74=EDGE_CURVE('',#97,#99,#118,.T.);
#75=EDGE_CURVE('',#98,#100,#119,.T.);
#76=EDGE_CURVE('',#100,#99,#120,.T.);
#77=EDGE_CURVE('',#101,#102,#121,.T.);
#78=EDGE_CURVE('',#102,#103,#122,.T.);
#79=EDGE_CURVE('',#104,#103,#123,.T.);
#80=EDGE_CURVE('',#101,#104,#124,.T.);
#81=EDGE_CURVE('',#105,#106,#125,.T.);
#82=EDGE_CURVE('',#106,#102,#126,.T.);
#83=EDGE_CURVE('',#105,#101,#127,.T.);
#84=EDGE_CURVE('',#107,#108,#128,.T.);
#85=EDGE_CURVE('',#106,#108,#129,.T.);
#86=EDGE_CURVE('',#105,#107,#130,.T.);
#87=EDGE_CURVE('',#108,#103,#131,.T.);
#88=EDGE_CURVE('',#107,#104,#132,.T.);
#89=EDGE_CURVE('',#94,#99,#133,.T.);
#90=EDGE_CURVE('',#95,#100,#134,.T.);
#91=EDGE_CURVE('',#109,#109,#12,.T.);
#92=EDGE_CURVE('',#110,#110,#13,.T.);
#93=VERTEX_POINT('',#298);
#94=VERTEX_POINT('',#299);
#95=VERTEX_POINT('',#301);
#96=VERTEX_POINT('',#303);
#97=VERTEX_POINT('',#307);
#98=VERTEX_POINT('',#309);
#99=VERTEX_POINT('',#313);
#100=VERTEX_POINT('',#315);
#101=VERTEX_POINT('',#319);
#102=VERTEX_POINT('',#320);
#103=VERTEX_POINT('',#322);
#104=VERTEX_POINT('',#324);
#105=VERTEX_POINT('',#328);
#106=VERTEX_POINT('',#329);
#107=VERTEX_POINT('',#334);
#108=VERTEX_POINT('',#335);
#109=VERTEX_POINT('',#347);
#110=VERTEX_POINT('',#349);
#111=LINE('',#297,#135);
#112=LINE('',#300,#136);
#113=LINE('',#302,#137);
#114=LINE('',#304,#138);
#115=LINE('',#306,#139);
#116=LINE('',#308,#140);
#117=LINE('',#310,#141);
#118=LINE('',#312,#142);
#119=LINE('',#314,#143);
#120=LINE('',#316,#144);
#121=LINE('',#318,#145);
#122=LINE('',#321,#146);
#123=LINE('',#323,#147);
#124=LINE('',#325,#148);
#125=LINE('',#327,#149);
#126=LINE('',#330,#150);
#127=LINE('',#331,#151);
#128=LINE('',#333,#152);
#129=LINE('',#336,#153);
#130=LINE('',#337,#154);
#131=LINE('',#339,#155);
#132=LINE('',#340,#156);
#133=LINE('',#342,#157);
#134=LINE('',#343,#158);
#135=VECTOR('',#245,1.);
#136=VECTOR('',#246,1.);
#137=VECTOR('',#247,1.);
#138=VECTOR('',#248,1.);
#139=VECTOR('',#251,1.);
#140=VECTOR('',#252,1.);
#141=VECTOR('',#253,1.);
#142=VECTOR('',#256,1.);
#143=VECTOR('',#257,1.);
#144=VECTOR('',#258,1.);
#145=VECTOR('',#261,1.);
#146=VECTOR('',#262,1.);
#147=VECTOR('',#263,1.);
#148=VECTOR('',#264,1.);
#149=VECTOR('',#267,1.);
#150=VECTOR('',#268,1.);
#151=VECTOR('',#269,1.);
#152=VECTOR('',#272,1.);
#153=VECTOR('',#273,1.);
#154=VECTOR('',#274,1.);
#155=VECTOR('',#277,1.);
#156=VECTOR('',#278,1.);
#157=VECTOR('',#281,1.);
#158=VECTOR('',#282,1.);
#159=EDGE_LOOP('',(#15,#16,#17,#18));
#160=EDGE_LOOP('',(#19,#20,#21,#22));
#161=EDGE_LOOP('',(#23,#24,#25,#26));
#162=EDGE_LOOP('',(#27,#28,#29,#30));
#163=EDGE_LOOP('',(#31,#32,#33,#34));
#164=EDGE_LOOP('',(#35,#36,#37,#38));
#165=EDGE_LOOP('',(#39,#40,#41,#42));
#166=EDGE_LOOP('',(#43,#44,#45,#46));
#167=EDGE_LOOP('',(#47,#48,#49,#50));
#168=EDGE_LOOP('',(#51,#52,#53,#54));
#169=EDGE_LOOP('',(#55));
#170=EDGE_LOOP('',(#56));
#171=EDGE_LOOP('',(#57,#58,#59,#60));
#172=EDGE_LOOP('',(#61));
#173=EDGE_LOOP('',(#62,#63,#64,#65));
#174=EDGE_LOOP('',(#66));
#175=FACE_BOUND('',#159,.T.);
#176=FACE_BOUND('',#160,.T.);
#177=FACE_BOUND('',#161,.T.);
#178=FACE_BOUND('',#162,.T.);
#179=FACE_BOUND('',#163,.T.);
#180=FACE_BOUND('',#164,.T.);
#181=FACE_BOUND('',#165,.T.);
#182=FACE_BOUND('',#166,.T.);
#183=FACE_BOUND('',#167,.T.);
#184=FACE_BOUND('',#168,.T.);
#185=FACE_BOUND('',#169,.T.);
#186=FACE_BOUND('',#170,.T.);
#187=FACE_BOUND('',#171,.T.);
#188=FACE_BOUND('',#172,.T.);
#189=FACE_BOUND('',#173,.T.);
#190=FACE_BOUND('',#174,.T.);
#191=PLANE('',#227);
#192=PLANE('',#228);
#193=PLANE('',#229);
#194=PLANE('',#230);
#195=PLANE('',#231);
#196=PLANE('',#232);
#197=PLANE('',#233);
#198=PLANE('',#234);
#199=PLANE('',#235);
#200=PLANE('',#239);
#201=PLANE('',#240);
#202=ADVANCED_FACE('',(#175),#191,.F.);
#203=ADVANCED_FACE('',(#176),#192,.T.);
#204=ADVANCED_FACE('',(#177),#193,.T.);
#205=ADVANCED_FACE('',(#178),#194,.F.);
#206=ADVANCED_FACE('',(#179),#195,.F.);
#207=ADVANCED_FACE('',(#180),#196,.T.);
#208=ADVANCED_FACE('',(#181),#197,.T.);
#209=ADVANCED_FACE('',(#182),#198,.F.);
#210=ADVANCED_FACE('',(#183,#184),#199,.F.);
#211=ADVANCED_FACE('',(#185,#186),#14,.F.);
#212=ADVANCED_FACE('',(#187,#188),#200,.T.);
#213=ADVANCED_FACE('',(#189,#190),#201,.F.);
#214=CLOSED_SHELL('',(#202,#203,#204,#205,#206,#207,#208,#209,#210,#211,
#212,#213));
#215=STYLED_ITEM('',(#216),#223);
#216=PRESENTATION_STYLE_ASSIGNMENT((#217));
#217=SURFACE_STYLE_USAGE(.BOTH.,#218);
#218=SURFACE_SIDE_STYLE('',(#219));
#219=SURFACE_STYLE_FILL_AREA(#220);
#220=FILL_AREA_STYLE('',(#221));
#221=FILL_AREA_STYLE_COLOUR('',#222);
#222=COLOUR_RGB('',0.615686274509804,0.811764705882353,0.929411764705882);
#223=MANIFOLD_SOLID_BREP('top',#214);
#224=SHAPE_DEFINITION_REPRESENTATION(#358,#225);
#225=SHAPE_REPRESENTATION('top',(#226),#353);
#226=AXIS2_PLACEMENT_3D('',#295,#241,#242);
#227=AXIS2_PLACEMENT_3D('',#296,#243,#244);
#228=AXIS2_PLACEMENT_3D('',#305,#249,#250);
#229=AXIS2_PLACEMENT_3D('',#311,#254,#255);
#230=AXIS2_PLACEMENT_3D('',#317,#259,#260);
#231=AXIS2_PLACEMENT_3D('',#326,#265,#266);
#232=AXIS2_PLACEMENT_3D('',#332,#270,#271);
#233=AXIS2_PLACEMENT_3D('',#338,#275,#276);
#234=AXIS2_PLACEMENT_3D('',#341,#279,#280);
#235=AXIS2_PLACEMENT_3D('',#344,#283,#284);
#236=AXIS2_PLACEMENT_3D('',#345,#285,#286);
#237=AXIS2_PLACEMENT_3D('',#346,#287,#288);
#238=AXIS2_PLACEMENT_3D('',#348,#289,#290);
#239=AXIS2_PLACEMENT_3D('',#350,#291,#292);
#240=AXIS2_PLACEMENT_3D('',#351,#293,#294);
#241=DIRECTION('',(0.,0.,1.));
#242=DIRECTION('',(1.,0.,0.));
#243=DIRECTION('',(0.,1.,0.));
#244=DIRECTION('',(0.,0.,1.));
#245=DIRECTION('',(-1.,0.,0.));
#246=DIRECTION('',(0.,0.,1.));
#247=DIRECTION('',(-1.,0.,0.));
#248=DIRECTION('',(0.,0.,1.));
#249=DIRECTION('',(-1.,0.,0.));
#250=DIRECTION('',(0.,0.,1.));
#251=DIRECTION('',(0.,-1.,0.));
#252=DIRECTION('',(0.,-1.,0.));
#253=DIRECTION('',(0.,0.,1.));
#254=DIRECTION('',(0.,1.,0.));
#255=DIRECTION('',(0.,0.,1.));
#256=DIRECTION('',(-1.,0.,0.));
#257=DIRECTION('',(-1.,0.,0.));
#258=DIRECTION('',(0.,0.,1.));
#259=DIRECTION('',(0.,1.,0.));
#260=DIRECTION('',(0.,0.,1.));
#261=DIRECTION('',(0.,0.,1.));
#262=DIRECTION('',(-1.,0.,0.));
#263=DIRECTION('',(0.,0.,1.));
#264=DIRECTION('',(-1.,0.,0.));
#265=DIRECTION('',(-1.,0.,0.));
#266=DIRECTION('',(0.,0.,1.));
#267=DIRECTION('',(0.,0.,1.));
#268=DIRECTION('',(0.,-1.,0.));
#269=DIRECTION('',(0.,-1.,0.));
#270=DIRECTION('',(0.,1.,0.));
#271=DIRECTION('',(0.,0.,1.));
#272=DIRECTION('',(0.,0.,1.));
#273=DIRECTION('',(-1.,0.,0.));
#274=DIRECTION('',(-1.,0.,0.));
#275=DIRECTION('',(-1.,0.,0.));
#276=DIRECTION('',(0.,0.,1.));
#277=DIRECTION('',(0.,-1.,0.));
#278=DIRECTION('',(0.,-1.,0.));
#279=DIRECTION('',(-1.,0.,0.));
#280=DIRECTION('',(0.,0.,1.));
#281=DIRECTION('',(0.,-1.,0.));
#282=DIRECTION('',(0.,-1.,0.));
#283=DIRECTION('',(0.,0.,1.));
#284=DIRECTION('',(1.,0.,0.));
#285=DIRECTION('',(0.,0.,-1.));
#286=DIRECTION('',(-1.,0.,0.));
#287=DIRECTION('',(0.,0.,1.));
#288=DIRECTION('',(1.,0.,0.));
#289=DIRECTION('',(0.,0.,1.));
#290=DIRECTION('',(1.,0.,0.));
#291=DIRECTION('',(0.,0.,1.));
#292=DIRECTION('',(1.,0.,0.));
#293=DIRECTION('',(0.,0.,1.));
#294=DIRECTION('',(1.,0.,0.));
#295=CARTESIAN_POINT('',(0.,0.,0.));
#296=CARTESIAN_POINT('',(0.,0.00725,-0.003));
#297=CARTESIAN_POINT('',(0.,0.00725,0.));
#298=CARTESIAN_POINT('',(0.01445,0.00725,0.));
#299=CARTESIAN_POINT('',(-0.01445,0.00725,0.));
#300=CARTESIAN_POINT('',(-0.01445,0.00725,-0.003));
#301=CARTESIAN_POINT('',(-0.01445,0.00725,-0.003));
#302=CARTESIAN_POINT('',(0.,0.00725,-0.003));
#303=CARTESIAN_POINT('',(0.01445,0.00725,-0.003));
#304=CARTESIAN_POINT('',(0.01445,0.00725,-0.003));
#305=CARTESIAN_POINT('',(0.01445,-8.67361737988404E-19,-0.003));
#306=CARTESIAN_POINT('',(0.01445,-8.67361737988404E-19,0.));
#307=CARTESIAN_POINT('',(0.01445,-0.00725,0.));
#308=CARTESIAN_POINT('',(0.01445,-8.67361737988404E-19,-0.003));
#309=CARTESIAN_POINT('',(0.01445,-0.00725,-0.003));
#310=CARTESIAN_POINT('',(0.01445,-0.00725,-0.003));
#311=CARTESIAN_POINT('',(0.,-0.00725,-0.003));
#312=CARTESIAN_POINT('',(0.,-0.00725,0.));
#313=CARTESIAN_POINT('',(-0.01445,-0.00725,0.));
#314=CARTESIAN_POINT('',(0.,-0.00725,-0.003));
#315=CARTESIAN_POINT('',(-0.01445,-0.00725,-0.003));
#316=CARTESIAN_POINT('',(-0.01445,-0.00725,-0.003));
#317=CARTESIAN_POINT('',(0.,-0.00845,-0.003));
#318=CARTESIAN_POINT('',(0.01565,-0.00845,-0.003));
#319=CARTESIAN_POINT('',(0.01565,-0.00845,-0.003));
#320=CARTESIAN_POINT('',(0.01565,-0.00845,0.0012));
#321=CARTESIAN_POINT('',(0.,-0.00845,0.0012));
#322=CARTESIAN_POINT('',(-0.01565,-0.00845,0.0012));
#323=CARTESIAN_POINT('',(-0.01565,-0.00845,-0.003));
#324=CARTESIAN_POINT('',(-0.01565,-0.00845,-0.003));
#325=CARTESIAN_POINT('',(0.,-0.00845,-0.003));
#326=CARTESIAN_POINT('',(0.01565,0.,-0.003));
#327=CARTESIAN_POINT('',(0.01565,0.00845,-0.003));
#328=CARTESIAN_POINT('',(0.01565,0.00845,-0.003));
#329=CARTESIAN_POINT('',(0.01565,0.00845,0.0012));
#330=CARTESIAN_POINT('',(0.01565,0.,0.0012));
#331=CARTESIAN_POINT('',(0.01565,0.,-0.003));
#332=CARTESIAN_POINT('',(0.,0.00845,-0.003));
#333=CARTESIAN_POINT('',(-0.01565,0.00845,-0.003));
#334=CARTESIAN_POINT('',(-0.01565,0.00845,-0.003));
#335=CARTESIAN_POINT('',(-0.01565,0.00845,0.0012));
#336=CARTESIAN_POINT('',(0.,0.00845,0.0012));
#337=CARTESIAN_POINT('',(0.,0.00845,-0.003));
#338=CARTESIAN_POINT('',(-0.01565,0.,-0.003));
#339=CARTESIAN_POINT('',(-0.01565,0.,0.0012));
#340=CARTESIAN_POINT('',(-0.01565,0.,-0.003));
#341=CARTESIAN_POINT('',(-0.01445,-8.67361737988404E-19,-0.003));
#342=CARTESIAN_POINT('',(-0.01445,-8.67361737988404E-19,0.));
#343=CARTESIAN_POINT('',(-0.01445,-8.67361737988404E-19,-0.003));
#344=CARTESIAN_POINT('',(0.,0.,-0.003));
#345=CARTESIAN_POINT('',(0.,6.12323399573677E-20,0.0012));
#346=CARTESIAN_POINT('',(0.,6.12323399573677E-20,0.0012));
#347=CARTESIAN_POINT('',(0.001,6.12323399573677E-20,0.0012));
#348=CARTESIAN_POINT('',(0.,6.12323399573677E-20,0.));
#349=CARTESIAN_POINT('',(0.001,6.12323399573677E-20,0.));
#350=CARTESIAN_POINT('',(0.,0.,0.0012));
#351=CARTESIAN_POINT('',(0.,0.,0.));
#352=MECHANICAL_DESIGN_GEOMETRIC_PRESENTATION_REPRESENTATION('',(#215),
#353);
#353=(
GEOMETRIC_REPRESENTATION_CONTEXT(3)
GLOBAL_UNCERTAINTY_ASSIGNED_CONTEXT((#354))
GLOBAL_UNIT_ASSIGNED_CONTEXT((#357,#356,#355))
REPRESENTATION_CONTEXT('top','TOP_LEVEL_ASSEMBLY_PART')
);
#354=UNCERTAINTY_MEASURE_WITH_UNIT(LENGTH_MEASURE(1.E-8),#357,
'DISTANCE_ACCURACY_VALUE','Maximum Tolerance applied to model');
#355=(
NAMED_UNIT(*)
SI_UNIT($,.STERADIAN.)
SOLID_ANGLE_UNIT()
);
#356=(
NAMED_UNIT(*)
PLANE_ANGLE_UNIT()
SI_UNIT($,.RADIAN.)
);
#357=(
LENGTH_UNIT()
NAMED_UNIT(*)
SI_UNIT($,.METRE.)
);
#358=PRODUCT_DEFINITION_SHAPE('','',#359);
#359=PRODUCT_DEFINITION('','',#361,#360);
#360=PRODUCT_DEFINITION_CONTEXT('',#367,'design');
#361=PRODUCT_DEFINITION_FORMATION_WITH_SPECIFIED_SOURCE('','',#363,
 .NOT_KNOWN.);
#362=PRODUCT_RELATED_PRODUCT_CATEGORY('','',(#363));
#363=PRODUCT('top','top','top',(#365));
#364=PRODUCT_CATEGORY('','');
#365=PRODUCT_CONTEXT('',#367,'mechanical');
#366=APPLICATION_PROTOCOL_DEFINITION('international standard',
'ap242_managed_model_based_3d_engineering',2020,#367);
#367=APPLICATION_CONTEXT('managed model based 3d engineering');
ENDSEC;
END-ISO-10303-21;
