ISO-10303-21;
HEADER;
/* Generated by software containing ST-Developer
 * from STEP Tools, Inc. (www.steptools.com) 
 */
/* OPTION: using custom renumber hook */

FILE_DESCRIPTION(
/* description */ ('STEP AP242 Edition 2',
'CAx-IF Rec.Pracs.---Representation and Presentation of Product Manufa
cturing Information (PMI)---4.0---2014-10-13',
'CAx-IF Rec.Pracs.---3D Tessellated Geometry---0.4---2014-09-14','2;1',
'CAx-IF Rec.Pracs.---User Defined Attributes---1.5---2016-08-15'),
/* implementation_level */ '2;1');

FILE_NAME(
/* name */ 'rampa lisa - rampa',
/* time_stamp */ '2026-09-16T14:30:52Z',
/* author */ (''),
/* organization */ (''),
/* preprocessor_version */ 'ST-DEVELOPER v20',
/* originating_system */ 'ONSHAPE BY PTC INC, 1.220',
/* authorisation */ '  ');

FILE_SCHEMA (('AP242_MANAGED_MODEL_BASED_3D_ENGINEERING_MIM_LF { 1 0 10303 442 3 1 4 }'));
ENDSEC;

DATA;
#10=SHAPE_REPRESENTATION_RELATIONSHIP('','',#233,#11);
#11=ADVANCED_BREP_SHAPE_REPRESENTATION('',(#231),#477);
#12=B_SPLINE_SURFACE_WITH_KNOTS('',3,1,((#417,#418),(#419,#420),(#421,#422),
(#423,#424),(#425,#426),(#427,#428),(#429,#430),(#431,#432),(#433,#434),
(#435,#436),(#437,#438),(#439,#440)),.SURF_OF_LINEAR_EXTRUSION.,.F.,.F.,
 .F.,(4,1,1,1,1,1,1,1,1,4),(2,2),(-2.00641992949842E-13,0.124999999999824,
0.24999999999985,0.312499999999862,0.374999999999875,0.4999999999999,0.624999999999925,
0.74999999999995,0.874999999999975,1.),(0.,1.),.UNSPECIFIED.);
#13=B_SPLINE_SURFACE_WITH_KNOTS('',3,1,((#442,#443),(#444,#445),(#446,#447),
(#448,#449),(#450,#451),(#452,#453),(#454,#455),(#456,#457),(#458,#459),
(#460,#461),(#462,#463),(#464,#465)),.SURF_OF_LINEAR_EXTRUSION.,.F.,.F.,
 .F.,(4,1,1,1,1,1,1,1,1,4),(2,2),(-2.00903236285312E-13,0.124999999999824,
0.249999999999849,0.312499999999862,0.374999999999874,0.4999999999999,0.624999999999925,
0.74999999999995,0.874999999999975,1.),(0.,1.),.UNSPECIFIED.);
#14=B_SPLINE_SURFACE_WITH_KNOTS('',3,1,((#468,#469),(#470,#471),(#472,#473),
(#474,#475)),.SURF_OF_LINEAR_EXTRUSION.,.F.,.F.,.F.,(4,4),(2,2),(0.,1.),
(0.,1.),.PIECEWISE_BEZIER_KNOTS.);
#15=LINE('',#307,#37);
#16=LINE('',#309,#38);
#17=LINE('',#311,#39);
#18=LINE('',#335,#40);
#19=LINE('',#359,#41);
#20=LINE('',#361,#42);
#21=LINE('',#363,#43);
#22=LINE('',#365,#44);
#23=LINE('',#372,#45);
#24=LINE('',#379,#46);
#25=LINE('',#381,#47);
#26=LINE('',#383,#48);
#27=LINE('',#385,#49);
#28=LINE('',#387,#50);
#29=LINE('',#392,#51);
#30=LINE('',#394,#52);
#31=LINE('',#403,#53);
#32=LINE('',#411,#54);
#33=LINE('',#413,#55);
#34=LINE('',#414,#56);
#35=LINE('',#441,#57);
#36=LINE('',#466,#58);
#37=VECTOR('',#248,1.);
#38=VECTOR('',#249,1.);
#39=VECTOR('',#250,1.);
#40=VECTOR('',#251,1.);
#41=VECTOR('',#252,1.);
#42=VECTOR('',#253,1.);
#43=VECTOR('',#254,1.);
#44=VECTOR('',#257,1.);
#45=VECTOR('',#258,1.);
#46=VECTOR('',#261,1.);
#47=VECTOR('',#262,1.);
#48=VECTOR('',#265,1.);
#49=VECTOR('',#266,1.);
#50=VECTOR('',#267,1.);
#51=VECTOR('',#270,1.);
#52=VECTOR('',#271,1.);
#53=VECTOR('',#272,1.);
#54=VECTOR('',#273,1.);
#55=VECTOR('',#276,1.);
#56=VECTOR('',#277,1.);
#57=VECTOR('',#282,1.);
#58=VECTOR('',#283,1.);
#59=ORIENTED_EDGE('',*,*,#119,.F.);
#60=ORIENTED_EDGE('',*,*,#120,.T.);
#61=ORIENTED_EDGE('',*,*,#121,.F.);
#62=ORIENTED_EDGE('',*,*,#122,.T.);
#63=ORIENTED_EDGE('',*,*,#123,.T.);
#64=ORIENTED_EDGE('',*,*,#124,.T.);
#65=ORIENTED_EDGE('',*,*,#125,.F.);
#66=ORIENTED_EDGE('',*,*,#126,.T.);
#67=ORIENTED_EDGE('',*,*,#127,.T.);
#68=ORIENTED_EDGE('',*,*,#128,.T.);
#69=ORIENTED_EDGE('',*,*,#129,.F.);
#70=ORIENTED_EDGE('',*,*,#130,.T.);
#71=ORIENTED_EDGE('',*,*,#128,.F.);
#72=ORIENTED_EDGE('',*,*,#131,.F.);
#73=ORIENTED_EDGE('',*,*,#120,.F.);
#74=ORIENTED_EDGE('',*,*,#132,.T.);
#75=ORIENTED_EDGE('',*,*,#133,.F.);
#76=ORIENTED_EDGE('',*,*,#134,.F.);
#77=ORIENTED_EDGE('',*,*,#135,.F.);
#78=ORIENTED_EDGE('',*,*,#122,.F.);
#79=ORIENTED_EDGE('',*,*,#136,.F.);
#80=ORIENTED_EDGE('',*,*,#137,.T.);
#81=ORIENTED_EDGE('',*,*,#133,.T.);
#82=ORIENTED_EDGE('',*,*,#138,.T.);
#83=ORIENTED_EDGE('',*,*,#129,.T.);
#84=ORIENTED_EDGE('',*,*,#139,.T.);
#85=ORIENTED_EDGE('',*,*,#140,.F.);
#86=ORIENTED_EDGE('',*,*,#141,.T.);
#87=ORIENTED_EDGE('',*,*,#142,.F.);
#88=ORIENTED_EDGE('',*,*,#143,.F.);
#89=ORIENTED_EDGE('',*,*,#137,.F.);
#90=ORIENTED_EDGE('',*,*,#144,.F.);
#91=ORIENTED_EDGE('',*,*,#126,.F.);
#92=ORIENTED_EDGE('',*,*,#145,.T.);
#93=ORIENTED_EDGE('',*,*,#140,.T.);
#94=ORIENTED_EDGE('',*,*,#146,.T.);
#95=ORIENTED_EDGE('',*,*,#121,.T.);
#96=ORIENTED_EDGE('',*,*,#134,.T.);
#97=ORIENTED_EDGE('',*,*,#144,.T.);
#98=ORIENTED_EDGE('',*,*,#136,.T.);
#99=ORIENTED_EDGE('',*,*,#139,.F.);
#100=ORIENTED_EDGE('',*,*,#131,.T.);
#101=ORIENTED_EDGE('',*,*,#127,.F.);
#102=ORIENTED_EDGE('',*,*,#146,.F.);
#103=ORIENTED_EDGE('',*,*,#125,.T.);
#104=ORIENTED_EDGE('',*,*,#147,.T.);
#105=ORIENTED_EDGE('',*,*,#141,.F.);
#106=ORIENTED_EDGE('',*,*,#145,.F.);
#107=ORIENTED_EDGE('',*,*,#135,.T.);
#108=ORIENTED_EDGE('',*,*,#143,.T.);
#109=ORIENTED_EDGE('',*,*,#148,.F.);
#110=ORIENTED_EDGE('',*,*,#123,.F.);
#111=ORIENTED_EDGE('',*,*,#148,.T.);
#112=ORIENTED_EDGE('',*,*,#142,.T.);
#113=ORIENTED_EDGE('',*,*,#147,.F.);
#114=ORIENTED_EDGE('',*,*,#124,.F.);
#115=ORIENTED_EDGE('',*,*,#138,.F.);
#116=ORIENTED_EDGE('',*,*,#132,.F.);
#117=ORIENTED_EDGE('',*,*,#119,.T.);
#118=ORIENTED_EDGE('',*,*,#130,.F.);
#119=EDGE_CURVE('',#149,#150,#169,.T.);
#120=EDGE_CURVE('',#149,#151,#15,.T.);
#121=EDGE_CURVE('',#152,#151,#16,.T.);
#122=EDGE_CURVE('',#152,#153,#17,.T.);
#123=EDGE_CURVE('',#153,#154,#170,.T.);
#124=EDGE_CURVE('',#154,#155,#18,.T.);
#125=EDGE_CURVE('',#156,#155,#171,.T.);
#126=EDGE_CURVE('',#156,#157,#19,.T.);
#127=EDGE_CURVE('',#157,#158,#20,.T.);
#128=EDGE_CURVE('',#158,#150,#21,.T.);
#129=EDGE_CURVE('',#159,#160,#22,.T.);
#130=EDGE_CURVE('',#159,#150,#172,.T.);
#131=EDGE_CURVE('',#160,#158,#23,.F.);
#132=EDGE_CURVE('',#149,#161,#173,.T.);
#133=EDGE_CURVE('',#162,#161,#24,.T.);
#134=EDGE_CURVE('',#151,#162,#25,.F.);
#135=EDGE_CURVE('',#153,#163,#26,.T.);
#136=EDGE_CURVE('',#164,#152,#27,.T.);
#137=EDGE_CURVE('',#164,#163,#28,.T.);
#138=EDGE_CURVE('',#161,#159,#174,.T.);
#139=EDGE_CURVE('',#160,#165,#29,.T.);
#140=EDGE_CURVE('',#166,#165,#30,.T.);
#141=EDGE_CURVE('',#166,#167,#175,.T.);
#142=EDGE_CURVE('',#168,#167,#31,.T.);
#143=EDGE_CURVE('',#163,#168,#176,.T.);
#144=EDGE_CURVE('',#162,#164,#32,.T.);
#145=EDGE_CURVE('',#156,#166,#33,.T.);
#146=EDGE_CURVE('',#165,#157,#34,.T.);
#147=EDGE_CURVE('',#155,#167,#35,.T.);
#148=EDGE_CURVE('',#154,#168,#36,.T.);
#149=VERTEX_POINT('',#305);
#150=VERTEX_POINT('',#306);
#151=VERTEX_POINT('',#308);
#152=VERTEX_POINT('',#310);
#153=VERTEX_POINT('',#312);
#154=VERTEX_POINT('',#334);
#155=VERTEX_POINT('',#336);
#156=VERTEX_POINT('',#358);
#157=VERTEX_POINT('',#360);
#158=VERTEX_POINT('',#362);
#159=VERTEX_POINT('',#366);
#160=VERTEX_POINT('',#367);
#161=VERTEX_POINT('',#378);
#162=VERTEX_POINT('',#380);
#163=VERTEX_POINT('',#384);
#164=VERTEX_POINT('',#386);
#165=VERTEX_POINT('',#393);
#166=VERTEX_POINT('',#395);
#167=VERTEX_POINT('',#402);
#168=VERTEX_POINT('',#404);
#169=B_SPLINE_CURVE_WITH_KNOTS('',3,(#288,#289,#290,#291,#292,#293,#294,
#295,#296,#297,#298,#299,#300,#301,#302,#303,#304),.UNSPECIFIED.,.F.,.F.,
(4,1,1,1,1,1,1,1,1,1,1,1,1,1,4),(5.55382496713543E-18,0.00910076233667078,
0.0182015246733415,0.0227519058416769,0.0273022870100123,0.02957747759418,
0.0318526681783477,0.0341278587625154,0.0364030493466831,0.0409534305150185,
0.0455038116833539,0.0500541928516893,0.0546045740200246,0.0637053363566954,
0.0728060986933662),.UNSPECIFIED.);
#170=B_SPLINE_CURVE_WITH_KNOTS('',3,(#313,#314,#315,#316,#317,#318,#319,
#320,#321,#322,#323,#324,#325,#326,#327,#328,#329,#330,#331,#332,#333),
 .UNSPECIFIED.,.F.,.F.,(4,1,1,1,1,1,1,1,1,1,1,1,1,1,1,1,1,1,4),(0.,0.0106365780445221,
0.0159548670667832,0.0212731560890442,0.0265914451113053,0.0292505896224358,
0.0319097341335664,0.0372280231558274,0.0398871676669579,0.0425463121780885,
0.0478646012003495,0.0505237457114801,0.0531828902226106,0.0558420347337411,
0.0585011792448717,0.0638194682671327,0.0691377572893938,0.0744560463116548,
0.085092624356177),.UNSPECIFIED.);
#171=B_SPLINE_CURVE_WITH_KNOTS('',3,(#337,#338,#339,#340,#341,#342,#343,
#344,#345,#346,#347,#348,#349,#350,#351,#352,#353,#354,#355,#356,#357),
 .UNSPECIFIED.,.F.,.F.,(4,1,1,1,1,1,1,1,1,1,1,1,1,1,1,1,1,1,4),(0.,0.0106365780445221,
0.0159548670667832,0.0212731560890443,0.0265914451113053,0.0292505896224358,
0.0319097341335664,0.0372280231558274,0.039887167666958,0.0425463121780885,
0.0478646012003496,0.0505237457114801,0.0531828902226106,0.0558420347337412,
0.0585011792448717,0.0638194682671328,0.0691377572893938,0.0744560463116549,
0.085092624356177),.UNSPECIFIED.);
#172=B_SPLINE_CURVE_WITH_KNOTS('',3,(#368,#369,#370,#371),.UNSPECIFIED.,
 .F.,.F.,(4,4),(9.21463120021356E-20,0.00190697465090359),.UNSPECIFIED.);
#173=B_SPLINE_CURVE_WITH_KNOTS('',3,(#374,#375,#376,#377),.UNSPECIFIED.,
 .F.,.F.,(4,4),(0.,0.0019069746509036),.UNSPECIFIED.);
#174=B_SPLINE_CURVE_WITH_KNOTS('',2,(#389,#390,#391),.UNSPECIFIED.,.F.,
 .F.,(3,3),(0.,1.),.PIECEWISE_BEZIER_KNOTS.);
#175=B_SPLINE_CURVE_WITH_KNOTS('',3,(#396,#397,#398,#399,#400,#401),
 .UNSPECIFIED.,.F.,.F.,(4,1,1,4),(0.,0.353711583491157,0.623697378095579,
1.),.UNSPECIFIED.);
#176=B_SPLINE_CURVE_WITH_KNOTS('',3,(#405,#406,#407,#408,#409,#410),
 .UNSPECIFIED.,.F.,.F.,(4,1,1,4),(0.,0.353711583491157,0.623697378095579,
1.),.UNSPECIFIED.);
#177=EDGE_LOOP('',(#59,#60,#61,#62,#63,#64,#65,#66,#67,#68));
#178=EDGE_LOOP('',(#69,#70,#71,#72));
#179=EDGE_LOOP('',(#73,#74,#75,#76));
#180=EDGE_LOOP('',(#77,#78,#79,#80));
#181=EDGE_LOOP('',(#81,#82,#83,#84,#85,#86,#87,#88,#89,#90));
#182=EDGE_LOOP('',(#91,#92,#93,#94));
#183=EDGE_LOOP('',(#95,#96,#97,#98));
#184=EDGE_LOOP('',(#99,#100,#101,#102));
#185=EDGE_LOOP('',(#103,#104,#105,#106));
#186=EDGE_LOOP('',(#107,#108,#109,#110));
#187=EDGE_LOOP('',(#111,#112,#113,#114));
#188=EDGE_LOOP('',(#115,#116,#117,#118));
#189=FACE_BOUND('',#177,.T.);
#190=FACE_BOUND('',#178,.T.);
#191=FACE_BOUND('',#179,.T.);
#192=FACE_BOUND('',#180,.T.);
#193=FACE_BOUND('',#181,.T.);
#194=FACE_BOUND('',#182,.T.);
#195=FACE_BOUND('',#183,.T.);
#196=FACE_BOUND('',#184,.T.);
#197=FACE_BOUND('',#185,.T.);
#198=FACE_BOUND('',#186,.T.);
#199=FACE_BOUND('',#187,.T.);
#200=FACE_BOUND('',#188,.T.);
#201=PLANE('',#235);
#202=PLANE('',#236);
#203=PLANE('',#237);
#204=PLANE('',#238);
#205=PLANE('',#239);
#206=PLANE('',#240);
#207=PLANE('',#241);
#208=PLANE('',#242);
#209=PLANE('',#243);
#210=ADVANCED_FACE('',(#189),#201,.F.);
#211=ADVANCED_FACE('',(#190),#202,.F.);
#212=ADVANCED_FACE('',(#191),#203,.F.);
#213=ADVANCED_FACE('',(#192),#204,.F.);
#214=ADVANCED_FACE('',(#193),#205,.F.);
#215=ADVANCED_FACE('',(#194),#206,.F.);
#216=ADVANCED_FACE('',(#195),#207,.T.);
#217=ADVANCED_FACE('',(#196),#208,.F.);
#218=ADVANCED_FACE('',(#197),#12,.T.);
#219=ADVANCED_FACE('',(#198),#13,.F.);
#220=ADVANCED_FACE('',(#199),#209,.F.);
#221=ADVANCED_FACE('',(#200),#14,.T.);
#222=CLOSED_SHELL('',(#210,#211,#212,#213,#214,#215,#216,#217,#218,#219,
#220,#221));
#223=STYLED_ITEM('',(#224),#231);
#224=PRESENTATION_STYLE_ASSIGNMENT((#225));
#225=SURFACE_STYLE_USAGE(.BOTH.,#226);
#226=SURFACE_SIDE_STYLE('',(#227));
#227=SURFACE_STYLE_FILL_AREA(#228);
#228=FILL_AREA_STYLE('',(#229));
#229=FILL_AREA_STYLE_COLOUR('',#230);
#230=COLOUR_RGB('',0.513725490196078,0.737254901960784,0.407843137254902);
#231=MANIFOLD_SOLID_BREP('rampa',#222);
#232=SHAPE_DEFINITION_REPRESENTATION(#482,#233);
#233=SHAPE_REPRESENTATION('rampa',(#234),#477);
#234=AXIS2_PLACEMENT_3D('',#286,#244,#245);
#235=AXIS2_PLACEMENT_3D('',#287,#246,#247);
#236=AXIS2_PLACEMENT_3D('',#364,#255,#256);
#237=AXIS2_PLACEMENT_3D('',#373,#259,#260);
#238=AXIS2_PLACEMENT_3D('',#382,#263,#264);
#239=AXIS2_PLACEMENT_3D('',#388,#268,#269);
#240=AXIS2_PLACEMENT_3D('',#412,#274,#275);
#241=AXIS2_PLACEMENT_3D('',#415,#278,#279);
#242=AXIS2_PLACEMENT_3D('',#416,#280,#281);
#243=AXIS2_PLACEMENT_3D('',#467,#284,#285);
#244=DIRECTION('',(0.,0.,1.));
#245=DIRECTION('',(1.,0.,0.));
#246=DIRECTION('',(0.,0.0243171314960383,-0.99970429483713));
#247=DIRECTION('',(0.,0.999704294837131,0.0243171314960384));
#248=DIRECTION('',(1.,0.,0.));
#249=DIRECTION('',(0.,-0.999704294837131,-0.0243171314960383));
#250=DIRECTION('',(-1.,0.,0.));
#251=DIRECTION('',(-1.,0.,0.));
#252=DIRECTION('',(-1.,0.,0.));
#253=DIRECTION('',(0.,-0.999704294837131,-0.0243171314960383));
#254=DIRECTION('',(1.,0.,0.));
#255=DIRECTION('',(0.,0.715652545407349,-0.698456465538105));
#256=DIRECTION('',(-1.,0.,0.));
#257=DIRECTION('',(-1.,0.,0.));
#258=DIRECTION('',(0.,-0.698456465538105,-0.715652545407349));
#259=DIRECTION('',(0.,0.715652545407349,-0.698456465538105));
#260=DIRECTION('',(-1.,0.,0.));
#261=DIRECTION('',(-1.,0.,0.));
#262=DIRECTION('',(0.,0.698456465538105,0.715652545407349));
#263=DIRECTION('',(0.,-1.,0.));
#264=DIRECTION('',(0.,0.,-1.));
#265=DIRECTION('',(0.,0.,-1.));
#266=DIRECTION('',(0.,0.,1.));
#267=DIRECTION('',(-1.,0.,0.));
#268=DIRECTION('',(0.,0.,1.));
#269=DIRECTION('',(1.,0.,0.));
#270=DIRECTION('',(0.,1.,0.));
#271=DIRECTION('',(-1.,0.,0.));
#272=DIRECTION('',(-1.,0.,0.));
#273=DIRECTION('',(0.,1.,0.));
#274=DIRECTION('',(0.,-1.,0.));
#275=DIRECTION('',(0.,0.,-1.));
#276=DIRECTION('',(0.,0.,-1.));
#277=DIRECTION('',(0.,0.,1.));
#278=DIRECTION('',(1.,0.,0.));
#279=DIRECTION('',(0.,1.,0.));
#280=DIRECTION('',(1.,0.,0.));
#281=DIRECTION('',(0.,1.,0.));
#282=DIRECTION('',(0.,0.,-1.));
#283=DIRECTION('',(0.,0.,-1.));
#284=DIRECTION('',(0.,-1.,0.));
#285=DIRECTION('',(0.,0.,-1.));
#286=CARTESIAN_POINT('',(0.,0.,0.));
#287=CARTESIAN_POINT('',(0.0597,0.037,0.0021));
#288=CARTESIAN_POINT('',(0.0286906501496117,0.00119964515380455,0.00122918055779525));
#289=CARTESIAN_POINT('',(0.0269376440789581,0.00370162464295865,0.00129003951834224));
#290=CARTESIAN_POINT('',(0.0232406541203539,0.00852686084373193,0.00140741012863137));
#291=CARTESIAN_POINT('',(0.0178996681581452,0.013950474102232,0.0015393358565408));
#292=CARTESIAN_POINT('',(0.01296474724652,0.0176170831125612,0.00162852364327843));
#293=CARTESIAN_POINT('',(0.00960900012472683,0.0194641651605475,0.0016734526660674));
#294=CARTESIAN_POINT('',(0.00674533392001753,0.0205815319989742,0.00170063185943449));
#295=CARTESIAN_POINT('',(0.00455781782093571,0.0211975554392101,0.00171561621338629));
#296=CARTESIAN_POINT('',(0.0023196213832227,0.0215836275177875,0.00172500715583804));
#297=CARTESIAN_POINT('',(-0.000769588765546992,0.0217629658561792,0.00172936943974485));
#298=CARTESIAN_POINT('',(-0.00455787786498244,0.0213254969910527,0.00171872830518774));
#299=CARTESIAN_POINT('',(-0.00895959216026658,0.0198239883305821,0.00168220512155475));
#300=CARTESIAN_POINT('',(-0.0129498627818215,0.0176253466586355,0.00162872464845327));
#301=CARTESIAN_POINT('',(-0.0178999054432556,0.0139518291243483,0.00153936881653824));
#302=CARTESIAN_POINT('',(-0.0232193205187051,0.00855069396602035,0.00140798985322747));
#303=CARTESIAN_POINT('',(-0.0269370084767092,0.00370253180683945,0.0012900615844907));
#304=CARTESIAN_POINT('',(-0.0286906501496117,0.00119964515380456,0.00122918055779526));
#305=CARTESIAN_POINT('',(0.0286906501496117,0.00119964515380456,0.00122918055779525));
#306=CARTESIAN_POINT('',(-0.0286906501496117,0.00119964515380455,0.00122918055779525));
#307=CARTESIAN_POINT('',(0.0597,0.00119964515380456,0.00122918055779525));
#308=CARTESIAN_POINT('',(0.0597,0.00119964515380456,0.00122918055779525));
#309=CARTESIAN_POINT('',(0.0597,0.037,0.0021));
#310=CARTESIAN_POINT('',(0.0597,0.074,0.003));
#311=CARTESIAN_POINT('',(0.0597,0.074,0.003));
#312=CARTESIAN_POINT('',(0.048481162907706,0.074,0.003));
#313=CARTESIAN_POINT('',(0.048481162907706,0.074,0.003));
#314=CARTESIAN_POINT('',(0.0484910670857398,0.0704290875944272,0.00291313996851309));
#315=CARTESIAN_POINT('',(0.0482599805473832,0.0650988779105358,0.00278348621944547));
#316=CARTESIAN_POINT('',(0.0471341620729082,0.0581026478466151,0.00261330765032307));
#317=CARTESIAN_POINT('',(0.0457075492567679,0.0528926627615909,0.00248657828339006));
#318=CARTESIAN_POINT('',(0.0438959051056988,0.0487968157334215,0.00238694957189402));
#319=CARTESIAN_POINT('',(0.0419425628959442,0.045764706282104,0.00231319555821334));
#320=CARTESIAN_POINT('',(0.0396840771805934,0.0430367181181452,0.00224683908936028));
#321=CARTESIAN_POINT('',(0.0368690242921367,0.04072523276553,0.00219061376997235));
#322=CARTESIAN_POINT('',(0.0336709288402717,0.0391160428015922,0.00215147131139007));
#323=CARTESIAN_POINT('',(0.0302085091154692,0.0380439508742743,0.00212539339964451));
#324=CARTESIAN_POINT('',(0.0265578435962892,0.0379977973488806,0.00212427074632413));
#325=CARTESIAN_POINT('',(0.0231152113335897,0.0391674090018405,0.00215272075950422));
#326=CARTESIAN_POINT('',(0.020801402221482,0.0405290895905102,0.00218584271976917));
#327=CARTESIAN_POINT('',(0.018691494341646,0.042242742979433,0.00222752618058081));
#328=CARTESIAN_POINT('',(0.0162008100216909,0.0447976050873813,0.00228967147509845));
#329=CARTESIAN_POINT('',(0.0135159032281716,0.0483988652912702,0.00237726969627414));
#330=CARTESIAN_POINT('',(0.0108469612983827,0.0530499901073105,0.00249040516477242));
#331=CARTESIAN_POINT('',(0.00789110828207024,0.0594907873792841,0.00264707320652313));
#332=CARTESIAN_POINT('',(0.00621518272814763,0.0645918563903362,0.00277115326354874));
#333=CARTESIAN_POINT('',(0.00533705841394485,0.0680625666330006,0.00285557594512706));
#334=CARTESIAN_POINT('',(0.00533705841394485,0.0680625666330006,0.00285557594512704));
#335=CARTESIAN_POINT('',(0.0597,0.0680625666330006,0.00285557594512705));
#336=CARTESIAN_POINT('',(-0.00530722181037152,0.0680625666330006,0.00285557594512705));
#337=CARTESIAN_POINT('',(-0.0484513263041327,0.074,0.003));
#338=CARTESIAN_POINT('',(-0.0484612304821665,0.0704290875944272,0.00291313996851309));
#339=CARTESIAN_POINT('',(-0.0482301439438099,0.0650988779105358,0.00278348621944548));
#340=CARTESIAN_POINT('',(-0.0471043254693348,0.0581026478466151,0.00261330765032307));
#341=CARTESIAN_POINT('',(-0.0456777126531945,0.052892662761591,0.00248657828339005));
#342=CARTESIAN_POINT('',(-0.0438660685021255,0.0487968157334215,0.00238694957189403));
#343=CARTESIAN_POINT('',(-0.0419127262923709,0.045764706282104,0.00231319555821334));
#344=CARTESIAN_POINT('',(-0.0396542405770201,0.0430367181181452,0.00224683908936027));
#345=CARTESIAN_POINT('',(-0.0368391876885634,0.04072523276553,0.00219061376997235));
#346=CARTESIAN_POINT('',(-0.0336410922366984,0.0391160428015922,0.00215147131139007));
#347=CARTESIAN_POINT('',(-0.0301786725118959,0.0380439508742743,0.00212539339964451));
#348=CARTESIAN_POINT('',(-0.0265280069927159,0.0379977973488806,0.00212427074632412));
#349=CARTESIAN_POINT('',(-0.0230853747300164,0.0391674090018405,0.00215272075950423));
#350=CARTESIAN_POINT('',(-0.0207715656179086,0.0405290895905101,0.00218584271976916));
#351=CARTESIAN_POINT('',(-0.0186616577380726,0.042242742979433,0.0022275261805808));
#352=CARTESIAN_POINT('',(-0.0161709734181176,0.0447976050873813,0.00228967147509846));
#353=CARTESIAN_POINT('',(-0.0134860666245982,0.0483988652912703,0.00237726969627414));
#354=CARTESIAN_POINT('',(-0.0108171246948094,0.0530499901073104,0.00249040516477242));
#355=CARTESIAN_POINT('',(-0.00786127167849689,0.0594907873792842,0.00264707320652313));
#356=CARTESIAN_POINT('',(-0.0061853461245743,0.0645918563903362,0.00277115326354874));
#357=CARTESIAN_POINT('',(-0.00530722181037152,0.0680625666330006,0.00285557594512706));
#358=CARTESIAN_POINT('',(-0.0484513263041327,0.074,0.003));
#359=CARTESIAN_POINT('',(0.0597,0.074,0.003));
#360=CARTESIAN_POINT('',(-0.0597,0.074,0.003));
#361=CARTESIAN_POINT('',(-0.0597,0.037,0.0021));
#362=CARTESIAN_POINT('',(-0.0597,0.00119964515380456,0.00122918055779525));
#363=CARTESIAN_POINT('',(0.0597,0.00119964515380456,0.00122918055779525));
#364=CARTESIAN_POINT('',(0.0597,0.,2.16840434497101E-19));
#365=CARTESIAN_POINT('',(0.0597,0.,0.));
#366=CARTESIAN_POINT('',(-0.0295192145589851,0.,0.));
#367=CARTESIAN_POINT('',(-0.0597,0.,0.));
#368=CARTESIAN_POINT('',(-0.0295192145589851,1.0843624745755E-19,5.28918742844443E-20));
#369=CARTESIAN_POINT('',(-0.0292461791450481,0.000400943995240594,0.000410815283295662));
#370=CARTESIAN_POINT('',(-0.0289700646676993,0.000800850531851749,0.000820567565609167));
#371=CARTESIAN_POINT('',(-0.0286906501496117,0.00119964515380451,0.00122918055779527));
#372=CARTESIAN_POINT('',(-0.0597,0.,2.16840434497101E-19));
#373=CARTESIAN_POINT('',(0.0597,0.,2.16840434497101E-19));
#374=CARTESIAN_POINT('',(0.0286906501496117,0.00119964515380456,0.00122918055779525));
#375=CARTESIAN_POINT('',(0.0289700646676993,0.000800850531851798,0.000820567565609144));
#376=CARTESIAN_POINT('',(0.0292461791450481,0.000400943995240595,0.000410815283295663));
#377=CARTESIAN_POINT('',(0.0295192145589851,2.72336717043207E-19,-1.59977826984164E-19));
#378=CARTESIAN_POINT('',(0.0295192145589851,0.,0.));
#379=CARTESIAN_POINT('',(0.0597,0.,0.));
#380=CARTESIAN_POINT('',(0.0597,0.,0.));
#381=CARTESIAN_POINT('',(0.0597,0.0187999112884512,0.019262767303109));
#382=CARTESIAN_POINT('',(0.0597,0.074,0.0015));
#383=CARTESIAN_POINT('',(0.048481162907706,0.074,0.025));
#384=CARTESIAN_POINT('',(0.048481162907706,0.074,0.));
#385=CARTESIAN_POINT('',(0.0597,0.074,0.0015));
#386=CARTESIAN_POINT('',(0.0597,0.074,0.));
#387=CARTESIAN_POINT('',(0.0597,0.074,0.));
#388=CARTESIAN_POINT('',(0.0597,0.037,0.));
#389=CARTESIAN_POINT('',(0.0295192145589851,1.0842021724855E-19,0.));
#390=CARTESIAN_POINT('',(-1.89329169110219E-28,0.0433480465079017,0.));
#391=CARTESIAN_POINT('',(-0.0295192145589851,3.25260651745652E-19,0.));
#392=CARTESIAN_POINT('',(-0.0597,0.037,0.));
#393=CARTESIAN_POINT('',(-0.0597,0.074,0.));
#394=CARTESIAN_POINT('',(0.0597,0.074,0.));
#395=CARTESIAN_POINT('',(-0.0484513263041327,0.074,0.));
#396=CARTESIAN_POINT('',(-0.0484513263041327,0.074,0.));
#397=CARTESIAN_POINT('',(-0.0484851106124484,0.0618192006174334,0.));
#398=CARTESIAN_POINT('',(-0.0450507574350176,0.0429235323549781,0.));
#399=CARTESIAN_POINT('',(-0.0206356479316251,0.0328598771059519,0.));
#400=CARTESIAN_POINT('',(-0.00861187737516292,0.0550012019358937,0.));
#401=CARTESIAN_POINT('',(-0.00530722181037152,0.0680625666330006,0.));
#402=CARTESIAN_POINT('',(-0.00530722181037152,0.0680625666330006,0.));
#403=CARTESIAN_POINT('',(0.00267598835786578,0.0680625666330006,0.));
#404=CARTESIAN_POINT('',(0.00533705841394485,0.0680625666330006,0.));
#405=CARTESIAN_POINT('',(0.048481162907706,0.074,0.));
#406=CARTESIAN_POINT('',(0.0485149472160218,0.0618192006174334,0.));
#407=CARTESIAN_POINT('',(0.0450805940385909,0.0429235323549781,0.));
#408=CARTESIAN_POINT('',(0.0206654845351984,0.0328598771059519,0.));
#409=CARTESIAN_POINT('',(0.00864171397873625,0.0550012019358937,0.));
#410=CARTESIAN_POINT('',(0.00533705841394485,0.0680625666330006,0.));
#411=CARTESIAN_POINT('',(0.0597,0.037,0.));
#412=CARTESIAN_POINT('',(0.0597,0.074,0.0015));
#413=CARTESIAN_POINT('',(-0.0484513263041327,0.074,0.025));
#414=CARTESIAN_POINT('',(-0.0597,0.074,0.0015));
#415=CARTESIAN_POINT('',(0.0597,0.037,0.0015));
#416=CARTESIAN_POINT('',(-0.0597,0.037,0.0015));
#417=CARTESIAN_POINT('',(-0.0484513263041327,0.074,0.003018));
#418=CARTESIAN_POINT('',(-0.0484513263041327,0.074,0.));
#419=CARTESIAN_POINT('',(-0.0484632655188392,0.0696953631323235,0.003018));
#420=CARTESIAN_POINT('',(-0.0484632655188392,0.0696953631323235,0.));
#421=CARTESIAN_POINT('',(-0.047992831072215,0.06145217513655,0.003018));
#422=CARTESIAN_POINT('',(-0.047992831072215,0.06145217513655,0.));
#423=CARTESIAN_POINT('',(-0.0457646440958804,0.0526339877459165,0.003018));
#424=CARTESIAN_POINT('',(-0.0457646440958804,0.0526339877459165,0.));
#425=CARTESIAN_POINT('',(-0.0427664295949713,0.0468176523801185,0.003018));
#426=CARTESIAN_POINT('',(-0.0427664295949713,0.0468176523801185,8.67361737988404E-19));
#427=CARTESIAN_POINT('',(-0.0388502231714853,0.0419303104546997,0.003018));
#428=CARTESIAN_POINT('',(-0.0388502231714853,0.0419303104546997,0.));
#429=CARTESIAN_POINT('',(-0.0323212341693201,0.0378721481283228,0.003018));
#430=CARTESIAN_POINT('',(-0.0323212341693201,0.0378721481283228,4.33680868994202E-19));
#431=CARTESIAN_POINT('',(-0.0236592096160475,0.0378914398420069,0.003018));
#432=CARTESIAN_POINT('',(-0.0236592096160475,0.0378914398420069,-4.33680868994202E-19));
#433=CARTESIAN_POINT('',(-0.0158472047318002,0.0443352458141993,0.003018));
#434=CARTESIAN_POINT('',(-0.0158472047318002,0.0443352458141993,4.33680868994202E-19));
#435=CARTESIAN_POINT('',(-0.00941612039135742,0.055083612914184,0.003018));
#436=CARTESIAN_POINT('',(-0.00941612039135742,0.055083612914184,0.));
#437=CARTESIAN_POINT('',(-0.00640496049608264,0.0637238496214742,0.003018));
#438=CARTESIAN_POINT('',(-0.00640496049608264,0.0637238496214742,0.));
#439=CARTESIAN_POINT('',(-0.00530722181037152,0.0680625666330006,0.003018));
#440=CARTESIAN_POINT('',(-0.00530722181037152,0.0680625666330006,0.));
#441=CARTESIAN_POINT('',(-0.00530722181037152,0.0680625666330006,0.025));
#442=CARTESIAN_POINT('',(0.048481162907706,0.074,0.003018));
#443=CARTESIAN_POINT('',(0.048481162907706,0.074,0.));
#444=CARTESIAN_POINT('',(0.0484931021224125,0.0696953631323235,0.003018));
#445=CARTESIAN_POINT('',(0.0484931021224125,0.0696953631323235,0.));
#446=CARTESIAN_POINT('',(0.0480226676757884,0.0614521751365501,0.003018));
#447=CARTESIAN_POINT('',(0.0480226676757884,0.0614521751365501,0.));
#448=CARTESIAN_POINT('',(0.0457944806994538,0.0526339877459165,0.00301800000000001));
#449=CARTESIAN_POINT('',(0.0457944806994538,0.0526339877459165,2.16840434497101E-18));
#450=CARTESIAN_POINT('',(0.0427962661985447,0.0468176523801185,0.003018));
#451=CARTESIAN_POINT('',(0.0427962661985447,0.0468176523801185,-8.67361737988404E-19));
#452=CARTESIAN_POINT('',(0.0388800597750586,0.0419303104546997,0.003018));
#453=CARTESIAN_POINT('',(0.0388800597750586,0.0419303104546997,0.));
#454=CARTESIAN_POINT('',(0.0323510707728934,0.0378721481283228,0.003018));
#455=CARTESIAN_POINT('',(0.0323510707728934,0.0378721481283228,-4.33680868994202E-19));
#456=CARTESIAN_POINT('',(0.0236890462196209,0.0378914398420069,0.003018));
#457=CARTESIAN_POINT('',(0.0236890462196209,0.0378914398420069,4.33680868994202E-19));
#458=CARTESIAN_POINT('',(0.0158770413353735,0.0443352458141994,0.003018));
#459=CARTESIAN_POINT('',(0.0158770413353735,0.0443352458141994,4.33680868994202E-19));
#460=CARTESIAN_POINT('',(0.00944595699493078,0.055083612914184,0.003018));
#461=CARTESIAN_POINT('',(0.00944595699493078,0.055083612914184,0.));
#462=CARTESIAN_POINT('',(0.00643479709965597,0.0637238496214742,0.003018));
#463=CARTESIAN_POINT('',(0.00643479709965597,0.0637238496214742,0.));
#464=CARTESIAN_POINT('',(0.00533705841394485,0.0680625666330006,0.003018));
#465=CARTESIAN_POINT('',(0.00533705841394485,0.0680625666330006,0.));
#466=CARTESIAN_POINT('',(0.00533705841394485,0.0680625666330006,0.025));
#467=CARTESIAN_POINT('',(0.00267598835786578,0.0680625666330006,0.025));
#468=CARTESIAN_POINT('',(0.0295192145589851,1.0842021724855E-19,0.00173871774118767));
#469=CARTESIAN_POINT('',(0.0295192145589851,1.0842021724855E-19,0.));
#470=CARTESIAN_POINT('',(0.00983973818632835,0.0288986976719344,0.00173871774118767));
#471=CARTESIAN_POINT('',(0.00983973818632835,0.0288986976719344,0.));
#472=CARTESIAN_POINT('',(-0.00983973818632835,0.0288986976719344,0.00173871774118767));
#473=CARTESIAN_POINT('',(-0.00983973818632835,0.0288986976719344,0.));
#474=CARTESIAN_POINT('',(-0.0295192145589851,3.25260651745652E-19,0.00173871774118767));
#475=CARTESIAN_POINT('',(-0.0295192145589851,3.25260651745652E-19,0.));
#476=MECHANICAL_DESIGN_GEOMETRIC_PRESENTATION_REPRESENTATION('',(#223),
#477);
#477=(
GEOMETRIC_REPRESENTATION_CONTEXT(3)
GLOBAL_UNCERTAINTY_ASSIGNED_CONTEXT((#478))
GLOBAL_UNIT_ASSIGNED_CONTEXT((#481,#480,#479))
REPRESENTATION_CONTEXT('rampa','TOP_LEVEL_ASSEMBLY_PART')
);
#478=UNCERTAINTY_MEASURE_WITH_UNIT(LENGTH_MEASURE(2.E-5),#481,
'DISTANCE_ACCURACY_VALUE','Maximum Tolerance applied to model');
#479=(
NAMED_UNIT(*)
SI_UNIT($,.STERADIAN.)
SOLID_ANGLE_UNIT()
);
#480=(
NAMED_UNIT(*)
PLANE_ANGLE_UNIT()
SI_UNIT($,.RADIAN.)
);
#481=(
LENGTH_UNIT()
NAMED_UNIT(*)
SI_UNIT($,.METRE.)
);
#482=PRODUCT_DEFINITION_SHAPE('','',#483);
#483=PRODUCT_DEFINITION('','',#485,#484);
#484=PRODUCT_DEFINITION_CONTEXT('',#491,'design');
#485=PRODUCT_DEFINITION_FORMATION_WITH_SPECIFIED_SOURCE('','',#487,
 .NOT_KNOWN.);
#486=PRODUCT_RELATED_PRODUCT_CATEGORY('','',(#487));
#487=PRODUCT('rampa','rampa','rampa',(#489));
#488=PRODUCT_CATEGORY('','');
#489=PRODUCT_CONTEXT('',#491,'mechanical');
#490=APPLICATION_PROTOCOL_DEFINITION('international standard',
'ap242_managed_model_based_3d_engineering',2020,#491);
#491=APPLICATION_CONTEXT('managed model based 3d engineering');
ENDSEC;
END-ISO-10303-21;
