ISO-10303-21;
HEADER;
/* Generated by software containing ST-Developer
 * from STEP Tools, Inc. (www.steptools.com) 
 */
/* OPTION: using custom renumber hook */

FILE_DESCRIPTION(
/* description */ ('STEP AP242 Edition 2',
'CAx-IF Rec.Pracs.---Representation and Presentation of Product Manufa
cturing Information (PMI)---4.0---2014-10-13',
'CAx-IF Rec.Pracs.---3D Tessellated Geometry---0.4---2014-09-14','2;1',
'CAx-IF Rec.Pracs.---User Defined Attributes---1.5---2016-08-15'),
/* implementation_level */ '2;1');

FILE_NAME(
/* name */ 'molde_llanta-d30 - base',
/* time_stamp */ '2026-09-16T14:34:24Z',
/* author */ (''),
/* organization */ (''),
/* preprocessor_version */ 'ST-DEVELOPER v20',
/* originating_system */ 'ONSHAPE BY PTC INC, 1.220',
/* authorisation */ '  ');

FILE_SCHEMA (('AP242_MANAGED_MODEL_BASED_3D_ENGINEERING_MIM_LF { 1 0 10303 442 3 1 4 }'));
ENDSEC;

DATA;
#10=SHAPE_REPRESENTATION_RELATIONSHIP('','',#600,#11);
#11=ADVANCED_BREP_SHAPE_REPRESENTATION('',(#598),#999);
#12=ELLIPSE('',#641,0.00182757020506519,0.0014);
#13=ELLIPSE('',#647,0.00182757020506519,0.0014);
#14=ELLIPSE('',#661,0.00182757020506519,0.0014);
#15=LINE('',#851,#57);
#16=LINE('',#856,#58);
#17=LINE('',#861,#59);
#18=LINE('',#866,#60);
#19=LINE('',#871,#61);
#20=LINE('',#876,#62);
#21=LINE('',#909,#63);
#22=LINE('',#911,#64);
#23=LINE('',#913,#65);
#24=LINE('',#915,#66);
#25=LINE('',#919,#67);
#26=LINE('',#921,#68);
#27=LINE('',#923,#69);
#28=LINE('',#927,#70);
#29=LINE('',#929,#71);
#30=LINE('',#931,#72);
#31=LINE('',#933,#73);
#32=LINE('',#934,#74);
#33=LINE('',#944,#75);
#34=LINE('',#947,#76);
#35=LINE('',#949,#77);
#36=LINE('',#951,#78);
#37=LINE('',#952,#79);
#38=LINE('',#954,#80);
#39=LINE('',#956,#81);
#40=LINE('',#958,#82);
#41=LINE('',#960,#83);
#42=LINE('',#961,#84);
#43=LINE('',#963,#85);
#44=LINE('',#964,#86);
#45=LINE('',#969,#87);
#46=LINE('',#971,#88);
#47=LINE('',#973,#89);
#48=LINE('',#975,#90);
#49=LINE('',#979,#91);
#50=LINE('',#981,#92);
#51=LINE('',#983,#93);
#52=LINE('',#987,#94);
#53=LINE('',#989,#95);
#54=LINE('',#991,#96);
#55=LINE('',#993,#97);
#56=LINE('',#994,#98);
#57=VECTOR('',#682,1.);
#58=VECTOR('',#685,1.);
#59=VECTOR('',#690,1.);
#60=VECTOR('',#693,1.);
#61=VECTOR('',#698,1.);
#62=VECTOR('',#701,1.);
#63=VECTOR('',#744,1.);
#64=VECTOR('',#745,1.);
#65=VECTOR('',#748,1.);
#66=VECTOR('',#749,1.);
#67=VECTOR('',#754,1.);
#68=VECTOR('',#755,1.);
#69=VECTOR('',#756,1.);
#70=VECTOR('',#761,1.);
#71=VECTOR('',#762,1.);
#72=VECTOR('',#763,1.);
#73=VECTOR('',#766,1.);
#74=VECTOR('',#767,1.);
#75=VECTOR('',#782,1.);
#76=VECTOR('',#783,1.);
#77=VECTOR('',#784,1.);
#78=VECTOR('',#785,1.);
#79=VECTOR('',#786,1.);
#80=VECTOR('',#789,1.);
#81=VECTOR('',#790,1.);
#82=VECTOR('',#791,1.);
#83=VECTOR('',#794,1.);
#84=VECTOR('',#795,1.);
#85=VECTOR('',#798,1.);
#86=VECTOR('',#799,1.);
#87=VECTOR('',#808,1.);
#88=VECTOR('',#809,1.);
#89=VECTOR('',#812,1.);
#90=VECTOR('',#813,1.);
#91=VECTOR('',#818,1.);
#92=VECTOR('',#819,1.);
#93=VECTOR('',#820,1.);
#94=VECTOR('',#825,1.);
#95=VECTOR('',#826,1.);
#96=VECTOR('',#827,1.);
#97=VECTOR('',#830,1.);
#98=VECTOR('',#831,1.);
#99=CYLINDRICAL_SURFACE('',#608,0.0166);
#100=CYLINDRICAL_SURFACE('',#621,0.015);
#101=CYLINDRICAL_SURFACE('',#628,0.01);
#102=CYLINDRICAL_SURFACE('',#632,0.0025);
#103=CYLINDRICAL_SURFACE('',#633,0.001);
#104=CYLINDRICAL_SURFACE('',#634,0.001);
#105=CYLINDRICAL_SURFACE('',#635,0.001);
#106=CYLINDRICAL_SURFACE('',#645,0.0014);
#107=CYLINDRICAL_SURFACE('',#646,0.0014);
#108=CYLINDRICAL_SURFACE('',#665,0.0014);
#109=ORIENTED_EDGE('',*,*,#251,.F.);
#110=ORIENTED_EDGE('',*,*,#252,.F.);
#111=ORIENTED_EDGE('',*,*,#253,.F.);
#112=ORIENTED_EDGE('',*,*,#254,.F.);
#113=ORIENTED_EDGE('',*,*,#255,.T.);
#114=ORIENTED_EDGE('',*,*,#256,.F.);
#115=ORIENTED_EDGE('',*,*,#257,.F.);
#116=ORIENTED_EDGE('',*,*,#258,.T.);
#117=ORIENTED_EDGE('',*,*,#259,.F.);
#118=ORIENTED_EDGE('',*,*,#260,.F.);
#119=ORIENTED_EDGE('',*,*,#261,.F.);
#120=ORIENTED_EDGE('',*,*,#262,.F.);
#121=ORIENTED_EDGE('',*,*,#263,.T.);
#122=ORIENTED_EDGE('',*,*,#264,.F.);
#123=ORIENTED_EDGE('',*,*,#265,.F.);
#124=ORIENTED_EDGE('',*,*,#266,.F.);
#125=ORIENTED_EDGE('',*,*,#267,.F.);
#126=ORIENTED_EDGE('',*,*,#268,.T.);
#127=ORIENTED_EDGE('',*,*,#269,.F.);
#128=ORIENTED_EDGE('',*,*,#270,.F.);
#129=ORIENTED_EDGE('',*,*,#271,.T.);
#130=ORIENTED_EDGE('',*,*,#255,.F.);
#131=ORIENTED_EDGE('',*,*,#272,.T.);
#132=ORIENTED_EDGE('',*,*,#271,.F.);
#133=ORIENTED_EDGE('',*,*,#273,.T.);
#134=ORIENTED_EDGE('',*,*,#272,.F.);
#135=ORIENTED_EDGE('',*,*,#274,.F.);
#136=ORIENTED_EDGE('',*,*,#275,.F.);
#137=ORIENTED_EDGE('',*,*,#276,.F.);
#138=ORIENTED_EDGE('',*,*,#277,.T.);
#139=ORIENTED_EDGE('',*,*,#273,.F.);
#140=ORIENTED_EDGE('',*,*,#278,.T.);
#141=ORIENTED_EDGE('',*,*,#277,.F.);
#142=ORIENTED_EDGE('',*,*,#279,.F.);
#143=ORIENTED_EDGE('',*,*,#278,.F.);
#144=ORIENTED_EDGE('',*,*,#254,.T.);
#145=ORIENTED_EDGE('',*,*,#279,.T.);
#146=ORIENTED_EDGE('',*,*,#253,.T.);
#147=ORIENTED_EDGE('',*,*,#276,.T.);
#148=ORIENTED_EDGE('',*,*,#252,.T.);
#149=ORIENTED_EDGE('',*,*,#275,.T.);
#150=ORIENTED_EDGE('',*,*,#251,.T.);
#151=ORIENTED_EDGE('',*,*,#274,.T.);
#152=ORIENTED_EDGE('',*,*,#280,.T.);
#153=ORIENTED_EDGE('',*,*,#270,.T.);
#154=ORIENTED_EDGE('',*,*,#281,.F.);
#155=ORIENTED_EDGE('',*,*,#282,.F.);
#156=ORIENTED_EDGE('',*,*,#269,.T.);
#157=ORIENTED_EDGE('',*,*,#283,.F.);
#158=ORIENTED_EDGE('',*,*,#284,.F.);
#159=ORIENTED_EDGE('',*,*,#285,.F.);
#160=ORIENTED_EDGE('',*,*,#267,.T.);
#161=ORIENTED_EDGE('',*,*,#286,.T.);
#162=ORIENTED_EDGE('',*,*,#287,.T.);
#163=ORIENTED_EDGE('',*,*,#288,.F.);
#164=ORIENTED_EDGE('',*,*,#289,.F.);
#165=ORIENTED_EDGE('',*,*,#290,.F.);
#166=ORIENTED_EDGE('',*,*,#291,.T.);
#167=ORIENTED_EDGE('',*,*,#281,.T.);
#168=ORIENTED_EDGE('',*,*,#282,.T.);
#169=ORIENTED_EDGE('',*,*,#292,.F.);
#170=ORIENTED_EDGE('',*,*,#287,.F.);
#171=ORIENTED_EDGE('',*,*,#293,.T.);
#172=ORIENTED_EDGE('',*,*,#290,.T.);
#173=ORIENTED_EDGE('',*,*,#286,.F.);
#174=ORIENTED_EDGE('',*,*,#266,.T.);
#175=ORIENTED_EDGE('',*,*,#280,.F.);
#176=ORIENTED_EDGE('',*,*,#291,.F.);
#177=ORIENTED_EDGE('',*,*,#293,.F.);
#178=ORIENTED_EDGE('',*,*,#268,.F.);
#179=ORIENTED_EDGE('',*,*,#285,.T.);
#180=ORIENTED_EDGE('',*,*,#292,.T.);
#181=ORIENTED_EDGE('',*,*,#289,.T.);
#182=ORIENTED_EDGE('',*,*,#283,.T.);
#183=ORIENTED_EDGE('',*,*,#288,.T.);
#184=ORIENTED_EDGE('',*,*,#284,.T.);
#185=ORIENTED_EDGE('',*,*,#294,.T.);
#186=ORIENTED_EDGE('',*,*,#295,.T.);
#187=ORIENTED_EDGE('',*,*,#294,.F.);
#188=ORIENTED_EDGE('',*,*,#296,.F.);
#189=ORIENTED_EDGE('',*,*,#297,.F.);
#190=ORIENTED_EDGE('',*,*,#298,.T.);
#191=ORIENTED_EDGE('',*,*,#299,.T.);
#192=ORIENTED_EDGE('',*,*,#300,.T.);
#193=ORIENTED_EDGE('',*,*,#301,.F.);
#194=ORIENTED_EDGE('',*,*,#302,.F.);
#195=ORIENTED_EDGE('',*,*,#303,.T.);
#196=ORIENTED_EDGE('',*,*,#297,.T.);
#197=ORIENTED_EDGE('',*,*,#304,.F.);
#198=ORIENTED_EDGE('',*,*,#261,.T.);
#199=ORIENTED_EDGE('',*,*,#305,.F.);
#200=ORIENTED_EDGE('',*,*,#298,.F.);
#201=ORIENTED_EDGE('',*,*,#303,.F.);
#202=ORIENTED_EDGE('',*,*,#263,.F.);
#203=ORIENTED_EDGE('',*,*,#306,.T.);
#204=ORIENTED_EDGE('',*,*,#301,.T.);
#205=ORIENTED_EDGE('',*,*,#296,.T.);
#206=ORIENTED_EDGE('',*,*,#307,.T.);
#207=ORIENTED_EDGE('',*,*,#295,.F.);
#208=ORIENTED_EDGE('',*,*,#306,.F.);
#209=ORIENTED_EDGE('',*,*,#262,.T.);
#210=ORIENTED_EDGE('',*,*,#304,.T.);
#211=ORIENTED_EDGE('',*,*,#302,.T.);
#212=ORIENTED_EDGE('',*,*,#300,.F.);
#213=ORIENTED_EDGE('',*,*,#264,.T.);
#214=ORIENTED_EDGE('',*,*,#307,.F.);
#215=ORIENTED_EDGE('',*,*,#305,.T.);
#216=ORIENTED_EDGE('',*,*,#265,.T.);
#217=ORIENTED_EDGE('',*,*,#299,.F.);
#218=ORIENTED_EDGE('',*,*,#308,.T.);
#219=ORIENTED_EDGE('',*,*,#260,.T.);
#220=ORIENTED_EDGE('',*,*,#309,.F.);
#221=ORIENTED_EDGE('',*,*,#310,.F.);
#222=ORIENTED_EDGE('',*,*,#259,.T.);
#223=ORIENTED_EDGE('',*,*,#311,.F.);
#224=ORIENTED_EDGE('',*,*,#312,.F.);
#225=ORIENTED_EDGE('',*,*,#313,.F.);
#226=ORIENTED_EDGE('',*,*,#257,.T.);
#227=ORIENTED_EDGE('',*,*,#314,.T.);
#228=ORIENTED_EDGE('',*,*,#315,.T.);
#229=ORIENTED_EDGE('',*,*,#316,.F.);
#230=ORIENTED_EDGE('',*,*,#317,.F.);
#231=ORIENTED_EDGE('',*,*,#318,.F.);
#232=ORIENTED_EDGE('',*,*,#319,.T.);
#233=ORIENTED_EDGE('',*,*,#309,.T.);
#234=ORIENTED_EDGE('',*,*,#310,.T.);
#235=ORIENTED_EDGE('',*,*,#320,.F.);
#236=ORIENTED_EDGE('',*,*,#315,.F.);
#237=ORIENTED_EDGE('',*,*,#321,.T.);
#238=ORIENTED_EDGE('',*,*,#318,.T.);
#239=ORIENTED_EDGE('',*,*,#314,.F.);
#240=ORIENTED_EDGE('',*,*,#256,.T.);
#241=ORIENTED_EDGE('',*,*,#308,.F.);
#242=ORIENTED_EDGE('',*,*,#319,.F.);
#243=ORIENTED_EDGE('',*,*,#321,.F.);
#244=ORIENTED_EDGE('',*,*,#258,.F.);
#245=ORIENTED_EDGE('',*,*,#313,.T.);
#246=ORIENTED_EDGE('',*,*,#320,.T.);
#247=ORIENTED_EDGE('',*,*,#317,.T.);
#248=ORIENTED_EDGE('',*,*,#311,.T.);
#249=ORIENTED_EDGE('',*,*,#316,.T.);
#250=ORIENTED_EDGE('',*,*,#312,.T.);
#251=EDGE_CURVE('',#322,#322,#375,.T.);
#252=EDGE_CURVE('',#323,#323,#376,.T.);
#253=EDGE_CURVE('',#324,#324,#377,.T.);
#254=EDGE_CURVE('',#325,#325,#378,.T.);
#255=EDGE_CURVE('',#326,#326,#379,.T.);
#256=EDGE_CURVE('',#327,#328,#15,.T.);
#257=EDGE_CURVE('',#329,#327,#380,.F.);
#258=EDGE_CURVE('',#329,#330,#16,.T.);
#259=EDGE_CURVE('',#331,#330,#381,.F.);
#260=EDGE_CURVE('',#328,#331,#382,.F.);
#261=EDGE_CURVE('',#332,#333,#17,.T.);
#262=EDGE_CURVE('',#334,#332,#383,.F.);
#263=EDGE_CURVE('',#334,#335,#18,.T.);
#264=EDGE_CURVE('',#336,#335,#384,.F.);
#265=EDGE_CURVE('',#333,#336,#385,.F.);
#266=EDGE_CURVE('',#337,#338,#19,.T.);
#267=EDGE_CURVE('',#339,#337,#386,.F.);
#268=EDGE_CURVE('',#339,#340,#20,.T.);
#269=EDGE_CURVE('',#341,#340,#387,.F.);
#270=EDGE_CURVE('',#338,#341,#388,.F.);
#271=EDGE_CURVE('',#342,#342,#389,.T.);
#272=EDGE_CURVE('',#343,#343,#390,.T.);
#273=EDGE_CURVE('',#344,#344,#391,.T.);
#274=EDGE_CURVE('',#345,#345,#392,.T.);
#275=EDGE_CURVE('',#346,#346,#393,.T.);
#276=EDGE_CURVE('',#347,#347,#394,.T.);
#277=EDGE_CURVE('',#348,#348,#395,.T.);
#278=EDGE_CURVE('',#349,#349,#396,.T.);
#279=EDGE_CURVE('',#350,#350,#397,.T.);
#280=EDGE_CURVE('',#351,#338,#21,.T.);
#281=EDGE_CURVE('',#351,#341,#22,.T.);
#282=EDGE_CURVE('',#341,#352,#23,.T.);
#283=EDGE_CURVE('',#352,#340,#24,.T.);
#284=EDGE_CURVE('',#353,#353,#398,.T.);
#285=EDGE_CURVE('',#339,#354,#25,.T.);
#286=EDGE_CURVE('',#337,#355,#26,.T.);
#287=EDGE_CURVE('',#355,#354,#27,.T.);
#288=EDGE_CURVE('',#356,#356,#12,.T.);
#289=EDGE_CURVE('',#357,#352,#28,.T.);
#290=EDGE_CURVE('',#358,#357,#29,.T.);
#291=EDGE_CURVE('',#358,#351,#30,.T.);
#292=EDGE_CURVE('',#354,#357,#31,.T.);
#293=EDGE_CURVE('',#355,#358,#32,.T.);
#294=EDGE_CURVE('',#359,#359,#13,.T.);
#295=EDGE_CURVE('',#360,#360,#399,.T.);
#296=EDGE_CURVE('',#361,#362,#33,.T.);
#297=EDGE_CURVE('',#363,#361,#34,.T.);
#298=EDGE_CURVE('',#363,#364,#35,.T.);
#299=EDGE_CURVE('',#364,#336,#36,.T.);
#300=EDGE_CURVE('',#336,#362,#37,.T.);
#301=EDGE_CURVE('',#365,#361,#38,.T.);
#302=EDGE_CURVE('',#366,#365,#39,.T.);
#303=EDGE_CURVE('',#366,#363,#40,.T.);
#304=EDGE_CURVE('',#332,#366,#41,.T.);
#305=EDGE_CURVE('',#364,#333,#42,.T.);
#306=EDGE_CURVE('',#334,#365,#43,.T.);
#307=EDGE_CURVE('',#362,#335,#44,.T.);
#308=EDGE_CURVE('',#367,#328,#45,.T.);
#309=EDGE_CURVE('',#367,#331,#46,.T.);
#310=EDGE_CURVE('',#331,#368,#47,.T.);
#311=EDGE_CURVE('',#368,#330,#48,.T.);
#312=EDGE_CURVE('',#369,#369,#400,.T.);
#313=EDGE_CURVE('',#329,#370,#49,.T.);
#314=EDGE_CURVE('',#327,#371,#50,.T.);
#315=EDGE_CURVE('',#371,#370,#51,.T.);
#316=EDGE_CURVE('',#372,#372,#14,.T.);
#317=EDGE_CURVE('',#373,#368,#52,.T.);
#318=EDGE_CURVE('',#374,#373,#53,.T.);
#319=EDGE_CURVE('',#374,#367,#54,.T.);
#320=EDGE_CURVE('',#370,#373,#55,.T.);
#321=EDGE_CURVE('',#371,#374,#56,.T.);
#322=VERTEX_POINT('',#841);
#323=VERTEX_POINT('',#843);
#324=VERTEX_POINT('',#845);
#325=VERTEX_POINT('',#847);
#326=VERTEX_POINT('',#849);
#327=VERTEX_POINT('',#852);
#328=VERTEX_POINT('',#853);
#329=VERTEX_POINT('',#855);
#330=VERTEX_POINT('',#857);
#331=VERTEX_POINT('',#859);
#332=VERTEX_POINT('',#862);
#333=VERTEX_POINT('',#863);
#334=VERTEX_POINT('',#865);
#335=VERTEX_POINT('',#867);
#336=VERTEX_POINT('',#869);
#337=VERTEX_POINT('',#872);
#338=VERTEX_POINT('',#873);
#339=VERTEX_POINT('',#875);
#340=VERTEX_POINT('',#877);
#341=VERTEX_POINT('',#879);
#342=VERTEX_POINT('',#882);
#343=VERTEX_POINT('',#885);
#344=VERTEX_POINT('',#888);
#345=VERTEX_POINT('',#891);
#346=VERTEX_POINT('',#893);
#347=VERTEX_POINT('',#895);
#348=VERTEX_POINT('',#897);
#349=VERTEX_POINT('',#900);
#350=VERTEX_POINT('',#903);
#351=VERTEX_POINT('',#910);
#352=VERTEX_POINT('',#914);
#353=VERTEX_POINT('',#918);
#354=VERTEX_POINT('',#920);
#355=VERTEX_POINT('',#922);
#356=VERTEX_POINT('',#926);
#357=VERTEX_POINT('',#928);
#358=VERTEX_POINT('',#930);
#359=VERTEX_POINT('',#940);
#360=VERTEX_POINT('',#942);
#361=VERTEX_POINT('',#945);
#362=VERTEX_POINT('',#946);
#363=VERTEX_POINT('',#948);
#364=VERTEX_POINT('',#950);
#365=VERTEX_POINT('',#955);
#366=VERTEX_POINT('',#957);
#367=VERTEX_POINT('',#970);
#368=VERTEX_POINT('',#974);
#369=VERTEX_POINT('',#978);
#370=VERTEX_POINT('',#980);
#371=VERTEX_POINT('',#982);
#372=VERTEX_POINT('',#986);
#373=VERTEX_POINT('',#988);
#374=VERTEX_POINT('',#990);
#375=CIRCLE('',#603,0.001);
#376=CIRCLE('',#604,0.001);
#377=CIRCLE('',#605,0.001);
#378=CIRCLE('',#606,0.0025);
#379=CIRCLE('',#607,0.0166);
#380=CIRCLE('',#609,0.0166);
#381=CIRCLE('',#610,0.0166);
#382=CIRCLE('',#611,0.0166);
#383=CIRCLE('',#612,0.0166);
#384=CIRCLE('',#613,0.0166);
#385=CIRCLE('',#614,0.0166);
#386=CIRCLE('',#615,0.0166);
#387=CIRCLE('',#616,0.0166);
#388=CIRCLE('',#617,0.0166);
#389=CIRCLE('',#618,0.0166);
#390=CIRCLE('',#620,0.015);
#391=CIRCLE('',#622,0.015);
#392=CIRCLE('',#624,0.001);
#393=CIRCLE('',#625,0.001);
#394=CIRCLE('',#626,0.001);
#395=CIRCLE('',#627,0.01);
#396=CIRCLE('',#629,0.01);
#397=CIRCLE('',#631,0.0025);
#398=CIRCLE('',#639,0.0014);
#399=CIRCLE('',#648,0.0014);
#400=CIRCLE('',#659,0.0014);
#401=EDGE_LOOP('',(#109));
#402=EDGE_LOOP('',(#110));
#403=EDGE_LOOP('',(#111));
#404=EDGE_LOOP('',(#112));
#405=EDGE_LOOP('',(#113));
#406=EDGE_LOOP('',(#114,#115,#116,#117,#118));
#407=EDGE_LOOP('',(#119,#120,#121,#122,#123));
#408=EDGE_LOOP('',(#124,#125,#126,#127,#128));
#409=EDGE_LOOP('',(#129));
#410=EDGE_LOOP('',(#130));
#411=EDGE_LOOP('',(#131));
#412=EDGE_LOOP('',(#132));
#413=EDGE_LOOP('',(#133));
#414=EDGE_LOOP('',(#134));
#415=EDGE_LOOP('',(#135));
#416=EDGE_LOOP('',(#136));
#417=EDGE_LOOP('',(#137));
#418=EDGE_LOOP('',(#138));
#419=EDGE_LOOP('',(#139));
#420=EDGE_LOOP('',(#140));
#421=EDGE_LOOP('',(#141));
#422=EDGE_LOOP('',(#142));
#423=EDGE_LOOP('',(#143));
#424=EDGE_LOOP('',(#144));
#425=EDGE_LOOP('',(#145));
#426=EDGE_LOOP('',(#146));
#427=EDGE_LOOP('',(#147));
#428=EDGE_LOOP('',(#148));
#429=EDGE_LOOP('',(#149));
#430=EDGE_LOOP('',(#150));
#431=EDGE_LOOP('',(#151));
#432=EDGE_LOOP('',(#152,#153,#154));
#433=EDGE_LOOP('',(#155,#156,#157));
#434=EDGE_LOOP('',(#158));
#435=EDGE_LOOP('',(#159,#160,#161,#162));
#436=EDGE_LOOP('',(#163));
#437=EDGE_LOOP('',(#164,#165,#166,#167,#168));
#438=EDGE_LOOP('',(#169,#170,#171,#172));
#439=EDGE_LOOP('',(#173,#174,#175,#176,#177));
#440=EDGE_LOOP('',(#178,#179,#180,#181,#182));
#441=EDGE_LOOP('',(#183));
#442=EDGE_LOOP('',(#184));
#443=EDGE_LOOP('',(#185));
#444=EDGE_LOOP('',(#186));
#445=EDGE_LOOP('',(#187));
#446=EDGE_LOOP('',(#188,#189,#190,#191,#192));
#447=EDGE_LOOP('',(#193,#194,#195,#196));
#448=EDGE_LOOP('',(#197,#198,#199,#200,#201));
#449=EDGE_LOOP('',(#202,#203,#204,#205,#206));
#450=EDGE_LOOP('',(#207));
#451=EDGE_LOOP('',(#208,#209,#210,#211));
#452=EDGE_LOOP('',(#212,#213,#214));
#453=EDGE_LOOP('',(#215,#216,#217));
#454=EDGE_LOOP('',(#218,#219,#220));
#455=EDGE_LOOP('',(#221,#222,#223));
#456=EDGE_LOOP('',(#224));
#457=EDGE_LOOP('',(#225,#226,#227,#228));
#458=EDGE_LOOP('',(#229));
#459=EDGE_LOOP('',(#230,#231,#232,#233,#234));
#460=EDGE_LOOP('',(#235,#236,#237,#238));
#461=EDGE_LOOP('',(#239,#240,#241,#242,#243));
#462=EDGE_LOOP('',(#244,#245,#246,#247,#248));
#463=EDGE_LOOP('',(#249));
#464=EDGE_LOOP('',(#250));
#465=FACE_BOUND('',#401,.T.);
#466=FACE_BOUND('',#402,.T.);
#467=FACE_BOUND('',#403,.T.);
#468=FACE_BOUND('',#404,.T.);
#469=FACE_BOUND('',#405,.T.);
#470=FACE_BOUND('',#406,.T.);
#471=FACE_BOUND('',#407,.T.);
#472=FACE_BOUND('',#408,.T.);
#473=FACE_BOUND('',#409,.T.);
#474=FACE_BOUND('',#410,.T.);
#475=FACE_BOUND('',#411,.T.);
#476=FACE_BOUND('',#412,.T.);
#477=FACE_BOUND('',#413,.T.);
#478=FACE_BOUND('',#414,.T.);
#479=FACE_BOUND('',#415,.T.);
#480=FACE_BOUND('',#416,.T.);
#481=FACE_BOUND('',#417,.T.);
#482=FACE_BOUND('',#418,.T.);
#483=FACE_BOUND('',#419,.T.);
#484=FACE_BOUND('',#420,.T.);
#485=FACE_BOUND('',#421,.T.);
#486=FACE_BOUND('',#422,.T.);
#487=FACE_BOUND('',#423,.T.);
#488=FACE_BOUND('',#424,.T.);
#489=FACE_BOUND('',#425,.T.);
#490=FACE_BOUND('',#426,.T.);
#491=FACE_BOUND('',#427,.T.);
#492=FACE_BOUND('',#428,.T.);
#493=FACE_BOUND('',#429,.T.);
#494=FACE_BOUND('',#430,.T.);
#495=FACE_BOUND('',#431,.T.);
#496=FACE_BOUND('',#432,.T.);
#497=FACE_BOUND('',#433,.T.);
#498=FACE_BOUND('',#434,.T.);
#499=FACE_BOUND('',#435,.T.);
#500=FACE_BOUND('',#436,.T.);
#501=FACE_BOUND('',#437,.T.);
#502=FACE_BOUND('',#438,.T.);
#503=FACE_BOUND('',#439,.T.);
#504=FACE_BOUND('',#440,.T.);
#505=FACE_BOUND('',#441,.T.);
#506=FACE_BOUND('',#442,.T.);
#507=FACE_BOUND('',#443,.T.);
#508=FACE_BOUND('',#444,.T.);
#509=FACE_BOUND('',#445,.T.);
#510=FACE_BOUND('',#446,.T.);
#511=FACE_BOUND('',#447,.T.);
#512=FACE_BOUND('',#448,.T.);
#513=FACE_BOUND('',#449,.T.);
#514=FACE_BOUND('',#450,.T.);
#515=FACE_BOUND('',#451,.T.);
#516=FACE_BOUND('',#452,.T.);
#517=FACE_BOUND('',#453,.T.);
#518=FACE_BOUND('',#454,.T.);
#519=FACE_BOUND('',#455,.T.);
#520=FACE_BOUND('',#456,.T.);
#521=FACE_BOUND('',#457,.T.);
#522=FACE_BOUND('',#458,.T.);
#523=FACE_BOUND('',#459,.T.);
#524=FACE_BOUND('',#460,.T.);
#525=FACE_BOUND('',#461,.T.);
#526=FACE_BOUND('',#462,.T.);
#527=FACE_BOUND('',#463,.T.);
#528=FACE_BOUND('',#464,.T.);
#529=PLANE('',#602);
#530=PLANE('',#619);
#531=PLANE('',#623);
#532=PLANE('',#630);
#533=PLANE('',#636);
#534=PLANE('',#637);
#535=PLANE('',#638);
#536=PLANE('',#640);
#537=PLANE('',#642);
#538=PLANE('',#643);
#539=PLANE('',#644);
#540=PLANE('',#649);
#541=PLANE('',#650);
#542=PLANE('',#651);
#543=PLANE('',#652);
#544=PLANE('',#653);
#545=PLANE('',#654);
#546=PLANE('',#655);
#547=PLANE('',#656);
#548=PLANE('',#657);
#549=PLANE('',#658);
#550=PLANE('',#660);
#551=PLANE('',#662);
#552=PLANE('',#663);
#553=PLANE('',#664);
#554=ADVANCED_FACE('',(#465,#466,#467,#468,#469),#529,.T.);
#555=ADVANCED_FACE('',(#470,#471,#472,#473,#474),#99,.T.);
#556=ADVANCED_FACE('',(#475,#476),#530,.T.);
#557=ADVANCED_FACE('',(#477,#478),#100,.F.);
#558=ADVANCED_FACE('',(#479,#480,#481,#482,#483),#531,.T.);
#559=ADVANCED_FACE('',(#484,#485),#101,.F.);
#560=ADVANCED_FACE('',(#486,#487),#532,.T.);
#561=ADVANCED_FACE('',(#488,#489),#102,.F.);
#562=ADVANCED_FACE('',(#490,#491),#103,.F.);
#563=ADVANCED_FACE('',(#492,#493),#104,.F.);
#564=ADVANCED_FACE('',(#494,#495),#105,.F.);
#565=ADVANCED_FACE('',(#496),#533,.T.);
#566=ADVANCED_FACE('',(#497),#534,.T.);
#567=ADVANCED_FACE('',(#498,#499),#535,.T.);
#568=ADVANCED_FACE('',(#500,#501),#536,.T.);
#569=ADVANCED_FACE('',(#502),#537,.T.);
#570=ADVANCED_FACE('',(#503),#538,.T.);
#571=ADVANCED_FACE('',(#504),#539,.F.);
#572=ADVANCED_FACE('',(#505,#506),#106,.F.);
#573=ADVANCED_FACE('',(#507,#508),#107,.F.);
#574=ADVANCED_FACE('',(#509,#510),#540,.T.);
#575=ADVANCED_FACE('',(#511),#541,.T.);
#576=ADVANCED_FACE('',(#512),#542,.T.);
#577=ADVANCED_FACE('',(#513),#543,.F.);
#578=ADVANCED_FACE('',(#514,#515),#544,.T.);
#579=ADVANCED_FACE('',(#516),#545,.T.);
#580=ADVANCED_FACE('',(#517),#546,.T.);
#581=ADVANCED_FACE('',(#518),#547,.T.);
#582=ADVANCED_FACE('',(#519),#548,.T.);
#583=ADVANCED_FACE('',(#520,#521),#549,.T.);
#584=ADVANCED_FACE('',(#522,#523),#550,.T.);
#585=ADVANCED_FACE('',(#524),#551,.T.);
#586=ADVANCED_FACE('',(#525),#552,.T.);
#587=ADVANCED_FACE('',(#526),#553,.F.);
#588=ADVANCED_FACE('',(#527,#528),#108,.F.);
#589=CLOSED_SHELL('',(#554,#555,#556,#557,#558,#559,#560,#561,#562,#563,
#564,#565,#566,#567,#568,#569,#570,#571,#572,#573,#574,#575,#576,#577,#578,
#579,#580,#581,#582,#583,#584,#585,#586,#587,#588));
#590=STYLED_ITEM('',(#591),#598);
#591=PRESENTATION_STYLE_ASSIGNMENT((#592));
#592=SURFACE_STYLE_USAGE(.BOTH.,#593);
#593=SURFACE_SIDE_STYLE('',(#594));
#594=SURFACE_STYLE_FILL_AREA(#595);
#595=FILL_AREA_STYLE('',(#596));
#596=FILL_AREA_STYLE_COLOUR('',#597);
#597=COLOUR_RGB('',0.615686274509804,0.811764705882353,0.929411764705882);
#598=MANIFOLD_SOLID_BREP('base',#589);
#599=SHAPE_DEFINITION_REPRESENTATION(#1004,#600);
#600=SHAPE_REPRESENTATION('base',(#601),#999);
#601=AXIS2_PLACEMENT_3D('',#838,#666,#667);
#602=AXIS2_PLACEMENT_3D('',#839,#668,#669);
#603=AXIS2_PLACEMENT_3D('',#840,#670,#671);
#604=AXIS2_PLACEMENT_3D('',#842,#672,#673);
#605=AXIS2_PLACEMENT_3D('',#844,#674,#675);
#606=AXIS2_PLACEMENT_3D('',#846,#676,#677);
#607=AXIS2_PLACEMENT_3D('',#848,#678,#679);
#608=AXIS2_PLACEMENT_3D('',#850,#680,#681);
#609=AXIS2_PLACEMENT_3D('',#854,#683,#684);
#610=AXIS2_PLACEMENT_3D('',#858,#686,#687);
#611=AXIS2_PLACEMENT_3D('',#860,#688,#689);
#612=AXIS2_PLACEMENT_3D('',#864,#691,#692);
#613=AXIS2_PLACEMENT_3D('',#868,#694,#695);
#614=AXIS2_PLACEMENT_3D('',#870,#696,#697);
#615=AXIS2_PLACEMENT_3D('',#874,#699,#700);
#616=AXIS2_PLACEMENT_3D('',#878,#702,#703);
#617=AXIS2_PLACEMENT_3D('',#880,#704,#705);
#618=AXIS2_PLACEMENT_3D('',#881,#706,#707);
#619=AXIS2_PLACEMENT_3D('',#883,#708,#709);
#620=AXIS2_PLACEMENT_3D('',#884,#710,#711);
#621=AXIS2_PLACEMENT_3D('',#886,#712,#713);
#622=AXIS2_PLACEMENT_3D('',#887,#714,#715);
#623=AXIS2_PLACEMENT_3D('',#889,#716,#717);
#624=AXIS2_PLACEMENT_3D('',#890,#718,#719);
#625=AXIS2_PLACEMENT_3D('',#892,#720,#721);
#626=AXIS2_PLACEMENT_3D('',#894,#722,#723);
#627=AXIS2_PLACEMENT_3D('',#896,#724,#725);
#628=AXIS2_PLACEMENT_3D('',#898,#726,#727);
#629=AXIS2_PLACEMENT_3D('',#899,#728,#729);
#630=AXIS2_PLACEMENT_3D('',#901,#730,#731);
#631=AXIS2_PLACEMENT_3D('',#902,#732,#733);
#632=AXIS2_PLACEMENT_3D('',#904,#734,#735);
#633=AXIS2_PLACEMENT_3D('',#905,#736,#737);
#634=AXIS2_PLACEMENT_3D('',#906,#738,#739);
#635=AXIS2_PLACEMENT_3D('',#907,#740,#741);
#636=AXIS2_PLACEMENT_3D('',#908,#742,#743);
#637=AXIS2_PLACEMENT_3D('',#912,#746,#747);
#638=AXIS2_PLACEMENT_3D('',#916,#750,#751);
#639=AXIS2_PLACEMENT_3D('',#917,#752,#753);
#640=AXIS2_PLACEMENT_3D('',#924,#757,#758);
#641=AXIS2_PLACEMENT_3D('',#925,#759,#760);
#642=AXIS2_PLACEMENT_3D('',#932,#764,#765);
#643=AXIS2_PLACEMENT_3D('',#935,#768,#769);
#644=AXIS2_PLACEMENT_3D('',#936,#770,#771);
#645=AXIS2_PLACEMENT_3D('',#937,#772,#773);
#646=AXIS2_PLACEMENT_3D('',#938,#774,#775);
#647=AXIS2_PLACEMENT_3D('',#939,#776,#777);
#648=AXIS2_PLACEMENT_3D('',#941,#778,#779);
#649=AXIS2_PLACEMENT_3D('',#943,#780,#781);
#650=AXIS2_PLACEMENT_3D('',#953,#787,#788);
#651=AXIS2_PLACEMENT_3D('',#959,#792,#793);
#652=AXIS2_PLACEMENT_3D('',#962,#796,#797);
#653=AXIS2_PLACEMENT_3D('',#965,#800,#801);
#654=AXIS2_PLACEMENT_3D('',#966,#802,#803);
#655=AXIS2_PLACEMENT_3D('',#967,#804,#805);
#656=AXIS2_PLACEMENT_3D('',#968,#806,#807);
#657=AXIS2_PLACEMENT_3D('',#972,#810,#811);
#658=AXIS2_PLACEMENT_3D('',#976,#814,#815);
#659=AXIS2_PLACEMENT_3D('',#977,#816,#817);
#660=AXIS2_PLACEMENT_3D('',#984,#821,#822);
#661=AXIS2_PLACEMENT_3D('',#985,#823,#824);
#662=AXIS2_PLACEMENT_3D('',#992,#828,#829);
#663=AXIS2_PLACEMENT_3D('',#995,#832,#833);
#664=AXIS2_PLACEMENT_3D('',#996,#834,#835);
#665=AXIS2_PLACEMENT_3D('',#997,#836,#837);
#666=DIRECTION('',(0.,0.,1.));
#667=DIRECTION('',(1.,0.,0.));
#668=DIRECTION('',(0.,0.,-1.));
#669=DIRECTION('',(-1.,0.,0.));
#670=DIRECTION('',(0.,0.,-1.));
#671=DIRECTION('',(-1.,0.,0.));
#672=DIRECTION('',(0.,0.,-1.));
#673=DIRECTION('',(-1.,0.,0.));
#674=DIRECTION('',(0.,0.,-1.));
#675=DIRECTION('',(-1.,0.,0.));
#676=DIRECTION('',(0.,0.,-1.));
#677=DIRECTION('',(-1.,0.,0.));
#678=DIRECTION('',(0.,0.,-1.));
#679=DIRECTION('',(-1.,0.,0.));
#680=DIRECTION('',(0.,0.,-1.));
#681=DIRECTION('',(-1.,0.,0.));
#682=DIRECTION('',(0.,0.,-1.));
#683=DIRECTION('',(0.,0.,1.));
#684=DIRECTION('',(-0.5,-0.866025403784439,0.));
#685=DIRECTION('',(0.,0.,-1.));
#686=DIRECTION('',(0.,0.,-1.));
#687=DIRECTION('',(0.5,0.866025403784439,0.));
#688=DIRECTION('',(0.,0.,-1.));
#689=DIRECTION('',(0.5,0.866025403784439,0.));
#690=DIRECTION('',(0.,0.,-1.));
#691=DIRECTION('',(0.,0.,1.));
#692=DIRECTION('',(-0.5,0.866025403784438,0.));
#693=DIRECTION('',(0.,0.,-1.));
#694=DIRECTION('',(0.,0.,-1.));
#695=DIRECTION('',(0.5,-0.866025403784438,0.));
#696=DIRECTION('',(0.,0.,-1.));
#697=DIRECTION('',(0.5,-0.866025403784438,0.));
#698=DIRECTION('',(0.,0.,-1.));
#699=DIRECTION('',(0.,0.,1.));
#700=DIRECTION('',(1.,0.,0.));
#701=DIRECTION('',(0.,0.,-1.));
#702=DIRECTION('',(0.,0.,-1.));
#703=DIRECTION('',(-1.,0.,0.));
#704=DIRECTION('',(0.,0.,-1.));
#705=DIRECTION('',(-1.,0.,0.));
#706=DIRECTION('',(0.,0.,-1.));
#707=DIRECTION('',(-1.,0.,0.));
#708=DIRECTION('',(0.,0.,1.));
#709=DIRECTION('',(1.,0.,0.));
#710=DIRECTION('',(0.,0.,-1.));
#711=DIRECTION('',(-1.,0.,0.));
#712=DIRECTION('',(0.,0.,-1.));
#713=DIRECTION('',(-1.,0.,0.));
#714=DIRECTION('',(0.,0.,-1.));
#715=DIRECTION('',(-1.,0.,0.));
#716=DIRECTION('',(0.,0.,1.));
#717=DIRECTION('',(1.,0.,0.));
#718=DIRECTION('',(0.,0.,1.));
#719=DIRECTION('',(1.,0.,0.));
#720=DIRECTION('',(0.,0.,1.));
#721=DIRECTION('',(1.,0.,0.));
#722=DIRECTION('',(0.,0.,1.));
#723=DIRECTION('',(1.,0.,0.));
#724=DIRECTION('',(0.,0.,-1.));
#725=DIRECTION('',(-1.,0.,0.));
#726=DIRECTION('',(0.,0.,-1.));
#727=DIRECTION('',(-1.,0.,0.));
#728=DIRECTION('',(0.,0.,-1.));
#729=DIRECTION('',(-1.,0.,0.));
#730=DIRECTION('',(0.,0.,1.));
#731=DIRECTION('',(1.,0.,0.));
#732=DIRECTION('',(0.,0.,1.));
#733=DIRECTION('',(1.,0.,0.));
#734=DIRECTION('',(0.,0.,1.));
#735=DIRECTION('',(1.,0.,0.));
#736=DIRECTION('',(0.,0.,1.));
#737=DIRECTION('',(1.,0.,0.));
#738=DIRECTION('',(0.,0.,1.));
#739=DIRECTION('',(1.,0.,0.));
#740=DIRECTION('',(0.,0.,1.));
#741=DIRECTION('',(1.,0.,0.));
#742=DIRECTION('',(0.,0.,-1.));
#743=DIRECTION('',(-1.,0.,0.));
#744=DIRECTION('',(0.,-1.,0.));
#745=DIRECTION('',(-1.,0.,0.));
#746=DIRECTION('',(0.,0.,-1.));
#747=DIRECTION('',(-1.,0.,0.));
#748=DIRECTION('',(-1.,0.,0.));
#749=DIRECTION('',(0.,-1.,0.));
#750=DIRECTION('',(0.,0.,1.));
#751=DIRECTION('',(1.,0.,0.));
#752=DIRECTION('',(0.,0.,1.));
#753=DIRECTION('',(1.,0.,0.));
#754=DIRECTION('',(0.,1.,0.));
#755=DIRECTION('',(0.,1.,0.));
#756=DIRECTION('',(-1.,0.,0.));
#757=DIRECTION('',(0.,0.642787609686539,-0.766044443118978));
#758=DIRECTION('',(0.,0.766044443118978,0.642787609686539));
#759=DIRECTION('',(0.,0.642787609686539,-0.766044443118978));
#760=DIRECTION('',(0.,0.766044443118978,0.642787609686539));
#761=DIRECTION('',(0.,-0.766044443118978,-0.642787609686539));
#762=DIRECTION('',(-1.,0.,0.));
#763=DIRECTION('',(0.,-0.766044443118978,-0.642787609686539));
#764=DIRECTION('',(0.,1.,0.));
#765=DIRECTION('',(0.,0.,1.));
#766=DIRECTION('',(0.,0.,-1.));
#767=DIRECTION('',(0.,0.,-1.));
#768=DIRECTION('',(1.,0.,0.));
#769=DIRECTION('',(0.,1.,0.));
#770=DIRECTION('',(1.,0.,0.));
#771=DIRECTION('',(0.,1.,0.));
#772=DIRECTION('',(0.,0.,1.));
#773=DIRECTION('',(1.,0.,0.));
#774=DIRECTION('',(0.,0.,1.));
#775=DIRECTION('',(-0.5,0.866025403784438,0.));
#776=DIRECTION('',(-0.556670399226419,-0.32139380484327,-0.766044443118978));
#777=DIRECTION('',(-0.663413948168938,-0.38302222155949,0.642787609686539));
#778=DIRECTION('',(0.,0.,1.));
#779=DIRECTION('',(-0.5,0.866025403784438,0.));
#780=DIRECTION('',(-0.556670399226419,-0.32139380484327,-0.766044443118978));
#781=DIRECTION('',(-0.663413948168938,-0.38302222155949,0.642787609686539));
#782=DIRECTION('',(0.663413948168938,0.38302222155949,-0.642787609686539));
#783=DIRECTION('',(0.5,-0.866025403784438,0.));
#784=DIRECTION('',(0.663413948168938,0.38302222155949,-0.642787609686539));
#785=DIRECTION('',(0.5,-0.866025403784438,0.));
#786=DIRECTION('',(0.5,-0.866025403784438,0.));
#787=DIRECTION('',(-0.866025403784438,-0.5,0.));
#788=DIRECTION('',(0.,0.,1.));
#789=DIRECTION('',(0.,0.,-1.));
#790=DIRECTION('',(0.5,-0.866025403784438,0.));
#791=DIRECTION('',(0.,0.,-1.));
#792=DIRECTION('',(-0.5,0.866025403784438,0.));
#793=DIRECTION('',(-0.866025403784438,-0.5,0.));
#794=DIRECTION('',(-0.866025403784438,-0.5,0.));
#795=DIRECTION('',(0.866025403784438,0.5,0.));
#796=DIRECTION('',(-0.5,0.866025403784438,0.));
#797=DIRECTION('',(-0.866025403784438,-0.5,0.));
#798=DIRECTION('',(-0.866025403784438,-0.5,0.));
#799=DIRECTION('',(0.866025403784438,0.5,0.));
#800=DIRECTION('',(0.,0.,1.));
#801=DIRECTION('',(-0.5,0.866025403784438,0.));
#802=DIRECTION('',(0.,0.,-1.));
#803=DIRECTION('',(0.5,-0.866025403784438,0.));
#804=DIRECTION('',(0.,0.,-1.));
#805=DIRECTION('',(0.5,-0.866025403784438,0.));
#806=DIRECTION('',(0.,0.,-1.));
#807=DIRECTION('',(0.5,0.866025403784439,0.));
#808=DIRECTION('',(-0.866025403784439,0.5,0.));
#809=DIRECTION('',(0.5,0.866025403784439,0.));
#810=DIRECTION('',(0.,0.,-1.));
#811=DIRECTION('',(0.5,0.866025403784439,0.));
#812=DIRECTION('',(0.5,0.866025403784439,0.));
#813=DIRECTION('',(-0.866025403784439,0.5,0.));
#814=DIRECTION('',(0.,0.,1.));
#815=DIRECTION('',(-0.5,-0.866025403784439,0.));
#816=DIRECTION('',(0.,0.,1.));
#817=DIRECTION('',(-0.5,-0.866025403784439,0.));
#818=DIRECTION('',(0.866025403784439,-0.5,0.));
#819=DIRECTION('',(0.866025403784439,-0.5,0.));
#820=DIRECTION('',(0.5,0.866025403784439,0.));
#821=DIRECTION('',(0.556670399226419,-0.32139380484327,-0.766044443118978));
#822=DIRECTION('',(0.663413948168939,-0.383022221559489,0.642787609686539));
#823=DIRECTION('',(0.556670399226419,-0.32139380484327,-0.766044443118978));
#824=DIRECTION('',(0.663413948168939,-0.383022221559489,0.642787609686539));
#825=DIRECTION('',(-0.663413948168939,0.383022221559489,-0.642787609686539));
#826=DIRECTION('',(0.5,0.866025403784439,0.));
#827=DIRECTION('',(-0.663413948168939,0.383022221559489,-0.642787609686539));
#828=DIRECTION('',(0.866025403784439,-0.5,0.));
#829=DIRECTION('',(0.,0.,1.));
#830=DIRECTION('',(0.,0.,-1.));
#831=DIRECTION('',(0.,0.,-1.));
#832=DIRECTION('',(-0.5,-0.866025403784439,0.));
#833=DIRECTION('',(0.866025403784439,-0.5,0.));
#834=DIRECTION('',(-0.5,-0.866025403784439,0.));
#835=DIRECTION('',(0.866025403784439,-0.5,0.));
#836=DIRECTION('',(0.,0.,1.));
#837=DIRECTION('',(-0.5,-0.866025403784439,0.));
#838=CARTESIAN_POINT('',(0.,0.,0.));
#839=CARTESIAN_POINT('',(0.0083,0.,1.76182853028895E-18));
#840=CARTESIAN_POINT('',(0.,0.0125,0.));
#841=CARTESIAN_POINT('',(-0.001,0.0125,0.));
#842=CARTESIAN_POINT('',(-0.0108253175473055,-0.00625,0.));
#843=CARTESIAN_POINT('',(-0.0118253175473055,-0.00625,0.));
#844=CARTESIAN_POINT('',(0.0108253175473055,-0.00625,0.));
#845=CARTESIAN_POINT('',(0.00982531754730548,-0.00625,0.));
#846=CARTESIAN_POINT('',(0.,1.53080849893419E-19,0.));
#847=CARTESIAN_POINT('',(-0.0025,1.53080849893419E-19,0.));
#848=CARTESIAN_POINT('',(0.,0.,0.));
#849=CARTESIAN_POINT('',(-0.0166,0.,0.));
#850=CARTESIAN_POINT('',(0.,0.,0.0322583466768265));
#851=CARTESIAN_POINT('',(0.0124728056803178,-0.0109539544668139,0.0322583466768265));
#852=CARTESIAN_POINT('',(0.0124728056803178,-0.0109539544668139,0.0546));
#853=CARTESIAN_POINT('',(0.0124728056803178,-0.0109539544668139,0.0475234472313775));
#854=CARTESIAN_POINT('',(0.,0.,0.0546));
#855=CARTESIAN_POINT('',(0.0157228056803177,-0.00532478934221507,0.0546));
#856=CARTESIAN_POINT('',(0.0157228056803177,-0.00532478934221507,0.0322583466768265));
#857=CARTESIAN_POINT('',(0.0157228056803177,-0.00532478934221507,0.0475234472313775));
#858=CARTESIAN_POINT('',(0.,0.,0.0475234472313775));
#859=CARTESIAN_POINT('',(0.0143760217028217,-0.0083,0.0475234472313775));
#860=CARTESIAN_POINT('',(0.,0.,0.0475234472313775));
#861=CARTESIAN_POINT('',(-0.0157228056803177,-0.00532478934221508,0.0322583466768265));
#862=CARTESIAN_POINT('',(-0.0157228056803177,-0.00532478934221508,0.0546));
#863=CARTESIAN_POINT('',(-0.0157228056803177,-0.00532478934221508,0.0475234472313775));
#864=CARTESIAN_POINT('',(0.,0.,0.0546));
#865=CARTESIAN_POINT('',(-0.0124728056803178,-0.0109539544668139,0.0546));
#866=CARTESIAN_POINT('',(-0.0124728056803178,-0.0109539544668139,0.0322583466768265));
#867=CARTESIAN_POINT('',(-0.0124728056803178,-0.0109539544668139,0.0475234472313775));
#868=CARTESIAN_POINT('',(0.,0.,0.0475234472313775));
#869=CARTESIAN_POINT('',(-0.0143760217028217,-0.0083,0.0475234472313775));
#870=CARTESIAN_POINT('',(0.,0.,0.0475234472313775));
#871=CARTESIAN_POINT('',(0.00325,0.016278743809029,0.0322583466768265));
#872=CARTESIAN_POINT('',(0.00325,0.016278743809029,0.0546));
#873=CARTESIAN_POINT('',(0.00325,0.016278743809029,0.0475234472313775));
#874=CARTESIAN_POINT('',(0.,0.,0.0546));
#875=CARTESIAN_POINT('',(-0.00325,0.016278743809029,0.0546));
#876=CARTESIAN_POINT('',(-0.00325,0.016278743809029,0.0322583466768265));
#877=CARTESIAN_POINT('',(-0.00325,0.016278743809029,0.0475234472313775));
#878=CARTESIAN_POINT('',(0.,0.,0.0475234472313775));
#879=CARTESIAN_POINT('',(0.,0.0166,0.0475234472313775));
#880=CARTESIAN_POINT('',(0.,0.,0.0475234472313775));
#881=CARTESIAN_POINT('',(0.,0.,0.055));
#882=CARTESIAN_POINT('',(-0.0166,0.,0.055));
#883=CARTESIAN_POINT('',(0.0158,0.,0.055));
#884=CARTESIAN_POINT('',(0.,0.,0.055));
#885=CARTESIAN_POINT('',(-0.015,0.,0.055));
#886=CARTESIAN_POINT('',(0.,0.,0.0322583466768265));
#887=CARTESIAN_POINT('',(0.,0.,0.005));
#888=CARTESIAN_POINT('',(-0.015,0.,0.005));
#889=CARTESIAN_POINT('',(0.0125,0.,0.005));
#890=CARTESIAN_POINT('',(0.,0.0125,0.005));
#891=CARTESIAN_POINT('',(0.001,0.0125,0.005));
#892=CARTESIAN_POINT('',(-0.0108253175473055,-0.00625,0.005));
#893=CARTESIAN_POINT('',(-0.00982531754730548,-0.00625,0.005));
#894=CARTESIAN_POINT('',(0.0108253175473055,-0.00625,0.005));
#895=CARTESIAN_POINT('',(0.0118253175473055,-0.00625,0.005));
#896=CARTESIAN_POINT('',(0.,0.,0.005));
#897=CARTESIAN_POINT('',(-0.01,0.,0.005));
#898=CARTESIAN_POINT('',(0.,0.,0.0322583466768265));
#899=CARTESIAN_POINT('',(0.,0.,0.002));
#900=CARTESIAN_POINT('',(-0.01,0.,0.002));
#901=CARTESIAN_POINT('',(0.005,0.,0.002));
#902=CARTESIAN_POINT('',(0.,1.53080849893419E-19,0.002));
#903=CARTESIAN_POINT('',(0.0025,1.53080849893419E-19,0.002));
#904=CARTESIAN_POINT('',(0.,1.53080849893419E-19,-0.0673251436422552));
#905=CARTESIAN_POINT('',(0.0108253175473055,-0.00625,-0.0673251436422552));
#906=CARTESIAN_POINT('',(-0.0108253175473055,-0.00625,-0.0673251436422552));
#907=CARTESIAN_POINT('',(0.,0.0125,-0.0673251436422552));
#908=CARTESIAN_POINT('',(0.00325,0.0158,0.0475234472313775));
#909=CARTESIAN_POINT('',(0.00325,0.0158,0.0475234472313775));
#910=CARTESIAN_POINT('',(0.00325,0.0166,0.0475234472313775));
#911=CARTESIAN_POINT('',(0.00325,0.0166,0.0475234472313775));
#912=CARTESIAN_POINT('',(0.00325,0.0158,0.0475234472313775));
#913=CARTESIAN_POINT('',(0.00325,0.0166,0.0475234472313775));
#914=CARTESIAN_POINT('',(-0.00325,0.0166,0.0475234472313775));
#915=CARTESIAN_POINT('',(-0.00325,0.0158,0.0475234472313775));
#916=CARTESIAN_POINT('',(0.00325,0.018825,0.0546));
#917=CARTESIAN_POINT('',(-4.33680868994202E-19,0.01955,0.0546));
#918=CARTESIAN_POINT('',(0.0014,0.01955,0.0546));
#919=CARTESIAN_POINT('',(-0.00325,0.018825,0.0546));
#920=CARTESIAN_POINT('',(-0.00325,0.02265,0.0546));
#921=CARTESIAN_POINT('',(0.00325,0.018825,0.0546));
#922=CARTESIAN_POINT('',(0.00325,0.02265,0.0546));
#923=CARTESIAN_POINT('',(0.00325,0.02265,0.0546));
#924=CARTESIAN_POINT('',(0.00325,0.019625,0.0500617236156887));
#925=CARTESIAN_POINT('',(-4.33680868994202E-19,0.01955,0.0499987911433504));
#926=CARTESIAN_POINT('',(-4.33680868994202E-19,0.02095,0.0511735306269986));
#927=CARTESIAN_POINT('',(-0.00325,0.019625,0.0500617236156887));
#928=CARTESIAN_POINT('',(-0.00325,0.02265,0.0526));
#929=CARTESIAN_POINT('',(0.00325,0.02265,0.0526));
#930=CARTESIAN_POINT('',(0.00325,0.02265,0.0526));
#931=CARTESIAN_POINT('',(0.00325,0.019625,0.0500617236156887));
#932=CARTESIAN_POINT('',(0.00325,0.02265,0.0536));
#933=CARTESIAN_POINT('',(-0.00325,0.02265,0.0536));
#934=CARTESIAN_POINT('',(0.00325,0.02265,0.0536));
#935=CARTESIAN_POINT('',(0.00325,0.003025,0.0392080253607022));
#936=CARTESIAN_POINT('',(-0.00325,0.003025,0.0392080253607022));
#937=CARTESIAN_POINT('',(-4.33680868994202E-19,0.01955,-0.0206948092247034));
#938=CARTESIAN_POINT('',(-0.0169307966439857,-0.009775,-0.0206948092247034));
#939=CARTESIAN_POINT('',(-0.0169307966439857,-0.009775,0.0499987911433504));
#940=CARTESIAN_POINT('',(-0.018143232209284,-0.010475,0.0511735306269986));
#941=CARTESIAN_POINT('',(-0.0169307966439857,-0.009775,0.0546));
#942=CARTESIAN_POINT('',(-0.0176307966439857,-0.00856256443470179,0.0546));
#943=CARTESIAN_POINT('',(-0.0186207485492696,-0.00699791743770058,0.0500617236156887));
#944=CARTESIAN_POINT('',(-0.0153707485492696,-0.0126270825622994,0.0500617236156887));
#945=CARTESIAN_POINT('',(-0.0179904753957175,-0.0141395825622994,0.0526));
#946=CARTESIAN_POINT('',(-0.0127510217028217,-0.0111145825622994,0.0475234472313775));
#947=CARTESIAN_POINT('',(-0.0212404753957175,-0.00851041743770058,0.0526));
#948=CARTESIAN_POINT('',(-0.0212404753957175,-0.00851041743770058,0.0526));
#949=CARTESIAN_POINT('',(-0.0186207485492696,-0.00699791743770058,0.0500617236156887));
#950=CARTESIAN_POINT('',(-0.0160010217028216,-0.00548541743770058,0.0475234472313775));
#951=CARTESIAN_POINT('',(-0.0160010217028216,-0.00548541743770058,0.0475234472313775));
#952=CARTESIAN_POINT('',(-0.0160010217028216,-0.00548541743770058,0.0475234472313775));
#953=CARTESIAN_POINT('',(-0.0212404753957175,-0.00851041743770058,0.0536));
#954=CARTESIAN_POINT('',(-0.0179904753957175,-0.0141395825622994,0.0536));
#955=CARTESIAN_POINT('',(-0.0179904753957175,-0.0141395825622994,0.0546));
#956=CARTESIAN_POINT('',(-0.0212404753957175,-0.00851041743770058,0.0546));
#957=CARTESIAN_POINT('',(-0.0212404753957175,-0.00851041743770058,0.0546));
#958=CARTESIAN_POINT('',(-0.0212404753957175,-0.00851041743770058,0.0536));
#959=CARTESIAN_POINT('',(-0.00424472684644792,0.00130208256229942,0.0392080253607022));
#960=CARTESIAN_POINT('',(-0.017927928226242,-0.00659791743770058,0.0546));
#961=CARTESIAN_POINT('',(-0.0153082013797941,-0.00508541743770058,0.0475234472313775));
#962=CARTESIAN_POINT('',(-0.000994726846447922,-0.00432708256229943,0.0392080253607022));
#963=CARTESIAN_POINT('',(-0.014677928226242,-0.0122270825622994,0.0546));
#964=CARTESIAN_POINT('',(-0.0120582013797941,-0.0107145825622994,0.0475234472313775));
#965=CARTESIAN_POINT('',(-0.017927928226242,-0.00659791743770058,0.0546));
#966=CARTESIAN_POINT('',(-0.0153082013797941,-0.00508541743770058,0.0475234472313775));
#967=CARTESIAN_POINT('',(-0.0153082013797941,-0.00508541743770058,0.0475234472313775));
#968=CARTESIAN_POINT('',(0.0120582013797941,-0.0107145825622994,0.0475234472313775));
#969=CARTESIAN_POINT('',(0.0120582013797941,-0.0107145825622994,0.0475234472313775));
#970=CARTESIAN_POINT('',(0.0127510217028217,-0.0111145825622994,0.0475234472313775));
#971=CARTESIAN_POINT('',(0.0127510217028217,-0.0111145825622994,0.0475234472313775));
#972=CARTESIAN_POINT('',(0.0120582013797941,-0.0107145825622994,0.0475234472313775));
#973=CARTESIAN_POINT('',(0.0127510217028217,-0.0111145825622994,0.0475234472313775));
#974=CARTESIAN_POINT('',(0.0160010217028217,-0.00548541743770057,0.0475234472313775));
#975=CARTESIAN_POINT('',(0.0153082013797941,-0.00508541743770057,0.0475234472313775));
#976=CARTESIAN_POINT('',(0.014677928226242,-0.0122270825622994,0.0546));
#977=CARTESIAN_POINT('',(0.0169307966439858,-0.009775,0.0546));
#978=CARTESIAN_POINT('',(0.0162307966439858,-0.0109874355652982,0.0546));
#979=CARTESIAN_POINT('',(0.017927928226242,-0.00659791743770057,0.0546));
#980=CARTESIAN_POINT('',(0.0212404753957175,-0.00851041743770056,0.0546));
#981=CARTESIAN_POINT('',(0.014677928226242,-0.0122270825622994,0.0546));
#982=CARTESIAN_POINT('',(0.0179904753957176,-0.0141395825622994,0.0546));
#983=CARTESIAN_POINT('',(0.0179904753957176,-0.0141395825622994,0.0546));
#984=CARTESIAN_POINT('',(0.0153707485492696,-0.0126270825622994,0.0500617236156887));
#985=CARTESIAN_POINT('',(0.0169307966439858,-0.009775,0.0499987911433504));
#986=CARTESIAN_POINT('',(0.018143232209284,-0.010475,0.0511735306269986));
#987=CARTESIAN_POINT('',(0.0186207485492696,-0.00699791743770056,0.0500617236156887));
#988=CARTESIAN_POINT('',(0.0212404753957175,-0.00851041743770056,0.0526));
#989=CARTESIAN_POINT('',(0.0179904753957176,-0.0141395825622994,0.0526));
#990=CARTESIAN_POINT('',(0.0179904753957176,-0.0141395825622994,0.0526));
#991=CARTESIAN_POINT('',(0.0153707485492696,-0.0126270825622994,0.0500617236156887));
#992=CARTESIAN_POINT('',(0.0179904753957176,-0.0141395825622994,0.0536));
#993=CARTESIAN_POINT('',(0.0212404753957175,-0.00851041743770056,0.0536));
#994=CARTESIAN_POINT('',(0.0179904753957176,-0.0141395825622994,0.0536));
#995=CARTESIAN_POINT('',(0.000994726846447925,-0.00432708256229943,0.0392080253607022));
#996=CARTESIAN_POINT('',(0.00424472684644792,0.00130208256229943,0.0392080253607022));
#997=CARTESIAN_POINT('',(0.0169307966439858,-0.009775,-0.0206948092247034));
#998=MECHANICAL_DESIGN_GEOMETRIC_PRESENTATION_REPRESENTATION('',(#590),
#999);
#999=(
GEOMETRIC_REPRESENTATION_CONTEXT(3)
GLOBAL_UNCERTAINTY_ASSIGNED_CONTEXT((#1000))
GLOBAL_UNIT_ASSIGNED_CONTEXT((#1003,#1002,#1001))
REPRESENTATION_CONTEXT('base','TOP_LEVEL_ASSEMBLY_PART')
);
#1000=UNCERTAINTY_MEASURE_WITH_UNIT(LENGTH_MEASURE(1.E-8),#1003,
'DISTANCE_ACCURACY_VALUE','Maximum Tolerance applied to model');
#1001=(
NAMED_UNIT(*)
SI_UNIT($,.STERADIAN.)
SOLID_ANGLE_UNIT()
);
#1002=(
NAMED_UNIT(*)
PLANE_ANGLE_UNIT()
SI_UNIT($,.RADIAN.)
);
#1003=(
LENGTH_UNIT()
NAMED_UNIT(*)
SI_UNIT($,.METRE.)
);
#1004=PRODUCT_DEFINITION_SHAPE('','',#1005);
#1005=PRODUCT_DEFINITION('','',#1007,#1006);
#1006=PRODUCT_DEFINITION_CONTEXT('',#1013,'design');
#1007=PRODUCT_DEFINITION_FORMATION_WITH_SPECIFIED_SOURCE('','',#1009,
 .NOT_KNOWN.);
#1008=PRODUCT_RELATED_PRODUCT_CATEGORY('','',(#1009));
#1009=PRODUCT('base','base','base',(#1011));
#1010=PRODUCT_CATEGORY('','');
#1011=PRODUCT_CONTEXT('',#1013,'mechanical');
#1012=APPLICATION_PROTOCOL_DEFINITION('international standard',
'ap242_managed_model_based_3d_engineering',2020,#1013);
#1013=APPLICATION_CONTEXT('managed model based 3d engineering');
ENDSEC;
END-ISO-10303-21;
