ISO-10303-21;
HEADER;
/* Generated by software containing ST-Developer
 * from STEP Tools, Inc. (www.steptools.com) 
 */
/* OPTION: using custom renumber hook */

FILE_DESCRIPTION(
/* description */ ('STEP AP242 Edition 2',
'CAx-IF Rec.Pracs.---Representation and Presentation of Product Manufa
cturing Information (PMI)---4.0---2014-10-13',
'CAx-IF Rec.Pracs.---3D Tessellated Geometry---0.4---2014-09-14','2;1',
'CAx-IF Rec.Pracs.---User Defined Attributes---1.5---2016-08-15'),
/* implementation_level */ '2;1');

FILE_NAME(
/* name */ 'molde_llanta-d20',
/* time_stamp */ '2026-09-16T14:34:46Z',
/* author */ (''),
/* organization */ (''),
/* preprocessor_version */ 'ST-DEVELOPER v20',
/* originating_system */ 'ONSHAPE BY PTC INC, 1.220',
/* authorisation */ '  ');

FILE_SCHEMA (('AP242_MANAGED_MODEL_BASED_3D_ENGINEERING_MIM_LF { 1 0 10303 442 3 1 4 }'));
ENDSEC;

DATA;
#10=SHAPE_REPRESENTATION_RELATIONSHIP('','',#399,#11);
#11=ADVANCED_BREP_SHAPE_REPRESENTATION('',(#397),#824);
#12=CONICAL_SURFACE('',#441,0.0018,0.785398163397448);
#13=CONICAL_SURFACE('',#442,0.0018,0.785398163397448);
#14=CONICAL_SURFACE('',#443,0.0018,0.785398163397448);
#15=PLANE('',#407);
#16=PLANE('',#415);
#17=PLANE('',#422);
#18=PLANE('',#426);
#19=B_SPLINE_CURVE_WITH_KNOTS('',3,(#574,#575,#576,#577,#578,#579),
 .UNSPECIFIED.,.F.,.F.,(4,1,1,4),(0.296311244012819,0.382176790460742,0.688903180704637,
1.),.UNSPECIFIED.);
#20=B_SPLINE_CURVE_WITH_KNOTS('',3,(#580,#581,#582,#583,#584,#585),
 .UNSPECIFIED.,.F.,.F.,(4,1,1,4),(0.296311244012819,0.382176790460742,0.688903180704637,
1.),.UNSPECIFIED.);
#21=B_SPLINE_CURVE_WITH_KNOTS('',3,(#606,#607,#608,#609,#610,#611),
 .UNSPECIFIED.,.F.,.F.,(4,1,1,4),(0.296311244012819,0.382176790460742,0.688903180704637,
1.),.UNSPECIFIED.);
#22=B_SPLINE_CURVE_WITH_KNOTS('',3,(#615,#616,#617,#618,#619,#620),
 .UNSPECIFIED.,.F.,.F.,(4,1,1,4),(0.296311244012819,0.382176790460742,0.688903180704637,
1.),.UNSPECIFIED.);
#23=B_SPLINE_CURVE_WITH_KNOTS('',3,(#650,#651,#652,#653,#654,#655),
 .UNSPECIFIED.,.F.,.F.,(4,1,1,4),(0.296311244012819,0.382176790460742,0.688903180704637,
1.),.UNSPECIFIED.);
#24=B_SPLINE_CURVE_WITH_KNOTS('',3,(#656,#657,#658,#659,#660,#661),
 .UNSPECIFIED.,.F.,.F.,(4,1,1,4),(0.296311244012819,0.382176790460742,0.688903180704637,
1.),.UNSPECIFIED.);
#25=B_SPLINE_CURVE_WITH_KNOTS('',3,(#682,#683,#684,#685,#686,#687),
 .UNSPECIFIED.,.F.,.F.,(4,1,1,4),(0.296311244012819,0.382176790460742,0.688903180704637,
1.),.UNSPECIFIED.);
#26=B_SPLINE_CURVE_WITH_KNOTS('',3,(#691,#692,#693,#694,#695,#696),
 .UNSPECIFIED.,.F.,.F.,(4,1,1,4),(0.296311244012819,0.382176790460742,0.688903180704637,
1.),.UNSPECIFIED.);
#27=B_SPLINE_CURVE_WITH_KNOTS('',3,(#710,#711,#712,#713,#714,#715),
 .UNSPECIFIED.,.F.,.F.,(4,1,1,4),(0.296311244012819,0.382176790460742,0.688903180704637,
1.),.UNSPECIFIED.);
#28=B_SPLINE_CURVE_WITH_KNOTS('',3,(#717,#718,#719,#720,#721,#722),
 .UNSPECIFIED.,.F.,.F.,(4,1,1,4),(0.296311244012819,0.382176790460742,0.688903180704637,
1.),.UNSPECIFIED.);
#29=B_SPLINE_CURVE_WITH_KNOTS('',3,(#736,#737,#738,#739,#740,#741),
 .UNSPECIFIED.,.F.,.F.,(4,1,1,4),(0.296311244012819,0.382176790460742,0.688903180704637,
1.),.UNSPECIFIED.);
#30=B_SPLINE_CURVE_WITH_KNOTS('',3,(#743,#744,#745,#746,#747,#748),
 .UNSPECIFIED.,.F.,.F.,(4,1,1,4),(0.296311244012819,0.382176790460742,0.688903180704637,
1.),.UNSPECIFIED.);
#31=B_SPLINE_SURFACE_WITH_KNOTS('',3,1,((#551,#552),(#553,#554),(#555,#556),
(#557,#558),(#559,#560),(#561,#562),(#563,#564),(#565,#566),(#567,#568),
(#569,#570)),.SURF_OF_LINEAR_EXTRUSION.,.F.,.F.,.F.,(4,1,1,1,1,1,1,4),(2,
2),(0.296311244012819,0.384272338511217,0.472233433009614,0.560194527508012,
0.64815562200641,0.736116716504807,0.824077811003205,1.),(0.,1.),
 .UNSPECIFIED.);
#32=B_SPLINE_SURFACE_WITH_KNOTS('',3,1,((#586,#587),(#588,#589),(#590,#591),
(#592,#593),(#594,#595),(#596,#597),(#598,#599),(#600,#601),(#602,#603),
(#604,#605)),.SURF_OF_LINEAR_EXTRUSION.,.F.,.F.,.F.,(4,1,1,1,1,1,1,4),(2,
2),(0.296311244012819,0.384272338511217,0.472233433009614,0.560194527508012,
0.64815562200641,0.736116716504807,0.824077811003205,1.),(0.,1.),
 .UNSPECIFIED.);
#33=B_SPLINE_SURFACE_WITH_KNOTS('',3,1,((#627,#628),(#629,#630),(#631,#632),
(#633,#634),(#635,#636),(#637,#638),(#639,#640),(#641,#642),(#643,#644),
(#645,#646)),.SURF_OF_LINEAR_EXTRUSION.,.F.,.F.,.F.,(4,1,1,1,1,1,1,4),(2,
2),(0.296311244012819,0.384272338511217,0.472233433009614,0.560194527508012,
0.64815562200641,0.736116716504807,0.824077811003205,1.),(0.,1.),
 .UNSPECIFIED.);
#34=B_SPLINE_SURFACE_WITH_KNOTS('',3,1,((#662,#663),(#664,#665),(#666,#667),
(#668,#669),(#670,#671),(#672,#673),(#674,#675),(#676,#677),(#678,#679),
(#680,#681)),.SURF_OF_LINEAR_EXTRUSION.,.F.,.F.,.F.,(4,1,1,1,1,1,1,4),(2,
2),(0.296311244012819,0.384272338511217,0.472233433009614,0.560194527508012,
0.64815562200641,0.736116716504807,0.824077811003205,1.),(0.,1.),
 .UNSPECIFIED.);
#35=B_SPLINE_SURFACE_WITH_KNOTS('',3,1,((#779,#780),(#781,#782),(#783,#784),
(#785,#786),(#787,#788),(#789,#790),(#791,#792),(#793,#794),(#795,#796),
(#797,#798)),.SURF_OF_LINEAR_EXTRUSION.,.F.,.F.,.F.,(4,1,1,1,1,1,1,4),(2,
2),(0.296311244012819,0.384272338511217,0.472233433009614,0.560194527508012,
0.64815562200641,0.736116716504807,0.824077811003205,1.),(0.,1.),
 .UNSPECIFIED.);
#36=B_SPLINE_SURFACE_WITH_KNOTS('',3,1,((#800,#801),(#802,#803),(#804,#805),
(#806,#807),(#808,#809),(#810,#811),(#812,#813),(#814,#815),(#816,#817),
(#818,#819)),.SURF_OF_LINEAR_EXTRUSION.,.F.,.F.,.F.,(4,1,1,1,1,1,1,4),(2,
2),(0.296311244012819,0.384272338511217,0.472233433009614,0.560194527508012,
0.64815562200641,0.736116716504807,0.824077811003205,1.),(0.,1.),
 .UNSPECIFIED.);
#37=LINE('',#546,#46);
#38=LINE('',#550,#47);
#39=LINE('',#571,#48);
#40=LINE('',#613,#49);
#41=LINE('',#624,#50);
#42=LINE('',#647,#51);
#43=LINE('',#689,#52);
#44=LINE('',#750,#53);
#45=LINE('',#799,#54);
#46=VECTOR('',#450,1.);
#47=VECTOR('',#453,1.);
#48=VECTOR('',#454,1.);
#49=VECTOR('',#455,1.);
#50=VECTOR('',#460,1.);
#51=VECTOR('',#463,1.);
#52=VECTOR('',#464,1.);
#53=VECTOR('',#495,1.);
#54=VECTOR('',#534,1.);
#55=ORIENTED_EDGE('',*,*,#147,.F.);
#56=ORIENTED_EDGE('',*,*,#148,.T.);
#57=ORIENTED_EDGE('',*,*,#149,.T.);
#58=ORIENTED_EDGE('',*,*,#150,.F.);
#59=ORIENTED_EDGE('',*,*,#151,.T.);
#60=ORIENTED_EDGE('',*,*,#152,.F.);
#61=ORIENTED_EDGE('',*,*,#148,.F.);
#62=ORIENTED_EDGE('',*,*,#153,.F.);
#63=ORIENTED_EDGE('',*,*,#154,.T.);
#64=ORIENTED_EDGE('',*,*,#155,.T.);
#65=ORIENTED_EDGE('',*,*,#156,.T.);
#66=ORIENTED_EDGE('',*,*,#151,.F.);
#67=ORIENTED_EDGE('',*,*,#157,.F.);
#68=ORIENTED_EDGE('',*,*,#158,.T.);
#69=ORIENTED_EDGE('',*,*,#159,.T.);
#70=ORIENTED_EDGE('',*,*,#155,.F.);
#71=ORIENTED_EDGE('',*,*,#160,.T.);
#72=ORIENTED_EDGE('',*,*,#161,.F.);
#73=ORIENTED_EDGE('',*,*,#158,.F.);
#74=ORIENTED_EDGE('',*,*,#162,.F.);
#75=ORIENTED_EDGE('',*,*,#163,.T.);
#76=ORIENTED_EDGE('',*,*,#164,.T.);
#77=ORIENTED_EDGE('',*,*,#165,.T.);
#78=ORIENTED_EDGE('',*,*,#160,.F.);
#79=ORIENTED_EDGE('',*,*,#166,.T.);
#80=ORIENTED_EDGE('',*,*,#167,.T.);
#81=ORIENTED_EDGE('',*,*,#168,.T.);
#82=ORIENTED_EDGE('',*,*,#169,.F.);
#83=ORIENTED_EDGE('',*,*,#170,.F.);
#84=ORIENTED_EDGE('',*,*,#171,.F.);
#85=ORIENTED_EDGE('',*,*,#157,.T.);
#86=ORIENTED_EDGE('',*,*,#154,.F.);
#87=ORIENTED_EDGE('',*,*,#153,.T.);
#88=ORIENTED_EDGE('',*,*,#147,.T.);
#89=ORIENTED_EDGE('',*,*,#172,.F.);
#90=ORIENTED_EDGE('',*,*,#173,.T.);
#91=ORIENTED_EDGE('',*,*,#174,.T.);
#92=ORIENTED_EDGE('',*,*,#163,.F.);
#93=ORIENTED_EDGE('',*,*,#162,.T.);
#94=ORIENTED_EDGE('',*,*,#175,.F.);
#95=ORIENTED_EDGE('',*,*,#176,.F.);
#96=ORIENTED_EDGE('',*,*,#177,.F.);
#97=ORIENTED_EDGE('',*,*,#178,.T.);
#98=ORIENTED_EDGE('',*,*,#159,.F.);
#99=ORIENTED_EDGE('',*,*,#161,.T.);
#100=ORIENTED_EDGE('',*,*,#165,.F.);
#101=ORIENTED_EDGE('',*,*,#179,.F.);
#102=ORIENTED_EDGE('',*,*,#180,.T.);
#103=ORIENTED_EDGE('',*,*,#181,.F.);
#104=ORIENTED_EDGE('',*,*,#149,.F.);
#105=ORIENTED_EDGE('',*,*,#152,.T.);
#106=ORIENTED_EDGE('',*,*,#156,.F.);
#107=ORIENTED_EDGE('',*,*,#174,.F.);
#108=ORIENTED_EDGE('',*,*,#182,.T.);
#109=ORIENTED_EDGE('',*,*,#179,.T.);
#110=ORIENTED_EDGE('',*,*,#164,.F.);
#111=ORIENTED_EDGE('',*,*,#183,.F.);
#112=ORIENTED_EDGE('',*,*,#183,.T.);
#113=ORIENTED_EDGE('',*,*,#184,.F.);
#114=ORIENTED_EDGE('',*,*,#185,.F.);
#115=ORIENTED_EDGE('',*,*,#186,.F.);
#116=ORIENTED_EDGE('',*,*,#187,.F.);
#117=ORIENTED_EDGE('',*,*,#184,.T.);
#118=ORIENTED_EDGE('',*,*,#188,.F.);
#119=ORIENTED_EDGE('',*,*,#188,.T.);
#120=ORIENTED_EDGE('',*,*,#178,.F.);
#121=ORIENTED_EDGE('',*,*,#189,.T.);
#122=ORIENTED_EDGE('',*,*,#177,.T.);
#123=ORIENTED_EDGE('',*,*,#190,.T.);
#124=ORIENTED_EDGE('',*,*,#176,.T.);
#125=ORIENTED_EDGE('',*,*,#191,.T.);
#126=ORIENTED_EDGE('',*,*,#175,.T.);
#127=ORIENTED_EDGE('',*,*,#187,.T.);
#128=ORIENTED_EDGE('',*,*,#171,.T.);
#129=ORIENTED_EDGE('',*,*,#186,.T.);
#130=ORIENTED_EDGE('',*,*,#170,.T.);
#131=ORIENTED_EDGE('',*,*,#185,.T.);
#132=ORIENTED_EDGE('',*,*,#169,.T.);
#133=ORIENTED_EDGE('',*,*,#192,.T.);
#134=ORIENTED_EDGE('',*,*,#180,.F.);
#135=ORIENTED_EDGE('',*,*,#182,.F.);
#136=ORIENTED_EDGE('',*,*,#173,.F.);
#137=ORIENTED_EDGE('',*,*,#172,.T.);
#138=ORIENTED_EDGE('',*,*,#150,.T.);
#139=ORIENTED_EDGE('',*,*,#181,.T.);
#140=ORIENTED_EDGE('',*,*,#192,.F.);
#141=ORIENTED_EDGE('',*,*,#166,.F.);
#142=ORIENTED_EDGE('',*,*,#189,.F.);
#143=ORIENTED_EDGE('',*,*,#167,.F.);
#144=ORIENTED_EDGE('',*,*,#190,.F.);
#145=ORIENTED_EDGE('',*,*,#168,.F.);
#146=ORIENTED_EDGE('',*,*,#191,.F.);
#147=EDGE_CURVE('',#193,#194,#230,.T.);
#148=EDGE_CURVE('',#193,#195,#37,.T.);
#149=EDGE_CURVE('',#195,#196,#231,.T.);
#150=EDGE_CURVE('',#194,#196,#38,.T.);
#151=EDGE_CURVE('',#197,#198,#39,.T.);
#152=EDGE_CURVE('',#195,#198,#19,.T.);
#153=EDGE_CURVE('',#197,#193,#20,.F.);
#154=EDGE_CURVE('',#197,#199,#21,.F.);
#155=EDGE_CURVE('',#199,#200,#40,.T.);
#156=EDGE_CURVE('',#200,#198,#22,.T.);
#157=EDGE_CURVE('',#201,#199,#232,.T.);
#158=EDGE_CURVE('',#201,#202,#41,.T.);
#159=EDGE_CURVE('',#202,#200,#233,.T.);
#160=EDGE_CURVE('',#203,#204,#42,.T.);
#161=EDGE_CURVE('',#202,#204,#23,.T.);
#162=EDGE_CURVE('',#203,#201,#24,.F.);
#163=EDGE_CURVE('',#203,#205,#25,.F.);
#164=EDGE_CURVE('',#205,#206,#43,.T.);
#165=EDGE_CURVE('',#206,#204,#26,.T.);
#166=EDGE_CURVE('',#207,#207,#234,.F.);
#167=EDGE_CURVE('',#208,#208,#235,.F.);
#168=EDGE_CURVE('',#209,#209,#236,.F.);
#169=EDGE_CURVE('',#210,#210,#237,.T.);
#170=EDGE_CURVE('',#211,#211,#238,.T.);
#171=EDGE_CURVE('',#212,#212,#239,.T.);
#172=EDGE_CURVE('',#213,#194,#27,.F.);
#173=EDGE_CURVE('',#213,#214,#28,.F.);
#174=EDGE_CURVE('',#214,#205,#240,.T.);
#175=EDGE_CURVE('',#215,#215,#241,.T.);
#176=EDGE_CURVE('',#216,#216,#242,.T.);
#177=EDGE_CURVE('',#217,#217,#243,.T.);
#178=EDGE_CURVE('',#218,#218,#244,.T.);
#179=EDGE_CURVE('',#219,#206,#245,.T.);
#180=EDGE_CURVE('',#219,#220,#29,.T.);
#181=EDGE_CURVE('',#196,#220,#30,.T.);
#182=EDGE_CURVE('',#214,#219,#44,.T.);
#183=EDGE_CURVE('',#221,#221,#246,.T.);
#184=EDGE_CURVE('',#222,#222,#247,.T.);
#185=EDGE_CURVE('',#223,#223,#248,.T.);
#186=EDGE_CURVE('',#224,#224,#249,.T.);
#187=EDGE_CURVE('',#225,#225,#250,.T.);
#188=EDGE_CURVE('',#226,#226,#251,.T.);
#189=EDGE_CURVE('',#227,#227,#252,.T.);
#190=EDGE_CURVE('',#228,#228,#253,.T.);
#191=EDGE_CURVE('',#229,#229,#254,.T.);
#192=EDGE_CURVE('',#213,#220,#45,.T.);
#193=VERTEX_POINT('',#544);
#194=VERTEX_POINT('',#545);
#195=VERTEX_POINT('',#547);
#196=VERTEX_POINT('',#549);
#197=VERTEX_POINT('',#572);
#198=VERTEX_POINT('',#573);
#199=VERTEX_POINT('',#612);
#200=VERTEX_POINT('',#614);
#201=VERTEX_POINT('',#623);
#202=VERTEX_POINT('',#625);
#203=VERTEX_POINT('',#648);
#204=VERTEX_POINT('',#649);
#205=VERTEX_POINT('',#688);
#206=VERTEX_POINT('',#690);
#207=VERTEX_POINT('',#699);
#208=VERTEX_POINT('',#701);
#209=VERTEX_POINT('',#703);
#210=VERTEX_POINT('',#705);
#211=VERTEX_POINT('',#707);
#212=VERTEX_POINT('',#709);
#213=VERTEX_POINT('',#716);
#214=VERTEX_POINT('',#723);
#215=VERTEX_POINT('',#727);
#216=VERTEX_POINT('',#729);
#217=VERTEX_POINT('',#731);
#218=VERTEX_POINT('',#733);
#219=VERTEX_POINT('',#735);
#220=VERTEX_POINT('',#742);
#221=VERTEX_POINT('',#753);
#222=VERTEX_POINT('',#756);
#223=VERTEX_POINT('',#759);
#224=VERTEX_POINT('',#761);
#225=VERTEX_POINT('',#763);
#226=VERTEX_POINT('',#765);
#227=VERTEX_POINT('',#769);
#228=VERTEX_POINT('',#772);
#229=VERTEX_POINT('',#775);
#230=CIRCLE('',#402,0.02955);
#231=CIRCLE('',#403,0.02955);
#232=CIRCLE('',#405,0.02955);
#233=CIRCLE('',#406,0.02955);
#234=CIRCLE('',#408,0.0028);
#235=CIRCLE('',#409,0.0028);
#236=CIRCLE('',#410,0.0028);
#237=CIRCLE('',#411,0.001);
#238=CIRCLE('',#412,0.001);
#239=CIRCLE('',#413,0.001);
#240=CIRCLE('',#414,0.02955);
#241=CIRCLE('',#416,0.0018);
#242=CIRCLE('',#417,0.0018);
#243=CIRCLE('',#418,0.0018);
#244=CIRCLE('',#419,0.014985);
#245=CIRCLE('',#420,0.02955);
#246=CIRCLE('',#423,0.009985);
#247=CIRCLE('',#425,0.009985);
#248=CIRCLE('',#427,0.001);
#249=CIRCLE('',#428,0.001);
#250=CIRCLE('',#429,0.001);
#251=CIRCLE('',#430,0.014985);
#252=CIRCLE('',#433,0.0018);
#253=CIRCLE('',#435,0.0018);
#254=CIRCLE('',#437,0.0018);
#255=EDGE_LOOP('',(#55,#56,#57,#58));
#256=EDGE_LOOP('',(#59,#60,#61,#62));
#257=EDGE_LOOP('',(#63,#64,#65,#66));
#258=EDGE_LOOP('',(#67,#68,#69,#70));
#259=EDGE_LOOP('',(#71,#72,#73,#74));
#260=EDGE_LOOP('',(#75,#76,#77,#78));
#261=EDGE_LOOP('',(#79));
#262=EDGE_LOOP('',(#80));
#263=EDGE_LOOP('',(#81));
#264=EDGE_LOOP('',(#82));
#265=EDGE_LOOP('',(#83));
#266=EDGE_LOOP('',(#84));
#267=EDGE_LOOP('',(#85,#86,#87,#88,#89,#90,#91,#92,#93));
#268=EDGE_LOOP('',(#94));
#269=EDGE_LOOP('',(#95));
#270=EDGE_LOOP('',(#96));
#271=EDGE_LOOP('',(#97));
#272=EDGE_LOOP('',(#98,#99,#100,#101,#102,#103,#104,#105,#106));
#273=EDGE_LOOP('',(#107,#108,#109,#110));
#274=EDGE_LOOP('',(#111));
#275=EDGE_LOOP('',(#112));
#276=EDGE_LOOP('',(#113));
#277=EDGE_LOOP('',(#114));
#278=EDGE_LOOP('',(#115));
#279=EDGE_LOOP('',(#116));
#280=EDGE_LOOP('',(#117));
#281=EDGE_LOOP('',(#118));
#282=EDGE_LOOP('',(#119));
#283=EDGE_LOOP('',(#120));
#284=EDGE_LOOP('',(#121));
#285=EDGE_LOOP('',(#122));
#286=EDGE_LOOP('',(#123));
#287=EDGE_LOOP('',(#124));
#288=EDGE_LOOP('',(#125));
#289=EDGE_LOOP('',(#126));
#290=EDGE_LOOP('',(#127));
#291=EDGE_LOOP('',(#128));
#292=EDGE_LOOP('',(#129));
#293=EDGE_LOOP('',(#130));
#294=EDGE_LOOP('',(#131));
#295=EDGE_LOOP('',(#132));
#296=EDGE_LOOP('',(#133,#134,#135,#136));
#297=EDGE_LOOP('',(#137,#138,#139,#140));
#298=EDGE_LOOP('',(#141));
#299=EDGE_LOOP('',(#142));
#300=EDGE_LOOP('',(#143));
#301=EDGE_LOOP('',(#144));
#302=EDGE_LOOP('',(#145));
#303=EDGE_LOOP('',(#146));
#304=FACE_BOUND('',#255,.T.);
#305=FACE_BOUND('',#256,.T.);
#306=FACE_BOUND('',#257,.T.);
#307=FACE_BOUND('',#258,.T.);
#308=FACE_BOUND('',#259,.T.);
#309=FACE_BOUND('',#260,.T.);
#310=FACE_BOUND('',#261,.T.);
#311=FACE_BOUND('',#262,.T.);
#312=FACE_BOUND('',#263,.T.);
#313=FACE_BOUND('',#264,.T.);
#314=FACE_BOUND('',#265,.T.);
#315=FACE_BOUND('',#266,.T.);
#316=FACE_BOUND('',#267,.T.);
#317=FACE_BOUND('',#268,.T.);
#318=FACE_BOUND('',#269,.T.);
#319=FACE_BOUND('',#270,.T.);
#320=FACE_BOUND('',#271,.T.);
#321=FACE_BOUND('',#272,.T.);
#322=FACE_BOUND('',#273,.T.);
#323=FACE_BOUND('',#274,.T.);
#324=FACE_BOUND('',#275,.T.);
#325=FACE_BOUND('',#276,.T.);
#326=FACE_BOUND('',#277,.T.);
#327=FACE_BOUND('',#278,.T.);
#328=FACE_BOUND('',#279,.T.);
#329=FACE_BOUND('',#280,.T.);
#330=FACE_BOUND('',#281,.T.);
#331=FACE_BOUND('',#282,.T.);
#332=FACE_BOUND('',#283,.T.);
#333=FACE_BOUND('',#284,.T.);
#334=FACE_BOUND('',#285,.T.);
#335=FACE_BOUND('',#286,.T.);
#336=FACE_BOUND('',#287,.T.);
#337=FACE_BOUND('',#288,.T.);
#338=FACE_BOUND('',#289,.T.);
#339=FACE_BOUND('',#290,.T.);
#340=FACE_BOUND('',#291,.T.);
#341=FACE_BOUND('',#292,.T.);
#342=FACE_BOUND('',#293,.T.);
#343=FACE_BOUND('',#294,.T.);
#344=FACE_BOUND('',#295,.T.);
#345=FACE_BOUND('',#296,.T.);
#346=FACE_BOUND('',#297,.T.);
#347=FACE_BOUND('',#298,.T.);
#348=FACE_BOUND('',#299,.T.);
#349=FACE_BOUND('',#300,.T.);
#350=FACE_BOUND('',#301,.T.);
#351=FACE_BOUND('',#302,.T.);
#352=FACE_BOUND('',#303,.T.);
#353=CYLINDRICAL_SURFACE('',#401,0.02955);
#354=CYLINDRICAL_SURFACE('',#404,0.02955);
#355=CYLINDRICAL_SURFACE('',#421,0.02955);
#356=CYLINDRICAL_SURFACE('',#424,0.009985);
#357=CYLINDRICAL_SURFACE('',#431,0.014985);
#358=CYLINDRICAL_SURFACE('',#432,0.0018);
#359=CYLINDRICAL_SURFACE('',#434,0.0018);
#360=CYLINDRICAL_SURFACE('',#436,0.0018);
#361=CYLINDRICAL_SURFACE('',#438,0.001);
#362=CYLINDRICAL_SURFACE('',#439,0.001);
#363=CYLINDRICAL_SURFACE('',#440,0.001);
#364=ADVANCED_FACE('',(#304),#353,.T.);
#365=ADVANCED_FACE('',(#305),#31,.T.);
#366=ADVANCED_FACE('',(#306),#32,.F.);
#367=ADVANCED_FACE('',(#307),#354,.T.);
#368=ADVANCED_FACE('',(#308),#33,.T.);
#369=ADVANCED_FACE('',(#309),#34,.F.);
#370=ADVANCED_FACE('',(#310,#311,#312,#313,#314,#315,#316),#15,.T.);
#371=ADVANCED_FACE('',(#317,#318,#319,#320,#321),#16,.T.);
#372=ADVANCED_FACE('',(#322),#355,.T.);
#373=ADVANCED_FACE('',(#323),#17,.T.);
#374=ADVANCED_FACE('',(#324,#325),#356,.T.);
#375=ADVANCED_FACE('',(#326,#327,#328,#329,#330),#18,.T.);
#376=ADVANCED_FACE('',(#331,#332),#357,.T.);
#377=ADVANCED_FACE('',(#333,#334),#358,.F.);
#378=ADVANCED_FACE('',(#335,#336),#359,.F.);
#379=ADVANCED_FACE('',(#337,#338),#360,.F.);
#380=ADVANCED_FACE('',(#339,#340),#361,.F.);
#381=ADVANCED_FACE('',(#341,#342),#362,.F.);
#382=ADVANCED_FACE('',(#343,#344),#363,.F.);
#383=ADVANCED_FACE('',(#345),#35,.T.);
#384=ADVANCED_FACE('',(#346),#36,.F.);
#385=ADVANCED_FACE('',(#347,#348),#12,.F.);
#386=ADVANCED_FACE('',(#349,#350),#13,.F.);
#387=ADVANCED_FACE('',(#351,#352),#14,.F.);
#388=CLOSED_SHELL('',(#364,#365,#366,#367,#368,#369,#370,#371,#372,#373,
#374,#375,#376,#377,#378,#379,#380,#381,#382,#383,#384,#385,#386,#387));
#389=STYLED_ITEM('',(#390),#397);
#390=PRESENTATION_STYLE_ASSIGNMENT((#391));
#391=SURFACE_STYLE_USAGE(.BOTH.,#392);
#392=SURFACE_SIDE_STYLE('',(#393));
#393=SURFACE_STYLE_FILL_AREA(#394);
#394=FILL_AREA_STYLE('',(#395));
#395=FILL_AREA_STYLE_COLOUR('',#396);
#396=COLOUR_RGB('',0.615686274509804,0.811764705882353,0.929411764705882);
#397=MANIFOLD_SOLID_BREP('top',#388);
#398=SHAPE_DEFINITION_REPRESENTATION(#829,#399);
#399=SHAPE_REPRESENTATION('top',(#400),#824);
#400=AXIS2_PLACEMENT_3D('',#541,#444,#445);
#401=AXIS2_PLACEMENT_3D('',#542,#446,#447);
#402=AXIS2_PLACEMENT_3D('',#543,#448,#449);
#403=AXIS2_PLACEMENT_3D('',#548,#451,#452);
#404=AXIS2_PLACEMENT_3D('',#621,#456,#457);
#405=AXIS2_PLACEMENT_3D('',#622,#458,#459);
#406=AXIS2_PLACEMENT_3D('',#626,#461,#462);
#407=AXIS2_PLACEMENT_3D('',#697,#465,#466);
#408=AXIS2_PLACEMENT_3D('',#698,#467,#468);
#409=AXIS2_PLACEMENT_3D('',#700,#469,#470);
#410=AXIS2_PLACEMENT_3D('',#702,#471,#472);
#411=AXIS2_PLACEMENT_3D('',#704,#473,#474);
#412=AXIS2_PLACEMENT_3D('',#706,#475,#476);
#413=AXIS2_PLACEMENT_3D('',#708,#477,#478);
#414=AXIS2_PLACEMENT_3D('',#724,#479,#480);
#415=AXIS2_PLACEMENT_3D('',#725,#481,#482);
#416=AXIS2_PLACEMENT_3D('',#726,#483,#484);
#417=AXIS2_PLACEMENT_3D('',#728,#485,#486);
#418=AXIS2_PLACEMENT_3D('',#730,#487,#488);
#419=AXIS2_PLACEMENT_3D('',#732,#489,#490);
#420=AXIS2_PLACEMENT_3D('',#734,#491,#492);
#421=AXIS2_PLACEMENT_3D('',#749,#493,#494);
#422=AXIS2_PLACEMENT_3D('',#751,#496,#497);
#423=AXIS2_PLACEMENT_3D('',#752,#498,#499);
#424=AXIS2_PLACEMENT_3D('',#754,#500,#501);
#425=AXIS2_PLACEMENT_3D('',#755,#502,#503);
#426=AXIS2_PLACEMENT_3D('',#757,#504,#505);
#427=AXIS2_PLACEMENT_3D('',#758,#506,#507);
#428=AXIS2_PLACEMENT_3D('',#760,#508,#509);
#429=AXIS2_PLACEMENT_3D('',#762,#510,#511);
#430=AXIS2_PLACEMENT_3D('',#764,#512,#513);
#431=AXIS2_PLACEMENT_3D('',#766,#514,#515);
#432=AXIS2_PLACEMENT_3D('',#767,#516,#517);
#433=AXIS2_PLACEMENT_3D('',#768,#518,#519);
#434=AXIS2_PLACEMENT_3D('',#770,#520,#521);
#435=AXIS2_PLACEMENT_3D('',#771,#522,#523);
#436=AXIS2_PLACEMENT_3D('',#773,#524,#525);
#437=AXIS2_PLACEMENT_3D('',#774,#526,#527);
#438=AXIS2_PLACEMENT_3D('',#776,#528,#529);
#439=AXIS2_PLACEMENT_3D('',#777,#530,#531);
#440=AXIS2_PLACEMENT_3D('',#778,#532,#533);
#441=AXIS2_PLACEMENT_3D('',#820,#535,#536);
#442=AXIS2_PLACEMENT_3D('',#821,#537,#538);
#443=AXIS2_PLACEMENT_3D('',#822,#539,#540);
#444=DIRECTION('',(0.,0.,1.));
#445=DIRECTION('',(1.,0.,0.));
#446=DIRECTION('',(0.,0.,1.));
#447=DIRECTION('',(1.,0.,0.));
#448=DIRECTION('',(0.,0.,1.));
#449=DIRECTION('',(1.,0.,0.));
#450=DIRECTION('',(0.,0.,-1.));
#451=DIRECTION('',(0.,0.,1.));
#452=DIRECTION('',(1.,0.,0.));
#453=DIRECTION('',(0.,0.,-1.));
#454=DIRECTION('',(0.,0.,-1.));
#455=DIRECTION('',(0.,0.,-1.));
#456=DIRECTION('',(0.,0.,1.));
#457=DIRECTION('',(1.,0.,0.));
#458=DIRECTION('',(0.,0.,1.));
#459=DIRECTION('',(1.,0.,0.));
#460=DIRECTION('',(0.,0.,-1.));
#461=DIRECTION('',(0.,0.,1.));
#462=DIRECTION('',(1.,0.,0.));
#463=DIRECTION('',(0.,0.,-1.));
#464=DIRECTION('',(0.,0.,-1.));
#465=DIRECTION('',(0.,0.,1.));
#466=DIRECTION('',(1.,0.,0.));
#467=DIRECTION('',(0.,0.,1.));
#468=DIRECTION('',(1.,0.,0.));
#469=DIRECTION('',(0.,0.,1.));
#470=DIRECTION('',(1.,0.,0.));
#471=DIRECTION('',(0.,0.,1.));
#472=DIRECTION('',(1.,0.,0.));
#473=DIRECTION('',(0.,0.,1.));
#474=DIRECTION('',(1.,0.,0.));
#475=DIRECTION('',(0.,0.,1.));
#476=DIRECTION('',(1.,0.,0.));
#477=DIRECTION('',(0.,0.,1.));
#478=DIRECTION('',(1.,0.,0.));
#479=DIRECTION('',(0.,0.,1.));
#480=DIRECTION('',(1.,0.,0.));
#481=DIRECTION('',(0.,0.,-1.));
#482=DIRECTION('',(-1.,0.,0.));
#483=DIRECTION('',(0.,0.,-1.));
#484=DIRECTION('',(-1.,0.,0.));
#485=DIRECTION('',(0.,0.,-1.));
#486=DIRECTION('',(-1.,0.,0.));
#487=DIRECTION('',(0.,0.,-1.));
#488=DIRECTION('',(-1.,0.,0.));
#489=DIRECTION('',(0.,0.,1.));
#490=DIRECTION('',(1.,0.,0.));
#491=DIRECTION('',(0.,0.,1.));
#492=DIRECTION('',(1.,0.,0.));
#493=DIRECTION('',(0.,0.,1.));
#494=DIRECTION('',(1.,0.,0.));
#495=DIRECTION('',(0.,0.,-1.));
#496=DIRECTION('',(0.,0.,-1.));
#497=DIRECTION('',(-1.,0.,0.));
#498=DIRECTION('',(0.,0.,1.));
#499=DIRECTION('',(1.,0.,0.));
#500=DIRECTION('',(0.,0.,1.));
#501=DIRECTION('',(1.,0.,0.));
#502=DIRECTION('',(0.,0.,1.));
#503=DIRECTION('',(1.,0.,0.));
#504=DIRECTION('',(0.,0.,-1.));
#505=DIRECTION('',(-1.,0.,0.));
#506=DIRECTION('',(0.,0.,-1.));
#507=DIRECTION('',(-1.,0.,0.));
#508=DIRECTION('',(0.,0.,-1.));
#509=DIRECTION('',(-1.,0.,0.));
#510=DIRECTION('',(0.,0.,-1.));
#511=DIRECTION('',(-1.,0.,0.));
#512=DIRECTION('',(0.,0.,1.));
#513=DIRECTION('',(1.,0.,0.));
#514=DIRECTION('',(0.,0.,1.));
#515=DIRECTION('',(1.,0.,0.));
#516=DIRECTION('',(0.,0.,1.));
#517=DIRECTION('',(1.,0.,0.));
#518=DIRECTION('',(0.,0.,1.));
#519=DIRECTION('',(1.,0.,0.));
#520=DIRECTION('',(0.,0.,1.));
#521=DIRECTION('',(1.,0.,0.));
#522=DIRECTION('',(0.,0.,1.));
#523=DIRECTION('',(1.,0.,0.));
#524=DIRECTION('',(0.,0.,1.));
#525=DIRECTION('',(1.,0.,0.));
#526=DIRECTION('',(0.,0.,1.));
#527=DIRECTION('',(1.,0.,0.));
#528=DIRECTION('',(0.,0.,1.));
#529=DIRECTION('',(1.,0.,0.));
#530=DIRECTION('',(0.,0.,1.));
#531=DIRECTION('',(1.,0.,0.));
#532=DIRECTION('',(0.,0.,1.));
#533=DIRECTION('',(1.,0.,0.));
#534=DIRECTION('',(0.,0.,-1.));
#535=DIRECTION('',(0.,0.,1.));
#536=DIRECTION('',(1.,0.,0.));
#537=DIRECTION('',(0.,0.,1.));
#538=DIRECTION('',(1.,0.,0.));
#539=DIRECTION('',(0.,0.,1.));
#540=DIRECTION('',(1.,0.,0.));
#541=CARTESIAN_POINT('',(0.,0.,0.));
#542=CARTESIAN_POINT('',(0.,0.,-0.0336000621318817));
#543=CARTESIAN_POINT('',(0.,0.,0.));
#544=CARTESIAN_POINT('',(0.0227220513638363,-0.0188920851633477,0.));
#545=CARTESIAN_POINT('',(0.0277220513638364,-0.0102318311255033,0.));
#546=CARTESIAN_POINT('',(0.0227220513638363,-0.0188920851633477,0.0980630859094311));
#547=CARTESIAN_POINT('',(0.0227220513638363,-0.0188920851633477,-0.002));
#548=CARTESIAN_POINT('',(0.,0.,-0.002));
#549=CARTESIAN_POINT('',(0.0277220513638364,-0.0102318311255033,-0.002));
#550=CARTESIAN_POINT('',(0.0277220513638364,-0.0102318311255033,0.0980630859094311));
#551=CARTESIAN_POINT('',(0.0227220513638363,-0.0188920851633477,0.));
#552=CARTESIAN_POINT('',(0.0227220513638363,-0.0188920851633477,-0.002));
#553=CARTESIAN_POINT('',(0.0216638747962955,-0.0184219290727764,0.));
#554=CARTESIAN_POINT('',(0.0216638747962955,-0.0184219290727764,-0.002));
#555=CARTESIAN_POINT('',(0.0195924201044242,-0.0176544005341319,0.));
#556=CARTESIAN_POINT('',(0.0195924201044242,-0.0176544005341319,-0.002));
#557=CARTESIAN_POINT('',(0.0167990119138293,-0.0172585056235394,0.));
#558=CARTESIAN_POINT('',(0.0167990119138293,-0.0172585056235394,-0.002));
#559=CARTESIAN_POINT('',(0.0141231511000148,-0.0173631737829613,0.));
#560=CARTESIAN_POINT('',(0.0141231511000148,-0.0173631737829613,-0.002));
#561=CARTESIAN_POINT('',(0.0113948947273047,-0.0177308247690541,0.));
#562=CARTESIAN_POINT('',(0.0113948947273047,-0.0177308247690541,-0.002));
#563=CARTESIAN_POINT('',(0.00836839361148355,-0.0180885443814418,0.));
#564=CARTESIAN_POINT('',(0.00836839361148355,-0.0180885443814418,-0.002));
#565=CARTESIAN_POINT('',(0.00409264885662567,-0.0184052200072446,0.));
#566=CARTESIAN_POINT('',(0.00409264885662567,-0.0184052200072446,-0.002));
#567=CARTESIAN_POINT('',(0.00124786243946198,-0.0185,0.));
#568=CARTESIAN_POINT('',(0.00124786243946198,-0.0185,-0.002));
#569=CARTESIAN_POINT('',(-6.93889390390723E-18,-0.0185,0.));
#570=CARTESIAN_POINT('',(-6.93889390390723E-18,-0.0185,-0.002));
#571=CARTESIAN_POINT('',(-1.04083408558608E-17,-0.0185,0.0980630859094311));
#572=CARTESIAN_POINT('',(-1.04083408558608E-17,-0.0185,0.));
#573=CARTESIAN_POINT('',(-1.04083408558608E-17,-0.0185,-0.002));
#574=CARTESIAN_POINT('',(0.0227220513638363,-0.0188920851633477,-0.002));
#575=CARTESIAN_POINT('',(0.0216890843489485,-0.0184331298733648,-0.002));
#576=CARTESIAN_POINT('',(0.0170625445971144,-0.0167088898740099,-0.002));
#577=CARTESIAN_POINT('',(0.010634637758629,-0.0181152156436175,-0.002));
#578=CARTESIAN_POINT('',(0.00220669170869542,-0.0185,-0.002));
#579=CARTESIAN_POINT('',(-6.93889390390723E-18,-0.0185,-0.002));
#580=CARTESIAN_POINT('',(0.0227220513638363,-0.0188920851633477,0.));
#581=CARTESIAN_POINT('',(0.0216890843489485,-0.0184331298733648,0.));
#582=CARTESIAN_POINT('',(0.0170625445971144,-0.0167088898740099,0.));
#583=CARTESIAN_POINT('',(0.010634637758629,-0.0181152156436175,0.));
#584=CARTESIAN_POINT('',(0.00220669170869542,-0.0185,0.));
#585=CARTESIAN_POINT('',(-6.93889390390723E-18,-0.0185,0.));
#586=CARTESIAN_POINT('',(-0.0227220513638363,-0.0188920851633477,1.38777878078145E-17));
#587=CARTESIAN_POINT('',(-0.0227220513638363,-0.0188920851633477,-0.00200000000000002));
#588=CARTESIAN_POINT('',(-0.0216638747962955,-0.0184219290727764,1.38777878078145E-17));
#589=CARTESIAN_POINT('',(-0.0216638747962955,-0.0184219290727764,-0.00200000000000002));
#590=CARTESIAN_POINT('',(-0.0195924201044242,-0.0176544005341319,1.38777878078145E-17));
#591=CARTESIAN_POINT('',(-0.0195924201044242,-0.0176544005341319,-0.00200000000000002));
#592=CARTESIAN_POINT('',(-0.0167990119138293,-0.0172585056235394,1.38777878078145E-17));
#593=CARTESIAN_POINT('',(-0.0167990119138293,-0.0172585056235394,-0.00200000000000002));
#594=CARTESIAN_POINT('',(-0.0141231511000148,-0.0173631737829613,1.38777878078145E-17));
#595=CARTESIAN_POINT('',(-0.0141231511000148,-0.0173631737829613,-0.00200000000000002));
#596=CARTESIAN_POINT('',(-0.0113948947273047,-0.0177308247690541,1.38777878078145E-17));
#597=CARTESIAN_POINT('',(-0.0113948947273047,-0.0177308247690541,-0.00200000000000002));
#598=CARTESIAN_POINT('',(-0.00836839361148355,-0.0180885443814418,1.38777878078145E-17));
#599=CARTESIAN_POINT('',(-0.00836839361148355,-0.0180885443814418,-0.00200000000000002));
#600=CARTESIAN_POINT('',(-0.00409264885662568,-0.0184052200072446,1.38777878078145E-17));
#601=CARTESIAN_POINT('',(-0.00409264885662568,-0.0184052200072446,-0.00200000000000002));
#602=CARTESIAN_POINT('',(-0.001247862439462,-0.0185,1.38777878078145E-17));
#603=CARTESIAN_POINT('',(-0.001247862439462,-0.0185,-0.00200000000000002));
#604=CARTESIAN_POINT('',(-1.04083408558608E-17,-0.0185,1.38777878078145E-17));
#605=CARTESIAN_POINT('',(-1.04083408558608E-17,-0.0185,-0.00200000000000002));
#606=CARTESIAN_POINT('',(-0.0227220513638363,-0.0188920851633477,0.));
#607=CARTESIAN_POINT('',(-0.0216890843489485,-0.0184331298733648,0.));
#608=CARTESIAN_POINT('',(-0.0170625445971144,-0.0167088898740099,0.));
#609=CARTESIAN_POINT('',(-0.010634637758629,-0.0181152156436174,0.));
#610=CARTESIAN_POINT('',(-0.00220669170869544,-0.0185,0.));
#611=CARTESIAN_POINT('',(-1.04083408558608E-17,-0.0185,0.));
#612=CARTESIAN_POINT('',(-0.0227220513638363,-0.0188920851633477,0.));
#613=CARTESIAN_POINT('',(-0.0227220513638363,-0.0188920851633477,0.0980630859094311));
#614=CARTESIAN_POINT('',(-0.0227220513638363,-0.0188920851633477,-0.002));
#615=CARTESIAN_POINT('',(-0.0227220513638363,-0.0188920851633477,-0.002));
#616=CARTESIAN_POINT('',(-0.0216890843489485,-0.0184331298733648,-0.002));
#617=CARTESIAN_POINT('',(-0.0170625445971144,-0.0167088898740099,-0.002));
#618=CARTESIAN_POINT('',(-0.010634637758629,-0.0181152156436174,-0.002));
#619=CARTESIAN_POINT('',(-0.00220669170869544,-0.0185,-0.002));
#620=CARTESIAN_POINT('',(-1.04083408558608E-17,-0.0185,-0.002));
#621=CARTESIAN_POINT('',(0.,0.,-0.0336000621318817));
#622=CARTESIAN_POINT('',(0.,0.,0.));
#623=CARTESIAN_POINT('',(-0.0277220513638364,-0.0102318311255033,0.));
#624=CARTESIAN_POINT('',(-0.0277220513638364,-0.0102318311255033,0.0980630859094311));
#625=CARTESIAN_POINT('',(-0.0277220513638364,-0.0102318311255033,-0.002));
#626=CARTESIAN_POINT('',(0.,0.,-0.002));
#627=CARTESIAN_POINT('',(-0.0277220513638364,-0.0102318311255033,0.));
#628=CARTESIAN_POINT('',(-0.0277220513638364,-0.0102318311255033,-0.00199999999999999));
#629=CARTESIAN_POINT('',(-0.0267857959618872,-0.00955050138160914,0.));
#630=CARTESIAN_POINT('',(-0.0267857959618872,-0.00955050138160914,-0.00199999999999999));
#631=CARTESIAN_POINT('',(-0.0250853694033559,-0.00814033326498238,0.));
#632=CARTESIAN_POINT('',(-0.0250853694033559,-0.00814033326498238,-0.00199999999999999));
#633=CARTESIAN_POINT('',(-0.0233458102582564,-0.00591911826408396,0.));
#634=CARTESIAN_POINT('',(-0.0233458102582564,-0.00591911826408396,-0.00199999999999999));
#635=CARTESIAN_POINT('',(-0.0220985251363758,-0.00354942074261834,0.));
#636=CARTESIAN_POINT('',(-0.0220985251363758,-0.00354942074261834,-0.00199999999999999));
#637=CARTESIAN_POINT('',(-0.0210527920437035,-0.00100285592276816,0.));
#638=CARTESIAN_POINT('',(-0.0210527920437035,-0.00100285592276816,-0.00199999999999999));
#639=CARTESIAN_POINT('',(-0.0198493357575527,0.00179703073430875,0.));
#640=CARTESIAN_POINT('',(-0.0198493357575527,0.00179703073430875,-0.00199999999999999));
#641=CARTESIAN_POINT('',(-0.0179857125168283,0.00565827212501513,0.));
#642=CARTESIAN_POINT('',(-0.0179857125168283,0.00565827212501513,-0.00199999999999999));
#643=CARTESIAN_POINT('',(-0.0166454011897431,0.0081693194269975,0.));
#644=CARTESIAN_POINT('',(-0.0166454011897431,0.0081693194269975,-0.00199999999999999));
#645=CARTESIAN_POINT('',(-0.0160214699700121,0.00925,0.));
#646=CARTESIAN_POINT('',(-0.0160214699700121,0.00925,-0.00199999999999999));
#647=CARTESIAN_POINT('',(-0.0160214699700121,0.00925,0.0980630859094311));
#648=CARTESIAN_POINT('',(-0.0160214699700121,0.00925,0.));
#649=CARTESIAN_POINT('',(-0.0160214699700121,0.00925,-0.002));
#650=CARTESIAN_POINT('',(-0.0277220513638364,-0.0102318311255033,-0.002));
#651=CARTESIAN_POINT('',(-0.026808100916066,-0.00956673309433043,-0.002));
#652=CARTESIAN_POINT('',(-0.0230015953984863,-0.00642215213730105,-0.002));
#653=CARTESIAN_POINT('',(-0.0210055558217205,-0.00015225863720921,-0.002));
#654=CARTESIAN_POINT('',(-0.0171248158243598,0.00733894892194928,-0.002));
#655=CARTESIAN_POINT('',(-0.0160214699700121,0.00925,-0.002));
#656=CARTESIAN_POINT('',(-0.0277220513638364,-0.0102318311255033,0.));
#657=CARTESIAN_POINT('',(-0.026808100916066,-0.00956673309433043,0.));
#658=CARTESIAN_POINT('',(-0.0230015953984863,-0.00642215213730105,0.));
#659=CARTESIAN_POINT('',(-0.0210055558217205,-0.00015225863720921,0.));
#660=CARTESIAN_POINT('',(-0.0171248158243598,0.00733894892194928,0.));
#661=CARTESIAN_POINT('',(-0.0160214699700121,0.00925,0.));
#662=CARTESIAN_POINT('',(-0.005,0.029123916288851,0.));
#663=CARTESIAN_POINT('',(-0.005,0.029123916288851,-0.002));
#664=CARTESIAN_POINT('',(-0.00512192116559171,0.0279724304543855,0.));
#665=CARTESIAN_POINT('',(-0.00512192116559171,0.0279724304543855,-0.002));
#666=CARTESIAN_POINT('',(-0.00549294929893166,0.0257947337991142,0.));
#667=CARTESIAN_POINT('',(-0.00549294929893166,0.0257947337991142,-0.002));
#668=CARTESIAN_POINT('',(-0.00654679834442701,0.0231776238876233,0.));
#669=CARTESIAN_POINT('',(-0.00654679834442701,0.0231776238876233,-0.002));
#670=CARTESIAN_POINT('',(-0.007975374036361,0.0209125945255796,0.));
#671=CARTESIAN_POINT('',(-0.007975374036361,0.0209125945255796,-0.002));
#672=CARTESIAN_POINT('',(-0.00965789731639886,0.0187336806918222,0.));
#673=CARTESIAN_POINT('',(-0.00965789731639886,0.0187336806918222,-0.002));
#674=CARTESIAN_POINT('',(-0.0114809421460691,0.0162915136471331,0.));
#675=CARTESIAN_POINT('',(-0.0114809421460691,0.0162915136471331,-0.002));
#676=CARTESIAN_POINT('',(-0.0138930636602026,0.0127469478822295,0.));
#677=CARTESIAN_POINT('',(-0.0138930636602026,0.0127469478822295,-0.002));
#678=CARTESIAN_POINT('',(-0.0153975387502811,0.0103306805730025,0.));
#679=CARTESIAN_POINT('',(-0.0153975387502811,0.0103306805730025,-0.002));
#680=CARTESIAN_POINT('',(-0.0160214699700121,0.00925,0.));
#681=CARTESIAN_POINT('',(-0.0160214699700121,0.00925,-0.002));
#682=CARTESIAN_POINT('',(-0.005,0.029123916288851,0.));
#683=CARTESIAN_POINT('',(-0.00511901656711753,0.0279998629676952,0.));
#684=CARTESIAN_POINT('',(-0.0059390508013719,0.0231310420113109,0.));
#685=CARTESIAN_POINT('',(-0.0103709180630915,0.0182674742808266,0.));
#686=CARTESIAN_POINT('',(-0.0149181241156644,0.0111610510780507,0.));
#687=CARTESIAN_POINT('',(-0.0160214699700121,0.00925,0.));
#688=CARTESIAN_POINT('',(-0.005,0.029123916288851,0.));
#689=CARTESIAN_POINT('',(-0.005,0.029123916288851,0.0980630859094311));
#690=CARTESIAN_POINT('',(-0.005,0.029123916288851,-0.002));
#691=CARTESIAN_POINT('',(-0.005,0.029123916288851,-0.002));
#692=CARTESIAN_POINT('',(-0.00511901656711753,0.0279998629676952,-0.002));
#693=CARTESIAN_POINT('',(-0.0059390508013719,0.0231310420113109,-0.002));
#694=CARTESIAN_POINT('',(-0.0103709180630915,0.0182674742808266,-0.002));
#695=CARTESIAN_POINT('',(-0.0149181241156644,0.0111610510780507,-0.002));
#696=CARTESIAN_POINT('',(-0.0160214699700121,0.00925,-0.002));
#697=CARTESIAN_POINT('',(0.014775,0.,-2.71050543121376E-20));
#698=CARTESIAN_POINT('',(0.0172772068054995,-0.009975,-2.71050543121376E-20));
#699=CARTESIAN_POINT('',(0.0200772068054995,-0.009975,-2.71050543121376E-20));
#700=CARTESIAN_POINT('',(-0.0172772068054995,-0.009975,-2.71050543121376E-20));
#701=CARTESIAN_POINT('',(-0.0144772068054995,-0.009975,-2.71050543121376E-20));
#702=CARTESIAN_POINT('',(0.,0.01995,-2.71050543121376E-20));
#703=CARTESIAN_POINT('',(0.0028,0.01995,-2.71050543121376E-20));
#704=CARTESIAN_POINT('',(-0.0108123271662487,0.0062425,0.));
#705=CARTESIAN_POINT('',(-0.00981232716624872,0.0062425,0.));
#706=CARTESIAN_POINT('',(0.,-0.012485,0.));
#707=CARTESIAN_POINT('',(0.001,-0.012485,0.));
#708=CARTESIAN_POINT('',(0.0108123271662487,0.0062425,0.));
#709=CARTESIAN_POINT('',(0.0118123271662487,0.0062425,0.));
#710=CARTESIAN_POINT('',(0.0277220513638364,-0.0102318311255033,0.));
#711=CARTESIAN_POINT('',(0.026808100916066,-0.00956673309433043,0.));
#712=CARTESIAN_POINT('',(0.0230015953984863,-0.00642215213730105,0.));
#713=CARTESIAN_POINT('',(0.0210055558217205,-0.000152258637209196,0.));
#714=CARTESIAN_POINT('',(0.0171248158243598,0.00733894892194928,0.));
#715=CARTESIAN_POINT('',(0.0160214699700121,0.00925,0.));
#716=CARTESIAN_POINT('',(0.0160214699700121,0.00925,0.));
#717=CARTESIAN_POINT('',(0.005,0.029123916288851,0.));
#718=CARTESIAN_POINT('',(0.00511901656711753,0.0279998629676952,0.));
#719=CARTESIAN_POINT('',(0.0059390508013719,0.0231310420113109,0.));
#720=CARTESIAN_POINT('',(0.0103709180630915,0.0182674742808267,0.));
#721=CARTESIAN_POINT('',(0.0149181241156644,0.0111610510780507,0.));
#722=CARTESIAN_POINT('',(0.0160214699700121,0.00925,0.));
#723=CARTESIAN_POINT('',(0.005,0.029123916288851,0.));
#724=CARTESIAN_POINT('',(0.,0.,0.));
#725=CARTESIAN_POINT('',(0.0222675,0.,-0.002));
#726=CARTESIAN_POINT('',(0.,0.01995,-0.002));
#727=CARTESIAN_POINT('',(-0.0018,0.01995,-0.002));
#728=CARTESIAN_POINT('',(-0.0172772068054995,-0.009975,-0.002));
#729=CARTESIAN_POINT('',(-0.0190772068054995,-0.009975,-0.002));
#730=CARTESIAN_POINT('',(0.0172772068054995,-0.009975,-0.002));
#731=CARTESIAN_POINT('',(0.0154772068054995,-0.009975,-0.002));
#732=CARTESIAN_POINT('',(0.,0.,-0.002));
#733=CARTESIAN_POINT('',(0.014985,0.,-0.002));
#734=CARTESIAN_POINT('',(0.,0.,-0.002));
#735=CARTESIAN_POINT('',(0.005,0.029123916288851,-0.002));
#736=CARTESIAN_POINT('',(0.005,0.029123916288851,-0.002));
#737=CARTESIAN_POINT('',(0.00511901656711753,0.0279998629676952,-0.002));
#738=CARTESIAN_POINT('',(0.0059390508013719,0.0231310420113109,-0.002));
#739=CARTESIAN_POINT('',(0.0103709180630915,0.0182674742808267,-0.002));
#740=CARTESIAN_POINT('',(0.0149181241156644,0.0111610510780507,-0.002));
#741=CARTESIAN_POINT('',(0.0160214699700121,0.00925,-0.002));
#742=CARTESIAN_POINT('',(0.0160214699700121,0.00925,-0.002));
#743=CARTESIAN_POINT('',(0.0277220513638364,-0.0102318311255033,-0.002));
#744=CARTESIAN_POINT('',(0.026808100916066,-0.00956673309433043,-0.002));
#745=CARTESIAN_POINT('',(0.0230015953984863,-0.00642215213730105,-0.002));
#746=CARTESIAN_POINT('',(0.0210055558217205,-0.000152258637209196,-0.002));
#747=CARTESIAN_POINT('',(0.0171248158243598,0.00733894892194928,-0.002));
#748=CARTESIAN_POINT('',(0.0160214699700121,0.00925,-0.002));
#749=CARTESIAN_POINT('',(0.,0.,-0.0336000621318817));
#750=CARTESIAN_POINT('',(0.005,0.029123916288851,0.0980630859094311));
#751=CARTESIAN_POINT('',(0.0049925,0.,-0.055));
#752=CARTESIAN_POINT('',(0.,0.,-0.055));
#753=CARTESIAN_POINT('',(0.009985,0.,-0.055));
#754=CARTESIAN_POINT('',(0.,0.,-0.0336000621318817));
#755=CARTESIAN_POINT('',(0.,0.,-0.005));
#756=CARTESIAN_POINT('',(0.009985,0.,-0.005));
#757=CARTESIAN_POINT('',(0.012485,0.,-0.005));
#758=CARTESIAN_POINT('',(-0.0108123271662487,0.0062425,-0.005));
#759=CARTESIAN_POINT('',(-0.0118123271662487,0.0062425,-0.005));
#760=CARTESIAN_POINT('',(0.,-0.012485,-0.005));
#761=CARTESIAN_POINT('',(-0.001,-0.012485,-0.005));
#762=CARTESIAN_POINT('',(0.0108123271662487,0.0062425,-0.005));
#763=CARTESIAN_POINT('',(0.00981232716624872,0.0062425,-0.005));
#764=CARTESIAN_POINT('',(0.,0.,-0.005));
#765=CARTESIAN_POINT('',(0.014985,0.,-0.005));
#766=CARTESIAN_POINT('',(0.,0.,-0.0336000621318817));
#767=CARTESIAN_POINT('',(0.0172772068054995,-0.009975,-0.100063085909431));
#768=CARTESIAN_POINT('',(0.0172772068054995,-0.009975,-0.001));
#769=CARTESIAN_POINT('',(0.0190772068054995,-0.009975,-0.001));
#770=CARTESIAN_POINT('',(-0.0172772068054995,-0.009975,-0.100063085909431));
#771=CARTESIAN_POINT('',(-0.0172772068054995,-0.009975,-0.001));
#772=CARTESIAN_POINT('',(-0.0154772068054995,-0.009975,-0.001));
#773=CARTESIAN_POINT('',(0.,0.01995,-0.100063085909431));
#774=CARTESIAN_POINT('',(0.,0.01995,-0.001));
#775=CARTESIAN_POINT('',(0.0018,0.01995,-0.001));
#776=CARTESIAN_POINT('',(0.0108123271662487,0.0062425,-0.100063085909431));
#777=CARTESIAN_POINT('',(0.,-0.012485,-0.100063085909431));
#778=CARTESIAN_POINT('',(-0.0108123271662487,0.0062425,-0.100063085909431));
#779=CARTESIAN_POINT('',(0.005,0.029123916288851,0.));
#780=CARTESIAN_POINT('',(0.005,0.029123916288851,-0.00200000000000002));
#781=CARTESIAN_POINT('',(0.00512192116559171,0.0279724304543855,0.));
#782=CARTESIAN_POINT('',(0.00512192116559171,0.0279724304543855,-0.00200000000000002));
#783=CARTESIAN_POINT('',(0.00549294929893166,0.0257947337991142,0.));
#784=CARTESIAN_POINT('',(0.00549294929893166,0.0257947337991142,-0.00200000000000002));
#785=CARTESIAN_POINT('',(0.00654679834442701,0.0231776238876233,0.));
#786=CARTESIAN_POINT('',(0.00654679834442701,0.0231776238876233,-0.00200000000000002));
#787=CARTESIAN_POINT('',(0.007975374036361,0.0209125945255796,0.));
#788=CARTESIAN_POINT('',(0.007975374036361,0.0209125945255796,-0.00200000000000002));
#789=CARTESIAN_POINT('',(0.00965789731639886,0.0187336806918223,0.));
#790=CARTESIAN_POINT('',(0.00965789731639886,0.0187336806918223,-0.00200000000000002));
#791=CARTESIAN_POINT('',(0.0114809421460691,0.0162915136471331,0.));
#792=CARTESIAN_POINT('',(0.0114809421460691,0.0162915136471331,-0.00200000000000002));
#793=CARTESIAN_POINT('',(0.0138930636602026,0.0127469478822295,0.));
#794=CARTESIAN_POINT('',(0.0138930636602026,0.0127469478822295,-0.00200000000000002));
#795=CARTESIAN_POINT('',(0.0153975387502811,0.0103306805730025,0.));
#796=CARTESIAN_POINT('',(0.0153975387502811,0.0103306805730025,-0.00200000000000002));
#797=CARTESIAN_POINT('',(0.0160214699700121,0.00925,0.));
#798=CARTESIAN_POINT('',(0.0160214699700121,0.00925,-0.00200000000000002));
#799=CARTESIAN_POINT('',(0.0160214699700121,0.00925,0.0980630859094311));
#800=CARTESIAN_POINT('',(0.0277220513638364,-0.0102318311255033,0.));
#801=CARTESIAN_POINT('',(0.0277220513638364,-0.0102318311255033,-0.002));
#802=CARTESIAN_POINT('',(0.0267857959618872,-0.00955050138160914,0.));
#803=CARTESIAN_POINT('',(0.0267857959618872,-0.00955050138160914,-0.002));
#804=CARTESIAN_POINT('',(0.0250853694033559,-0.00814033326498238,0.));
#805=CARTESIAN_POINT('',(0.0250853694033559,-0.00814033326498238,-0.002));
#806=CARTESIAN_POINT('',(0.0233458102582564,-0.00591911826408396,0.));
#807=CARTESIAN_POINT('',(0.0233458102582564,-0.00591911826408396,-0.002));
#808=CARTESIAN_POINT('',(0.0220985251363758,-0.00354942074261834,0.));
#809=CARTESIAN_POINT('',(0.0220985251363758,-0.00354942074261834,-0.002));
#810=CARTESIAN_POINT('',(0.0210527920437035,-0.00100285592276815,0.));
#811=CARTESIAN_POINT('',(0.0210527920437035,-0.00100285592276815,-0.002));
#812=CARTESIAN_POINT('',(0.0198493357575527,0.00179703073430875,0.));
#813=CARTESIAN_POINT('',(0.0198493357575527,0.00179703073430875,-0.002));
#814=CARTESIAN_POINT('',(0.0179857125168283,0.00565827212501513,0.));
#815=CARTESIAN_POINT('',(0.0179857125168283,0.00565827212501513,-0.002));
#816=CARTESIAN_POINT('',(0.0166454011897431,0.0081693194269975,0.));
#817=CARTESIAN_POINT('',(0.0166454011897431,0.0081693194269975,-0.002));
#818=CARTESIAN_POINT('',(0.0160214699700121,0.00925,0.));
#819=CARTESIAN_POINT('',(0.0160214699700121,0.00925,-0.002));
#820=CARTESIAN_POINT('',(0.0172772068054995,-0.009975,-0.001));
#821=CARTESIAN_POINT('',(-0.0172772068054995,-0.009975,-0.001));
#822=CARTESIAN_POINT('',(0.,0.01995,-0.001));
#823=MECHANICAL_DESIGN_GEOMETRIC_PRESENTATION_REPRESENTATION('',(#389),
#824);
#824=(
GEOMETRIC_REPRESENTATION_CONTEXT(3)
GLOBAL_UNCERTAINTY_ASSIGNED_CONTEXT((#825))
GLOBAL_UNIT_ASSIGNED_CONTEXT((#828,#827,#826))
REPRESENTATION_CONTEXT('top','TOP_LEVEL_ASSEMBLY_PART')
);
#825=UNCERTAINTY_MEASURE_WITH_UNIT(LENGTH_MEASURE(2.E-5),#828,
'DISTANCE_ACCURACY_VALUE','Maximum Tolerance applied to model');
#826=(
NAMED_UNIT(*)
SI_UNIT($,.STERADIAN.)
SOLID_ANGLE_UNIT()
);
#827=(
NAMED_UNIT(*)
PLANE_ANGLE_UNIT()
SI_UNIT($,.RADIAN.)
);
#828=(
LENGTH_UNIT()
NAMED_UNIT(*)
SI_UNIT($,.METRE.)
);
#829=PRODUCT_DEFINITION_SHAPE('','',#830);
#830=PRODUCT_DEFINITION('','',#832,#831);
#831=PRODUCT_DEFINITION_CONTEXT('',#838,'design');
#832=PRODUCT_DEFINITION_FORMATION_WITH_SPECIFIED_SOURCE('','',#834,
 .NOT_KNOWN.);
#833=PRODUCT_RELATED_PRODUCT_CATEGORY('','',(#834));
#834=PRODUCT('top','top','top',(#836));
#835=PRODUCT_CATEGORY('','');
#836=PRODUCT_CONTEXT('',#838,'mechanical');
#837=APPLICATION_PROTOCOL_DEFINITION('international standard',
'ap242_managed_model_based_3d_engineering',2020,#838);
#838=APPLICATION_CONTEXT('managed model based 3d engineering');
ENDSEC;
END-ISO-10303-21;
