ISO-10303-21;
HEADER;
/* Generated by software containing ST-Developer
 * from STEP Tools, Inc. (www.steptools.com) 
 */
/* OPTION: using custom renumber hook */

FILE_DESCRIPTION(
/* description */ ('STEP AP242 Edition 2',
'CAx-IF Rec.Pracs.---Representation and Presentation of Product Manufa
cturing Information (PMI)---4.0---2014-10-13',
'CAx-IF Rec.Pracs.---3D Tessellated Geometry---0.4---2014-09-14','2;1',
'CAx-IF Rec.Pracs.---User Defined Attributes---1.5---2016-08-15'),
/* implementation_level */ '2;1');

FILE_NAME(
/* name */ 'rim-d24-l18 - rim',
/* time_stamp */ '2026-09-16T14:37:04Z',
/* author */ (''),
/* organization */ (''),
/* preprocessor_version */ 'ST-DEVELOPER v20',
/* originating_system */ 'ONSHAPE BY PTC INC, 1.220',
/* authorisation */ '  ');

FILE_SCHEMA (('AP242_MANAGED_MODEL_BASED_3D_ENGINEERING_MIM_LF { 1 0 10303 442 3 1 4 }'));
ENDSEC;

DATA;
#10=SHAPE_REPRESENTATION_RELATIONSHIP('','',#175,#11);
#11=ADVANCED_BREP_SHAPE_REPRESENTATION('',(#173),#295);
#12=CONICAL_SURFACE('',#192,0.004,0.531724067258805);
#13=CYLINDRICAL_SURFACE('',#181,0.002775);
#14=CYLINDRICAL_SURFACE('',#183,0.002775);
#15=CYLINDRICAL_SURFACE('',#185,0.012);
#16=CYLINDRICAL_SURFACE('',#195,0.00165);
#17=LINE('',#257,#25);
#18=LINE('',#261,#26);
#19=LINE('',#263,#27);
#20=LINE('',#265,#28);
#21=LINE('',#269,#29);
#22=LINE('',#273,#30);
#23=LINE('',#280,#31);
#24=LINE('',#281,#32);
#25=VECTOR('',#206,1.);
#26=VECTOR('',#209,1.);
#27=VECTOR('',#212,1.);
#28=VECTOR('',#213,1.);
#29=VECTOR('',#218,1.);
#30=VECTOR('',#221,1.);
#31=VECTOR('',#230,1.);
#32=VECTOR('',#231,1.);
#33=ORIENTED_EDGE('',*,*,#69,.T.);
#34=ORIENTED_EDGE('',*,*,#70,.T.);
#35=ORIENTED_EDGE('',*,*,#71,.T.);
#36=ORIENTED_EDGE('',*,*,#72,.T.);
#37=ORIENTED_EDGE('',*,*,#73,.F.);
#38=ORIENTED_EDGE('',*,*,#74,.F.);
#39=ORIENTED_EDGE('',*,*,#70,.F.);
#40=ORIENTED_EDGE('',*,*,#75,.T.);
#41=ORIENTED_EDGE('',*,*,#76,.T.);
#42=ORIENTED_EDGE('',*,*,#72,.F.);
#43=ORIENTED_EDGE('',*,*,#77,.T.);
#44=ORIENTED_EDGE('',*,*,#78,.T.);
#45=ORIENTED_EDGE('',*,*,#79,.F.);
#46=ORIENTED_EDGE('',*,*,#80,.F.);
#47=ORIENTED_EDGE('',*,*,#81,.T.);
#48=ORIENTED_EDGE('',*,*,#78,.F.);
#49=ORIENTED_EDGE('',*,*,#82,.F.);
#50=ORIENTED_EDGE('',*,*,#76,.F.);
#51=ORIENTED_EDGE('',*,*,#83,.T.);
#52=ORIENTED_EDGE('',*,*,#80,.T.);
#53=ORIENTED_EDGE('',*,*,#84,.F.);
#54=ORIENTED_EDGE('',*,*,#85,.F.);
#55=ORIENTED_EDGE('',*,*,#86,.F.);
#56=ORIENTED_EDGE('',*,*,#85,.T.);
#57=ORIENTED_EDGE('',*,*,#81,.F.);
#58=ORIENTED_EDGE('',*,*,#86,.T.);
#59=ORIENTED_EDGE('',*,*,#84,.T.);
#60=ORIENTED_EDGE('',*,*,#69,.F.);
#61=ORIENTED_EDGE('',*,*,#75,.F.);
#62=ORIENTED_EDGE('',*,*,#73,.T.);
#63=ORIENTED_EDGE('',*,*,#79,.T.);
#64=ORIENTED_EDGE('',*,*,#83,.F.);
#65=ORIENTED_EDGE('',*,*,#71,.F.);
#66=ORIENTED_EDGE('',*,*,#74,.T.);
#67=ORIENTED_EDGE('',*,*,#82,.T.);
#68=ORIENTED_EDGE('',*,*,#77,.F.);
#69=EDGE_CURVE('',#87,#87,#101,.T.);
#70=EDGE_CURVE('',#88,#89,#102,.T.);
#71=EDGE_CURVE('',#89,#90,#17,.T.);
#72=EDGE_CURVE('',#90,#91,#103,.T.);
#73=EDGE_CURVE('',#88,#91,#18,.T.);
#74=EDGE_CURVE('',#89,#92,#19,.T.);
#75=EDGE_CURVE('',#88,#93,#20,.T.);
#76=EDGE_CURVE('',#93,#92,#104,.T.);
#77=EDGE_CURVE('',#90,#94,#21,.T.);
#78=EDGE_CURVE('',#94,#95,#105,.T.);
#79=EDGE_CURVE('',#91,#95,#22,.T.);
#80=EDGE_CURVE('',#96,#96,#106,.T.);
#81=EDGE_CURVE('',#97,#97,#107,.T.);
#82=EDGE_CURVE('',#92,#94,#23,.T.);
#83=EDGE_CURVE('',#93,#95,#24,.T.);
#84=EDGE_CURVE('',#98,#98,#108,.T.);
#85=EDGE_CURVE('',#99,#99,#109,.T.);
#86=EDGE_CURVE('',#100,#100,#110,.T.);
#87=VERTEX_POINT('',#253);
#88=VERTEX_POINT('',#255);
#89=VERTEX_POINT('',#256);
#90=VERTEX_POINT('',#258);
#91=VERTEX_POINT('',#260);
#92=VERTEX_POINT('',#264);
#93=VERTEX_POINT('',#266);
#94=VERTEX_POINT('',#270);
#95=VERTEX_POINT('',#272);
#96=VERTEX_POINT('',#276);
#97=VERTEX_POINT('',#278);
#98=VERTEX_POINT('',#284);
#99=VERTEX_POINT('',#286);
#100=VERTEX_POINT('',#289);
#101=CIRCLE('',#178,0.00165);
#102=CIRCLE('',#179,0.002775);
#103=CIRCLE('',#180,0.002775);
#104=CIRCLE('',#182,0.002775);
#105=CIRCLE('',#184,0.002775);
#106=CIRCLE('',#186,0.012);
#107=CIRCLE('',#187,0.012);
#108=CIRCLE('',#190,0.00165);
#109=CIRCLE('',#191,0.004);
#110=CIRCLE('',#193,0.01);
#111=EDGE_LOOP('',(#33));
#112=EDGE_LOOP('',(#34,#35,#36,#37));
#113=EDGE_LOOP('',(#38,#39,#40,#41));
#114=EDGE_LOOP('',(#42,#43,#44,#45));
#115=EDGE_LOOP('',(#46));
#116=EDGE_LOOP('',(#47));
#117=EDGE_LOOP('',(#48,#49,#50,#51));
#118=EDGE_LOOP('',(#52));
#119=EDGE_LOOP('',(#53));
#120=EDGE_LOOP('',(#54));
#121=EDGE_LOOP('',(#55));
#122=EDGE_LOOP('',(#56));
#123=EDGE_LOOP('',(#57));
#124=EDGE_LOOP('',(#58));
#125=EDGE_LOOP('',(#59));
#126=EDGE_LOOP('',(#60));
#127=EDGE_LOOP('',(#61,#62,#63,#64));
#128=EDGE_LOOP('',(#65,#66,#67,#68));
#129=FACE_BOUND('',#111,.T.);
#130=FACE_BOUND('',#112,.T.);
#131=FACE_BOUND('',#113,.T.);
#132=FACE_BOUND('',#114,.T.);
#133=FACE_BOUND('',#115,.T.);
#134=FACE_BOUND('',#116,.T.);
#135=FACE_BOUND('',#117,.T.);
#136=FACE_BOUND('',#118,.T.);
#137=FACE_BOUND('',#119,.T.);
#138=FACE_BOUND('',#120,.T.);
#139=FACE_BOUND('',#121,.T.);
#140=FACE_BOUND('',#122,.T.);
#141=FACE_BOUND('',#123,.T.);
#142=FACE_BOUND('',#124,.T.);
#143=FACE_BOUND('',#125,.T.);
#144=FACE_BOUND('',#126,.T.);
#145=FACE_BOUND('',#127,.T.);
#146=FACE_BOUND('',#128,.T.);
#147=PLANE('',#177);
#148=PLANE('',#188);
#149=PLANE('',#189);
#150=PLANE('',#194);
#151=PLANE('',#196);
#152=PLANE('',#197);
#153=ADVANCED_FACE('',(#129,#130),#147,.F.);
#154=ADVANCED_FACE('',(#131),#13,.F.);
#155=ADVANCED_FACE('',(#132),#14,.F.);
#156=ADVANCED_FACE('',(#133,#134),#15,.T.);
#157=ADVANCED_FACE('',(#135,#136),#148,.F.);
#158=ADVANCED_FACE('',(#137,#138),#149,.F.);
#159=ADVANCED_FACE('',(#139,#140),#12,.F.);
#160=ADVANCED_FACE('',(#141,#142),#150,.F.);
#161=ADVANCED_FACE('',(#143,#144),#16,.F.);
#162=ADVANCED_FACE('',(#145),#151,.T.);
#163=ADVANCED_FACE('',(#146),#152,.F.);
#164=CLOSED_SHELL('',(#153,#154,#155,#156,#157,#158,#159,#160,#161,#162,
#163));
#165=STYLED_ITEM('',(#166),#173);
#166=PRESENTATION_STYLE_ASSIGNMENT((#167));
#167=SURFACE_STYLE_USAGE(.BOTH.,#168);
#168=SURFACE_SIDE_STYLE('',(#169));
#169=SURFACE_STYLE_FILL_AREA(#170);
#170=FILL_AREA_STYLE('',(#171));
#171=FILL_AREA_STYLE_COLOUR('',#172);
#172=COLOUR_RGB('',0.513725490196078,0.737254901960784,0.407843137254902);
#173=MANIFOLD_SOLID_BREP('rim',#164);
#174=SHAPE_DEFINITION_REPRESENTATION(#300,#175);
#175=SHAPE_REPRESENTATION('rim',(#176),#295);
#176=AXIS2_PLACEMENT_3D('',#250,#198,#199);
#177=AXIS2_PLACEMENT_3D('',#251,#200,#201);
#178=AXIS2_PLACEMENT_3D('',#252,#202,#203);
#179=AXIS2_PLACEMENT_3D('',#254,#204,#205);
#180=AXIS2_PLACEMENT_3D('',#259,#207,#208);
#181=AXIS2_PLACEMENT_3D('',#262,#210,#211);
#182=AXIS2_PLACEMENT_3D('',#267,#214,#215);
#183=AXIS2_PLACEMENT_3D('',#268,#216,#217);
#184=AXIS2_PLACEMENT_3D('',#271,#219,#220);
#185=AXIS2_PLACEMENT_3D('',#274,#222,#223);
#186=AXIS2_PLACEMENT_3D('',#275,#224,#225);
#187=AXIS2_PLACEMENT_3D('',#277,#226,#227);
#188=AXIS2_PLACEMENT_3D('',#279,#228,#229);
#189=AXIS2_PLACEMENT_3D('',#282,#232,#233);
#190=AXIS2_PLACEMENT_3D('',#283,#234,#235);
#191=AXIS2_PLACEMENT_3D('',#285,#236,#237);
#192=AXIS2_PLACEMENT_3D('',#287,#238,#239);
#193=AXIS2_PLACEMENT_3D('',#288,#240,#241);
#194=AXIS2_PLACEMENT_3D('',#290,#242,#243);
#195=AXIS2_PLACEMENT_3D('',#291,#244,#245);
#196=AXIS2_PLACEMENT_3D('',#292,#246,#247);
#197=AXIS2_PLACEMENT_3D('',#293,#248,#249);
#198=DIRECTION('',(0.,0.,1.));
#199=DIRECTION('',(1.,0.,0.));
#200=DIRECTION('',(1.,0.,0.));
#201=DIRECTION('',(0.,0.,-1.));
#202=DIRECTION('',(1.,0.,0.));
#203=DIRECTION('',(0.,0.,-1.));
#204=DIRECTION('',(-1.,0.,0.));
#205=DIRECTION('',(0.,0.,1.));
#206=DIRECTION('',(0.,1.,0.));
#207=DIRECTION('',(-1.,0.,0.));
#208=DIRECTION('',(0.,0.,1.));
#209=DIRECTION('',(0.,1.,2.39073295476058E-16));
#210=DIRECTION('',(-1.,0.,0.));
#211=DIRECTION('',(0.,0.,1.));
#212=DIRECTION('',(-1.,0.,0.));
#213=DIRECTION('',(-1.,0.,0.));
#214=DIRECTION('',(-1.,0.,0.));
#215=DIRECTION('',(0.,0.,1.));
#216=DIRECTION('',(-1.,0.,0.));
#217=DIRECTION('',(0.,0.,1.));
#218=DIRECTION('',(-1.,0.,0.));
#219=DIRECTION('',(-1.,0.,0.));
#220=DIRECTION('',(0.,0.,1.));
#221=DIRECTION('',(-1.,0.,0.));
#222=DIRECTION('',(-1.,0.,0.));
#223=DIRECTION('',(0.,0.,1.));
#224=DIRECTION('',(-1.,0.,0.));
#225=DIRECTION('',(0.,0.,1.));
#226=DIRECTION('',(-1.,0.,0.));
#227=DIRECTION('',(0.,0.,1.));
#228=DIRECTION('',(1.,0.,0.));
#229=DIRECTION('',(0.,0.,-1.));
#230=DIRECTION('',(0.,1.,0.));
#231=DIRECTION('',(0.,1.,2.39073295476058E-16));
#232=DIRECTION('',(-1.,0.,0.));
#233=DIRECTION('',(0.,0.,1.));
#234=DIRECTION('',(1.,0.,0.));
#235=DIRECTION('',(0.,0.,-1.));
#236=DIRECTION('',(-1.,0.,0.));
#237=DIRECTION('',(0.,0.,1.));
#238=DIRECTION('',(1.,0.,0.));
#239=DIRECTION('',(0.,0.,-1.));
#240=DIRECTION('',(-1.,0.,0.));
#241=DIRECTION('',(0.,0.,1.));
#242=DIRECTION('',(-1.,0.,0.));
#243=DIRECTION('',(0.,0.,1.));
#244=DIRECTION('',(1.,0.,0.));
#245=DIRECTION('',(0.,0.,-1.));
#246=DIRECTION('',(0.,-2.39073295476058E-16,1.));
#247=DIRECTION('',(0.,-1.,-2.39073295476058E-16));
#248=DIRECTION('',(0.,0.,1.));
#249=DIRECTION('',(1.,0.,0.));
#250=CARTESIAN_POINT('',(0.,0.,0.));
#251=CARTESIAN_POINT('',(0.008,0.,0.0013875));
#252=CARTESIAN_POINT('',(0.008,0.,1.01033360929657E-19));
#253=CARTESIAN_POINT('',(0.008,0.,-0.00165));
#254=CARTESIAN_POINT('',(0.008,0.,0.));
#255=CARTESIAN_POINT('',(0.008,-0.00181400799336718,-0.0021));
#256=CARTESIAN_POINT('',(0.008,-0.00181400799336717,0.0021));
#257=CARTESIAN_POINT('',(0.008,0.,0.0021));
#258=CARTESIAN_POINT('',(0.008,0.00181400799336718,0.0021));
#259=CARTESIAN_POINT('',(0.008,0.,0.));
#260=CARTESIAN_POINT('',(0.008,0.00181400799336718,-0.0021));
#261=CARTESIAN_POINT('',(0.008,2.16840434497101E-19,-0.0021));
#262=CARTESIAN_POINT('',(0.00772508427337001,0.,0.));
#263=CARTESIAN_POINT('',(0.008002,-0.00181400799336717,0.0021));
#264=CARTESIAN_POINT('',(0.0022,-0.00181400799336717,0.0021));
#265=CARTESIAN_POINT('',(0.008002,-0.00181400799336718,-0.0021));
#266=CARTESIAN_POINT('',(0.0022,-0.00181400799336718,-0.0021));
#267=CARTESIAN_POINT('',(0.0022,0.,0.));
#268=CARTESIAN_POINT('',(0.00772508427337001,0.,0.));
#269=CARTESIAN_POINT('',(0.008002,0.00181400799336718,0.0021));
#270=CARTESIAN_POINT('',(0.0022,0.00181400799336718,0.0021));
#271=CARTESIAN_POINT('',(0.0022,0.,0.));
#272=CARTESIAN_POINT('',(0.0022,0.00181400799336718,-0.0021));
#273=CARTESIAN_POINT('',(0.008002,0.00181400799336718,-0.0021));
#274=CARTESIAN_POINT('',(0.00772508427337001,0.,0.));
#275=CARTESIAN_POINT('',(0.0022,0.,0.));
#276=CARTESIAN_POINT('',(0.0022,0.,0.012));
#277=CARTESIAN_POINT('',(0.0202,0.,0.));
#278=CARTESIAN_POINT('',(0.0202,0.,0.012));
#279=CARTESIAN_POINT('',(0.0022,0.,0.0073875));
#280=CARTESIAN_POINT('',(0.0022,0.,0.0021));
#281=CARTESIAN_POINT('',(0.0022,2.16840434497101E-19,-0.0021));
#282=CARTESIAN_POINT('',(0.01,0.,0.002));
#283=CARTESIAN_POINT('',(0.01,0.,1.01033360929657E-19));
#284=CARTESIAN_POINT('',(0.01,0.,-0.00165));
#285=CARTESIAN_POINT('',(0.01,0.,0.));
#286=CARTESIAN_POINT('',(0.01,0.,0.004));
#287=CARTESIAN_POINT('',(0.01,0.,0.));
#288=CARTESIAN_POINT('',(0.0202,0.,0.));
#289=CARTESIAN_POINT('',(0.0202,0.,0.01));
#290=CARTESIAN_POINT('',(0.0202,0.,0.011));
#291=CARTESIAN_POINT('',(-0.0284287454245971,0.,1.01033360929657E-19));
#292=CARTESIAN_POINT('',(0.008002,2.16840434497101E-19,-0.0021));
#293=CARTESIAN_POINT('',(0.008002,0.,0.0021));
#294=MECHANICAL_DESIGN_GEOMETRIC_PRESENTATION_REPRESENTATION('',(#165),
#295);
#295=(
GEOMETRIC_REPRESENTATION_CONTEXT(3)
GLOBAL_UNCERTAINTY_ASSIGNED_CONTEXT((#296))
GLOBAL_UNIT_ASSIGNED_CONTEXT((#299,#298,#297))
REPRESENTATION_CONTEXT('rim','TOP_LEVEL_ASSEMBLY_PART')
);
#296=UNCERTAINTY_MEASURE_WITH_UNIT(LENGTH_MEASURE(1.E-8),#299,
'DISTANCE_ACCURACY_VALUE','Maximum Tolerance applied to model');
#297=(
NAMED_UNIT(*)
SI_UNIT($,.STERADIAN.)
SOLID_ANGLE_UNIT()
);
#298=(
NAMED_UNIT(*)
PLANE_ANGLE_UNIT()
SI_UNIT($,.RADIAN.)
);
#299=(
LENGTH_UNIT()
NAMED_UNIT(*)
SI_UNIT($,.METRE.)
);
#300=PRODUCT_DEFINITION_SHAPE('','',#301);
#301=PRODUCT_DEFINITION('','',#303,#302);
#302=PRODUCT_DEFINITION_CONTEXT('',#309,'design');
#303=PRODUCT_DEFINITION_FORMATION_WITH_SPECIFIED_SOURCE('','',#305,
 .NOT_KNOWN.);
#304=PRODUCT_RELATED_PRODUCT_CATEGORY('','',(#305));
#305=PRODUCT('rim','rim','rim',(#307));
#306=PRODUCT_CATEGORY('','');
#307=PRODUCT_CONTEXT('',#309,'mechanical');
#308=APPLICATION_PROTOCOL_DEFINITION('international standard',
'ap242_managed_model_based_3d_engineering',2020,#309);
#309=APPLICATION_CONTEXT('managed model based 3d engineering');
ENDSEC;
END-ISO-10303-21;
